<svg xmlns="http://www.w3.org/2000/svg" width="1200" height="720" viewBox="0 0 1200 720">
<rect width="1200" height="720" fill="#fbfaf7"/>
<rect x="70" y="135" width="750" height="450" rx="18" fill="#fffefb" stroke="#c9c2b8" stroke-width="2"/>
<text x="70" y="70" font-size="34" font-family="PingFang SC, Arial" fill="#1f2933">案例48｜昊志机电 300503</text>
<text x="850" y="70" font-size="34" font-family="PingFang SC, Arial" fill="#0f8a4b">85/100  标准</text>
<text x="620" y="200" font-size="18" font-family="PingFang SC, Arial" fill="#6d28d9">前高/压力线</text>
<rect x="282" y="324" width="386" height="84" fill="none" stroke="#2563eb" stroke-width="3"/>
<text x="90" y="162" font-size="13" font-family="PingFang SC, Arial" fill="#4b5563" font-weight="bold">均线</text>
<line x1="125" y1="159" x2="145" y2="159" stroke="#f59e0b" stroke-width="3"/>
<text x="149" y="162" font-size="12" font-family="PingFang SC, Arial" fill="#f59e0b">MA5</text>
<line x1="183" y1="159" x2="203" y2="159" stroke="#8b5cf6" stroke-width="3" stroke-dasharray="6,4"/>
<text x="207" y="162" font-size="12" font-family="PingFang SC, Arial" fill="#8b5cf6">MA10</text>
<line x1="241" y1="159" x2="261" y2="159" stroke="#10b981" stroke-width="3"/>
<text x="265" y="162" font-size="12" font-family="PingFang SC, Arial" fill="#10b981">MA20</text>
<line x1="299" y1="159" x2="319" y2="159" stroke="#f97316" stroke-width="3"/>
<text x="323" y="162" font-size="12" font-family="PingFang SC, Arial" fill="#f97316">MA30</text>
<line x1="357" y1="159" x2="377" y2="159" stroke="#ef4444" stroke-width="3"/>
<text x="381" y="162" font-size="12" font-family="PingFang SC, Arial" fill="#ef4444">MA60</text>
<line x1="415" y1="159" x2="435" y2="159" stroke="#6b7280" stroke-width="3"/>
<text x="439" y="162" font-size="12" font-family="PingFang SC, Arial" fill="#6b7280">MA120</text>
<polyline points="115,480 163,476 211,465 259,443 307,429 355,410 403,386 451,371 499,362 547,347 595,343 643,331 691,302 739,286" fill="none" stroke="#f59e0b" stroke-width="2.5"/>
<polyline points="115,497 163,492 211,485 259,470 307,459 355,446 403,431 451,418 499,403 547,387 595,376 643,359 691,337 739,324" fill="none" stroke="#8b5cf6" stroke-width="2.5" stroke-dasharray="8,4"/>
<polyline points="115,472 163,477 211,481 259,481 307,478 355,474 403,469 451,462 499,454 547,446 595,437 643,426 691,410 739,397" fill="none" stroke="#10b981" stroke-width="2.5"/>
<polyline points="115,439 163,444 211,448 259,448 307,448 355,448 403,446 451,444 499,443 547,441 595,440 643,438 691,432 739,428" fill="none" stroke="#f97316" stroke-width="2.5"/>
<polyline points="115,401 163,401 211,401 259,401 307,402 355,401 403,401 451,402 499,402 547,402 595,401 643,399 691,397 739,395" fill="none" stroke="#ef4444" stroke-width="2.5"/>
<polyline points="115,452 163,452 211,452 259,451 307,450 355,450 403,449 451,449 499,448 547,447 595,446 643,443 691,440 739,438" fill="none" stroke="#6b7280" stroke-width="2.5"/>
<line x1="110" y1="254" x2="780" y2="254" stroke="#7c3aed" stroke-width="2" stroke-dasharray="8,4"/>
<text x="630" y="244" font-size="15" font-family="PingFang SC, Arial" fill="#6d28d9">前高压力线</text>
<rect x="292" y="353" width="270" height="113" fill="none" stroke="#2563eb" stroke-width="3"/>
<text x="292" y="341" font-size="15" font-family="PingFang SC, Arial" fill="#1d4ed8">高位窄箱体</text>
<line x1="115" y1="453" x2="115" y2="472" stroke="#2f9e67" stroke-width="3"/>
<rect x="104" y="455" width="22" height="16" fill="#2f9e67"/>
<line x1="163" y1="447" x2="163" y2="475" stroke="#d74b42" stroke-width="3"/>
<rect x="152" y="449" width="22" height="23" fill="#d74b42"/>
<line x1="211" y1="432" x2="211" y2="478" stroke="#2f9e67" stroke-width="3"/>
<rect x="200" y="441" width="22" height="31" fill="#2f9e67"/>
<line x1="259" y1="370" x2="259" y2="449" stroke="#2f9e67" stroke-width="3"/>
<rect x="248" y="380" width="22" height="63" fill="#2f9e67"/>
<line x1="307" y1="368" x2="307" y2="403" stroke="#d74b42" stroke-width="3"/>
<rect x="296" y="372" width="22" height="24" fill="#d74b42"/>
<line x1="355" y1="361" x2="355" y2="400" stroke="#2f9e67" stroke-width="3"/>
<rect x="344" y="365" width="22" height="32" fill="#2f9e67"/>
<line x1="403" y1="347" x2="403" y2="367" stroke="#2f9e67" stroke-width="3"/>
<rect x="392" y="349" width="22" height="16" fill="#2f9e67"/>
<line x1="451" y1="338" x2="451" y2="374" stroke="#d74b42" stroke-width="3"/>
<rect x="440" y="342" width="22" height="24" fill="#d74b42"/>
<line x1="499" y1="330" x2="499" y2="370" stroke="#2f9e67" stroke-width="3"/>
<rect x="488" y="335" width="22" height="32" fill="#2f9e67"/>
<line x1="547" y1="316" x2="547" y2="336" stroke="#2f9e67" stroke-width="3"/>
<rect x="536" y="318" width="22" height="17" fill="#2f9e67"/>
<line x1="595" y1="299" x2="595" y2="359" stroke="#d74b42" stroke-width="3"/>
<rect x="584" y="306" width="22" height="41" fill="#d74b42"/>
<line x1="643" y1="282" x2="643" y2="354" stroke="#2f9e67" stroke-width="3"/>
<rect x="632" y="291" width="22" height="58" fill="#2f9e67"/>
<line x1="691" y1="205" x2="691" y2="300" stroke="#2f9e67" stroke-width="3"/>
<rect x="680" y="216" width="22" height="77" fill="#2f9e67"/>
<line x1="739" y1="195" x2="739" y2="268" stroke="#d74b42" stroke-width="3"/>
<rect x="728" y="200" width="22" height="59" fill="#d74b42"/>
<rect x="103" y="550" width="24" height="10" fill="#6abf88"/>
<rect x="151" y="545" width="24" height="15" fill="#d74b42"/>
<rect x="199" y="540" width="24" height="20" fill="#6abf88"/>
<rect x="247" y="520" width="24" height="40" fill="#6abf88"/>
<rect x="295" y="545" width="24" height="15" fill="#d74b42"/>
<rect x="343" y="540" width="24" height="20" fill="#6abf88"/>
<rect x="391" y="550" width="24" height="10" fill="#6abf88"/>
<rect x="439" y="545" width="24" height="15" fill="#d74b42"/>
<rect x="487" y="540" width="24" height="20" fill="#6abf88"/>
<rect x="535" y="550" width="24" height="10" fill="#6abf88"/>
<rect x="583" y="535" width="24" height="25" fill="#d74b42"/>
<rect x="631" y="525" width="24" height="35" fill="#6abf88"/>
<rect x="679" y="515" width="24" height="45" fill="#6abf88"/>
<rect x="727" y="525" width="24" height="35" fill="#d74b42"/>
<text x="90" y="578" font-size="15" font-family="PingFang SC, Arial" fill="#6b7280">量能区</text>
<rect x="850" y="135" width="280" height="450" rx="16" fill="#ffffff" stroke="#d0c7bc"/>
<text x="875" y="178" font-size="24" font-family="PingFang SC, Arial" fill="#111827">点评</text>
<text x="875" y="220" font-size="18" font-family="PingFang SC, Arial" fill="#374151">同昊志机电标准样本</text>
<text x="875" y="258" font-size="18" font-family="PingFang SC, Arial" fill="#374151">低吸试错：70-71</text>
<text x="875" y="296" font-size="18" font-family="PingFang SC, Arial" fill="#374151">突破确认：过74-75</text>
<text x="875" y="655" font-size="18" font-family="PingFang SC, Arial" fill="#7c746b">教学重绘图：不复刻原截图</text>
</svg>
