<svg xmlns="http://www.w3.org/2000/svg" width="1200" height="720" viewBox="0 0 1200 720">
<rect width="1200" height="720" fill="#fbfaf7"/>
<rect x="70" y="135" width="750" height="450" rx="18" fill="#fffefb" stroke="#c9c2b8" stroke-width="2"/>
<text x="70" y="70" font-size="34" font-family="PingFang SC, Arial" fill="#1f2933">案例29｜生益科技 600183</text>
<text x="850" y="70" font-size="34" font-family="PingFang SC, Arial" fill="#b7791f">60/100  勉强</text>
<text x="90" y="162" font-size="13" font-family="PingFang SC, Arial" fill="#4b5563" font-weight="bold">均线</text>
<line x1="125" y1="159" x2="145" y2="159" stroke="#f59e0b" stroke-width="3"/>
<text x="149" y="162" font-size="12" font-family="PingFang SC, Arial" fill="#f59e0b">MA5</text>
<line x1="183" y1="159" x2="203" y2="159" stroke="#8b5cf6" stroke-width="3" stroke-dasharray="6,4"/>
<text x="207" y="162" font-size="12" font-family="PingFang SC, Arial" fill="#8b5cf6">MA10</text>
<line x1="241" y1="159" x2="261" y2="159" stroke="#10b981" stroke-width="3"/>
<text x="265" y="162" font-size="12" font-family="PingFang SC, Arial" fill="#10b981">MA20</text>
<line x1="299" y1="159" x2="319" y2="159" stroke="#f97316" stroke-width="3"/>
<text x="323" y="162" font-size="12" font-family="PingFang SC, Arial" fill="#f97316">MA30</text>
<line x1="357" y1="159" x2="377" y2="159" stroke="#ef4444" stroke-width="3"/>
<text x="381" y="162" font-size="12" font-family="PingFang SC, Arial" fill="#ef4444">MA60</text>
<line x1="415" y1="159" x2="435" y2="159" stroke="#6b7280" stroke-width="3"/>
<text x="439" y="162" font-size="12" font-family="PingFang SC, Arial" fill="#6b7280">MA120</text>
<polyline points="115,488 163,488 211,483 259,461 307,445 355,426 403,399 451,383 499,373 547,357 595,354 643,341 691,309 739,293" fill="none" stroke="#f59e0b" stroke-width="2.5"/>
<polyline points="115,492 163,495 211,493 259,485 307,472 355,457 403,444 451,434 499,417 547,402 595,389 643,371 691,347 739,333" fill="none" stroke="#8b5cf6" stroke-width="2.5" stroke-dasharray="8,4"/>
<polyline points="115,469 163,471 211,471 259,469 307,468 355,465 403,459 451,457 499,452 547,445 595,441 643,433 691,420 739,409" fill="none" stroke="#10b981" stroke-width="2.5"/>
<polyline points="115,464 163,468 211,471 259,471 307,469 355,466 403,462 451,458 499,454 547,447 595,443 643,437 691,430 739,424" fill="none" stroke="#f97316" stroke-width="2.5"/>
<polyline points="115,385 163,388 211,390 259,393 307,395 355,397 403,399 451,400 499,402 547,403 595,404 643,404 691,402 739,402" fill="none" stroke="#ef4444" stroke-width="2.5"/>
<polyline points="115,252 163,257 211,259 259,262 307,266 355,269 403,272 451,275 499,276 547,279 595,282 643,283 691,286 739,288" fill="none" stroke="#6b7280" stroke-width="2.5"/>
<rect x="289" y="319" width="276" height="104" fill="none" stroke="#2563eb" stroke-width="3"/>
<text x="289" y="307" font-size="15" font-family="PingFang SC, Arial" fill="#1d4ed8">高位窄箱体</text>
<line x1="110" y1="358" x2="780" y2="358" stroke="#7c3aed" stroke-width="2" stroke-dasharray="8,4"/>
<text x="630" y="348" font-size="15" font-family="PingFang SC, Arial" fill="#6d28d9">前高压力线</text>
<line x1="115" y1="471" x2="115" y2="491" stroke="#e83c3c" stroke-width="3"/>
<rect x="104" y="474" width="22" height="16" fill="#e83c3c"/>
<line x1="163" y1="465" x2="163" y2="495" stroke="#20b86e" stroke-width="3"/>
<rect x="152" y="467" width="22" height="25" fill="#20b86e"/>
<line x1="211" y1="448" x2="211" y2="497" stroke="#e83c3c" stroke-width="3"/>
<rect x="200" y="458" width="22" height="33" fill="#e83c3c"/>
<line x1="259" y1="383" x2="259" y2="467" stroke="#e83c3c" stroke-width="3"/>
<rect x="248" y="393" width="22" height="68" fill="#e83c3c"/>
<line x1="307" y1="380" x2="307" y2="418" stroke="#20b86e" stroke-width="3"/>
<rect x="296" y="385" width="22" height="25" fill="#20b86e"/>
<line x1="355" y1="371" x2="355" y2="414" stroke="#e83c3c" stroke-width="3"/>
<rect x="344" y="376" width="22" height="34" fill="#e83c3c"/>
<line x1="403" y1="357" x2="403" y2="378" stroke="#e83c3c" stroke-width="3"/>
<rect x="392" y="359" width="22" height="18" fill="#e83c3c"/>
<line x1="451" y1="347" x2="451" y2="385" stroke="#20b86e" stroke-width="3"/>
<rect x="440" y="352" width="22" height="26" fill="#20b86e"/>
<line x1="499" y1="339" x2="499" y2="382" stroke="#e83c3c" stroke-width="3"/>
<rect x="488" y="344" width="22" height="35" fill="#e83c3c"/>
<line x1="547" y1="324" x2="547" y2="346" stroke="#e83c3c" stroke-width="3"/>
<rect x="536" y="327" width="22" height="17" fill="#e83c3c"/>
<line x1="595" y1="307" x2="595" y2="371" stroke="#20b86e" stroke-width="3"/>
<rect x="584" y="315" width="22" height="43" fill="#20b86e"/>
<line x1="643" y1="288" x2="643" y2="365" stroke="#e83c3c" stroke-width="3"/>
<rect x="632" y="297" width="22" height="62" fill="#e83c3c"/>
<line x1="691" y1="206" x2="691" y2="308" stroke="#e83c3c" stroke-width="3"/>
<rect x="680" y="219" width="22" height="81" fill="#e83c3c"/>
<line x1="739" y1="195" x2="739" y2="273" stroke="#20b86e" stroke-width="3"/>
<rect x="728" y="201" width="22" height="63" fill="#20b86e"/>
<rect x="103" y="550" width="24" height="10" fill="#e83c3c"/>
<rect x="151" y="545" width="24" height="15" fill="#20b86e"/>
<rect x="199" y="540" width="24" height="20" fill="#e83c3c"/>
<rect x="247" y="520" width="24" height="40" fill="#e83c3c"/>
<rect x="295" y="545" width="24" height="15" fill="#20b86e"/>
<rect x="343" y="540" width="24" height="20" fill="#e83c3c"/>
<rect x="391" y="550" width="24" height="10" fill="#e83c3c"/>
<rect x="439" y="545" width="24" height="15" fill="#20b86e"/>
<rect x="487" y="540" width="24" height="20" fill="#e83c3c"/>
<rect x="535" y="550" width="24" height="10" fill="#e83c3c"/>
<rect x="583" y="535" width="24" height="25" fill="#20b86e"/>
<rect x="631" y="525" width="24" height="35" fill="#e83c3c"/>
<rect x="679" y="515" width="24" height="45" fill="#e83c3c"/>
<rect x="727" y="525" width="24" height="35" fill="#20b86e"/>
<text x="90" y="578" font-size="15" font-family="PingFang SC, Arial" fill="#6b7280">量能区</text>
<rect x="850" y="135" width="280" height="450" rx="16" fill="#ffffff" stroke="#d0c7bc"/>
<text x="875" y="178" font-size="24" font-family="PingFang SC, Arial" fill="#111827">点评</text>
<text x="875" y="220" font-size="18" font-family="PingFang SC, Arial" fill="#374151">趋势强但位置偏高</text>
<text x="875" y="262" font-size="18" font-family="PingFang SC, Arial" fill="#4b5563">• 均线多头</text>
<text x="875" y="296" font-size="18" font-family="PingFang SC, Arial" fill="#4b5563">• 沿5日线</text>
<text x="875" y="330" font-size="18" font-family="PingFang SC, Arial" fill="#4b5563">• 风险：高位加速</text>
<text x="875" y="655" font-size="18" font-family="PingFang SC, Arial" fill="#7c746b">教学示意图：重绘，不复刻原截图</text>
</svg>
