<svg xmlns="http://www.w3.org/2000/svg" width="1200" height="720" viewBox="0 0 1200 720">
<rect width="1200" height="720" fill="#fbfaf7"/>
<rect x="70" y="135" width="750" height="450" rx="18" fill="#fffefb" stroke="#c9c2b8" stroke-width="2"/>
<text x="70" y="70" font-size="34" font-family="PingFang SC, Arial" fill="#1f2933">案例44｜昊志机电 300503</text>
<text x="850" y="70" font-size="34" font-family="PingFang SC, Arial" fill="#0f8a4b">85/100  标准</text>
<text x="620" y="200" font-size="18" font-family="PingFang SC, Arial" fill="#6d28d9">前高/压力线</text>
<rect x="282" y="324" width="386" height="84" fill="none" stroke="#2563eb" stroke-width="3"/>
<text x="90" y="162" font-size="13" font-family="PingFang SC, Arial" fill="#4b5563" font-weight="bold">均线</text>
<line x1="125" y1="159" x2="145" y2="159" stroke="#f59e0b" stroke-width="3"/>
<text x="149" y="162" font-size="12" font-family="PingFang SC, Arial" fill="#f59e0b">MA5</text>
<line x1="183" y1="159" x2="203" y2="159" stroke="#8b5cf6" stroke-width="3" stroke-dasharray="6,4"/>
<text x="207" y="162" font-size="12" font-family="PingFang SC, Arial" fill="#8b5cf6">MA10</text>
<line x1="241" y1="159" x2="261" y2="159" stroke="#10b981" stroke-width="3"/>
<text x="265" y="162" font-size="12" font-family="PingFang SC, Arial" fill="#10b981">MA20</text>
<line x1="299" y1="159" x2="319" y2="159" stroke="#f97316" stroke-width="3"/>
<text x="323" y="162" font-size="12" font-family="PingFang SC, Arial" fill="#f97316">MA30</text>
<line x1="357" y1="159" x2="377" y2="159" stroke="#ef4444" stroke-width="3"/>
<text x="381" y="162" font-size="12" font-family="PingFang SC, Arial" fill="#ef4444">MA60</text>
<line x1="415" y1="159" x2="435" y2="159" stroke="#6b7280" stroke-width="3"/>
<text x="439" y="162" font-size="12" font-family="PingFang SC, Arial" fill="#6b7280">MA120</text>
<polyline points="115,424 163,433 211,431 259,419 307,406 355,389 403,367 451,353 499,345 547,331 595,327 643,317 691,290 739,276" fill="none" stroke="#f59e0b" stroke-width="2.5"/>
<polyline points="115,411 163,420 211,422 259,418 307,413 355,407 403,400 451,392 499,382 547,368 595,358 643,342 691,321 739,310" fill="none" stroke="#8b5cf6" stroke-width="2.5" stroke-dasharray="8,4"/>
<polyline points="115,406 163,407 211,405 259,400 307,397 355,395 403,393 451,391 499,387 547,384 595,384 643,381 691,372 739,365" fill="none" stroke="#10b981" stroke-width="2.5"/>
<polyline points="115,417 163,415 211,412 259,410 307,407 355,404 403,401 451,399 499,397 547,393 595,390 643,385 691,377 739,370" fill="none" stroke="#f97316" stroke-width="2.5"/>
<polyline points="115,483 163,482 211,481 259,478 307,475 355,472 403,468 451,463 499,459 547,455 595,452 643,447 691,442 739,438" fill="none" stroke="#ef4444" stroke-width="2.5"/>
<polyline points="115,501 163,501 211,500 259,498 307,497 355,495 403,493 451,492 499,490 547,489 595,487 643,486 691,483 739,480" fill="none" stroke="#6b7280" stroke-width="2.5"/>
<rect x="289" y="297" width="276" height="90" fill="none" stroke="#2563eb" stroke-width="3"/>
<text x="289" y="285" font-size="15" font-family="PingFang SC, Arial" fill="#1d4ed8">高位窄箱体</text>
<line x1="110" y1="327" x2="780" y2="327" stroke="#7c3aed" stroke-width="2" stroke-dasharray="8,4"/>
<text x="630" y="317" font-size="15" font-family="PingFang SC, Arial" fill="#6d28d9">前高压力线</text>
<line x1="115" y1="428" x2="115" y2="445" stroke="#e83c3c" stroke-width="3"/>
<rect x="104" y="430" width="22" height="14" fill="#e83c3c"/>
<line x1="163" y1="423" x2="163" y2="448" stroke="#20b86e" stroke-width="3"/>
<rect x="152" y="424" width="22" height="21" fill="#20b86e"/>
<line x1="211" y1="409" x2="211" y2="450" stroke="#e83c3c" stroke-width="3"/>
<rect x="200" y="417" width="22" height="28" fill="#e83c3c"/>
<line x1="259" y1="352" x2="259" y2="424" stroke="#e83c3c" stroke-width="3"/>
<rect x="248" y="361" width="22" height="58" fill="#e83c3c"/>
<line x1="307" y1="350" x2="307" y2="382" stroke="#20b86e" stroke-width="3"/>
<rect x="296" y="354" width="22" height="22" fill="#20b86e"/>
<line x1="355" y1="343" x2="355" y2="379" stroke="#e83c3c" stroke-width="3"/>
<rect x="344" y="348" width="22" height="29" fill="#e83c3c"/>
<line x1="403" y1="331" x2="403" y2="349" stroke="#e83c3c" stroke-width="3"/>
<rect x="392" y="333" width="22" height="14" fill="#e83c3c"/>
<line x1="451" y1="323" x2="451" y2="355" stroke="#20b86e" stroke-width="3"/>
<rect x="440" y="327" width="22" height="22" fill="#20b86e"/>
<line x1="499" y1="315" x2="499" y2="352" stroke="#e83c3c" stroke-width="3"/>
<rect x="488" y="320" width="22" height="29" fill="#e83c3c"/>
<line x1="547" y1="302" x2="547" y2="321" stroke="#e83c3c" stroke-width="3"/>
<rect x="536" y="305" width="22" height="14" fill="#e83c3c"/>
<line x1="595" y1="288" x2="595" y2="343" stroke="#20b86e" stroke-width="3"/>
<rect x="584" y="295" width="22" height="37" fill="#20b86e"/>
<line x1="643" y1="272" x2="643" y2="337" stroke="#e83c3c" stroke-width="3"/>
<rect x="632" y="280" width="22" height="53" fill="#e83c3c"/>
<line x1="691" y1="202" x2="691" y2="289" stroke="#e83c3c" stroke-width="3"/>
<rect x="680" y="213" width="22" height="69" fill="#e83c3c"/>
<line x1="739" y1="193" x2="739" y2="259" stroke="#20b86e" stroke-width="3"/>
<rect x="728" y="198" width="22" height="53" fill="#20b86e"/>
<rect x="103" y="550" width="24" height="10" fill="#e83c3c"/>
<rect x="151" y="545" width="24" height="15" fill="#20b86e"/>
<rect x="199" y="540" width="24" height="20" fill="#e83c3c"/>
<rect x="247" y="520" width="24" height="40" fill="#e83c3c"/>
<rect x="295" y="545" width="24" height="15" fill="#20b86e"/>
<rect x="343" y="540" width="24" height="20" fill="#e83c3c"/>
<rect x="391" y="550" width="24" height="10" fill="#e83c3c"/>
<rect x="439" y="545" width="24" height="15" fill="#20b86e"/>
<rect x="487" y="540" width="24" height="20" fill="#e83c3c"/>
<rect x="535" y="550" width="24" height="10" fill="#e83c3c"/>
<rect x="583" y="535" width="24" height="25" fill="#20b86e"/>
<rect x="631" y="525" width="24" height="35" fill="#e83c3c"/>
<rect x="679" y="515" width="24" height="45" fill="#e83c3c"/>
<rect x="727" y="525" width="24" height="35" fill="#20b86e"/>
<text x="90" y="578" font-size="15" font-family="PingFang SC, Arial" fill="#6b7280">量能区</text>
<rect x="850" y="135" width="280" height="450" rx="16" fill="#ffffff" stroke="#d0c7bc"/>
<text x="875" y="178" font-size="24" font-family="PingFang SC, Arial" fill="#111827">点评</text>
<text x="875" y="220" font-size="18" font-family="PingFang SC, Arial" fill="#374151">结构完整但位置偏高</text>
<text x="875" y="258" font-size="18" font-family="PingFang SC, Arial" fill="#374151">低吸试错：箱体下沿</text>
<text x="875" y="296" font-size="18" font-family="PingFang SC, Arial" fill="#374151">失效：破68.96</text>
<text x="875" y="655" font-size="18" font-family="PingFang SC, Arial" fill="#7c746b">教学重绘图：不复刻原截图</text>
</svg>
