<svg xmlns="http://www.w3.org/2000/svg" width="1200" height="720" viewBox="0 0 1200 720">
<rect width="1200" height="720" fill="#fbfaf7"/>
<rect x="70" y="135" width="750" height="450" rx="18" fill="#fffefb" stroke="#c9c2b8" stroke-width="2"/>
<text x="70" y="70" font-size="34" font-family="PingFang SC, Arial" fill="#1f2933">案例37｜天安新材 603725</text>
<text x="850" y="70" font-size="34" font-family="PingFang SC, Arial" fill="#b7791f">50/100  不合格</text>
<text x="620" y="200" font-size="18" font-family="PingFang SC, Arial" fill="#6d28d9">前高/压力线</text>
<text x="90" y="162" font-size="13" font-family="PingFang SC, Arial" fill="#4b5563" font-weight="bold">均线</text>
<line x1="125" y1="159" x2="145" y2="159" stroke="#f59e0b" stroke-width="3"/>
<text x="149" y="162" font-size="12" font-family="PingFang SC, Arial" fill="#f59e0b">MA5</text>
<line x1="183" y1="159" x2="203" y2="159" stroke="#8b5cf6" stroke-width="3" stroke-dasharray="6,4"/>
<text x="207" y="162" font-size="12" font-family="PingFang SC, Arial" fill="#8b5cf6">MA10</text>
<line x1="241" y1="159" x2="261" y2="159" stroke="#10b981" stroke-width="3"/>
<text x="265" y="162" font-size="12" font-family="PingFang SC, Arial" fill="#10b981">MA20</text>
<line x1="299" y1="159" x2="319" y2="159" stroke="#f97316" stroke-width="3"/>
<text x="323" y="162" font-size="12" font-family="PingFang SC, Arial" fill="#f97316">MA30</text>
<line x1="357" y1="159" x2="377" y2="159" stroke="#ef4444" stroke-width="3"/>
<text x="381" y="162" font-size="12" font-family="PingFang SC, Arial" fill="#ef4444">MA60</text>
<line x1="415" y1="159" x2="435" y2="159" stroke="#6b7280" stroke-width="3"/>
<text x="439" y="162" font-size="12" font-family="PingFang SC, Arial" fill="#6b7280">MA120</text>
<line x1="110" y1="260" x2="780" y2="260" stroke="#7c3aed" stroke-width="2" stroke-dasharray="8,4"/>
<text x="630" y="250" font-size="15" font-family="PingFang SC, Arial" fill="#6d28d9">前高压力线</text>
<rect x="292" y="332" width="270" height="162" fill="none" stroke="#2563eb" stroke-width="3"/>
<text x="292" y="322" font-size="15" font-family="PingFang SC, Arial" fill="#1d4ed8">高位窄箱体</text>
<polyline points="115,477 163,480 211,479 259,448 307,443 355,439 403,437 451,412 499,433 547,431 595,420 643,400 691,382 739,342" fill="none" stroke="#f59e0b" stroke-width="2.5"/>
<polyline points="115,463 163,465 211,467 259,454 307,456 355,459 403,458 451,446 499,440 547,437 595,430 643,419 691,397 739,388" fill="none" stroke="#8b5cf6" stroke-width="2.5" stroke-dasharray="8,4"/>
<polyline points="115,479 163,478 211,477 259,468 307,464 355,462 403,462 451,454 499,452 547,450 595,447 643,442 691,431 739,421" fill="none" stroke="#10b981" stroke-width="2.5"/>
<polyline points="115,472 163,473 211,474 259,470 307,472 355,472 403,471 451,468 499,467 547,466 595,463 643,459 691,451 739,441" fill="none" stroke="#f97316" stroke-width="2.5"/>
<polyline points="115,474 163,472 211,471 259,468 307,467 355,466 403,465 451,462 499,462 547,462 595,461 643,460 691,455 739,452" fill="none" stroke="#ef4444" stroke-width="2.5"/>
<polyline points="115,502 163,502 211,502 259,501 307,501 355,501 403,501 451,500 499,499 547,499 595,498 643,496 691,494 739,492" fill="none" stroke="#6b7280" stroke-width="2.5"/>
<line x1="115" y1="439" x2="115" y2="498" stroke="#d74b42" stroke-width="3"/>
<rect x="104" y="458" width="22" height="21" fill="#d74b42"/>
<line x1="163" y1="452" x2="163" y2="501" stroke="#d74b42" stroke-width="3"/>
<rect x="152" y="470" width="22" height="12" fill="#d74b42"/>
<line x1="211" y1="433" x2="211" y2="491" stroke="#d74b42" stroke-width="3"/>
<rect x="200" y="452" width="22" height="20" fill="#d74b42"/>
<line x1="259" y1="285" x2="259" y2="424" stroke="#2f9e67" stroke-width="3"/>
<rect x="248" y="324" width="22" height="70" fill="#2f9e67"/>
<line x1="307" y1="423" x2="307" y2="467" stroke="#d74b42" stroke-width="3"/>
<rect x="296" y="434" width="22" height="21" fill="#d74b42"/>
<line x1="355" y1="453" x2="355" y2="482" stroke="#2f9e67" stroke-width="3"/>
<rect x="344" y="464" width="22" height="6" fill="#2f9e67"/>
<line x1="403" y1="456" x2="403" y2="489" stroke="#2f9e67" stroke-width="3"/>
<rect x="392" y="468" width="22" height="9" fill="#2f9e67"/>
<line x1="451" y1="337" x2="451" y2="379" stroke="#2f9e67" stroke-width="3"/>
<rect x="440" y="348" width="22" height="20" fill="#2f9e67"/>
<line x1="499" y1="398" x2="499" y2="441" stroke="#d74b42" stroke-width="3"/>
<rect x="488" y="409" width="22" height="21" fill="#d74b42"/>
<line x1="547" y1="435" x2="547" y2="467" stroke="#2f9e67" stroke-width="3"/>
<rect x="536" y="447" width="22" height="8" fill="#2f9e67"/>
<line x1="595" y1="386" x2="595" y2="457" stroke="#2f9e67" stroke-width="3"/>
<rect x="584" y="409" width="22" height="34" fill="#2f9e67"/>
<line x1="643" y1="347" x2="643" y2="412" stroke="#2f9e67" stroke-width="3"/>
<rect x="632" y="370" width="22" height="28" fill="#2f9e67"/>
<line x1="691" y1="223" x2="691" y2="335" stroke="#2f9e67" stroke-width="3"/>
<rect x="680" y="253" width="22" height="62" fill="#2f9e67"/>
<line x1="739" y1="211" x2="739" y2="287" stroke="#2f9e67" stroke-width="3"/>
<rect x="728" y="232" width="22" height="45" fill="#2f9e67"/>
<rect x="103" y="548" width="24" height="12" fill="#d74b42"/>
<rect x="151" y="546" width="24" height="14" fill="#d74b42"/>
<rect x="199" y="544" width="24" height="16" fill="#d74b42"/>
<rect x="247" y="502" width="24" height="58" fill="#6abf88"/>
<rect x="295" y="542" width="24" height="18" fill="#d74b42"/>
<rect x="343" y="544" width="24" height="16" fill="#6abf88"/>
<rect x="391" y="542" width="24" height="18" fill="#6abf88"/>
<rect x="439" y="546" width="24" height="14" fill="#6abf88"/>
<rect x="487" y="546" width="24" height="14" fill="#d74b42"/>
<rect x="535" y="544" width="24" height="16" fill="#6abf88"/>
<rect x="583" y="530" width="24" height="30" fill="#6abf88"/>
<rect x="631" y="542" width="24" height="18" fill="#6abf88"/>
<rect x="679" y="505" width="24" height="55" fill="#6abf88"/>
<rect x="727" y="525" width="24" height="35" fill="#6abf88"/>
<text x="90" y="578" font-size="15" font-family="PingFang SC, Arial" fill="#6b7280">量能区</text>
<circle cx="451" cy="379" r="6" fill="none" stroke="#ef4444" stroke-width="2"/>
<text x="461" y="394" font-size="13" font-family="PingFang SC, Arial" fill="#dc2626">低吸试错点</text>
<circle cx="691" cy="223" r="6" fill="#ef4444" stroke="none"/>
<text x="651" y="208" font-size="13" font-family="PingFang SC, Arial" fill="#dc2626">突破确认点</text>
<rect x="850" y="135" width="280" height="450" rx="16" fill="#ffffff" stroke="#d0c7bc"/>
<text x="875" y="178" font-size="24" font-family="PingFang SC, Arial" fill="#111827">点评</text>
<text x="875" y="220" font-size="18" font-family="PingFang SC, Arial" fill="#374151">分时图，缺日K结构依据</text>
<text x="875" y="258" font-size="18" font-family="PingFang SC, Arial" fill="#374151">观察：分时均价线承接</text>
<text x="875" y="296" font-size="18" font-family="PingFang SC, Arial" fill="#374151">失效：跌破均价线不收回</text>
<text x="875" y="655" font-size="18" font-family="PingFang SC, Arial" fill="#7c746b">教学重绘图：不复刻原截图</text>
</svg>
