<svg xmlns="http://www.w3.org/2000/svg" width="1200" height="720" viewBox="0 0 1200 720">
<rect width="1200" height="720" fill="#fbfaf7"/>
<rect x="70" y="135" width="750" height="450" rx="18" fill="#fffefb" stroke="#c9c2b8" stroke-width="2"/>
<text x="70" y="70" font-size="34" font-family="PingFang SC, Arial" fill="#1f2933">案例26｜蓝思科技 300433</text>
<text x="850" y="70" font-size="34" font-family="PingFang SC, Arial" fill="#b7791f">70/100  勉强</text>
<rect x="282" y="210" width="386" height="195" fill="none" stroke="#2563eb" stroke-width="3"/>
<text x="90" y="162" font-size="13" font-family="PingFang SC, Arial" fill="#4b5563" font-weight="bold">均线</text>
<line x1="125" y1="159" x2="145" y2="159" stroke="#f59e0b" stroke-width="3"/>
<text x="149" y="162" font-size="12" font-family="PingFang SC, Arial" fill="#f59e0b">MA5</text>
<line x1="183" y1="159" x2="203" y2="159" stroke="#8b5cf6" stroke-width="3" stroke-dasharray="6,4"/>
<text x="207" y="162" font-size="12" font-family="PingFang SC, Arial" fill="#8b5cf6">MA10</text>
<line x1="241" y1="159" x2="261" y2="159" stroke="#10b981" stroke-width="3"/>
<text x="265" y="162" font-size="12" font-family="PingFang SC, Arial" fill="#10b981">MA20</text>
<line x1="299" y1="159" x2="319" y2="159" stroke="#f97316" stroke-width="3"/>
<text x="323" y="162" font-size="12" font-family="PingFang SC, Arial" fill="#f97316">MA30</text>
<line x1="357" y1="159" x2="377" y2="159" stroke="#ef4444" stroke-width="3"/>
<text x="381" y="162" font-size="12" font-family="PingFang SC, Arial" fill="#ef4444">MA60</text>
<line x1="415" y1="159" x2="435" y2="159" stroke="#6b7280" stroke-width="3"/>
<text x="439" y="162" font-size="12" font-family="PingFang SC, Arial" fill="#6b7280">MA120</text>
<polyline points="115,385 163,396 211,398 259,388 307,376 355,362 403,343 451,331 499,324 547,311 595,309 643,299 691,275 739,264" fill="none" stroke="#f59e0b" stroke-width="2.5"/>
<polyline points="115,380 163,380 211,379 259,376 307,377 355,373 403,369 451,364 499,356 547,344 595,335 643,321 691,303 739,294" fill="none" stroke="#8b5cf6" stroke-width="2.5" stroke-dasharray="8,4"/>
<polyline points="115,408 163,405 211,400 259,394 307,391 355,387 403,382 451,376 499,369 547,362 595,358 643,351 691,341 739,335" fill="none" stroke="#10b981" stroke-width="2.5"/>
<polyline points="115,411 163,413 211,413 259,410 307,408 355,406 403,401 451,397 499,393 547,389 595,383 643,377 691,368 739,361" fill="none" stroke="#f97316" stroke-width="2.5"/>
<polyline points="115,428 163,427 211,425 259,422 307,419 355,416 403,413 451,410 499,408 547,405 595,403 643,399 691,394 739,390" fill="none" stroke="#ef4444" stroke-width="2.5"/>
<polyline points="115,505 163,504 211,503 259,500 307,498 355,497 403,494 451,493 499,490 547,488 595,486 643,483 691,479 739,476" fill="none" stroke="#6b7280" stroke-width="2.5"/>
<rect x="289" y="281" width="276" height="81" fill="none" stroke="#2563eb" stroke-width="3"/>
<text x="289" y="269" font-size="15" font-family="PingFang SC, Arial" fill="#1d4ed8">高位窄箱体</text>
<line x1="110" y1="305" x2="780" y2="305" stroke="#7c3aed" stroke-width="2" stroke-dasharray="8,4"/>
<text x="630" y="295" font-size="15" font-family="PingFang SC, Arial" fill="#6d28d9">前高压力线</text>
<line x1="115" y1="395" x2="115" y2="410" stroke="#e83c3c" stroke-width="3"/>
<rect x="104" y="397" width="22" height="12" fill="#e83c3c"/>
<line x1="163" y1="391" x2="163" y2="413" stroke="#20b86e" stroke-width="3"/>
<rect x="152" y="392" width="22" height="18" fill="#20b86e"/>
<line x1="211" y1="379" x2="211" y2="415" stroke="#e83c3c" stroke-width="3"/>
<rect x="200" y="386" width="22" height="25" fill="#e83c3c"/>
<line x1="259" y1="330" x2="259" y2="392" stroke="#e83c3c" stroke-width="3"/>
<rect x="248" y="337" width="22" height="51" fill="#e83c3c"/>
<line x1="307" y1="329" x2="307" y2="357" stroke="#20b86e" stroke-width="3"/>
<rect x="296" y="333" width="22" height="18" fill="#20b86e"/>
<line x1="355" y1="322" x2="355" y2="353" stroke="#e83c3c" stroke-width="3"/>
<rect x="344" y="326" width="22" height="25" fill="#e83c3c"/>
<line x1="403" y1="311" x2="403" y2="327" stroke="#e83c3c" stroke-width="3"/>
<rect x="392" y="313" width="22" height="13" fill="#e83c3c"/>
<line x1="451" y1="305" x2="451" y2="333" stroke="#20b86e" stroke-width="3"/>
<rect x="440" y="308" width="22" height="19" fill="#20b86e"/>
<line x1="499" y1="298" x2="499" y2="330" stroke="#e83c3c" stroke-width="3"/>
<rect x="488" y="302" width="22" height="25" fill="#e83c3c"/>
<line x1="547" y1="286" x2="547" y2="302" stroke="#e83c3c" stroke-width="3"/>
<rect x="536" y="288" width="22" height="13" fill="#e83c3c"/>
<line x1="595" y1="274" x2="595" y2="321" stroke="#20b86e" stroke-width="3"/>
<rect x="584" y="280" width="22" height="32" fill="#20b86e"/>
<line x1="643" y1="261" x2="643" y2="317" stroke="#e83c3c" stroke-width="3"/>
<rect x="632" y="267" width="22" height="46" fill="#e83c3c"/>
<line x1="691" y1="199" x2="691" y2="274" stroke="#e83c3c" stroke-width="3"/>
<rect x="680" y="208" width="22" height="61" fill="#e83c3c"/>
<line x1="739" y1="191" x2="739" y2="249" stroke="#20b86e" stroke-width="3"/>
<rect x="728" y="195" width="22" height="47" fill="#20b86e"/>
<rect x="103" y="550" width="24" height="10" fill="#e83c3c"/>
<rect x="151" y="545" width="24" height="15" fill="#20b86e"/>
<rect x="199" y="540" width="24" height="20" fill="#e83c3c"/>
<rect x="247" y="520" width="24" height="40" fill="#e83c3c"/>
<rect x="295" y="545" width="24" height="15" fill="#20b86e"/>
<rect x="343" y="540" width="24" height="20" fill="#e83c3c"/>
<rect x="391" y="550" width="24" height="10" fill="#e83c3c"/>
<rect x="439" y="545" width="24" height="15" fill="#20b86e"/>
<rect x="487" y="540" width="24" height="20" fill="#e83c3c"/>
<rect x="535" y="550" width="24" height="10" fill="#e83c3c"/>
<rect x="583" y="535" width="24" height="25" fill="#20b86e"/>
<rect x="631" y="525" width="24" height="35" fill="#e83c3c"/>
<rect x="679" y="515" width="24" height="45" fill="#e83c3c"/>
<rect x="727" y="525" width="24" height="35" fill="#20b86e"/>
<text x="90" y="578" font-size="15" font-family="PingFang SC, Arial" fill="#6b7280">量能区</text>
<rect x="850" y="135" width="280" height="450" rx="16" fill="#ffffff" stroke="#d0c7bc"/>
<text x="875" y="178" font-size="24" font-family="PingFang SC, Arial" fill="#111827">点评</text>
<text x="875" y="220" font-size="18" font-family="PingFang SC, Arial" fill="#374151">多个小结构后高位加速</text>
<text x="875" y="262" font-size="18" font-family="PingFang SC, Arial" fill="#4b5563">• 量价配合</text>
<text x="875" y="296" font-size="18" font-family="PingFang SC, Arial" fill="#4b5563">• 波段强</text>
<text x="875" y="330" font-size="18" font-family="PingFang SC, Arial" fill="#4b5563">• 风险：过热信号</text>
<text x="875" y="655" font-size="18" font-family="PingFang SC, Arial" fill="#7c746b">教学示意图：重绘，不复刻原截图</text>
</svg>
