<svg xmlns="http://www.w3.org/2000/svg" width="1200" height="720" viewBox="0 0 1200 720">
<rect width="1200" height="720" fill="#fbfaf7"/>
<rect x="70" y="135" width="750" height="450" rx="18" fill="#fffefb" stroke="#c9c2b8" stroke-width="2"/>
<text x="70" y="70" font-size="34" font-family="PingFang SC, Arial" fill="#1f2933">案例01｜无法识别</text>
<text x="850" y="70" font-size="34" font-family="PingFang SC, Arial" fill="#9b2c2c">0/100  不合格</text>
<text x="90" y="162" font-size="13" font-family="PingFang SC, Arial" fill="#4b5563" font-weight="bold">均线</text>
<line x1="125" y1="159" x2="145" y2="159" stroke="#f59e0b" stroke-width="3"/>
<text x="149" y="162" font-size="12" font-family="PingFang SC, Arial" fill="#f59e0b">MA5</text>
<line x1="183" y1="159" x2="203" y2="159" stroke="#8b5cf6" stroke-width="3" stroke-dasharray="6,4"/>
<text x="207" y="162" font-size="12" font-family="PingFang SC, Arial" fill="#8b5cf6">MA10</text>
<line x1="241" y1="159" x2="261" y2="159" stroke="#10b981" stroke-width="3"/>
<text x="265" y="162" font-size="12" font-family="PingFang SC, Arial" fill="#10b981">MA20</text>
<line x1="299" y1="159" x2="319" y2="159" stroke="#f97316" stroke-width="3"/>
<text x="323" y="162" font-size="12" font-family="PingFang SC, Arial" fill="#f97316">MA30</text>
<line x1="357" y1="159" x2="377" y2="159" stroke="#ef4444" stroke-width="3"/>
<text x="381" y="162" font-size="12" font-family="PingFang SC, Arial" fill="#ef4444">MA60</text>
<line x1="415" y1="159" x2="435" y2="159" stroke="#6b7280" stroke-width="3"/>
<text x="439" y="162" font-size="12" font-family="PingFang SC, Arial" fill="#6b7280">MA120</text>
<line x1="110" y1="241" x2="780" y2="241" stroke="#7c3aed" stroke-width="2" stroke-dasharray="8,4"/>
<text x="630" y="231" font-size="15" font-family="PingFang SC, Arial" fill="#6d28d9">前高压力线</text>
<rect x="292" y="297" width="270" height="127" fill="none" stroke="#2563eb" stroke-width="3"/>
<text x="292" y="287" font-size="15" font-family="PingFang SC, Arial" fill="#1d4ed8">高位窄箱体</text>
<polyline points="115,421 163,419 211,417 259,389 307,386 355,380 403,376 451,357 499,375 547,370 595,362 643,349 691,333 739,300" fill="none" stroke="#f59e0b" stroke-width="2.5"/>
<polyline points="115,410 163,409 211,411 259,401 307,402 355,400 403,397 451,387 499,382 547,378 595,371 643,362 691,345 739,337" fill="none" stroke="#8b5cf6" stroke-width="2.5" stroke-dasharray="8,4"/>
<polyline points="115,407 163,408 211,409 259,402 307,402 355,402 403,400 451,395 499,394 547,393 595,391 643,386 691,378 739,369" fill="none" stroke="#10b981" stroke-width="2.5"/>
<polyline points="115,413 163,411 211,409 259,405 307,405 355,404 403,403 451,400 499,399 547,397 595,395 643,392 691,388 739,381" fill="none" stroke="#f97316" stroke-width="2.5"/>
<polyline points="115,461 163,458 211,456 259,452 307,450 355,448 403,446 451,444 499,442 547,440 595,438 643,434 691,430 739,426" fill="none" stroke="#ef4444" stroke-width="2.5"/>
<polyline points="115,511 163,509 211,508 259,506 307,504 355,503 403,501 451,500 499,498 547,497 595,495 643,493 691,491 739,487" fill="none" stroke="#6b7280" stroke-width="2.5"/>
<line x1="115" y1="392" x2="115" y2="433" stroke="#d74b42" stroke-width="3"/>
<rect x="104" y="405" width="22" height="14" fill="#d74b42"/>
<line x1="163" y1="393" x2="163" y2="429" stroke="#2f9e67" stroke-width="3"/>
<rect x="152" y="406" width="22" height="9" fill="#2f9e67"/>
<line x1="211" y1="371" x2="211" y2="419" stroke="#d74b42" stroke-width="3"/>
<rect x="200" y="385" width="22" height="20" fill="#d74b42"/>
<line x1="259" y1="266" x2="259" y2="369" stroke="#2f9e67" stroke-width="3"/>
<rect x="248" y="296" width="22" height="51" fill="#2f9e67"/>
<line x1="307" y1="394" x2="307" y2="419" stroke="#2f9e67" stroke-width="3"/>
<rect x="296" y="402" width="22" height="9" fill="#2f9e67"/>
<line x1="355" y1="379" x2="355" y2="401" stroke="#2f9e67" stroke-width="3"/>
<rect x="344" y="388" width="22" height="5" fill="#2f9e67"/>
<line x1="403" y1="371" x2="403" y2="397" stroke="#d74b42" stroke-width="3"/>
<rect x="392" y="380" width="22" height="9" fill="#d74b42"/>
<line x1="451" y1="302" x2="451" y2="326" stroke="#2f9e67" stroke-width="3"/>
<rect x="440" y="311" width="22" height="7" fill="#2f9e67"/>
<line x1="499" y1="369" x2="499" y2="392" stroke="#d74b42" stroke-width="3"/>
<rect x="488" y="378" width="22" height="6" fill="#d74b42"/>
<line x1="547" y1="369" x2="547" y2="392" stroke="#2f9e67" stroke-width="3"/>
<rect x="536" y="377" width="22" height="7" fill="#2f9e67"/>
<line x1="595" y1="332" x2="595" y2="387" stroke="#2f9e67" stroke-width="3"/>
<rect x="584" y="349" width="22" height="28" fill="#2f9e67"/>
<line x1="643" y1="299" x2="643" y2="331" stroke="#d74b42" stroke-width="3"/>
<rect x="632" y="317" width="22" height="4" fill="#d74b42"/>
<line x1="691" y1="213" x2="691" y2="296" stroke="#2f9e67" stroke-width="3"/>
<rect x="680" y="234" width="22" height="46" fill="#2f9e67"/>
<line x1="739" y1="203" x2="739" y2="260" stroke="#2f9e67" stroke-width="3"/>
<rect x="728" y="218" width="22" height="34" fill="#2f9e67"/>
<rect x="103" y="548" width="24" height="12" fill="#d74b42"/>
<rect x="151" y="546" width="24" height="14" fill="#6abf88"/>
<rect x="199" y="544" width="24" height="16" fill="#d74b42"/>
<rect x="247" y="502" width="24" height="58" fill="#6abf88"/>
<rect x="295" y="542" width="24" height="18" fill="#6abf88"/>
<rect x="343" y="544" width="24" height="16" fill="#6abf88"/>
<rect x="391" y="542" width="24" height="18" fill="#d74b42"/>
<rect x="439" y="546" width="24" height="14" fill="#6abf88"/>
<rect x="487" y="546" width="24" height="14" fill="#d74b42"/>
<rect x="535" y="544" width="24" height="16" fill="#6abf88"/>
<rect x="583" y="530" width="24" height="30" fill="#6abf88"/>
<rect x="631" y="542" width="24" height="18" fill="#d74b42"/>
<rect x="679" y="505" width="24" height="55" fill="#6abf88"/>
<rect x="727" y="525" width="24" height="35" fill="#6abf88"/>
<text x="90" y="578" font-size="15" font-family="PingFang SC, Arial" fill="#6b7280">量能区</text>
<circle cx="451" cy="326" r="6" fill="none" stroke="#ef4444" stroke-width="2"/>
<text x="461" y="341" font-size="13" font-family="PingFang SC, Arial" fill="#dc2626">低吸试错点</text>
<circle cx="691" cy="213" r="6" fill="#ef4444" stroke="none"/>
<text x="651" y="198" font-size="13" font-family="PingFang SC, Arial" fill="#dc2626">突破确认点</text>
<rect x="850" y="135" width="280" height="450" rx="16" fill="#ffffff" stroke="#d0c7bc"/>
<text x="875" y="178" font-size="24" font-family="PingFang SC, Arial" fill="#111827">点评</text>
<text x="875" y="220" font-size="18" font-family="PingFang SC, Arial" fill="#374151">遮挡严重，K线主体不可见</text>
<text x="875" y="262" font-size="18" font-family="PingFang SC, Arial" fill="#4b5563">• 无法判断启动阳线</text>
<text x="875" y="296" font-size="18" font-family="PingFang SC, Arial" fill="#4b5563">• 无法判断箱体与5日线</text>
<text x="875" y="330" font-size="18" font-family="PingFang SC, Arial" fill="#4b5563">• 不纳入案例评分</text>
<text x="875" y="655" font-size="18" font-family="PingFang SC, Arial" fill="#7c746b">教学示意图：重绘，不复刻原截图</text>
</svg>
