<svg xmlns="http://www.w3.org/2000/svg" width="1200" height="720" viewBox="0 0 1200 720">
<rect width="1200" height="720" fill="#fbfaf7"/>
<rect x="70" y="135" width="750" height="450" rx="18" fill="#fffefb" stroke="#c9c2b8" stroke-width="2"/>
<text x="70" y="70" font-size="34" font-family="PingFang SC, Arial" fill="#1f2933">案例05｜湘潭电化 002125</text>
<text x="850" y="70" font-size="34" font-family="PingFang SC, Arial" fill="#0f8a4b">78/100  较标准</text>
<rect x="282" y="320" width="338" height="80" fill="none" stroke="#2563eb" stroke-width="3"/>
<text x="90" y="162" font-size="13" font-family="PingFang SC, Arial" fill="#4b5563" font-weight="bold">均线</text>
<line x1="125" y1="159" x2="145" y2="159" stroke="#f59e0b" stroke-width="3"/>
<text x="149" y="162" font-size="12" font-family="PingFang SC, Arial" fill="#f59e0b">MA5</text>
<line x1="183" y1="159" x2="203" y2="159" stroke="#8b5cf6" stroke-width="3" stroke-dasharray="6,4"/>
<text x="207" y="162" font-size="12" font-family="PingFang SC, Arial" fill="#8b5cf6">MA10</text>
<line x1="241" y1="159" x2="261" y2="159" stroke="#10b981" stroke-width="3"/>
<text x="265" y="162" font-size="12" font-family="PingFang SC, Arial" fill="#10b981">MA20</text>
<line x1="299" y1="159" x2="319" y2="159" stroke="#f97316" stroke-width="3"/>
<text x="323" y="162" font-size="12" font-family="PingFang SC, Arial" fill="#f97316">MA30</text>
<line x1="357" y1="159" x2="377" y2="159" stroke="#ef4444" stroke-width="3"/>
<text x="381" y="162" font-size="12" font-family="PingFang SC, Arial" fill="#ef4444">MA60</text>
<polyline points="115,480 163,483 211,478 259,479 307,467 355,464 403,448 451,432 499,418 547,401 595,375 643,359 691,341 739,306" fill="none" stroke="#f59e0b" stroke-width="2.5"/>
<polyline points="115,480 163,484 211,482 259,481 307,476 355,472 403,466 451,455 499,448 547,433 595,419 643,404 691,387 739,361" fill="none" stroke="#8b5cf6" stroke-width="2.5" stroke-dasharray="8,4"/>
<polyline points="115,448 163,452 211,454 259,458 307,462 355,465 403,466 451,464 499,462 547,456 595,450 643,444 691,434 739,422" fill="none" stroke="#10b981" stroke-width="2.5"/>
<polyline points="115,415 163,418 211,420 259,424 307,427 355,431 403,435 451,436 499,439 547,440 595,439 643,435 691,432 739,426" fill="none" stroke="#f97316" stroke-width="2.5"/>
<polyline points="115,420 163,423 211,425 259,427 307,428 355,429 403,430 451,429 499,428 547,426 595,425 643,423 691,420 739,416" fill="none" stroke="#ef4444" stroke-width="2.5"/>
<polyline points="115,427 163,427 211,427 259,427 307,427 355,428 403,428 451,428 499,428 547,427 595,426 643,425 691,424 739,422" fill="none" stroke="#6b7280" stroke-width="2.5"/>
<line x1="110" y1="252" x2="780" y2="252" stroke="#7c3aed" stroke-width="2" stroke-dasharray="8,4"/>
<text x="630" y="242" font-size="15" font-family="PingFang SC, Arial" fill="#6d28d9">前高压力线</text>
<rect x="292" y="349" width="270" height="119" fill="none" stroke="#2563eb" stroke-width="3"/>
<text x="292" y="337" font-size="15" font-family="PingFang SC, Arial" fill="#1d4ed8">高位窄箱体</text>
<line x1="115" y1="468" x2="115" y2="504" stroke="#2f9e67" stroke-width="3"/>
<rect x="104" y="472" width="22" height="30" fill="#2f9e67"/>
<line x1="163" y1="455" x2="163" y2="509" stroke="#d74b42" stroke-width="3"/>
<rect x="152" y="461" width="22" height="37" fill="#d74b42"/>
<line x1="211" y1="447" x2="211" y2="503" stroke="#2f9e67" stroke-width="3"/>
<rect x="200" y="454" width="22" height="45" fill="#2f9e67"/>
<line x1="259" y1="441" x2="259" y2="481" stroke="#d74b42" stroke-width="3"/>
<rect x="248" y="448" width="22" height="22" fill="#d74b42"/>
<line x1="307" y1="432" x2="307" y2="476" stroke="#2f9e67" stroke-width="3"/>
<rect x="296" y="441" width="22" height="30" fill="#2f9e67"/>
<line x1="355" y1="430" x2="355" y2="463" stroke="#d74b42" stroke-width="3"/>
<rect x="344" y="434" width="22" height="22" fill="#d74b42"/>
<line x1="403" y1="414" x2="403" y2="461" stroke="#2f9e67" stroke-width="3"/>
<rect x="392" y="420" width="22" height="38" fill="#2f9e67"/>
<line x1="451" y1="367" x2="451" y2="425" stroke="#2f9e67" stroke-width="3"/>
<rect x="440" y="374" width="22" height="46" fill="#2f9e67"/>
<line x1="499" y1="359" x2="499" y2="405" stroke="#d74b42" stroke-width="3"/>
<rect x="488" y="365" width="22" height="31" fill="#d74b42"/>
<line x1="547" y1="351" x2="547" y2="400" stroke="#2f9e67" stroke-width="3"/>
<rect x="536" y="357" width="22" height="39" fill="#2f9e67"/>
<line x1="595" y1="321" x2="595" y2="360" stroke="#2f9e67" stroke-width="3"/>
<rect x="584" y="326" width="22" height="32" fill="#2f9e67"/>
<line x1="643" y1="317" x2="643" y2="346" stroke="#d74b42" stroke-width="3"/>
<rect x="632" y="319" width="22" height="24" fill="#d74b42"/>
<line x1="691" y1="280" x2="691" y2="350" stroke="#2f9e67" stroke-width="3"/>
<rect x="680" y="288" width="22" height="57" fill="#2f9e67"/>
<line x1="739" y1="204" x2="739" y2="297" stroke="#2f9e67" stroke-width="3"/>
<rect x="728" y="215" width="22" height="75" fill="#2f9e67"/>
<rect x="103" y="540" width="24" height="20" fill="#6abf88"/>
<rect x="151" y="535" width="24" height="25" fill="#d74b42"/>
<rect x="199" y="530" width="24" height="30" fill="#6abf88"/>
<rect x="247" y="545" width="24" height="15" fill="#d74b42"/>
<rect x="295" y="540" width="24" height="20" fill="#6abf88"/>
<rect x="343" y="545" width="24" height="15" fill="#d74b42"/>
<rect x="391" y="535" width="24" height="25" fill="#6abf88"/>
<rect x="439" y="530" width="24" height="30" fill="#6abf88"/>
<rect x="487" y="540" width="24" height="20" fill="#d74b42"/>
<rect x="535" y="535" width="24" height="25" fill="#6abf88"/>
<rect x="583" y="540" width="24" height="20" fill="#6abf88"/>
<rect x="631" y="545" width="24" height="15" fill="#d74b42"/>
<rect x="679" y="525" width="24" height="35" fill="#6abf88"/>
<rect x="727" y="515" width="24" height="45" fill="#6abf88"/>
<text x="90" y="578" font-size="15" font-family="PingFang SC, Arial" fill="#6b7280">量能区</text>
<rect x="850" y="135" width="280" height="450" rx="16" fill="#ffffff" stroke="#d0c7bc"/>
<text x="875" y="178" font-size="24" font-family="PingFang SC, Arial" fill="#111827">点评</text>
<text x="875" y="220" font-size="18" font-family="PingFang SC, Arial" fill="#374151">高位窄箱+收敛末端突破</text>
<text x="875" y="262" font-size="18" font-family="PingFang SC, Arial" fill="#4b5563">• 放量中大阳启动</text>
<text x="875" y="296" font-size="18" font-family="PingFang SC, Arial" fill="#4b5563">• 收敛三角末端</text>
<text x="875" y="330" font-size="18" font-family="PingFang SC, Arial" fill="#4b5563">• 风险：高位假突破</text>
<text x="875" y="655" font-size="18" font-family="PingFang SC, Arial" fill="#7c746b">教学示意图：重绘，不复刻原截图</text>
</svg>
