<svg xmlns="http://www.w3.org/2000/svg" width="1200" height="720" viewBox="0 0 1200 720">
<rect width="1200" height="720" fill="#fbfaf7"/>
<rect x="70" y="135" width="750" height="450" rx="18" fill="#fffefb" stroke="#c9c2b8" stroke-width="2"/>
<text x="70" y="70" font-size="34" font-family="PingFang SC, Arial" fill="#1f2933">案例03｜华微电子 600360</text>
<text x="850" y="70" font-size="34" font-family="PingFang SC, Arial" fill="#0f8a4b">72/100  较标准</text>
<rect x="282" y="320" width="338" height="80" fill="none" stroke="#2563eb" stroke-width="3"/>
<text x="90" y="162" font-size="13" font-family="PingFang SC, Arial" fill="#4b5563" font-weight="bold">均线</text>
<line x1="125" y1="159" x2="145" y2="159" stroke="#f59e0b" stroke-width="3"/>
<text x="149" y="162" font-size="12" font-family="PingFang SC, Arial" fill="#f59e0b">MA5</text>
<line x1="183" y1="159" x2="203" y2="159" stroke="#8b5cf6" stroke-width="3" stroke-dasharray="6,4"/>
<text x="207" y="162" font-size="12" font-family="PingFang SC, Arial" fill="#8b5cf6">MA10</text>
<line x1="241" y1="159" x2="261" y2="159" stroke="#10b981" stroke-width="3"/>
<text x="265" y="162" font-size="12" font-family="PingFang SC, Arial" fill="#10b981">MA20</text>
<line x1="299" y1="159" x2="319" y2="159" stroke="#f97316" stroke-width="3"/>
<text x="323" y="162" font-size="12" font-family="PingFang SC, Arial" fill="#f97316">MA30</text>
<line x1="357" y1="159" x2="377" y2="159" stroke="#ef4444" stroke-width="3"/>
<text x="381" y="162" font-size="12" font-family="PingFang SC, Arial" fill="#ef4444">MA60</text>
<line x1="415" y1="159" x2="435" y2="159" stroke="#6b7280" stroke-width="3"/>
<text x="439" y="162" font-size="12" font-family="PingFang SC, Arial" fill="#6b7280">MA120</text>
<polyline points="115,439 163,442 211,442 259,434 307,427 355,418 403,401 451,390 499,378 547,360 595,349 643,336 691,313 739,283" fill="none" stroke="#f59e0b" stroke-width="2.5"/>
<polyline points="115,432 163,430 211,429 259,430 307,432 355,428 403,421 451,416 499,406 547,393 595,383 643,369 691,351 739,331" fill="none" stroke="#8b5cf6" stroke-width="2.5" stroke-dasharray="8,4"/>
<polyline points="115,438 163,438 211,437 259,435 307,435 355,433 403,430 451,426 499,421 547,413 595,407 643,399 691,390 739,381" fill="none" stroke="#10b981" stroke-width="2.5"/>
<polyline points="115,448 163,446 211,445 259,443 307,441 355,438 403,435 451,432 499,428 547,423 595,419 643,414 691,408 739,400" fill="none" stroke="#f97316" stroke-width="2.5"/>
<polyline points="115,478 163,476 211,474 259,472 307,470 355,469 403,466 451,463 499,461 547,458 595,455 643,451 691,447 739,442" fill="none" stroke="#ef4444" stroke-width="2.5"/>
<polyline points="115,509 163,509 211,509 259,507 307,507 355,507 403,506 451,505 499,504 547,503 595,502 643,500 691,498 739,495" fill="none" stroke="#6b7280" stroke-width="2.5"/>
<line x1="110" y1="230" x2="780" y2="230" stroke="#7c3aed" stroke-width="2" stroke-dasharray="8,4"/>
<text x="630" y="220" font-size="15" font-family="PingFang SC, Arial" fill="#6d28d9">前高压力线</text>
<rect x="292" y="297" width="270" height="193" fill="none" stroke="#2563eb" stroke-width="3"/>
<text x="292" y="285" font-size="15" font-family="PingFang SC, Arial" fill="#1d4ed8">高位窄箱体</text>
<line x1="115" y1="434" x2="115" y2="453" stroke="#2f9e67" stroke-width="3"/>
<rect x="104" y="437" width="22" height="15" fill="#2f9e67"/>
<line x1="163" y1="433" x2="163" y2="445" stroke="#d74b42" stroke-width="3"/>
<rect x="152" y="434" width="22" height="10" fill="#d74b42"/>
<line x1="211" y1="425" x2="211" y2="447" stroke="#2f9e67" stroke-width="3"/>
<rect x="200" y="429" width="22" height="15" fill="#2f9e67"/>
<line x1="259" y1="406" x2="259" y2="431" stroke="#2f9e67" stroke-width="3"/>
<rect x="248" y="409" width="22" height="21" fill="#2f9e67"/>
<line x1="307" y1="404" x2="307" y2="419" stroke="#d74b42" stroke-width="3"/>
<rect x="296" y="406" width="22" height="10" fill="#d74b42"/>
<line x1="355" y1="387" x2="355" y2="419" stroke="#2f9e67" stroke-width="3"/>
<rect x="344" y="391" width="22" height="26" fill="#2f9e67"/>
<line x1="403" y1="356" x2="403" y2="395" stroke="#2f9e67" stroke-width="3"/>
<rect x="392" y="360" width="22" height="32" fill="#2f9e67"/>
<line x1="451" y1="353" x2="451" y2="376" stroke="#d74b42" stroke-width="3"/>
<rect x="440" y="356" width="22" height="16" fill="#d74b42"/>
<line x1="499" y1="348" x2="499" y2="374" stroke="#2f9e67" stroke-width="3"/>
<rect x="488" y="351" width="22" height="21" fill="#2f9e67"/>
<line x1="547" y1="320" x2="547" y2="353" stroke="#2f9e67" stroke-width="3"/>
<rect x="536" y="324" width="22" height="27" fill="#2f9e67"/>
<line x1="595" y1="315" x2="595" y2="344" stroke="#d74b42" stroke-width="3"/>
<rect x="584" y="320" width="22" height="16" fill="#d74b42"/>
<line x1="643" y1="293" x2="643" y2="340" stroke="#2f9e67" stroke-width="3"/>
<rect x="632" y="299" width="22" height="38" fill="#2f9e67"/>
<line x1="691" y1="248" x2="691" y2="303" stroke="#2f9e67" stroke-width="3"/>
<rect x="680" y="255" width="22" height="45" fill="#2f9e67"/>
<line x1="739" y1="197" x2="739" y2="261" stroke="#2f9e67" stroke-width="3"/>
<rect x="728" y="204" width="22" height="52" fill="#2f9e67"/>
<rect x="103" y="545" width="24" height="15" fill="#6abf88"/>
<rect x="151" y="550" width="24" height="10" fill="#d74b42"/>
<rect x="199" y="545" width="24" height="15" fill="#6abf88"/>
<rect x="247" y="540" width="24" height="20" fill="#6abf88"/>
<rect x="295" y="550" width="24" height="10" fill="#d74b42"/>
<rect x="343" y="535" width="24" height="25" fill="#6abf88"/>
<rect x="391" y="530" width="24" height="30" fill="#6abf88"/>
<rect x="439" y="545" width="24" height="15" fill="#d74b42"/>
<rect x="487" y="540" width="24" height="20" fill="#6abf88"/>
<rect x="535" y="535" width="24" height="25" fill="#6abf88"/>
<rect x="583" y="545" width="24" height="15" fill="#d74b42"/>
<rect x="631" y="525" width="24" height="35" fill="#6abf88"/>
<rect x="679" y="520" width="24" height="40" fill="#6abf88"/>
<rect x="727" y="515" width="24" height="45" fill="#6abf88"/>
<text x="90" y="578" font-size="15" font-family="PingFang SC, Arial" fill="#6b7280">量能区</text>
<circle cx="691" cy="490" r="6" fill="none" stroke="#ef4444" stroke-width="2"/>
<text x="666" y="505" font-size="13" font-family="PingFang SC, Arial" fill="#dc2626">B买点</text>
<rect x="850" y="135" width="280" height="450" rx="16" fill="#ffffff" stroke="#d0c7bc"/>
<text x="875" y="178" font-size="24" font-family="PingFang SC, Arial" fill="#111827">点评</text>
<text x="875" y="220" font-size="18" font-family="PingFang SC, Arial" fill="#374151">短均线多头，量价配合较好</text>
<text x="875" y="262" font-size="18" font-family="PingFang SC, Arial" fill="#4b5563">• 放量阳线推动</text>
<text x="875" y="296" font-size="18" font-family="PingFang SC, Arial" fill="#4b5563">• 贴短均线运行</text>
<text x="875" y="330" font-size="18" font-family="PingFang SC, Arial" fill="#4b5563">• 风险：已有加速迹象</text>
<text x="875" y="655" font-size="18" font-family="PingFang SC, Arial" fill="#7c746b">教学示意图：重绘，不复刻原截图</text>
</svg>
