<svg xmlns="http://www.w3.org/2000/svg" width="1200" height="720" viewBox="0 0 1200 720">
<rect width="1200" height="720" fill="#fbfaf7"/>
<rect x="70" y="135" width="750" height="450" rx="18" fill="#fffefb" stroke="#c9c2b8" stroke-width="2"/>
<text x="70" y="70" font-size="34" font-family="PingFang SC, Arial" fill="#1f2933">案例38｜长盛轴承 300718</text>
<text x="850" y="70" font-size="34" font-family="PingFang SC, Arial" fill="#0f8a4b">82/100  较标准</text>
<text x="620" y="200" font-size="18" font-family="PingFang SC, Arial" fill="#6d28d9">前高/压力线</text>
<rect x="282" y="324" width="386" height="84" fill="none" stroke="#2563eb" stroke-width="3"/>
<text x="90" y="162" font-size="13" font-family="PingFang SC, Arial" fill="#4b5563" font-weight="bold">均线</text>
<line x1="125" y1="159" x2="145" y2="159" stroke="#f59e0b" stroke-width="3"/>
<text x="149" y="162" font-size="12" font-family="PingFang SC, Arial" fill="#f59e0b">MA5</text>
<line x1="183" y1="159" x2="203" y2="159" stroke="#8b5cf6" stroke-width="3" stroke-dasharray="6,4"/>
<text x="207" y="162" font-size="12" font-family="PingFang SC, Arial" fill="#8b5cf6">MA10</text>
<line x1="241" y1="159" x2="261" y2="159" stroke="#10b981" stroke-width="3"/>
<text x="265" y="162" font-size="12" font-family="PingFang SC, Arial" fill="#10b981">MA20</text>
<line x1="299" y1="159" x2="319" y2="159" stroke="#f97316" stroke-width="3"/>
<text x="323" y="162" font-size="12" font-family="PingFang SC, Arial" fill="#f97316">MA30</text>
<line x1="357" y1="159" x2="377" y2="159" stroke="#ef4444" stroke-width="3"/>
<text x="381" y="162" font-size="12" font-family="PingFang SC, Arial" fill="#ef4444">MA60</text>
<line x1="415" y1="159" x2="435" y2="159" stroke="#6b7280" stroke-width="3"/>
<text x="439" y="162" font-size="12" font-family="PingFang SC, Arial" fill="#6b7280">MA120</text>
<line x1="110" y1="270" x2="780" y2="270" stroke="#7c3aed" stroke-width="2" stroke-dasharray="8,4"/>
<text x="630" y="260" font-size="15" font-family="PingFang SC, Arial" fill="#6d28d9">前高压力线</text>
<rect x="292" y="328" width="270" height="157" fill="none" stroke="#2563eb" stroke-width="3"/>
<text x="292" y="318" font-size="15" font-family="PingFang SC, Arial" fill="#1d4ed8">高位窄箱体</text>
<polyline points="115,469 163,470 211,470 259,442 307,437 355,433 403,431 451,407 499,425 547,422 595,410 643,391 691,370 739,332" fill="none" stroke="#f59e0b" stroke-width="2.5"/>
<polyline points="115,467 163,469 211,469 259,455 307,454 355,451 403,451 451,439 499,433 547,429 595,422 643,410 691,388 739,378" fill="none" stroke="#8b5cf6" stroke-width="2.5" stroke-dasharray="8,4"/>
<polyline points="115,483 163,483 211,483 259,476 307,474 355,471 403,470 451,461 499,455 547,449 595,445 643,440 691,428 739,416" fill="none" stroke="#10b981" stroke-width="2.5"/>
<polyline points="115,468 163,470 211,471 259,469 307,470 355,471 403,472 451,470 499,467 547,466 595,463 643,459 691,452 739,443" fill="none" stroke="#f97316" stroke-width="2.5"/>
<polyline points="115,446 163,445 211,445 259,443 307,442 355,441 403,442 451,440 499,440 547,440 595,440 643,439 691,436 739,433" fill="none" stroke="#ef4444" stroke-width="2.5"/>
<polyline points="115,477 163,476 211,476 259,474 307,473 355,472 403,472 451,470 499,470 547,469 595,468 643,466 691,465 739,463" fill="none" stroke="#6b7280" stroke-width="2.5"/>
<line x1="115" y1="423" x2="115" y2="482" stroke="#d74b42" stroke-width="3"/>
<rect x="104" y="440" width="22" height="25" fill="#d74b42"/>
<line x1="163" y1="456" x2="163" y2="504" stroke="#2f9e67" stroke-width="3"/>
<rect x="152" y="473" width="22" height="14" fill="#2f9e67"/>
<line x1="211" y1="453" x2="211" y2="502" stroke="#2f9e67" stroke-width="3"/>
<rect x="200" y="470" width="22" height="15" fill="#2f9e67"/>
<line x1="259" y1="295" x2="259" y2="426" stroke="#2f9e67" stroke-width="3"/>
<rect x="248" y="333" width="22" height="65" fill="#2f9e67"/>
<line x1="307" y1="432" x2="307" y2="467" stroke="#2f9e67" stroke-width="3"/>
<rect x="296" y="442" width="22" height="14" fill="#2f9e67"/>
<line x1="355" y1="426" x2="355" y2="461" stroke="#d74b42" stroke-width="3"/>
<rect x="344" y="437" width="22" height="14" fill="#d74b42"/>
<line x1="403" y1="448" x2="403" y2="480" stroke="#2f9e67" stroke-width="3"/>
<rect x="392" y="458" width="22" height="12" fill="#2f9e67"/>
<line x1="451" y1="333" x2="451" y2="365" stroke="#d74b42" stroke-width="3"/>
<rect x="440" y="344" width="22" height="10" fill="#d74b42"/>
<line x1="499" y1="391" x2="499" y2="429" stroke="#d74b42" stroke-width="3"/>
<rect x="488" y="401" width="22" height="17" fill="#d74b42"/>
<line x1="547" y1="406" x2="547" y2="440" stroke="#d74b42" stroke-width="3"/>
<rect x="536" y="416" width="22" height="14" fill="#d74b42"/>
<line x1="595" y1="372" x2="595" y2="432" stroke="#2f9e67" stroke-width="3"/>
<rect x="584" y="393" width="22" height="27" fill="#2f9e67"/>
<line x1="643" y1="332" x2="643" y2="372" stroke="#d74b42" stroke-width="3"/>
<rect x="632" y="354" width="22" height="4" fill="#d74b42"/>
<line x1="691" y1="221" x2="691" y2="326" stroke="#2f9e67" stroke-width="3"/>
<rect x="680" y="248" width="22" height="58" fill="#2f9e67"/>
<line x1="739" y1="209" x2="739" y2="276" stroke="#2f9e67" stroke-width="3"/>
<rect x="728" y="229" width="22" height="37" fill="#2f9e67"/>
<rect x="103" y="548" width="24" height="12" fill="#d74b42"/>
<rect x="151" y="546" width="24" height="14" fill="#6abf88"/>
<rect x="199" y="544" width="24" height="16" fill="#6abf88"/>
<rect x="247" y="502" width="24" height="58" fill="#6abf88"/>
<rect x="295" y="542" width="24" height="18" fill="#6abf88"/>
<rect x="343" y="544" width="24" height="16" fill="#d74b42"/>
<rect x="391" y="542" width="24" height="18" fill="#6abf88"/>
<rect x="439" y="546" width="24" height="14" fill="#d74b42"/>
<rect x="487" y="546" width="24" height="14" fill="#d74b42"/>
<rect x="535" y="544" width="24" height="16" fill="#d74b42"/>
<rect x="583" y="530" width="24" height="30" fill="#6abf88"/>
<rect x="631" y="542" width="24" height="18" fill="#d74b42"/>
<rect x="679" y="505" width="24" height="55" fill="#6abf88"/>
<rect x="727" y="525" width="24" height="35" fill="#6abf88"/>
<text x="90" y="578" font-size="15" font-family="PingFang SC, Arial" fill="#6b7280">量能区</text>
<circle cx="451" cy="365" r="6" fill="none" stroke="#ef4444" stroke-width="2"/>
<text x="461" y="380" font-size="13" font-family="PingFang SC, Arial" fill="#dc2626">低吸试错点</text>
<circle cx="691" cy="221" r="6" fill="#ef4444" stroke="none"/>
<text x="651" y="206" font-size="13" font-family="PingFang SC, Arial" fill="#dc2626">突破确认点</text>
<rect x="850" y="135" width="280" height="450" rx="16" fill="#ffffff" stroke="#d0c7bc"/>
<text x="875" y="178" font-size="24" font-family="PingFang SC, Arial" fill="#111827">点评</text>
<text x="875" y="220" font-size="18" font-family="PingFang SC, Arial" fill="#374151">高位窄箱待突破样本</text>
<text x="875" y="258" font-size="18" font-family="PingFang SC, Arial" fill="#374151">低吸试错：箱体下沿约79</text>
<text x="875" y="296" font-size="18" font-family="PingFang SC, Arial" fill="#374151">突破确认：放量过84.22</text>
<text x="875" y="655" font-size="18" font-family="PingFang SC, Arial" fill="#7c746b">教学重绘图：不复刻原截图</text>
</svg>
