<svg xmlns="http://www.w3.org/2000/svg" width="1200" height="720" viewBox="0 0 1200 720">
<rect width="1200" height="720" fill="#fbfaf7"/>
<rect x="70" y="135" width="750" height="450" rx="18" fill="#fffefb" stroke="#c9c2b8" stroke-width="2"/>
<text x="70" y="70" font-size="34" font-family="PingFang SC, Arial" fill="#1f2933">案例05｜湘潭电化 002125</text>
<text x="850" y="70" font-size="34" font-family="PingFang SC, Arial" fill="#0f8a4b">78/100  较标准</text>
<rect x="282" y="320" width="338" height="80" fill="none" stroke="#2563eb" stroke-width="3"/>
<text x="90" y="162" font-size="13" font-family="PingFang SC, Arial" fill="#4b5563" font-weight="bold">均线</text>
<line x1="125" y1="159" x2="145" y2="159" stroke="#f59e0b" stroke-width="3"/>
<text x="149" y="162" font-size="12" font-family="PingFang SC, Arial" fill="#f59e0b">MA5</text>
<line x1="183" y1="159" x2="203" y2="159" stroke="#8b5cf6" stroke-width="3" stroke-dasharray="6,4"/>
<text x="207" y="162" font-size="12" font-family="PingFang SC, Arial" fill="#8b5cf6">MA10</text>
<line x1="241" y1="159" x2="261" y2="159" stroke="#10b981" stroke-width="3"/>
<text x="265" y="162" font-size="12" font-family="PingFang SC, Arial" fill="#10b981">MA20</text>
<line x1="299" y1="159" x2="319" y2="159" stroke="#f97316" stroke-width="3"/>
<text x="323" y="162" font-size="12" font-family="PingFang SC, Arial" fill="#f97316">MA30</text>
<line x1="357" y1="159" x2="377" y2="159" stroke="#ef4444" stroke-width="3"/>
<text x="381" y="162" font-size="12" font-family="PingFang SC, Arial" fill="#ef4444">MA60</text>
<line x1="415" y1="159" x2="435" y2="159" stroke="#6b7280" stroke-width="3"/>
<text x="439" y="162" font-size="12" font-family="PingFang SC, Arial" fill="#6b7280">MA120</text>
<line x1="110" y1="247" x2="780" y2="247" stroke="#7c3aed" stroke-width="2" stroke-dasharray="8,4"/>
<text x="630" y="237" font-size="15" font-family="PingFang SC, Arial" fill="#6d28d9">前高压力线</text>
<rect x="292" y="312" width="270" height="158" fill="none" stroke="#2563eb" stroke-width="3"/>
<text x="292" y="302" font-size="15" font-family="PingFang SC, Arial" fill="#1d4ed8">高位窄箱体</text>
<polyline points="115,462 163,456 211,453 259,419 307,417 355,413 403,410 451,388 499,408 547,405 595,396 643,378 691,362 739,325" fill="none" stroke="#f59e0b" stroke-width="2.5"/>
<polyline points="115,468 163,463 211,460 259,445 307,441 355,438 403,433 451,420 499,414 547,411 595,404 643,394 691,375 739,366" fill="none" stroke="#8b5cf6" stroke-width="2.5" stroke-dasharray="8,4"/>
<polyline points="115,475 163,472 211,469 259,461 307,459 355,457 403,456 451,450 499,446 547,442 595,437 643,428 691,417 739,405" fill="none" stroke="#10b981" stroke-width="2.5"/>
<polyline points="115,498 163,494 211,490 259,480 307,476 355,472 403,469 451,463 499,458 547,455 595,452 643,446 691,438 739,429" fill="none" stroke="#f97316" stroke-width="2.5"/>
<polyline points="115,505 163,505 211,504 259,501 307,500 355,498 403,497 451,493 499,491 547,489 595,486 643,483 691,478 739,474" fill="none" stroke="#ef4444" stroke-width="2.5"/>
<polyline points="115,493 163,494 211,495 259,495 307,495 355,495 403,496 451,495 499,496 547,496 595,496 643,496 691,495 739,493" fill="none" stroke="#6b7280" stroke-width="2.5"/>
<line x1="115" y1="415" x2="115" y2="468" stroke="#d74b42" stroke-width="3"/>
<rect x="104" y="431" width="22" height="21" fill="#d74b42"/>
<line x1="163" y1="437" x2="163" y2="481" stroke="#2f9e67" stroke-width="3"/>
<rect x="152" y="453" width="22" height="12" fill="#2f9e67"/>
<line x1="211" y1="425" x2="211" y2="467" stroke="#2f9e67" stroke-width="3"/>
<rect x="200" y="441" width="22" height="10" fill="#2f9e67"/>
<line x1="259" y1="272" x2="259" y2="399" stroke="#2f9e67" stroke-width="3"/>
<rect x="248" y="308" width="22" height="63" fill="#2f9e67"/>
<line x1="307" y1="420" x2="307" y2="453" stroke="#2f9e67" stroke-width="3"/>
<rect x="296" y="430" width="22" height="13" fill="#2f9e67"/>
<line x1="355" y1="422" x2="355" y2="452" stroke="#2f9e67" stroke-width="3"/>
<rect x="344" y="432" width="22" height="9" fill="#2f9e67"/>
<line x1="403" y1="429" x2="403" y2="465" stroke="#2f9e67" stroke-width="3"/>
<rect x="392" y="440" width="22" height="14" fill="#2f9e67"/>
<line x1="451" y1="317" x2="451" y2="351" stroke="#2f9e67" stroke-width="3"/>
<rect x="440" y="328" width="22" height="13" fill="#2f9e67"/>
<line x1="499" y1="386" x2="499" y2="420" stroke="#d74b42" stroke-width="3"/>
<rect x="488" y="396" width="22" height="14" fill="#d74b42"/>
<line x1="547" y1="408" x2="547" y2="444" stroke="#2f9e67" stroke-width="3"/>
<rect x="536" y="418" width="22" height="16" fill="#2f9e67"/>
<line x1="595" y1="365" x2="595" y2="430" stroke="#2f9e67" stroke-width="3"/>
<rect x="584" y="385" width="22" height="33" fill="#2f9e67"/>
<line x1="643" y1="329" x2="643" y2="392" stroke="#2f9e67" stroke-width="3"/>
<rect x="632" y="351" width="22" height="28" fill="#2f9e67"/>
<line x1="691" y1="219" x2="691" y2="320" stroke="#2f9e67" stroke-width="3"/>
<rect x="680" y="245" width="22" height="57" fill="#2f9e67"/>
<line x1="739" y1="208" x2="739" y2="279" stroke="#2f9e67" stroke-width="3"/>
<rect x="728" y="227" width="22" height="41" fill="#2f9e67"/>
<rect x="103" y="548" width="24" height="12" fill="#d74b42"/>
<rect x="151" y="546" width="24" height="14" fill="#6abf88"/>
<rect x="199" y="544" width="24" height="16" fill="#6abf88"/>
<rect x="247" y="502" width="24" height="58" fill="#6abf88"/>
<rect x="295" y="542" width="24" height="18" fill="#6abf88"/>
<rect x="343" y="544" width="24" height="16" fill="#6abf88"/>
<rect x="391" y="542" width="24" height="18" fill="#6abf88"/>
<rect x="439" y="546" width="24" height="14" fill="#6abf88"/>
<rect x="487" y="546" width="24" height="14" fill="#d74b42"/>
<rect x="535" y="544" width="24" height="16" fill="#6abf88"/>
<rect x="583" y="530" width="24" height="30" fill="#6abf88"/>
<rect x="631" y="542" width="24" height="18" fill="#6abf88"/>
<rect x="679" y="505" width="24" height="55" fill="#6abf88"/>
<rect x="727" y="525" width="24" height="35" fill="#6abf88"/>
<text x="90" y="578" font-size="15" font-family="PingFang SC, Arial" fill="#6b7280">量能区</text>
<circle cx="451" cy="351" r="6" fill="none" stroke="#ef4444" stroke-width="2"/>
<text x="461" y="366" font-size="13" font-family="PingFang SC, Arial" fill="#dc2626">低吸试错点</text>
<circle cx="691" cy="219" r="6" fill="#ef4444" stroke="none"/>
<text x="651" y="204" font-size="13" font-family="PingFang SC, Arial" fill="#dc2626">突破确认点</text>
<rect x="850" y="135" width="280" height="450" rx="16" fill="#ffffff" stroke="#d0c7bc"/>
<text x="875" y="178" font-size="24" font-family="PingFang SC, Arial" fill="#111827">点评</text>
<text x="875" y="220" font-size="18" font-family="PingFang SC, Arial" fill="#374151">高位窄箱+收敛末端突破</text>
<text x="875" y="262" font-size="18" font-family="PingFang SC, Arial" fill="#4b5563">• 放量中大阳启动</text>
<text x="875" y="296" font-size="18" font-family="PingFang SC, Arial" fill="#4b5563">• 收敛三角末端</text>
<text x="875" y="330" font-size="18" font-family="PingFang SC, Arial" fill="#4b5563">• 风险：高位假突破</text>
<text x="875" y="655" font-size="18" font-family="PingFang SC, Arial" fill="#7c746b">教学示意图：重绘，不复刻原截图</text>
</svg>
