<svg xmlns="http://www.w3.org/2000/svg" width="1200" height="720" viewBox="0 0 1200 720">
<rect width="1200" height="720" fill="#fbfaf7"/>
<rect x="70" y="135" width="750" height="450" rx="18" fill="#fffefb" stroke="#c9c2b8" stroke-width="2"/>
<text x="70" y="70" font-size="34" font-family="PingFang SC, Arial" fill="#1f2933">案例36｜浙能电力 600023</text>
<text x="850" y="70" font-size="34" font-family="PingFang SC, Arial" fill="#b7791f">70/100  勉强</text>
<text x="620" y="200" font-size="18" font-family="PingFang SC, Arial" fill="#6d28d9">前高/压力线</text>
<text x="90" y="162" font-size="13" font-family="PingFang SC, Arial" fill="#4b5563" font-weight="bold">均线</text>
<line x1="125" y1="159" x2="145" y2="159" stroke="#f59e0b" stroke-width="3"/>
<text x="149" y="162" font-size="12" font-family="PingFang SC, Arial" fill="#f59e0b">MA5</text>
<line x1="183" y1="159" x2="203" y2="159" stroke="#8b5cf6" stroke-width="3" stroke-dasharray="6,4"/>
<text x="207" y="162" font-size="12" font-family="PingFang SC, Arial" fill="#8b5cf6">MA10</text>
<line x1="241" y1="159" x2="261" y2="159" stroke="#10b981" stroke-width="3"/>
<text x="265" y="162" font-size="12" font-family="PingFang SC, Arial" fill="#10b981">MA20</text>
<line x1="299" y1="159" x2="319" y2="159" stroke="#f97316" stroke-width="3"/>
<text x="323" y="162" font-size="12" font-family="PingFang SC, Arial" fill="#f97316">MA30</text>
<line x1="357" y1="159" x2="377" y2="159" stroke="#ef4444" stroke-width="3"/>
<text x="381" y="162" font-size="12" font-family="PingFang SC, Arial" fill="#ef4444">MA60</text>
<line x1="415" y1="159" x2="435" y2="159" stroke="#6b7280" stroke-width="3"/>
<text x="439" y="162" font-size="12" font-family="PingFang SC, Arial" fill="#6b7280">MA120</text>
<line x1="110" y1="233" x2="780" y2="233" stroke="#7c3aed" stroke-width="2" stroke-dasharray="8,4"/>
<text x="630" y="223" font-size="15" font-family="PingFang SC, Arial" fill="#6d28d9">前高压力线</text>
<rect x="292" y="295" width="270" height="146" fill="none" stroke="#2563eb" stroke-width="3"/>
<text x="292" y="285" font-size="15" font-family="PingFang SC, Arial" fill="#1d4ed8">高位窄箱体</text>
<polyline points="115,425 163,428 211,422 259,394 307,391 355,389 403,388 451,368 499,387 547,384 595,374 643,358 691,344 739,311" fill="none" stroke="#f59e0b" stroke-width="2.5"/>
<polyline points="115,415 163,418 211,417 259,407 307,406 355,408 403,408 451,395 499,391 547,388 595,382 643,373 691,355 739,349" fill="none" stroke="#8b5cf6" stroke-width="2.5" stroke-dasharray="8,4"/>
<polyline points="115,420 163,418 211,416 259,408 307,405 355,404 403,405 451,399 499,398 547,399 595,398 643,395 691,386 739,378" fill="none" stroke="#10b981" stroke-width="2.5"/>
<polyline points="115,442 163,439 211,436 259,428 307,425 355,422 403,420 451,414 499,412 547,410 595,407 643,403 691,396 739,388" fill="none" stroke="#f97316" stroke-width="2.5"/>
<polyline points="115,485 163,483 211,481 259,478 307,476 355,474 403,471 451,467 499,465 547,462 595,460 643,457 691,452 739,447" fill="none" stroke="#ef4444" stroke-width="2.5"/>
<polyline points="115,508 163,507 211,505 259,503 307,501 355,500 403,498 451,495 499,494 547,492 595,490 643,487 691,485 739,481" fill="none" stroke="#6b7280" stroke-width="2.5"/>
<line x1="115" y1="412" x2="115" y2="452" stroke="#2f9e67" stroke-width="3"/>
<rect x="104" y="427" width="22" height="10" fill="#2f9e67"/>
<line x1="163" y1="395" x2="163" y2="436" stroke="#d74b42" stroke-width="3"/>
<rect x="152" y="410" width="22" height="12" fill="#d74b42"/>
<line x1="211" y1="396" x2="211" y2="434" stroke="#2f9e67" stroke-width="3"/>
<rect x="200" y="411" width="22" height="8" fill="#2f9e67"/>
<line x1="259" y1="258" x2="259" y2="372" stroke="#2f9e67" stroke-width="3"/>
<rect x="248" y="291" width="22" height="57" fill="#2f9e67"/>
<line x1="307" y1="399" x2="307" y2="427" stroke="#2f9e67" stroke-width="3"/>
<rect x="296" y="408" width="22" height="10" fill="#2f9e67"/>
<line x1="355" y1="405" x2="355" y2="436" stroke="#2f9e67" stroke-width="3"/>
<rect x="344" y="414" width="22" height="13" fill="#2f9e67"/>
<line x1="403" y1="407" x2="403" y2="434" stroke="#2f9e67" stroke-width="3"/>
<rect x="392" y="416" width="22" height="9" fill="#2f9e67"/>
<line x1="451" y1="300" x2="451" y2="326" stroke="#2f9e67" stroke-width="3"/>
<rect x="440" y="310" width="22" height="6" fill="#2f9e67"/>
<line x1="499" y1="378" x2="499" y2="407" stroke="#2f9e67" stroke-width="3"/>
<rect x="488" y="387" width="22" height="11" fill="#2f9e67"/>
<line x1="547" y1="386" x2="547" y2="410" stroke="#2f9e67" stroke-width="3"/>
<rect x="536" y="395" width="22" height="6" fill="#2f9e67"/>
<line x1="595" y1="346" x2="595" y2="395" stroke="#2f9e67" stroke-width="3"/>
<rect x="584" y="364" width="22" height="20" fill="#2f9e67"/>
<line x1="643" y1="309" x2="643" y2="346" stroke="#d74b42" stroke-width="3"/>
<rect x="632" y="329" width="22" height="5" fill="#d74b42"/>
<line x1="691" y1="215" x2="691" y2="307" stroke="#2f9e67" stroke-width="3"/>
<rect x="680" y="239" width="22" height="50" fill="#2f9e67"/>
<line x1="739" y1="205" x2="739" y2="259" stroke="#2f9e67" stroke-width="3"/>
<rect x="728" y="222" width="22" height="28" fill="#2f9e67"/>
<rect x="103" y="548" width="24" height="12" fill="#6abf88"/>
<rect x="151" y="546" width="24" height="14" fill="#d74b42"/>
<rect x="199" y="544" width="24" height="16" fill="#6abf88"/>
<rect x="247" y="502" width="24" height="58" fill="#6abf88"/>
<rect x="295" y="542" width="24" height="18" fill="#6abf88"/>
<rect x="343" y="544" width="24" height="16" fill="#6abf88"/>
<rect x="391" y="542" width="24" height="18" fill="#6abf88"/>
<rect x="439" y="546" width="24" height="14" fill="#6abf88"/>
<rect x="487" y="546" width="24" height="14" fill="#6abf88"/>
<rect x="535" y="544" width="24" height="16" fill="#6abf88"/>
<rect x="583" y="530" width="24" height="30" fill="#6abf88"/>
<rect x="631" y="542" width="24" height="18" fill="#d74b42"/>
<rect x="679" y="505" width="24" height="55" fill="#6abf88"/>
<rect x="727" y="525" width="24" height="35" fill="#6abf88"/>
<text x="90" y="578" font-size="15" font-family="PingFang SC, Arial" fill="#6b7280">量能区</text>
<circle cx="451" cy="326" r="6" fill="none" stroke="#ef4444" stroke-width="2"/>
<text x="461" y="341" font-size="13" font-family="PingFang SC, Arial" fill="#dc2626">低吸试错点</text>
<circle cx="691" cy="215" r="6" fill="#ef4444" stroke="none"/>
<text x="651" y="200" font-size="13" font-family="PingFang SC, Arial" fill="#dc2626">突破确认点</text>
<rect x="850" y="135" width="280" height="450" rx="16" fill="#ffffff" stroke="#d0c7bc"/>
<text x="875" y="178" font-size="24" font-family="PingFang SC, Arial" fill="#111827">点评</text>
<text x="875" y="220" font-size="18" font-family="PingFang SC, Arial" fill="#374151">主升长阳，结构强但追高位差</text>
<text x="875" y="258" font-size="18" font-family="PingFang SC, Arial" fill="#374151">突破确认：6.77放量长阳</text>
<text x="875" y="296" font-size="18" font-family="PingFang SC, Arial" fill="#374151">失效：跌破启动阳线半分位</text>
<text x="875" y="655" font-size="18" font-family="PingFang SC, Arial" fill="#7c746b">教学重绘图：不复刻原截图</text>
</svg>
