<svg xmlns="http://www.w3.org/2000/svg" width="1200" height="720" viewBox="0 0 1200 720">
<rect width="1200" height="720" fill="#fbfaf7"/>
<rect x="70" y="135" width="750" height="450" rx="18" fill="#fffefb" stroke="#c9c2b8" stroke-width="2"/>
<text x="70" y="70" font-size="34" font-family="PingFang SC, Arial" fill="#1f2933">案例43｜昊志机电 300503</text>
<text x="850" y="70" font-size="34" font-family="PingFang SC, Arial" fill="#0f8a4b">86/100  标准</text>
<text x="620" y="200" font-size="18" font-family="PingFang SC, Arial" fill="#6d28d9">前高/压力线</text>
<rect x="282" y="324" width="386" height="84" fill="none" stroke="#2563eb" stroke-width="3"/>
<text x="90" y="162" font-size="13" font-family="PingFang SC, Arial" fill="#4b5563" font-weight="bold">均线</text>
<line x1="125" y1="159" x2="145" y2="159" stroke="#f59e0b" stroke-width="3"/>
<text x="149" y="162" font-size="12" font-family="PingFang SC, Arial" fill="#f59e0b">MA5</text>
<line x1="183" y1="159" x2="203" y2="159" stroke="#8b5cf6" stroke-width="3" stroke-dasharray="6,4"/>
<text x="207" y="162" font-size="12" font-family="PingFang SC, Arial" fill="#8b5cf6">MA10</text>
<line x1="241" y1="159" x2="261" y2="159" stroke="#10b981" stroke-width="3"/>
<text x="265" y="162" font-size="12" font-family="PingFang SC, Arial" fill="#10b981">MA20</text>
<line x1="299" y1="159" x2="319" y2="159" stroke="#f97316" stroke-width="3"/>
<text x="323" y="162" font-size="12" font-family="PingFang SC, Arial" fill="#f97316">MA30</text>
<line x1="357" y1="159" x2="377" y2="159" stroke="#ef4444" stroke-width="3"/>
<text x="381" y="162" font-size="12" font-family="PingFang SC, Arial" fill="#ef4444">MA60</text>
<line x1="415" y1="159" x2="435" y2="159" stroke="#6b7280" stroke-width="3"/>
<text x="439" y="162" font-size="12" font-family="PingFang SC, Arial" fill="#6b7280">MA120</text>
<polyline points="115,433 163,446 211,439 259,422 307,408 355,392 403,369 451,355 499,347 547,333 595,329 643,318 691,291 739,277" fill="none" stroke="#f59e0b" stroke-width="2.5"/>
<polyline points="115,416 163,421 211,421 259,417 307,416 355,413 403,407 451,397 499,384 547,370 595,360 643,344 691,323 739,312" fill="none" stroke="#8b5cf6" stroke-width="2.5" stroke-dasharray="8,4"/>
<polyline points="115,408 163,412 211,414 259,413 307,412 355,408 403,404 451,400 499,398 547,392 595,388 643,383 691,372 739,365" fill="none" stroke="#10b981" stroke-width="2.5"/>
<polyline points="115,413 163,413 211,411 259,409 307,407 355,405 403,402 451,400 499,398 547,395 595,392 643,389 691,384 739,379" fill="none" stroke="#f97316" stroke-width="2.5"/>
<polyline points="115,451 163,450 211,449 259,448 307,446 355,443 403,440 451,438 499,435 547,432 595,430 643,427 691,422 739,417" fill="none" stroke="#ef4444" stroke-width="2.5"/>
<polyline points="115,500 163,500 211,499 259,498 307,497 355,496 403,494 451,493 499,491 547,489 595,488 643,485 691,482 739,480" fill="none" stroke="#6b7280" stroke-width="2.5"/>
<line x1="110" y1="247" x2="780" y2="247" stroke="#7c3aed" stroke-width="2" stroke-dasharray="8,4"/>
<text x="630" y="237" font-size="15" font-family="PingFang SC, Arial" fill="#6d28d9">前高压力线</text>
<rect x="292" y="338" width="270" height="134" fill="none" stroke="#2563eb" stroke-width="3"/>
<text x="292" y="326" font-size="15" font-family="PingFang SC, Arial" fill="#1d4ed8">高位窄箱体</text>
<line x1="115" y1="430" x2="115" y2="448" stroke="#2f9e67" stroke-width="3"/>
<rect x="104" y="433" width="22" height="14" fill="#2f9e67"/>
<line x1="163" y1="425" x2="163" y2="451" stroke="#d74b42" stroke-width="3"/>
<rect x="152" y="427" width="22" height="21" fill="#d74b42"/>
<line x1="211" y1="411" x2="211" y2="453" stroke="#2f9e67" stroke-width="3"/>
<rect x="200" y="419" width="22" height="29" fill="#2f9e67"/>
<line x1="259" y1="354" x2="259" y2="426" stroke="#2f9e67" stroke-width="3"/>
<rect x="248" y="363" width="22" height="58" fill="#2f9e67"/>
<line x1="307" y1="353" x2="307" y2="385" stroke="#d74b42" stroke-width="3"/>
<rect x="296" y="357" width="22" height="22" fill="#d74b42"/>
<line x1="355" y1="345" x2="355" y2="382" stroke="#2f9e67" stroke-width="3"/>
<rect x="344" y="350" width="22" height="29" fill="#2f9e67"/>
<line x1="403" y1="332" x2="403" y2="351" stroke="#2f9e67" stroke-width="3"/>
<rect x="392" y="335" width="22" height="14" fill="#2f9e67"/>
<line x1="451" y1="325" x2="451" y2="357" stroke="#d74b42" stroke-width="3"/>
<rect x="440" y="329" width="22" height="22" fill="#d74b42"/>
<line x1="499" y1="317" x2="499" y2="354" stroke="#2f9e67" stroke-width="3"/>
<rect x="488" y="321" width="22" height="30" fill="#2f9e67"/>
<line x1="547" y1="304" x2="547" y2="323" stroke="#2f9e67" stroke-width="3"/>
<rect x="536" y="306" width="22" height="15" fill="#2f9e67"/>
<line x1="595" y1="290" x2="595" y2="345" stroke="#d74b42" stroke-width="3"/>
<rect x="584" y="297" width="22" height="37" fill="#d74b42"/>
<line x1="643" y1="274" x2="643" y2="339" stroke="#2f9e67" stroke-width="3"/>
<rect x="632" y="282" width="22" height="53" fill="#2f9e67"/>
<line x1="691" y1="202" x2="691" y2="289" stroke="#2f9e67" stroke-width="3"/>
<rect x="680" y="213" width="22" height="70" fill="#2f9e67"/>
<line x1="739" y1="194" x2="739" y2="261" stroke="#d74b42" stroke-width="3"/>
<rect x="728" y="199" width="22" height="54" fill="#d74b42"/>
<rect x="103" y="550" width="24" height="10" fill="#6abf88"/>
<rect x="151" y="545" width="24" height="15" fill="#d74b42"/>
<rect x="199" y="540" width="24" height="20" fill="#6abf88"/>
<rect x="247" y="520" width="24" height="40" fill="#6abf88"/>
<rect x="295" y="545" width="24" height="15" fill="#d74b42"/>
<rect x="343" y="540" width="24" height="20" fill="#6abf88"/>
<rect x="391" y="550" width="24" height="10" fill="#6abf88"/>
<rect x="439" y="545" width="24" height="15" fill="#d74b42"/>
<rect x="487" y="540" width="24" height="20" fill="#6abf88"/>
<rect x="535" y="550" width="24" height="10" fill="#6abf88"/>
<rect x="583" y="535" width="24" height="25" fill="#d74b42"/>
<rect x="631" y="525" width="24" height="35" fill="#6abf88"/>
<rect x="679" y="515" width="24" height="45" fill="#6abf88"/>
<rect x="727" y="525" width="24" height="35" fill="#d74b42"/>
<text x="90" y="578" font-size="15" font-family="PingFang SC, Arial" fill="#6b7280">量能区</text>
<rect x="850" y="135" width="280" height="450" rx="16" fill="#ffffff" stroke="#d0c7bc"/>
<text x="875" y="178" font-size="24" font-family="PingFang SC, Arial" fill="#111827">点评</text>
<text x="875" y="220" font-size="18" font-family="PingFang SC, Arial" fill="#374151">高位窄箱+放量中阳突破</text>
<text x="875" y="258" font-size="18" font-family="PingFang SC, Arial" fill="#374151">低吸试错：70-71</text>
<text x="875" y="296" font-size="18" font-family="PingFang SC, Arial" fill="#374151">突破确认：过74-75</text>
<text x="875" y="655" font-size="18" font-family="PingFang SC, Arial" fill="#7c746b">教学重绘图：不复刻原截图</text>
</svg>
