<svg xmlns="http://www.w3.org/2000/svg" width="1200" height="720" viewBox="0 0 1200 720">
<rect width="1200" height="720" fill="#fbfaf7"/>
<rect x="70" y="135" width="750" height="450" rx="18" fill="#fffefb" stroke="#c9c2b8" stroke-width="2"/>
<text x="70" y="70" font-size="34" font-family="PingFang SC, Arial" fill="#1f2933">案例44｜昊志机电 300503</text>
<text x="850" y="70" font-size="34" font-family="PingFang SC, Arial" fill="#0f8a4b">85/100  标准</text>
<text x="620" y="200" font-size="18" font-family="PingFang SC, Arial" fill="#6d28d9">前高/压力线</text>
<rect x="282" y="324" width="386" height="84" fill="none" stroke="#2563eb" stroke-width="3"/>
<text x="90" y="162" font-size="13" font-family="PingFang SC, Arial" fill="#4b5563" font-weight="bold">均线</text>
<line x1="125" y1="159" x2="145" y2="159" stroke="#f59e0b" stroke-width="3"/>
<text x="149" y="162" font-size="12" font-family="PingFang SC, Arial" fill="#f59e0b">MA5</text>
<line x1="183" y1="159" x2="203" y2="159" stroke="#8b5cf6" stroke-width="3" stroke-dasharray="6,4"/>
<text x="207" y="162" font-size="12" font-family="PingFang SC, Arial" fill="#8b5cf6">MA10</text>
<line x1="241" y1="159" x2="261" y2="159" stroke="#10b981" stroke-width="3"/>
<text x="265" y="162" font-size="12" font-family="PingFang SC, Arial" fill="#10b981">MA20</text>
<line x1="299" y1="159" x2="319" y2="159" stroke="#f97316" stroke-width="3"/>
<text x="323" y="162" font-size="12" font-family="PingFang SC, Arial" fill="#f97316">MA30</text>
<line x1="357" y1="159" x2="377" y2="159" stroke="#ef4444" stroke-width="3"/>
<text x="381" y="162" font-size="12" font-family="PingFang SC, Arial" fill="#ef4444">MA60</text>
<line x1="415" y1="159" x2="435" y2="159" stroke="#6b7280" stroke-width="3"/>
<text x="439" y="162" font-size="12" font-family="PingFang SC, Arial" fill="#6b7280">MA120</text>
<line x1="110" y1="266" x2="780" y2="266" stroke="#7c3aed" stroke-width="2" stroke-dasharray="8,4"/>
<text x="630" y="256" font-size="15" font-family="PingFang SC, Arial" fill="#6d28d9">前高压力线</text>
<rect x="292" y="322" width="270" height="150" fill="none" stroke="#2563eb" stroke-width="3"/>
<text x="292" y="312" font-size="15" font-family="PingFang SC, Arial" fill="#1d4ed8">高位窄箱体</text>
<polyline points="115,477 163,474 211,464 259,436 307,436 355,431 403,427 451,404 499,424 547,420 595,409 643,391 691,371 739,331" fill="none" stroke="#f59e0b" stroke-width="2.5"/>
<polyline points="115,459 163,461 211,463 259,455 307,454 355,454 403,451 451,434 499,430 547,428 595,420 643,409 691,387 739,377" fill="none" stroke="#8b5cf6" stroke-width="2.5" stroke-dasharray="8,4"/>
<polyline points="115,405 163,410 211,415 259,414 307,420 355,427 403,434 451,435 499,439 547,440 595,439 643,435 691,425 739,416" fill="none" stroke="#10b981" stroke-width="2.5"/>
<polyline points="115,382 163,389 211,395 259,396 307,400 355,404 403,407 451,406 499,408 547,410 595,410 643,410 691,406 739,402" fill="none" stroke="#f97316" stroke-width="2.5"/>
<polyline points="115,342 163,345 211,348 259,348 307,350 355,352 403,354 451,354 499,355 547,357 595,359 643,359 691,358 739,357" fill="none" stroke="#ef4444" stroke-width="2.5"/>
<polyline points="115,260 163,263 211,266 259,268 307,271 355,274 403,277 451,280 499,283 547,285 595,288 643,291 691,292 739,293" fill="none" stroke="#6b7280" stroke-width="2.5"/>
<line x1="115" y1="456" x2="115" y2="504" stroke="#2f9e67" stroke-width="3"/>
<rect x="104" y="473" width="22" height="14" fill="#2f9e67"/>
<line x1="163" y1="434" x2="163" y2="481" stroke="#d74b42" stroke-width="3"/>
<rect x="152" y="451" width="22" height="13" fill="#d74b42"/>
<line x1="211" y1="434" x2="211" y2="482" stroke="#d74b42" stroke-width="3"/>
<rect x="200" y="451" width="22" height="14" fill="#d74b42"/>
<line x1="259" y1="291" x2="259" y2="420" stroke="#2f9e67" stroke-width="3"/>
<rect x="248" y="328" width="22" height="65" fill="#2f9e67"/>
<line x1="307" y1="440" x2="307" y2="467" stroke="#2f9e67" stroke-width="3"/>
<rect x="296" y="450" width="22" height="6" fill="#2f9e67"/>
<line x1="355" y1="420" x2="355" y2="458" stroke="#d74b42" stroke-width="3"/>
<rect x="344" y="430" width="22" height="18" fill="#d74b42"/>
<line x1="403" y1="434" x2="403" y2="467" stroke="#2f9e67" stroke-width="3"/>
<rect x="392" y="444" width="22" height="13" fill="#2f9e67"/>
<line x1="451" y1="327" x2="451" y2="360" stroke="#d74b42" stroke-width="3"/>
<rect x="440" y="338" width="22" height="11" fill="#d74b42"/>
<line x1="499" y1="408" x2="499" y2="439" stroke="#d74b42" stroke-width="3"/>
<rect x="488" y="419" width="22" height="10" fill="#d74b42"/>
<line x1="547" y1="410" x2="547" y2="438" stroke="#d74b42" stroke-width="3"/>
<rect x="536" y="420" width="22" height="8" fill="#d74b42"/>
<line x1="595" y1="372" x2="595" y2="432" stroke="#2f9e67" stroke-width="3"/>
<rect x="584" y="393" width="22" height="26" fill="#2f9e67"/>
<line x1="643" y1="335" x2="643" y2="406" stroke="#2f9e67" stroke-width="3"/>
<rect x="632" y="357" width="22" height="35" fill="#2f9e67"/>
<line x1="691" y1="221" x2="691" y2="325" stroke="#2f9e67" stroke-width="3"/>
<rect x="680" y="248" width="22" height="58" fill="#2f9e67"/>
<line x1="739" y1="209" x2="739" y2="279" stroke="#2f9e67" stroke-width="3"/>
<rect x="728" y="228" width="22" height="41" fill="#2f9e67"/>
<rect x="103" y="548" width="24" height="12" fill="#6abf88"/>
<rect x="151" y="546" width="24" height="14" fill="#d74b42"/>
<rect x="199" y="544" width="24" height="16" fill="#d74b42"/>
<rect x="247" y="502" width="24" height="58" fill="#6abf88"/>
<rect x="295" y="542" width="24" height="18" fill="#6abf88"/>
<rect x="343" y="544" width="24" height="16" fill="#d74b42"/>
<rect x="391" y="542" width="24" height="18" fill="#6abf88"/>
<rect x="439" y="546" width="24" height="14" fill="#d74b42"/>
<rect x="487" y="546" width="24" height="14" fill="#d74b42"/>
<rect x="535" y="544" width="24" height="16" fill="#d74b42"/>
<rect x="583" y="530" width="24" height="30" fill="#6abf88"/>
<rect x="631" y="542" width="24" height="18" fill="#6abf88"/>
<rect x="679" y="505" width="24" height="55" fill="#6abf88"/>
<rect x="727" y="525" width="24" height="35" fill="#6abf88"/>
<text x="90" y="578" font-size="15" font-family="PingFang SC, Arial" fill="#6b7280">量能区</text>
<circle cx="451" cy="360" r="6" fill="none" stroke="#ef4444" stroke-width="2"/>
<text x="461" y="375" font-size="13" font-family="PingFang SC, Arial" fill="#dc2626">低吸试错点</text>
<circle cx="691" cy="221" r="6" fill="#ef4444" stroke="none"/>
<text x="651" y="206" font-size="13" font-family="PingFang SC, Arial" fill="#dc2626">突破确认点</text>
<rect x="850" y="135" width="280" height="450" rx="16" fill="#ffffff" stroke="#d0c7bc"/>
<text x="875" y="178" font-size="24" font-family="PingFang SC, Arial" fill="#111827">点评</text>
<text x="875" y="220" font-size="18" font-family="PingFang SC, Arial" fill="#374151">结构完整但位置偏高</text>
<text x="875" y="258" font-size="18" font-family="PingFang SC, Arial" fill="#374151">低吸试错：箱体下沿</text>
<text x="875" y="296" font-size="18" font-family="PingFang SC, Arial" fill="#374151">失效：破68.96</text>
<text x="875" y="655" font-size="18" font-family="PingFang SC, Arial" fill="#7c746b">教学重绘图：不复刻原截图</text>
</svg>
