<svg xmlns="http://www.w3.org/2000/svg" width="1200" height="720" viewBox="0 0 1200 720">
<rect width="1200" height="720" fill="#fbfaf7"/>
<rect x="70" y="135" width="750" height="450" rx="18" fill="#fffefb" stroke="#c9c2b8" stroke-width="2"/>
<text x="70" y="70" font-size="34" font-family="PingFang SC, Arial" fill="#1f2933">案例35｜未明确个股</text>
<text x="850" y="70" font-size="34" font-family="PingFang SC, Arial" fill="#0f8a4b">85/100  标准</text>
<rect x="282" y="324" width="386" height="84" fill="none" stroke="#2563eb" stroke-width="3"/>
<text x="90" y="162" font-size="13" font-family="PingFang SC, Arial" fill="#4b5563" font-weight="bold">均线</text>
<line x1="125" y1="159" x2="145" y2="159" stroke="#f59e0b" stroke-width="3"/>
<text x="149" y="162" font-size="12" font-family="PingFang SC, Arial" fill="#f59e0b">MA5</text>
<line x1="183" y1="159" x2="203" y2="159" stroke="#8b5cf6" stroke-width="3" stroke-dasharray="6,4"/>
<text x="207" y="162" font-size="12" font-family="PingFang SC, Arial" fill="#8b5cf6">MA10</text>
<line x1="241" y1="159" x2="261" y2="159" stroke="#10b981" stroke-width="3"/>
<text x="265" y="162" font-size="12" font-family="PingFang SC, Arial" fill="#10b981">MA20</text>
<line x1="299" y1="159" x2="319" y2="159" stroke="#f97316" stroke-width="3"/>
<text x="323" y="162" font-size="12" font-family="PingFang SC, Arial" fill="#f97316">MA30</text>
<line x1="357" y1="159" x2="377" y2="159" stroke="#ef4444" stroke-width="3"/>
<text x="381" y="162" font-size="12" font-family="PingFang SC, Arial" fill="#ef4444">MA60</text>
<line x1="415" y1="159" x2="435" y2="159" stroke="#6b7280" stroke-width="3"/>
<text x="439" y="162" font-size="12" font-family="PingFang SC, Arial" fill="#6b7280">MA120</text>
<line x1="110" y1="252" x2="780" y2="252" stroke="#7c3aed" stroke-width="2" stroke-dasharray="8,4"/>
<text x="630" y="242" font-size="15" font-family="PingFang SC, Arial" fill="#6d28d9">前高压力线</text>
<rect x="292" y="296" width="270" height="129" fill="none" stroke="#2563eb" stroke-width="3"/>
<text x="292" y="286" font-size="15" font-family="PingFang SC, Arial" fill="#1d4ed8">高位窄箱体</text>
<polyline points="115,418 163,419 211,419 259,395 307,391 355,388 403,385 451,366 499,379 547,377 595,368 643,352 691,334 739,303" fill="none" stroke="#f59e0b" stroke-width="2.5"/>
<polyline points="115,415 163,416 211,418 259,408 307,405 355,403 403,402 451,393 499,387 547,384 595,378 643,369 691,350 739,342" fill="none" stroke="#8b5cf6" stroke-width="2.5" stroke-dasharray="8,4"/>
<polyline points="115,428 163,427 211,425 259,418 307,415 355,411 403,409 451,403 499,401 547,399 595,396 643,393 691,384 739,374" fill="none" stroke="#10b981" stroke-width="2.5"/>
<polyline points="115,438 163,436 211,435 259,430 307,428 355,427 403,425 451,420 499,418 547,415 595,412 643,408 691,401 739,393" fill="none" stroke="#f97316" stroke-width="2.5"/>
<polyline points="115,470 163,468 211,466 259,463 307,461 355,459 403,458 451,455 499,453 547,452 595,450 643,447 691,442 739,438" fill="none" stroke="#ef4444" stroke-width="2.5"/>
<polyline points="115,510 163,509 211,507 259,506 307,504 355,503 403,502 451,500 499,499 547,498 595,497 643,494 691,492 739,489" fill="none" stroke="#6b7280" stroke-width="2.5"/>
<line x1="115" y1="388" x2="115" y2="427" stroke="#d74b42" stroke-width="3"/>
<rect x="104" y="402" width="22" height="11" fill="#d74b42"/>
<line x1="163" y1="406" x2="163" y2="445" stroke="#2f9e67" stroke-width="3"/>
<rect x="152" y="420" width="22" height="12" fill="#2f9e67"/>
<line x1="211" y1="405" x2="211" y2="445" stroke="#2f9e67" stroke-width="3"/>
<rect x="200" y="419" width="22" height="13" fill="#2f9e67"/>
<line x1="259" y1="277" x2="259" y2="383" stroke="#2f9e67" stroke-width="3"/>
<rect x="248" y="308" width="22" height="52" fill="#2f9e67"/>
<line x1="307" y1="386" x2="307" y2="410" stroke="#2f9e67" stroke-width="3"/>
<rect x="296" y="394" width="22" height="8" fill="#2f9e67"/>
<line x1="355" y1="393" x2="355" y2="420" stroke="#2f9e67" stroke-width="3"/>
<rect x="344" y="402" width="22" height="9" fill="#2f9e67"/>
<line x1="403" y1="385" x2="403" y2="411" stroke="#d74b42" stroke-width="3"/>
<rect x="392" y="393" width="22" height="10" fill="#d74b42"/>
<line x1="451" y1="301" x2="451" y2="332" stroke="#d74b42" stroke-width="3"/>
<rect x="440" y="309" width="22" height="14" fill="#d74b42"/>
<line x1="499" y1="360" x2="499" y2="384" stroke="#d74b42" stroke-width="3"/>
<rect x="488" y="368" width="22" height="7" fill="#d74b42"/>
<line x1="547" y1="375" x2="547" y2="399" stroke="#2f9e67" stroke-width="3"/>
<rect x="536" y="384" width="22" height="6" fill="#2f9e67"/>
<line x1="595" y1="337" x2="595" y2="393" stroke="#2f9e67" stroke-width="3"/>
<rect x="584" y="354" width="22" height="29" fill="#2f9e67"/>
<line x1="643" y1="307" x2="643" y2="358" stroke="#2f9e67" stroke-width="3"/>
<rect x="632" y="325" width="22" height="23" fill="#2f9e67"/>
<line x1="691" y1="213" x2="691" y2="298" stroke="#2f9e67" stroke-width="3"/>
<rect x="680" y="235" width="22" height="47" fill="#2f9e67"/>
<line x1="739" y1="204" x2="739" y2="262" stroke="#2f9e67" stroke-width="3"/>
<rect x="728" y="219" width="22" height="35" fill="#2f9e67"/>
<rect x="103" y="548" width="24" height="12" fill="#d74b42"/>
<rect x="151" y="546" width="24" height="14" fill="#6abf88"/>
<rect x="199" y="544" width="24" height="16" fill="#6abf88"/>
<rect x="247" y="502" width="24" height="58" fill="#6abf88"/>
<rect x="295" y="542" width="24" height="18" fill="#6abf88"/>
<rect x="343" y="544" width="24" height="16" fill="#6abf88"/>
<rect x="391" y="542" width="24" height="18" fill="#d74b42"/>
<rect x="439" y="546" width="24" height="14" fill="#d74b42"/>
<rect x="487" y="546" width="24" height="14" fill="#d74b42"/>
<rect x="535" y="544" width="24" height="16" fill="#6abf88"/>
<rect x="583" y="530" width="24" height="30" fill="#6abf88"/>
<rect x="631" y="542" width="24" height="18" fill="#6abf88"/>
<rect x="679" y="505" width="24" height="55" fill="#6abf88"/>
<rect x="727" y="525" width="24" height="35" fill="#6abf88"/>
<text x="90" y="578" font-size="15" font-family="PingFang SC, Arial" fill="#6b7280">量能区</text>
<circle cx="451" cy="332" r="6" fill="none" stroke="#ef4444" stroke-width="2"/>
<text x="461" y="347" font-size="13" font-family="PingFang SC, Arial" fill="#dc2626">低吸试错点</text>
<circle cx="691" cy="213" r="6" fill="#ef4444" stroke="none"/>
<text x="651" y="198" font-size="13" font-family="PingFang SC, Arial" fill="#dc2626">突破确认点</text>
<rect x="850" y="135" width="280" height="450" rx="16" fill="#ffffff" stroke="#d0c7bc"/>
<text x="875" y="178" font-size="24" font-family="PingFang SC, Arial" fill="#111827">点评</text>
<text x="875" y="220" font-size="18" font-family="PingFang SC, Arial" fill="#374151">启动-窄箱-贴线突破齐全</text>
<text x="875" y="262" font-size="18" font-family="PingFang SC, Arial" fill="#4b5563">• 4根窄箱</text>
<text x="875" y="296" font-size="18" font-family="PingFang SC, Arial" fill="#4b5563">• 缩量整理</text>
<text x="875" y="330" font-size="18" font-family="PingFang SC, Arial" fill="#4b5563">• 风险：需次日确认</text>
<text x="875" y="655" font-size="18" font-family="PingFang SC, Arial" fill="#7c746b">教学示意图：重绘，不复刻原截图</text>
</svg>
