<svg xmlns="http://www.w3.org/2000/svg" width="1200" height="720" viewBox="0 0 1200 720">
<rect width="1200" height="720" fill="#fbfaf7"/>
<rect x="70" y="135" width="750" height="450" rx="18" fill="#fffefb" stroke="#c9c2b8" stroke-width="2"/>
<text x="70" y="70" font-size="34" font-family="PingFang SC, Arial" fill="#1f2933">案例41｜天安新材资料页</text>
<text x="850" y="70" font-size="34" font-family="PingFang SC, Arial" fill="#991b1b">40/100  不合格</text>
<text x="620" y="200" font-size="18" font-family="PingFang SC, Arial" fill="#6d28d9">前高/压力线</text>
<text x="90" y="162" font-size="13" font-family="PingFang SC, Arial" fill="#4b5563" font-weight="bold">均线</text>
<line x1="125" y1="159" x2="145" y2="159" stroke="#f59e0b" stroke-width="3"/>
<text x="149" y="162" font-size="12" font-family="PingFang SC, Arial" fill="#f59e0b">MA5</text>
<line x1="183" y1="159" x2="203" y2="159" stroke="#8b5cf6" stroke-width="3" stroke-dasharray="6,4"/>
<text x="207" y="162" font-size="12" font-family="PingFang SC, Arial" fill="#8b5cf6">MA10</text>
<line x1="241" y1="159" x2="261" y2="159" stroke="#10b981" stroke-width="3"/>
<text x="265" y="162" font-size="12" font-family="PingFang SC, Arial" fill="#10b981">MA20</text>
<line x1="299" y1="159" x2="319" y2="159" stroke="#f97316" stroke-width="3"/>
<text x="323" y="162" font-size="12" font-family="PingFang SC, Arial" fill="#f97316">MA30</text>
<line x1="357" y1="159" x2="377" y2="159" stroke="#ef4444" stroke-width="3"/>
<text x="381" y="162" font-size="12" font-family="PingFang SC, Arial" fill="#ef4444">MA60</text>
<line x1="415" y1="159" x2="435" y2="159" stroke="#6b7280" stroke-width="3"/>
<text x="439" y="162" font-size="12" font-family="PingFang SC, Arial" fill="#6b7280">MA120</text>
<polyline points="115,450 163,453 211,449 259,435 307,421 355,404 403,379 451,365 499,356 547,341 595,337 643,327 691,298 739,283" fill="none" stroke="#f59e0b" stroke-width="2.5"/>
<polyline points="115,464 163,461 211,456 259,445 307,437 355,427 403,417 451,407 499,396 547,382 595,370 643,354 691,332 739,320" fill="none" stroke="#8b5cf6" stroke-width="2.5" stroke-dasharray="8,4"/>
<polyline points="115,478 163,476 211,473 259,468 307,464 355,459 403,452 451,445 499,435 547,426 595,418 643,407 691,393 739,382" fill="none" stroke="#10b981" stroke-width="2.5"/>
<polyline points="115,489 163,489 211,487 259,482 307,478 355,473 403,466 451,461 499,455 547,449 595,442 643,435 691,426 739,419" fill="none" stroke="#f97316" stroke-width="2.5"/>
<polyline points="115,498 163,498 211,497 259,495 307,492 355,489 403,485 451,482 499,478 547,475 595,471 643,468 691,463 739,459" fill="none" stroke="#ef4444" stroke-width="2.5"/>
<polyline points="115,414 163,417 211,418 259,418 307,419 355,420 403,420 451,421 499,423 547,424 595,425 643,425 691,424 739,424" fill="none" stroke="#6b7280" stroke-width="2.5"/>
<rect x="289" y="306" width="276" height="96" fill="none" stroke="#2563eb" stroke-width="3"/>
<text x="289" y="294" font-size="15" font-family="PingFang SC, Arial" fill="#1d4ed8">高位窄箱体</text>
<line x1="110" y1="339" x2="780" y2="339" stroke="#7c3aed" stroke-width="2" stroke-dasharray="8,4"/>
<text x="630" y="329" font-size="15" font-family="PingFang SC, Arial" fill="#6d28d9">前高压力线</text>
<line x1="115" y1="445" x2="115" y2="463" stroke="#e83c3c" stroke-width="3"/>
<rect x="104" y="447" width="22" height="15" fill="#e83c3c"/>
<line x1="163" y1="438" x2="163" y2="465" stroke="#20b86e" stroke-width="3"/>
<rect x="152" y="440" width="22" height="22" fill="#20b86e"/>
<line x1="211" y1="424" x2="211" y2="468" stroke="#e83c3c" stroke-width="3"/>
<rect x="200" y="433" width="22" height="30" fill="#e83c3c"/>
<line x1="259" y1="364" x2="259" y2="441" stroke="#e83c3c" stroke-width="3"/>
<rect x="248" y="374" width="22" height="61" fill="#e83c3c"/>
<line x1="307" y1="363" x2="307" y2="397" stroke="#20b86e" stroke-width="3"/>
<rect x="296" y="367" width="22" height="23" fill="#20b86e"/>
<line x1="355" y1="355" x2="355" y2="393" stroke="#e83c3c" stroke-width="3"/>
<rect x="344" y="360" width="22" height="31" fill="#e83c3c"/>
<line x1="403" y1="341" x2="403" y2="360" stroke="#e83c3c" stroke-width="3"/>
<rect x="392" y="343" width="22" height="16" fill="#e83c3c"/>
<line x1="451" y1="333" x2="451" y2="368" stroke="#20b86e" stroke-width="3"/>
<rect x="440" y="337" width="22" height="24" fill="#20b86e"/>
<line x1="499" y1="324" x2="499" y2="363" stroke="#e83c3c" stroke-width="3"/>
<rect x="488" y="329" width="22" height="32" fill="#e83c3c"/>
<line x1="547" y1="311" x2="547" y2="330" stroke="#e83c3c" stroke-width="3"/>
<rect x="536" y="313" width="22" height="16" fill="#e83c3c"/>
<line x1="595" y1="296" x2="595" y2="354" stroke="#20b86e" stroke-width="3"/>
<rect x="584" y="303" width="22" height="39" fill="#20b86e"/>
<line x1="643" y1="279" x2="643" y2="348" stroke="#e83c3c" stroke-width="3"/>
<rect x="632" y="287" width="22" height="56" fill="#e83c3c"/>
<line x1="691" y1="204" x2="691" y2="296" stroke="#e83c3c" stroke-width="3"/>
<rect x="680" y="215" width="22" height="74" fill="#e83c3c"/>
<line x1="739" y1="194" x2="739" y2="264" stroke="#20b86e" stroke-width="3"/>
<rect x="728" y="199" width="22" height="57" fill="#20b86e"/>
<rect x="103" y="550" width="24" height="10" fill="#e83c3c"/>
<rect x="151" y="545" width="24" height="15" fill="#20b86e"/>
<rect x="199" y="540" width="24" height="20" fill="#e83c3c"/>
<rect x="247" y="520" width="24" height="40" fill="#e83c3c"/>
<rect x="295" y="545" width="24" height="15" fill="#20b86e"/>
<rect x="343" y="540" width="24" height="20" fill="#e83c3c"/>
<rect x="391" y="550" width="24" height="10" fill="#e83c3c"/>
<rect x="439" y="545" width="24" height="15" fill="#20b86e"/>
<rect x="487" y="540" width="24" height="20" fill="#e83c3c"/>
<rect x="535" y="550" width="24" height="10" fill="#e83c3c"/>
<rect x="583" y="535" width="24" height="25" fill="#20b86e"/>
<rect x="631" y="525" width="24" height="35" fill="#e83c3c"/>
<rect x="679" y="515" width="24" height="45" fill="#e83c3c"/>
<rect x="727" y="525" width="24" height="35" fill="#20b86e"/>
<text x="90" y="578" font-size="15" font-family="PingFang SC, Arial" fill="#6b7280">量能区</text>
<rect x="850" y="135" width="280" height="450" rx="16" fill="#ffffff" stroke="#d0c7bc"/>
<text x="875" y="178" font-size="24" font-family="PingFang SC, Arial" fill="#111827">点评</text>
<text x="875" y="220" font-size="18" font-family="PingFang SC, Arial" fill="#374151">板块资料页，无K线结构</text>
<text x="875" y="258" font-size="18" font-family="PingFang SC, Arial" fill="#374151">观察：需补日K图</text>
<text x="875" y="296" font-size="18" font-family="PingFang SC, Arial" fill="#374151">失效：无结构不评分</text>
<text x="875" y="655" font-size="18" font-family="PingFang SC, Arial" fill="#7c746b">教学重绘图：不复刻原截图</text>
</svg>
