<svg xmlns="http://www.w3.org/2000/svg" width="1200" height="720" viewBox="0 0 1200 720">
<rect width="1200" height="720" fill="#fbfaf7"/>
<rect x="70" y="135" width="750" height="450" rx="18" fill="#fffefb" stroke="#c9c2b8" stroke-width="2"/>
<text x="70" y="70" font-size="34" font-family="PingFang SC, Arial" fill="#1f2933">案例33｜疑似CPO相关</text>
<text x="850" y="70" font-size="34" font-family="PingFang SC, Arial" fill="#b7791f">50/100  勉强</text>
<text x="90" y="162" font-size="13" font-family="PingFang SC, Arial" fill="#4b5563" font-weight="bold">均线</text>
<line x1="125" y1="159" x2="145" y2="159" stroke="#f59e0b" stroke-width="3"/>
<text x="149" y="162" font-size="12" font-family="PingFang SC, Arial" fill="#f59e0b">MA5</text>
<line x1="183" y1="159" x2="203" y2="159" stroke="#8b5cf6" stroke-width="3" stroke-dasharray="6,4"/>
<text x="207" y="162" font-size="12" font-family="PingFang SC, Arial" fill="#8b5cf6">MA10</text>
<line x1="241" y1="159" x2="261" y2="159" stroke="#10b981" stroke-width="3"/>
<text x="265" y="162" font-size="12" font-family="PingFang SC, Arial" fill="#10b981">MA20</text>
<line x1="299" y1="159" x2="319" y2="159" stroke="#f97316" stroke-width="3"/>
<text x="323" y="162" font-size="12" font-family="PingFang SC, Arial" fill="#f97316">MA30</text>
<line x1="357" y1="159" x2="377" y2="159" stroke="#ef4444" stroke-width="3"/>
<text x="381" y="162" font-size="12" font-family="PingFang SC, Arial" fill="#ef4444">MA60</text>
<line x1="415" y1="159" x2="435" y2="159" stroke="#6b7280" stroke-width="3"/>
<text x="439" y="162" font-size="12" font-family="PingFang SC, Arial" fill="#6b7280">MA120</text>
<line x1="110" y1="265" x2="780" y2="265" stroke="#7c3aed" stroke-width="2" stroke-dasharray="8,4"/>
<text x="630" y="255" font-size="15" font-family="PingFang SC, Arial" fill="#6d28d9">前高压力线</text>
<rect x="292" y="333" width="270" height="151" fill="none" stroke="#2563eb" stroke-width="3"/>
<text x="292" y="323" font-size="15" font-family="PingFang SC, Arial" fill="#1d4ed8">高位窄箱体</text>
<polyline points="115,472 163,477 211,472 259,443 307,440 355,436 403,430 451,406 499,426 547,423 595,413 643,396 691,376 739,336" fill="none" stroke="#f59e0b" stroke-width="2.5"/>
<polyline points="115,469 163,466 211,466 259,454 307,453 355,454 403,454 451,439 499,435 547,431 595,424 643,413 691,391 739,382" fill="none" stroke="#8b5cf6" stroke-width="2.5" stroke-dasharray="8,4"/>
<polyline points="115,448 163,454 211,460 259,458 307,461 355,465 403,465 451,458 499,454 547,452 595,447 643,440 691,429 739,418" fill="none" stroke="#10b981" stroke-width="2.5"/>
<polyline points="115,424 163,425 211,427 259,424 307,427 355,430 403,435 451,435 499,436 547,439 595,441 643,441 691,436 739,432" fill="none" stroke="#f97316" stroke-width="2.5"/>
<polyline points="115,440 163,441 211,440 259,437 307,436 355,436 403,435 451,433 499,432 547,432 595,431 643,429 691,425 739,423" fill="none" stroke="#ef4444" stroke-width="2.5"/>
<polyline points="115,442 163,442 211,442 259,440 307,440 355,440 403,439 451,438 499,438 547,438 595,437 643,437 691,436 739,434" fill="none" stroke="#6b7280" stroke-width="2.5"/>
<line x1="115" y1="457" x2="115" y2="503" stroke="#2f9e67" stroke-width="3"/>
<rect x="104" y="475" width="22" height="10" fill="#2f9e67"/>
<line x1="163" y1="436" x2="163" y2="491" stroke="#d74b42" stroke-width="3"/>
<rect x="152" y="454" width="22" height="19" fill="#d74b42"/>
<line x1="211" y1="437" x2="211" y2="490" stroke="#d74b42" stroke-width="3"/>
<rect x="200" y="454" width="22" height="18" fill="#d74b42"/>
<line x1="259" y1="290" x2="259" y2="424" stroke="#2f9e67" stroke-width="3"/>
<rect x="248" y="328" width="22" height="68" fill="#2f9e67"/>
<line x1="307" y1="442" x2="307" y2="471" stroke="#2f9e67" stroke-width="3"/>
<rect x="296" y="453" width="22" height="7" fill="#2f9e67"/>
<line x1="355" y1="440" x2="355" y2="479" stroke="#2f9e67" stroke-width="3"/>
<rect x="344" y="451" width="22" height="17" fill="#2f9e67"/>
<line x1="403" y1="437" x2="403" y2="468" stroke="#2f9e67" stroke-width="3"/>
<rect x="392" y="448" width="22" height="9" fill="#2f9e67"/>
<line x1="451" y1="338" x2="451" y2="378" stroke="#2f9e67" stroke-width="3"/>
<rect x="440" y="349" width="22" height="18" fill="#2f9e67"/>
<line x1="499" y1="419" x2="499" y2="454" stroke="#2f9e67" stroke-width="3"/>
<rect x="488" y="430" width="22" height="12" fill="#2f9e67"/>
<line x1="547" y1="425" x2="547" y2="459" stroke="#2f9e67" stroke-width="3"/>
<rect x="536" y="436" width="22" height="12" fill="#2f9e67"/>
<line x1="595" y1="378" x2="595" y2="442" stroke="#2f9e67" stroke-width="3"/>
<rect x="584" y="400" width="22" height="29" fill="#2f9e67"/>
<line x1="643" y1="341" x2="643" y2="412" stroke="#2f9e67" stroke-width="3"/>
<rect x="632" y="364" width="22" height="34" fill="#2f9e67"/>
<line x1="691" y1="221" x2="691" y2="329" stroke="#2f9e67" stroke-width="3"/>
<rect x="680" y="250" width="22" height="60" fill="#2f9e67"/>
<line x1="739" y1="210" x2="739" y2="282" stroke="#2f9e67" stroke-width="3"/>
<rect x="728" y="231" width="22" height="41" fill="#2f9e67"/>
<rect x="103" y="548" width="24" height="12" fill="#6abf88"/>
<rect x="151" y="546" width="24" height="14" fill="#d74b42"/>
<rect x="199" y="544" width="24" height="16" fill="#d74b42"/>
<rect x="247" y="502" width="24" height="58" fill="#6abf88"/>
<rect x="295" y="542" width="24" height="18" fill="#6abf88"/>
<rect x="343" y="544" width="24" height="16" fill="#6abf88"/>
<rect x="391" y="542" width="24" height="18" fill="#6abf88"/>
<rect x="439" y="546" width="24" height="14" fill="#6abf88"/>
<rect x="487" y="546" width="24" height="14" fill="#6abf88"/>
<rect x="535" y="544" width="24" height="16" fill="#6abf88"/>
<rect x="583" y="530" width="24" height="30" fill="#6abf88"/>
<rect x="631" y="542" width="24" height="18" fill="#6abf88"/>
<rect x="679" y="505" width="24" height="55" fill="#6abf88"/>
<rect x="727" y="525" width="24" height="35" fill="#6abf88"/>
<text x="90" y="578" font-size="15" font-family="PingFang SC, Arial" fill="#6b7280">量能区</text>
<circle cx="451" cy="378" r="6" fill="none" stroke="#ef4444" stroke-width="2"/>
<text x="461" y="393" font-size="13" font-family="PingFang SC, Arial" fill="#dc2626">低吸试错点</text>
<circle cx="691" cy="221" r="6" fill="#ef4444" stroke="none"/>
<text x="651" y="206" font-size="13" font-family="PingFang SC, Arial" fill="#dc2626">突破确认点</text>
<rect x="850" y="135" width="280" height="450" rx="16" fill="#ffffff" stroke="#d0c7bc"/>
<text x="875" y="178" font-size="24" font-family="PingFang SC, Arial" fill="#111827">点评</text>
<text x="875" y="220" font-size="18" font-family="PingFang SC, Arial" fill="#374151">强趋势加速，非美人图</text>
<text x="875" y="262" font-size="18" font-family="PingFang SC, Arial" fill="#4b5563">• 量能放大</text>
<text x="875" y="296" font-size="18" font-family="PingFang SC, Arial" fill="#4b5563">• 多头排列</text>
<text x="875" y="330" font-size="18" font-family="PingFang SC, Arial" fill="#4b5563">• 风险：追高</text>
<text x="875" y="655" font-size="18" font-family="PingFang SC, Arial" fill="#7c746b">教学示意图：重绘，不复刻原截图</text>
</svg>
