<svg xmlns="http://www.w3.org/2000/svg" width="1200" height="720" viewBox="0 0 1200 720">
<rect width="1200" height="720" fill="#fbfaf7"/>
<rect x="70" y="135" width="750" height="450" rx="18" fill="#fffefb" stroke="#c9c2b8" stroke-width="2"/>
<text x="70" y="70" font-size="34" font-family="PingFang SC, Arial" fill="#1f2933">案例08｜演示K线</text>
<text x="850" y="70" font-size="34" font-family="PingFang SC, Arial" fill="#9b2c2c">45/100  勉强</text>
<rect x="282" y="160" width="338" height="220" fill="none" stroke="#2563eb" stroke-width="3"/>
<text x="90" y="162" font-size="13" font-family="PingFang SC, Arial" fill="#4b5563" font-weight="bold">均线</text>
<line x1="125" y1="159" x2="145" y2="159" stroke="#f59e0b" stroke-width="3"/>
<text x="149" y="162" font-size="12" font-family="PingFang SC, Arial" fill="#f59e0b">MA5</text>
<line x1="183" y1="159" x2="203" y2="159" stroke="#8b5cf6" stroke-width="3" stroke-dasharray="6,4"/>
<text x="207" y="162" font-size="12" font-family="PingFang SC, Arial" fill="#8b5cf6">MA10</text>
<line x1="241" y1="159" x2="261" y2="159" stroke="#10b981" stroke-width="3"/>
<text x="265" y="162" font-size="12" font-family="PingFang SC, Arial" fill="#10b981">MA20</text>
<line x1="299" y1="159" x2="319" y2="159" stroke="#f97316" stroke-width="3"/>
<text x="323" y="162" font-size="12" font-family="PingFang SC, Arial" fill="#f97316">MA30</text>
<line x1="357" y1="159" x2="377" y2="159" stroke="#ef4444" stroke-width="3"/>
<text x="381" y="162" font-size="12" font-family="PingFang SC, Arial" fill="#ef4444">MA60</text>
<line x1="415" y1="159" x2="435" y2="159" stroke="#6b7280" stroke-width="3"/>
<text x="439" y="162" font-size="12" font-family="PingFang SC, Arial" fill="#6b7280">MA120</text>
<polyline points="115,430 163,422 211,412 259,399 307,388 355,372 403,352 451,339 499,331 547,319 595,316 643,306 691,281 739,268" fill="none" stroke="#f59e0b" stroke-width="2.5"/>
<polyline points="115,440 163,438 211,433 259,422 307,412 355,401 403,387 451,376 499,365 547,353 595,344 643,329 691,310 739,300" fill="none" stroke="#8b5cf6" stroke-width="2.5" stroke-dasharray="8,4"/>
<polyline points="115,434 163,433 211,432 259,429 307,426 355,421 403,415 451,411 499,405 547,398 595,391 643,383 691,371 739,361" fill="none" stroke="#10b981" stroke-width="2.5"/>
<polyline points="115,465 163,460 211,456 259,448 307,441 355,434 403,426 451,421 499,414 547,408 595,403 643,398 691,391 739,386" fill="none" stroke="#f97316" stroke-width="2.5"/>
<polyline points="115,503 163,502 211,500 259,496 307,492 355,489 403,485 451,482 499,479 547,475 595,471 643,467 691,461 739,457" fill="none" stroke="#ef4444" stroke-width="2.5"/>
<polyline points="115,412 163,413 211,414 259,414 307,415 355,415 403,416 451,417 499,417 547,417 595,418 643,418 691,417 739,417" fill="none" stroke="#6b7280" stroke-width="2.5"/>
<rect x="289" y="288" width="276" height="83" fill="none" stroke="#2563eb" stroke-width="3"/>
<text x="289" y="276" font-size="15" font-family="PingFang SC, Arial" fill="#1d4ed8">高位窄箱体</text>
<line x1="110" y1="313" x2="780" y2="313" stroke="#7c3aed" stroke-width="2" stroke-dasharray="8,4"/>
<text x="630" y="303" font-size="15" font-family="PingFang SC, Arial" fill="#6d28d9">前高压力线</text>
<line x1="115" y1="408" x2="115" y2="424" stroke="#e83c3c" stroke-width="3"/>
<rect x="104" y="410" width="22" height="12" fill="#e83c3c"/>
<line x1="163" y1="402" x2="163" y2="425" stroke="#20b86e" stroke-width="3"/>
<rect x="152" y="403" width="22" height="19" fill="#20b86e"/>
<line x1="211" y1="390" x2="211" y2="428" stroke="#e83c3c" stroke-width="3"/>
<rect x="200" y="398" width="22" height="25" fill="#e83c3c"/>
<line x1="259" y1="338" x2="259" y2="404" stroke="#e83c3c" stroke-width="3"/>
<rect x="248" y="346" width="22" height="53" fill="#e83c3c"/>
<line x1="307" y1="337" x2="307" y2="366" stroke="#20b86e" stroke-width="3"/>
<rect x="296" y="340" width="22" height="20" fill="#20b86e"/>
<line x1="355" y1="330" x2="355" y2="363" stroke="#e83c3c" stroke-width="3"/>
<rect x="344" y="334" width="22" height="27" fill="#e83c3c"/>
<line x1="403" y1="318" x2="403" y2="335" stroke="#e83c3c" stroke-width="3"/>
<rect x="392" y="320" width="22" height="14" fill="#e83c3c"/>
<line x1="451" y1="311" x2="451" y2="341" stroke="#20b86e" stroke-width="3"/>
<rect x="440" y="315" width="22" height="20" fill="#20b86e"/>
<line x1="499" y1="304" x2="499" y2="338" stroke="#e83c3c" stroke-width="3"/>
<rect x="488" y="308" width="22" height="27" fill="#e83c3c"/>
<line x1="547" y1="293" x2="547" y2="309" stroke="#e83c3c" stroke-width="3"/>
<rect x="536" y="295" width="22" height="13" fill="#e83c3c"/>
<line x1="595" y1="280" x2="595" y2="330" stroke="#20b86e" stroke-width="3"/>
<rect x="584" y="286" width="22" height="33" fill="#20b86e"/>
<line x1="643" y1="264" x2="643" y2="324" stroke="#e83c3c" stroke-width="3"/>
<rect x="632" y="272" width="22" height="48" fill="#e83c3c"/>
<line x1="691" y1="200" x2="691" y2="279" stroke="#e83c3c" stroke-width="3"/>
<rect x="680" y="210" width="22" height="64" fill="#e83c3c"/>
<line x1="739" y1="192" x2="739" y2="253" stroke="#20b86e" stroke-width="3"/>
<rect x="728" y="197" width="22" height="49" fill="#20b86e"/>
<rect x="103" y="550" width="24" height="10" fill="#e83c3c"/>
<rect x="151" y="545" width="24" height="15" fill="#20b86e"/>
<rect x="199" y="540" width="24" height="20" fill="#e83c3c"/>
<rect x="247" y="520" width="24" height="40" fill="#e83c3c"/>
<rect x="295" y="545" width="24" height="15" fill="#20b86e"/>
<rect x="343" y="540" width="24" height="20" fill="#e83c3c"/>
<rect x="391" y="550" width="24" height="10" fill="#e83c3c"/>
<rect x="439" y="545" width="24" height="15" fill="#20b86e"/>
<rect x="487" y="540" width="24" height="20" fill="#e83c3c"/>
<rect x="535" y="550" width="24" height="10" fill="#e83c3c"/>
<rect x="583" y="535" width="24" height="25" fill="#20b86e"/>
<rect x="631" y="525" width="24" height="35" fill="#e83c3c"/>
<rect x="679" y="515" width="24" height="45" fill="#e83c3c"/>
<rect x="727" y="525" width="24" height="35" fill="#20b86e"/>
<text x="90" y="578" font-size="15" font-family="PingFang SC, Arial" fill="#6b7280">量能区</text>
<rect x="850" y="135" width="280" height="450" rx="16" fill="#ffffff" stroke="#d0c7bc"/>
<text x="875" y="178" font-size="24" font-family="PingFang SC, Arial" fill="#111827">点评</text>
<text x="875" y="220" font-size="18" font-family="PingFang SC, Arial" fill="#374151">思路对路但图像受限</text>
<text x="875" y="262" font-size="18" font-family="PingFang SC, Arial" fill="#4b5563">• 文字称回踩5日线</text>
<text x="875" y="296" font-size="18" font-family="PingFang SC, Arial" fill="#4b5563">• K线被遮挡</text>
<text x="875" y="330" font-size="18" font-family="PingFang SC, Arial" fill="#4b5563">• 风险：高位介入</text>
<text x="875" y="655" font-size="18" font-family="PingFang SC, Arial" fill="#7c746b">教学示意图：重绘，不复刻原截图</text>
</svg>
