<svg xmlns="http://www.w3.org/2000/svg" width="1200" height="720" viewBox="0 0 1200 720">
<rect width="1200" height="720" fill="#fbfaf7"/>
<rect x="70" y="135" width="750" height="450" rx="18" fill="#fffefb" stroke="#c9c2b8" stroke-width="2"/>
<text x="70" y="70" font-size="34" font-family="PingFang SC, Arial" fill="#1f2933">案例41｜天安新材资料页</text>
<text x="850" y="70" font-size="34" font-family="PingFang SC, Arial" fill="#991b1b">40/100  不合格</text>
<text x="620" y="200" font-size="18" font-family="PingFang SC, Arial" fill="#6d28d9">前高/压力线</text>
<text x="90" y="162" font-size="13" font-family="PingFang SC, Arial" fill="#4b5563" font-weight="bold">均线</text>
<line x1="125" y1="159" x2="145" y2="159" stroke="#f59e0b" stroke-width="3"/>
<text x="149" y="162" font-size="12" font-family="PingFang SC, Arial" fill="#f59e0b">MA5</text>
<line x1="183" y1="159" x2="203" y2="159" stroke="#8b5cf6" stroke-width="3" stroke-dasharray="6,4"/>
<text x="207" y="162" font-size="12" font-family="PingFang SC, Arial" fill="#8b5cf6">MA10</text>
<line x1="241" y1="159" x2="261" y2="159" stroke="#10b981" stroke-width="3"/>
<text x="265" y="162" font-size="12" font-family="PingFang SC, Arial" fill="#10b981">MA20</text>
<line x1="299" y1="159" x2="319" y2="159" stroke="#f97316" stroke-width="3"/>
<text x="323" y="162" font-size="12" font-family="PingFang SC, Arial" fill="#f97316">MA30</text>
<line x1="357" y1="159" x2="377" y2="159" stroke="#ef4444" stroke-width="3"/>
<text x="381" y="162" font-size="12" font-family="PingFang SC, Arial" fill="#ef4444">MA60</text>
<line x1="415" y1="159" x2="435" y2="159" stroke="#6b7280" stroke-width="3"/>
<text x="439" y="162" font-size="12" font-family="PingFang SC, Arial" fill="#6b7280">MA120</text>
<line x1="110" y1="289" x2="780" y2="289" stroke="#7c3aed" stroke-width="2" stroke-dasharray="8,4"/>
<text x="630" y="279" font-size="15" font-family="PingFang SC, Arial" fill="#6d28d9">前高压力线</text>
<rect x="292" y="351" width="270" height="132" fill="none" stroke="#2563eb" stroke-width="3"/>
<text x="292" y="341" font-size="15" font-family="PingFang SC, Arial" fill="#1d4ed8">高位窄箱体</text>
<polyline points="115,437 163,448 211,456 259,439 307,436 355,434 403,432 451,410 499,424 547,421 595,410 643,391 691,369 739,334" fill="none" stroke="#f59e0b" stroke-width="2.5"/>
<polyline points="115,408 163,419 211,429 259,427 307,432 355,436 403,440 451,433 499,432 547,429 595,421 643,411 691,389 739,379" fill="none" stroke="#8b5cf6" stroke-width="2.5" stroke-dasharray="8,4"/>
<polyline points="115,373 163,382 211,391 259,393 307,400 355,404 403,409 451,410 499,413 547,415 595,415 643,415 691,409 739,403" fill="none" stroke="#10b981" stroke-width="2.5"/>
<polyline points="115,320 163,329 211,336 259,341 307,349 355,356 403,365 451,370 499,378 547,386 595,389 643,391 691,390 739,388" fill="none" stroke="#f97316" stroke-width="2.5"/>
<polyline points="115,238 163,245 211,251 259,255 307,261 355,268 403,274 451,279 499,284 547,290 595,295 643,299 691,301 739,302" fill="none" stroke="#ef4444" stroke-width="2.5"/>
<polyline points="115,207 163,210 211,212 259,214 307,216 355,218 403,220 451,222 499,224 547,225 595,227 643,228 691,229 739,229" fill="none" stroke="#6b7280" stroke-width="2.5"/>
<line x1="115" y1="431" x2="115" y2="474" stroke="#d74b42" stroke-width="3"/>
<rect x="104" y="447" width="22" height="11" fill="#d74b42"/>
<line x1="163" y1="447" x2="163" y2="490" stroke="#2f9e67" stroke-width="3"/>
<rect x="152" y="463" width="22" height="11" fill="#2f9e67"/>
<line x1="211" y1="457" x2="211" y2="506" stroke="#2f9e67" stroke-width="3"/>
<rect x="200" y="473" width="22" height="17" fill="#2f9e67"/>
<line x1="259" y1="314" x2="259" y2="433" stroke="#2f9e67" stroke-width="3"/>
<rect x="248" y="348" width="22" height="59" fill="#2f9e67"/>
<line x1="307" y1="428" x2="307" y2="454" stroke="#2f9e67" stroke-width="3"/>
<rect x="296" y="437" width="22" height="7" fill="#2f9e67"/>
<line x1="355" y1="420" x2="355" y2="454" stroke="#d74b42" stroke-width="3"/>
<rect x="344" y="430" width="22" height="15" fill="#d74b42"/>
<line x1="403" y1="445" x2="403" y2="478" stroke="#2f9e67" stroke-width="3"/>
<rect x="392" y="454" width="22" height="15" fill="#2f9e67"/>
<line x1="451" y1="356" x2="451" y2="390" stroke="#2f9e67" stroke-width="3"/>
<rect x="440" y="367" width="22" height="13" fill="#2f9e67"/>
<line x1="499" y1="407" x2="499" y2="440" stroke="#2f9e67" stroke-width="3"/>
<rect x="488" y="417" width="22" height="14" fill="#2f9e67"/>
<line x1="547" y1="414" x2="547" y2="445" stroke="#2f9e67" stroke-width="3"/>
<rect x="536" y="423" width="22" height="13" fill="#2f9e67"/>
<line x1="595" y1="371" x2="595" y2="427" stroke="#2f9e67" stroke-width="3"/>
<rect x="584" y="391" width="22" height="24" fill="#2f9e67"/>
<line x1="643" y1="332" x2="643" y2="370" stroke="#d74b42" stroke-width="3"/>
<rect x="632" y="352" width="22" height="6" fill="#d74b42"/>
<line x1="691" y1="231" x2="691" y2="328" stroke="#2f9e67" stroke-width="3"/>
<rect x="680" y="256" width="22" height="54" fill="#2f9e67"/>
<line x1="739" y1="220" x2="739" y2="278" stroke="#2f9e67" stroke-width="3"/>
<rect x="728" y="238" width="22" height="31" fill="#2f9e67"/>
<rect x="103" y="548" width="24" height="12" fill="#d74b42"/>
<rect x="151" y="546" width="24" height="14" fill="#6abf88"/>
<rect x="199" y="544" width="24" height="16" fill="#6abf88"/>
<rect x="247" y="502" width="24" height="58" fill="#6abf88"/>
<rect x="295" y="542" width="24" height="18" fill="#6abf88"/>
<rect x="343" y="544" width="24" height="16" fill="#d74b42"/>
<rect x="391" y="542" width="24" height="18" fill="#6abf88"/>
<rect x="439" y="546" width="24" height="14" fill="#6abf88"/>
<rect x="487" y="546" width="24" height="14" fill="#6abf88"/>
<rect x="535" y="544" width="24" height="16" fill="#6abf88"/>
<rect x="583" y="530" width="24" height="30" fill="#6abf88"/>
<rect x="631" y="542" width="24" height="18" fill="#d74b42"/>
<rect x="679" y="505" width="24" height="55" fill="#6abf88"/>
<rect x="727" y="525" width="24" height="35" fill="#6abf88"/>
<text x="90" y="578" font-size="15" font-family="PingFang SC, Arial" fill="#6b7280">量能区</text>
<circle cx="451" cy="390" r="6" fill="none" stroke="#ef4444" stroke-width="2"/>
<text x="461" y="405" font-size="13" font-family="PingFang SC, Arial" fill="#dc2626">低吸试错点</text>
<circle cx="691" cy="231" r="6" fill="#ef4444" stroke="none"/>
<text x="651" y="216" font-size="13" font-family="PingFang SC, Arial" fill="#dc2626">突破确认点</text>
<rect x="850" y="135" width="280" height="450" rx="16" fill="#ffffff" stroke="#d0c7bc"/>
<text x="875" y="178" font-size="24" font-family="PingFang SC, Arial" fill="#111827">点评</text>
<text x="875" y="220" font-size="18" font-family="PingFang SC, Arial" fill="#374151">板块资料页，无K线结构</text>
<text x="875" y="258" font-size="18" font-family="PingFang SC, Arial" fill="#374151">观察：需补日K图</text>
<text x="875" y="296" font-size="18" font-family="PingFang SC, Arial" fill="#374151">失效：无结构不评分</text>
<text x="875" y="655" font-size="18" font-family="PingFang SC, Arial" fill="#7c746b">教学重绘图：不复刻原截图</text>
</svg>
