<svg xmlns="http://www.w3.org/2000/svg" width="1200" height="720" viewBox="0 0 1200 720">
<rect width="1200" height="720" fill="#fbfaf7"/>
<rect x="70" y="135" width="750" height="450" rx="18" fill="#fffefb" stroke="#c9c2b8" stroke-width="2"/>
<text x="70" y="70" font-size="34" font-family="PingFang SC, Arial" fill="#1f2933">案例01｜无法识别</text>
<text x="850" y="70" font-size="34" font-family="PingFang SC, Arial" fill="#9b2c2c">0/100  不合格</text>
<text x="90" y="162" font-size="13" font-family="PingFang SC, Arial" fill="#4b5563" font-weight="bold">均线</text>
<line x1="125" y1="159" x2="145" y2="159" stroke="#f59e0b" stroke-width="3"/>
<text x="149" y="162" font-size="12" font-family="PingFang SC, Arial" fill="#f59e0b">MA5</text>
<line x1="183" y1="159" x2="203" y2="159" stroke="#8b5cf6" stroke-width="3" stroke-dasharray="6,4"/>
<text x="207" y="162" font-size="12" font-family="PingFang SC, Arial" fill="#8b5cf6">MA10</text>
<line x1="241" y1="159" x2="261" y2="159" stroke="#10b981" stroke-width="3"/>
<text x="265" y="162" font-size="12" font-family="PingFang SC, Arial" fill="#10b981">MA20</text>
<line x1="299" y1="159" x2="319" y2="159" stroke="#f97316" stroke-width="3"/>
<text x="323" y="162" font-size="12" font-family="PingFang SC, Arial" fill="#f97316">MA30</text>
<line x1="357" y1="159" x2="377" y2="159" stroke="#ef4444" stroke-width="3"/>
<text x="381" y="162" font-size="12" font-family="PingFang SC, Arial" fill="#ef4444">MA60</text>
<line x1="415" y1="159" x2="435" y2="159" stroke="#6b7280" stroke-width="3"/>
<text x="439" y="162" font-size="12" font-family="PingFang SC, Arial" fill="#6b7280">MA120</text>
<polyline points="115,399 163,400 211,396 259,379 307,368 355,355 403,336 451,324 499,317 547,305 595,303 643,294 691,272 739,260" fill="none" stroke="#f59e0b" stroke-width="2.5"/>
<polyline points="115,390 163,391 211,392 259,387 307,383 355,377 403,368 451,360 499,349 547,337 595,328 643,315 691,298 739,289" fill="none" stroke="#8b5cf6" stroke-width="2.5" stroke-dasharray="8,4"/>
<polyline points="115,389 163,390 211,391 259,387 307,384 355,381 403,377 451,373 499,368 547,363 595,360 643,353 691,345 739,338" fill="none" stroke="#10b981" stroke-width="2.5"/>
<polyline points="115,397 163,395 211,393 259,390 307,388 355,386 403,383 451,381 499,376 547,372 595,369 643,365 691,360 739,355" fill="none" stroke="#f97316" stroke-width="2.5"/>
<polyline points="115,450 163,448 211,445 259,442 307,439 355,435 403,432 451,430 499,427 547,423 595,420 643,416 691,412 739,407" fill="none" stroke="#ef4444" stroke-width="2.5"/>
<polyline points="115,506 163,505 211,503 259,501 307,499 355,497 403,495 451,493 499,492 547,489 595,487 643,484 691,481 739,479" fill="none" stroke="#6b7280" stroke-width="2.5"/>
<rect x="289" y="278" width="276" height="76" fill="none" stroke="#2563eb" stroke-width="3"/>
<text x="289" y="266" font-size="15" font-family="PingFang SC, Arial" fill="#1d4ed8">高位窄箱体</text>
<line x1="110" y1="298" x2="780" y2="298" stroke="#7c3aed" stroke-width="2" stroke-dasharray="8,4"/>
<text x="630" y="288" font-size="15" font-family="PingFang SC, Arial" fill="#6d28d9">前高压力线</text>
<line x1="115" y1="386" x2="115" y2="401" stroke="#e83c3c" stroke-width="3"/>
<rect x="104" y="388" width="22" height="12" fill="#e83c3c"/>
<line x1="163" y1="382" x2="163" y2="403" stroke="#20b86e" stroke-width="3"/>
<rect x="152" y="383" width="22" height="18" fill="#20b86e"/>
<line x1="211" y1="371" x2="211" y2="405" stroke="#e83c3c" stroke-width="3"/>
<rect x="200" y="378" width="22" height="23" fill="#e83c3c"/>
<line x1="259" y1="323" x2="259" y2="383" stroke="#e83c3c" stroke-width="3"/>
<rect x="248" y="331" width="22" height="48" fill="#e83c3c"/>
<line x1="307" y1="322" x2="307" y2="349" stroke="#20b86e" stroke-width="3"/>
<rect x="296" y="325" width="22" height="18" fill="#20b86e"/>
<line x1="355" y1="316" x2="355" y2="346" stroke="#e83c3c" stroke-width="3"/>
<rect x="344" y="320" width="22" height="24" fill="#e83c3c"/>
<line x1="403" y1="306" x2="403" y2="321" stroke="#e83c3c" stroke-width="3"/>
<rect x="392" y="308" width="22" height="12" fill="#e83c3c"/>
<line x1="451" y1="299" x2="451" y2="326" stroke="#20b86e" stroke-width="3"/>
<rect x="440" y="302" width="22" height="18" fill="#20b86e"/>
<line x1="499" y1="293" x2="499" y2="323" stroke="#e83c3c" stroke-width="3"/>
<rect x="488" y="296" width="22" height="25" fill="#e83c3c"/>
<line x1="547" y1="283" x2="547" y2="298" stroke="#e83c3c" stroke-width="3"/>
<rect x="536" y="285" width="22" height="12" fill="#e83c3c"/>
<line x1="595" y1="270" x2="595" y2="315" stroke="#20b86e" stroke-width="3"/>
<rect x="584" y="276" width="22" height="30" fill="#20b86e"/>
<line x1="643" y1="257" x2="643" y2="311" stroke="#e83c3c" stroke-width="3"/>
<rect x="632" y="264" width="22" height="43" fill="#e83c3c"/>
<line x1="691" y1="198" x2="691" y2="270" stroke="#e83c3c" stroke-width="3"/>
<rect x="680" y="207" width="22" height="58" fill="#e83c3c"/>
<line x1="739" y1="192" x2="739" y2="246" stroke="#20b86e" stroke-width="3"/>
<rect x="728" y="196" width="22" height="44" fill="#20b86e"/>
<rect x="103" y="550" width="24" height="10" fill="#e83c3c"/>
<rect x="151" y="545" width="24" height="15" fill="#20b86e"/>
<rect x="199" y="540" width="24" height="20" fill="#e83c3c"/>
<rect x="247" y="520" width="24" height="40" fill="#e83c3c"/>
<rect x="295" y="545" width="24" height="15" fill="#20b86e"/>
<rect x="343" y="540" width="24" height="20" fill="#e83c3c"/>
<rect x="391" y="550" width="24" height="10" fill="#e83c3c"/>
<rect x="439" y="545" width="24" height="15" fill="#20b86e"/>
<rect x="487" y="540" width="24" height="20" fill="#e83c3c"/>
<rect x="535" y="550" width="24" height="10" fill="#e83c3c"/>
<rect x="583" y="535" width="24" height="25" fill="#20b86e"/>
<rect x="631" y="525" width="24" height="35" fill="#e83c3c"/>
<rect x="679" y="515" width="24" height="45" fill="#e83c3c"/>
<rect x="727" y="525" width="24" height="35" fill="#20b86e"/>
<text x="90" y="578" font-size="15" font-family="PingFang SC, Arial" fill="#6b7280">量能区</text>
<rect x="850" y="135" width="280" height="450" rx="16" fill="#ffffff" stroke="#d0c7bc"/>
<text x="875" y="178" font-size="24" font-family="PingFang SC, Arial" fill="#111827">点评</text>
<text x="875" y="220" font-size="18" font-family="PingFang SC, Arial" fill="#374151">遮挡严重，K线主体不可见</text>
<text x="875" y="262" font-size="18" font-family="PingFang SC, Arial" fill="#4b5563">• 无法判断启动阳线</text>
<text x="875" y="296" font-size="18" font-family="PingFang SC, Arial" fill="#4b5563">• 无法判断箱体与5日线</text>
<text x="875" y="330" font-size="18" font-family="PingFang SC, Arial" fill="#4b5563">• 不纳入案例评分</text>
<text x="875" y="655" font-size="18" font-family="PingFang SC, Arial" fill="#7c746b">教学示意图：重绘，不复刻原截图</text>
</svg>
