<svg xmlns="http://www.w3.org/2000/svg" width="1200" height="720" viewBox="0 0 1200 720">
<rect width="1200" height="720" fill="#fbfaf7"/>
<rect x="70" y="135" width="750" height="450" rx="18" fill="#fffefb" stroke="#c9c2b8" stroke-width="2"/>
<text x="70" y="70" font-size="34" font-family="PingFang SC, Arial" fill="#1f2933">案例17｜京能电力 001896</text>
<text x="850" y="70" font-size="34" font-family="PingFang SC, Arial" fill="#0f8a4b">82/100  较标准</text>
<rect x="282" y="345" width="386" height="83" fill="none" stroke="#2563eb" stroke-width="3"/>
<text x="90" y="162" font-size="13" font-family="PingFang SC, Arial" fill="#4b5563" font-weight="bold">均线</text>
<line x1="125" y1="159" x2="145" y2="159" stroke="#f59e0b" stroke-width="3"/>
<text x="149" y="162" font-size="12" font-family="PingFang SC, Arial" fill="#f59e0b">MA5</text>
<line x1="183" y1="159" x2="203" y2="159" stroke="#8b5cf6" stroke-width="3" stroke-dasharray="6,4"/>
<text x="207" y="162" font-size="12" font-family="PingFang SC, Arial" fill="#8b5cf6">MA10</text>
<line x1="241" y1="159" x2="261" y2="159" stroke="#10b981" stroke-width="3"/>
<text x="265" y="162" font-size="12" font-family="PingFang SC, Arial" fill="#10b981">MA20</text>
<line x1="299" y1="159" x2="319" y2="159" stroke="#f97316" stroke-width="3"/>
<text x="323" y="162" font-size="12" font-family="PingFang SC, Arial" fill="#f97316">MA30</text>
<line x1="357" y1="159" x2="377" y2="159" stroke="#ef4444" stroke-width="3"/>
<text x="381" y="162" font-size="12" font-family="PingFang SC, Arial" fill="#ef4444">MA60</text>
<line x1="415" y1="159" x2="435" y2="159" stroke="#6b7280" stroke-width="3"/>
<text x="439" y="162" font-size="12" font-family="PingFang SC, Arial" fill="#6b7280">MA120</text>
<line x1="110" y1="250" x2="780" y2="250" stroke="#7c3aed" stroke-width="2" stroke-dasharray="8,4"/>
<text x="630" y="240" font-size="15" font-family="PingFang SC, Arial" fill="#6d28d9">前高压力线</text>
<rect x="292" y="298" width="270" height="175" fill="none" stroke="#2563eb" stroke-width="3"/>
<text x="292" y="288" font-size="15" font-family="PingFang SC, Arial" fill="#1d4ed8">高位窄箱体</text>
<polyline points="115,459 163,454 211,449 259,418 307,411 355,412 403,414 451,391 499,408 547,409 595,398 643,378 691,361 739,327" fill="none" stroke="#f59e0b" stroke-width="2.5"/>
<polyline points="115,451 163,450 211,451 259,440 307,436 355,436 403,433 451,420 499,414 547,411 595,405 643,396 691,376 739,368" fill="none" stroke="#8b5cf6" stroke-width="2.5" stroke-dasharray="8,4"/>
<polyline points="115,449 163,448 211,448 259,441 307,440 355,441 403,442 451,436 499,433 547,431 595,428 643,423 691,414 739,404" fill="none" stroke="#10b981" stroke-width="2.5"/>
<polyline points="115,457 163,454 211,451 259,444 307,442 355,441 403,441 451,438 499,436 547,436 595,434 643,430 691,424 739,417" fill="none" stroke="#f97316" stroke-width="2.5"/>
<polyline points="115,474 163,473 211,472 259,468 307,467 355,465 403,464 451,461 499,461 547,459 595,457 643,455 691,449 739,445" fill="none" stroke="#ef4444" stroke-width="2.5"/>
<polyline points="115,505 163,504 211,503 259,500 307,498 355,497 403,496 451,494 499,492 547,491 595,489 643,486 691,484 739,481" fill="none" stroke="#6b7280" stroke-width="2.5"/>
<line x1="115" y1="411" x2="115" y2="457" stroke="#d74b42" stroke-width="3"/>
<rect x="104" y="427" width="22" height="13" fill="#d74b42"/>
<line x1="163" y1="409" x2="163" y2="460" stroke="#d74b42" stroke-width="3"/>
<rect x="152" y="426" width="22" height="17" fill="#d74b42"/>
<line x1="211" y1="429" x2="211" y2="473" stroke="#2f9e67" stroke-width="3"/>
<rect x="200" y="445" width="22" height="12" fill="#2f9e67"/>
<line x1="259" y1="275" x2="259" y2="402" stroke="#2f9e67" stroke-width="3"/>
<rect x="248" y="311" width="22" height="63" fill="#2f9e67"/>
<line x1="307" y1="408" x2="307" y2="434" stroke="#2f9e67" stroke-width="3"/>
<rect x="296" y="418" width="22" height="6" fill="#2f9e67"/>
<line x1="355" y1="422" x2="355" y2="455" stroke="#d74b42" stroke-width="3"/>
<rect x="344" y="432" width="22" height="13" fill="#d74b42"/>
<line x1="403" y1="440" x2="403" y2="468" stroke="#2f9e67" stroke-width="3"/>
<rect x="392" y="450" width="22" height="8" fill="#2f9e67"/>
<line x1="451" y1="303" x2="451" y2="343" stroke="#d74b42" stroke-width="3"/>
<rect x="440" y="313" width="22" height="19" fill="#d74b42"/>
<line x1="499" y1="380" x2="499" y2="408" stroke="#d74b42" stroke-width="3"/>
<rect x="488" y="390" width="22" height="7" fill="#d74b42"/>
<line x1="547" y1="411" x2="547" y2="449" stroke="#2f9e67" stroke-width="3"/>
<rect x="536" y="422" width="22" height="17" fill="#2f9e67"/>
<line x1="595" y1="366" x2="595" y2="423" stroke="#2f9e67" stroke-width="3"/>
<rect x="584" y="387" width="22" height="23" fill="#2f9e67"/>
<line x1="643" y1="331" x2="643" y2="392" stroke="#2f9e67" stroke-width="3"/>
<rect x="632" y="353" width="22" height="26" fill="#2f9e67"/>
<line x1="691" y1="220" x2="691" y2="322" stroke="#2f9e67" stroke-width="3"/>
<rect x="680" y="246" width="22" height="57" fill="#2f9e67"/>
<line x1="739" y1="208" x2="739" y2="278" stroke="#2f9e67" stroke-width="3"/>
<rect x="728" y="227" width="22" height="41" fill="#2f9e67"/>
<rect x="103" y="548" width="24" height="12" fill="#d74b42"/>
<rect x="151" y="546" width="24" height="14" fill="#d74b42"/>
<rect x="199" y="544" width="24" height="16" fill="#6abf88"/>
<rect x="247" y="502" width="24" height="58" fill="#6abf88"/>
<rect x="295" y="542" width="24" height="18" fill="#6abf88"/>
<rect x="343" y="544" width="24" height="16" fill="#d74b42"/>
<rect x="391" y="542" width="24" height="18" fill="#6abf88"/>
<rect x="439" y="546" width="24" height="14" fill="#d74b42"/>
<rect x="487" y="546" width="24" height="14" fill="#d74b42"/>
<rect x="535" y="544" width="24" height="16" fill="#6abf88"/>
<rect x="583" y="530" width="24" height="30" fill="#6abf88"/>
<rect x="631" y="542" width="24" height="18" fill="#6abf88"/>
<rect x="679" y="505" width="24" height="55" fill="#6abf88"/>
<rect x="727" y="525" width="24" height="35" fill="#6abf88"/>
<text x="90" y="578" font-size="15" font-family="PingFang SC, Arial" fill="#6b7280">量能区</text>
<circle cx="451" cy="343" r="6" fill="none" stroke="#ef4444" stroke-width="2"/>
<text x="461" y="358" font-size="13" font-family="PingFang SC, Arial" fill="#dc2626">低吸试错点</text>
<circle cx="691" cy="220" r="6" fill="#ef4444" stroke="none"/>
<text x="651" y="205" font-size="13" font-family="PingFang SC, Arial" fill="#dc2626">突破确认点</text>
<rect x="850" y="135" width="280" height="450" rx="16" fill="#ffffff" stroke="#d0c7bc"/>
<text x="875" y="178" font-size="24" font-family="PingFang SC, Arial" fill="#111827">点评</text>
<text x="875" y="220" font-size="18" font-family="PingFang SC, Arial" fill="#374151">高位小箱后放量突破</text>
<text x="875" y="262" font-size="18" font-family="PingFang SC, Arial" fill="#4b5563">• 高位横盘</text>
<text x="875" y="296" font-size="18" font-family="PingFang SC, Arial" fill="#4b5563">• 贴短均线</text>
<text x="875" y="330" font-size="18" font-family="PingFang SC, Arial" fill="#4b5563">• 风险：次日分歧</text>
<text x="875" y="655" font-size="18" font-family="PingFang SC, Arial" fill="#7c746b">教学示意图：重绘，不复刻原截图</text>
</svg>
