<svg xmlns="http://www.w3.org/2000/svg" width="1200" height="720" viewBox="0 0 1200 720">
<rect width="1200" height="720" fill="#fbfaf7"/>
<rect x="70" y="135" width="750" height="450" rx="18" fill="#fffefb" stroke="#c9c2b8" stroke-width="2"/>
<text x="70" y="70" font-size="34" font-family="PingFang SC, Arial" fill="#1f2933">案例45｜华天科技 002185</text>
<text x="850" y="70" font-size="34" font-family="PingFang SC, Arial" fill="#b7791f">68/100  勉强</text>
<text x="620" y="200" font-size="18" font-family="PingFang SC, Arial" fill="#6d28d9">前高/压力线</text>
<text x="90" y="162" font-size="13" font-family="PingFang SC, Arial" fill="#4b5563" font-weight="bold">均线</text>
<line x1="125" y1="159" x2="145" y2="159" stroke="#f59e0b" stroke-width="3"/>
<text x="149" y="162" font-size="12" font-family="PingFang SC, Arial" fill="#f59e0b">MA5</text>
<line x1="183" y1="159" x2="203" y2="159" stroke="#8b5cf6" stroke-width="3" stroke-dasharray="6,4"/>
<text x="207" y="162" font-size="12" font-family="PingFang SC, Arial" fill="#8b5cf6">MA10</text>
<line x1="241" y1="159" x2="261" y2="159" stroke="#10b981" stroke-width="3"/>
<text x="265" y="162" font-size="12" font-family="PingFang SC, Arial" fill="#10b981">MA20</text>
<line x1="299" y1="159" x2="319" y2="159" stroke="#f97316" stroke-width="3"/>
<text x="323" y="162" font-size="12" font-family="PingFang SC, Arial" fill="#f97316">MA30</text>
<line x1="357" y1="159" x2="377" y2="159" stroke="#ef4444" stroke-width="3"/>
<text x="381" y="162" font-size="12" font-family="PingFang SC, Arial" fill="#ef4444">MA60</text>
<line x1="415" y1="159" x2="435" y2="159" stroke="#6b7280" stroke-width="3"/>
<text x="439" y="162" font-size="12" font-family="PingFang SC, Arial" fill="#6b7280">MA120</text>
<line x1="110" y1="251" x2="780" y2="251" stroke="#7c3aed" stroke-width="2" stroke-dasharray="8,4"/>
<text x="630" y="241" font-size="15" font-family="PingFang SC, Arial" fill="#6d28d9">前高压力线</text>
<rect x="292" y="300" width="270" height="155" fill="none" stroke="#2563eb" stroke-width="3"/>
<text x="292" y="290" font-size="15" font-family="PingFang SC, Arial" fill="#1d4ed8">高位窄箱体</text>
<polyline points="115,452 163,451 211,447 259,417 307,413 355,409 403,405 451,383 499,402 547,398 595,387 643,371 691,353 739,317" fill="none" stroke="#f59e0b" stroke-width="2.5"/>
<polyline points="115,444 163,444 211,444 259,432 307,432 355,430 403,428 451,415 499,409 547,406 595,398 643,387 691,368 739,360" fill="none" stroke="#8b5cf6" stroke-width="2.5" stroke-dasharray="8,4"/>
<polyline points="115,461 163,458 211,454 259,445 307,441 355,439 403,438 451,432 499,429 547,426 595,421 643,416 691,406 739,396" fill="none" stroke="#10b981" stroke-width="2.5"/>
<polyline points="115,492 163,487 211,482 259,474 307,469 355,465 403,460 451,453 499,448 547,444 595,440 643,435 691,425 739,417" fill="none" stroke="#f97316" stroke-width="2.5"/>
<polyline points="115,507 163,507 211,507 259,505 307,505 355,505 403,505 451,503 499,503 547,502 595,501 643,498 691,494 739,488" fill="none" stroke="#ef4444" stroke-width="2.5"/>
<polyline points="115,467 163,467 211,467 259,466 307,466 355,466 403,466 451,466 499,466 547,466 595,467 643,466 691,465 739,464" fill="none" stroke="#6b7280" stroke-width="2.5"/>
<line x1="115" y1="432" x2="115" y2="473" stroke="#2f9e67" stroke-width="3"/>
<rect x="104" y="448" width="22" height="9" fill="#2f9e67"/>
<line x1="163" y1="431" x2="163" y2="478" stroke="#2f9e67" stroke-width="3"/>
<rect x="152" y="447" width="22" height="16" fill="#2f9e67"/>
<line x1="211" y1="411" x2="211" y2="452" stroke="#d74b42" stroke-width="3"/>
<rect x="200" y="427" width="22" height="9" fill="#d74b42"/>
<line x1="259" y1="276" x2="259" y2="395" stroke="#2f9e67" stroke-width="3"/>
<rect x="248" y="310" width="22" height="60" fill="#2f9e67"/>
<line x1="307" y1="417" x2="307" y2="450" stroke="#2f9e67" stroke-width="3"/>
<rect x="296" y="426" width="22" height="14" fill="#2f9e67"/>
<line x1="355" y1="416" x2="355" y2="450" stroke="#2f9e67" stroke-width="3"/>
<rect x="344" y="425" width="22" height="15" fill="#2f9e67"/>
<line x1="403" y1="416" x2="403" y2="442" stroke="#2f9e67" stroke-width="3"/>
<rect x="392" y="425" width="22" height="7" fill="#2f9e67"/>
<line x1="451" y1="305" x2="451" y2="338" stroke="#d74b42" stroke-width="3"/>
<rect x="440" y="315" width="22" height="13" fill="#d74b42"/>
<line x1="499" y1="395" x2="499" y2="420" stroke="#2f9e67" stroke-width="3"/>
<rect x="488" y="405" width="22" height="5" fill="#2f9e67"/>
<line x1="547" y1="396" x2="547" y2="429" stroke="#2f9e67" stroke-width="3"/>
<rect x="536" y="406" width="22" height="13" fill="#2f9e67"/>
<line x1="595" y1="353" x2="595" y2="413" stroke="#2f9e67" stroke-width="3"/>
<rect x="584" y="373" width="22" height="28" fill="#2f9e67"/>
<line x1="643" y1="321" x2="643" y2="380" stroke="#2f9e67" stroke-width="3"/>
<rect x="632" y="341" width="22" height="27" fill="#2f9e67"/>
<line x1="691" y1="218" x2="691" y2="313" stroke="#2f9e67" stroke-width="3"/>
<rect x="680" y="242" width="22" height="53" fill="#2f9e67"/>
<line x1="739" y1="206" x2="739" y2="265" stroke="#2f9e67" stroke-width="3"/>
<rect x="728" y="224" width="22" height="32" fill="#2f9e67"/>
<rect x="103" y="548" width="24" height="12" fill="#6abf88"/>
<rect x="151" y="546" width="24" height="14" fill="#6abf88"/>
<rect x="199" y="544" width="24" height="16" fill="#d74b42"/>
<rect x="247" y="502" width="24" height="58" fill="#6abf88"/>
<rect x="295" y="542" width="24" height="18" fill="#6abf88"/>
<rect x="343" y="544" width="24" height="16" fill="#6abf88"/>
<rect x="391" y="542" width="24" height="18" fill="#6abf88"/>
<rect x="439" y="546" width="24" height="14" fill="#d74b42"/>
<rect x="487" y="546" width="24" height="14" fill="#6abf88"/>
<rect x="535" y="544" width="24" height="16" fill="#6abf88"/>
<rect x="583" y="530" width="24" height="30" fill="#6abf88"/>
<rect x="631" y="542" width="24" height="18" fill="#6abf88"/>
<rect x="679" y="505" width="24" height="55" fill="#6abf88"/>
<rect x="727" y="525" width="24" height="35" fill="#6abf88"/>
<text x="90" y="578" font-size="15" font-family="PingFang SC, Arial" fill="#6b7280">量能区</text>
<circle cx="451" cy="338" r="6" fill="none" stroke="#ef4444" stroke-width="2"/>
<text x="461" y="353" font-size="13" font-family="PingFang SC, Arial" fill="#dc2626">低吸试错点</text>
<circle cx="691" cy="218" r="6" fill="#ef4444" stroke="none"/>
<text x="651" y="203" font-size="13" font-family="PingFang SC, Arial" fill="#dc2626">突破确认点</text>
<rect x="850" y="135" width="280" height="450" rx="16" fill="#ffffff" stroke="#d0c7bc"/>
<text x="875" y="178" font-size="24" font-family="PingFang SC, Arial" fill="#111827">点评</text>
<text x="875" y="220" font-size="18" font-family="PingFang SC, Arial" fill="#374151">深V反弹，未成标准窄箱</text>
<text x="875" y="258" font-size="18" font-family="PingFang SC, Arial" fill="#374151">低吸观察：14.3-14.</text>
<text x="875" y="286" font-size="18" font-family="PingFang SC, Arial" fill="#374151">6</text>
<text x="875" y="324" font-size="18" font-family="PingFang SC, Arial" fill="#374151">突破确认：过15.4-16</text>
<text x="875" y="655" font-size="18" font-family="PingFang SC, Arial" fill="#7c746b">教学重绘图：不复刻原截图</text>
</svg>
