<svg xmlns="http://www.w3.org/2000/svg" width="1200" height="720" viewBox="0 0 1200 720">
<rect width="1200" height="720" fill="#fbfaf7"/>
<rect x="70" y="135" width="750" height="450" rx="18" fill="#fffefb" stroke="#c9c2b8" stroke-width="2"/>
<text x="70" y="70" font-size="34" font-family="PingFang SC, Arial" fill="#1f2933">案例46｜教学示意图</text>
<text x="850" y="70" font-size="34" font-family="PingFang SC, Arial" fill="#0f8a4b">90/100  标准</text>
<text x="620" y="200" font-size="18" font-family="PingFang SC, Arial" fill="#6d28d9">前高/压力线</text>
<rect x="282" y="324" width="386" height="84" fill="none" stroke="#2563eb" stroke-width="3"/>
<text x="90" y="162" font-size="13" font-family="PingFang SC, Arial" fill="#4b5563" font-weight="bold">均线</text>
<line x1="125" y1="159" x2="145" y2="159" stroke="#f59e0b" stroke-width="3"/>
<text x="149" y="162" font-size="12" font-family="PingFang SC, Arial" fill="#f59e0b">MA5</text>
<line x1="183" y1="159" x2="203" y2="159" stroke="#8b5cf6" stroke-width="3" stroke-dasharray="6,4"/>
<text x="207" y="162" font-size="12" font-family="PingFang SC, Arial" fill="#8b5cf6">MA10</text>
<line x1="241" y1="159" x2="261" y2="159" stroke="#10b981" stroke-width="3"/>
<text x="265" y="162" font-size="12" font-family="PingFang SC, Arial" fill="#10b981">MA20</text>
<line x1="299" y1="159" x2="319" y2="159" stroke="#f97316" stroke-width="3"/>
<text x="323" y="162" font-size="12" font-family="PingFang SC, Arial" fill="#f97316">MA30</text>
<line x1="357" y1="159" x2="377" y2="159" stroke="#ef4444" stroke-width="3"/>
<text x="381" y="162" font-size="12" font-family="PingFang SC, Arial" fill="#ef4444">MA60</text>
<line x1="415" y1="159" x2="435" y2="159" stroke="#6b7280" stroke-width="3"/>
<text x="439" y="162" font-size="12" font-family="PingFang SC, Arial" fill="#6b7280">MA120</text>
<line x1="110" y1="272" x2="780" y2="272" stroke="#7c3aed" stroke-width="2" stroke-dasharray="8,4"/>
<text x="630" y="262" font-size="15" font-family="PingFang SC, Arial" fill="#6d28d9">前高压力线</text>
<rect x="292" y="333" width="270" height="147" fill="none" stroke="#2563eb" stroke-width="3"/>
<text x="292" y="323" font-size="15" font-family="PingFang SC, Arial" fill="#1d4ed8">高位窄箱体</text>
<polyline points="115,464 163,466 211,468 259,443 307,439 355,436 403,431 451,407 499,426 547,423 595,412 643,394 691,373 739,334" fill="none" stroke="#f59e0b" stroke-width="2.5"/>
<polyline points="115,467 163,466 211,467 259,456 307,452 355,450 403,449 451,438 499,434 547,431 595,424 643,412 691,391 739,380" fill="none" stroke="#8b5cf6" stroke-width="2.5" stroke-dasharray="8,4"/>
<polyline points="115,471 163,472 211,471 259,466 307,465 355,463 403,462 451,455 499,452 547,450 595,446 643,439 691,429 739,418" fill="none" stroke="#10b981" stroke-width="2.5"/>
<polyline points="115,480 163,480 211,480 259,475 307,474 355,472 403,470 451,466 499,464 547,460 595,456 643,453 691,445 739,437" fill="none" stroke="#f97316" stroke-width="2.5"/>
<polyline points="115,433 163,436 211,439 259,440 307,443 355,446 403,448 451,449 499,451 547,453 595,454 643,454 691,452 739,449" fill="none" stroke="#ef4444" stroke-width="2.5"/>
<polyline points="115,292 163,294 211,296 259,297 307,299 355,301 403,304 451,305 499,307 547,310 595,312 643,314 691,315 739,316" fill="none" stroke="#6b7280" stroke-width="2.5"/>
<line x1="115" y1="450" x2="115" y2="504" stroke="#2f9e67" stroke-width="3"/>
<rect x="104" y="467" width="22" height="20" fill="#2f9e67"/>
<line x1="163" y1="445" x2="163" y2="492" stroke="#d74b42" stroke-width="3"/>
<rect x="152" y="463" width="22" height="11" fill="#d74b42"/>
<line x1="211" y1="435" x2="211" y2="491" stroke="#d74b42" stroke-width="3"/>
<rect x="200" y="453" width="22" height="20" fill="#d74b42"/>
<line x1="259" y1="297" x2="259" y2="428" stroke="#2f9e67" stroke-width="3"/>
<rect x="248" y="335" width="22" height="66" fill="#2f9e67"/>
<line x1="307" y1="419" x2="307" y2="457" stroke="#d74b42" stroke-width="3"/>
<rect x="296" y="430" width="22" height="16" fill="#d74b42"/>
<line x1="355" y1="441" x2="355" y2="474" stroke="#2f9e67" stroke-width="3"/>
<rect x="344" y="452" width="22" height="13" fill="#2f9e67"/>
<line x1="403" y1="440" x2="403" y2="475" stroke="#2f9e67" stroke-width="3"/>
<rect x="392" y="451" width="22" height="14" fill="#2f9e67"/>
<line x1="451" y1="338" x2="451" y2="367" stroke="#d74b42" stroke-width="3"/>
<rect x="440" y="348" width="22" height="8" fill="#d74b42"/>
<line x1="499" y1="405" x2="499" y2="435" stroke="#d74b42" stroke-width="3"/>
<rect x="488" y="416" width="22" height="8" fill="#d74b42"/>
<line x1="547" y1="403" x2="547" y2="444" stroke="#d74b42" stroke-width="3"/>
<rect x="536" y="414" width="22" height="19" fill="#d74b42"/>
<line x1="595" y1="375" x2="595" y2="439" stroke="#2f9e67" stroke-width="3"/>
<rect x="584" y="397" width="22" height="29" fill="#2f9e67"/>
<line x1="643" y1="338" x2="643" y2="408" stroke="#2f9e67" stroke-width="3"/>
<rect x="632" y="360" width="22" height="36" fill="#2f9e67"/>
<line x1="691" y1="221" x2="691" y2="328" stroke="#2f9e67" stroke-width="3"/>
<rect x="680" y="249" width="22" height="59" fill="#2f9e67"/>
<line x1="739" y1="210" x2="739" y2="280" stroke="#2f9e67" stroke-width="3"/>
<rect x="728" y="229" width="22" height="42" fill="#2f9e67"/>
<rect x="103" y="548" width="24" height="12" fill="#6abf88"/>
<rect x="151" y="546" width="24" height="14" fill="#d74b42"/>
<rect x="199" y="544" width="24" height="16" fill="#d74b42"/>
<rect x="247" y="502" width="24" height="58" fill="#6abf88"/>
<rect x="295" y="542" width="24" height="18" fill="#d74b42"/>
<rect x="343" y="544" width="24" height="16" fill="#6abf88"/>
<rect x="391" y="542" width="24" height="18" fill="#6abf88"/>
<rect x="439" y="546" width="24" height="14" fill="#d74b42"/>
<rect x="487" y="546" width="24" height="14" fill="#d74b42"/>
<rect x="535" y="544" width="24" height="16" fill="#d74b42"/>
<rect x="583" y="530" width="24" height="30" fill="#6abf88"/>
<rect x="631" y="542" width="24" height="18" fill="#6abf88"/>
<rect x="679" y="505" width="24" height="55" fill="#6abf88"/>
<rect x="727" y="525" width="24" height="35" fill="#6abf88"/>
<text x="90" y="578" font-size="15" font-family="PingFang SC, Arial" fill="#6b7280">量能区</text>
<circle cx="451" cy="367" r="6" fill="none" stroke="#ef4444" stroke-width="2"/>
<text x="461" y="382" font-size="13" font-family="PingFang SC, Arial" fill="#dc2626">低吸试错点</text>
<circle cx="691" cy="221" r="6" fill="#ef4444" stroke="none"/>
<text x="651" y="206" font-size="13" font-family="PingFang SC, Arial" fill="#dc2626">突破确认点</text>
<rect x="850" y="135" width="280" height="450" rx="16" fill="#ffffff" stroke="#d0c7bc"/>
<text x="875" y="178" font-size="24" font-family="PingFang SC, Arial" fill="#111827">点评</text>
<text x="875" y="220" font-size="18" font-family="PingFang SC, Arial" fill="#374151">教科书模板：启动-窄箱-突</text>
<text x="875" y="248" font-size="18" font-family="PingFang SC, Arial" fill="#374151">破</text>
<text x="875" y="286" font-size="18" font-family="PingFang SC, Arial" fill="#374151">低吸试错：蓝框回踩5日线</text>
<text x="875" y="324" font-size="18" font-family="PingFang SC, Arial" fill="#374151">突破确认：过箱体顶</text>
<text x="875" y="655" font-size="18" font-family="PingFang SC, Arial" fill="#7c746b">教学重绘图：不复刻原截图</text>
</svg>
