<svg xmlns="http://www.w3.org/2000/svg" width="1200" height="720" viewBox="0 0 1200 720">
<rect width="1200" height="720" fill="#fbfaf7"/>
<rect x="70" y="135" width="750" height="450" rx="18" fill="#fffefb" stroke="#c9c2b8" stroke-width="2"/>
<text x="70" y="70" font-size="34" font-family="PingFang SC, Arial" fill="#1f2933">案例26｜蓝思科技 300433</text>
<text x="850" y="70" font-size="34" font-family="PingFang SC, Arial" fill="#b7791f">70/100  勉强</text>
<rect x="282" y="210" width="386" height="195" fill="none" stroke="#2563eb" stroke-width="3"/>
<text x="90" y="162" font-size="13" font-family="PingFang SC, Arial" fill="#4b5563" font-weight="bold">均线</text>
<line x1="125" y1="159" x2="145" y2="159" stroke="#f59e0b" stroke-width="3"/>
<text x="149" y="162" font-size="12" font-family="PingFang SC, Arial" fill="#f59e0b">MA5</text>
<line x1="183" y1="159" x2="203" y2="159" stroke="#8b5cf6" stroke-width="3" stroke-dasharray="6,4"/>
<text x="207" y="162" font-size="12" font-family="PingFang SC, Arial" fill="#8b5cf6">MA10</text>
<line x1="241" y1="159" x2="261" y2="159" stroke="#10b981" stroke-width="3"/>
<text x="265" y="162" font-size="12" font-family="PingFang SC, Arial" fill="#10b981">MA20</text>
<line x1="299" y1="159" x2="319" y2="159" stroke="#f97316" stroke-width="3"/>
<text x="323" y="162" font-size="12" font-family="PingFang SC, Arial" fill="#f97316">MA30</text>
<line x1="357" y1="159" x2="377" y2="159" stroke="#ef4444" stroke-width="3"/>
<text x="381" y="162" font-size="12" font-family="PingFang SC, Arial" fill="#ef4444">MA60</text>
<line x1="415" y1="159" x2="435" y2="159" stroke="#6b7280" stroke-width="3"/>
<text x="439" y="162" font-size="12" font-family="PingFang SC, Arial" fill="#6b7280">MA120</text>
<line x1="110" y1="253" x2="780" y2="253" stroke="#7c3aed" stroke-width="2" stroke-dasharray="8,4"/>
<text x="630" y="243" font-size="15" font-family="PingFang SC, Arial" fill="#6d28d9">前高压力线</text>
<rect x="292" y="309" width="270" height="141" fill="none" stroke="#2563eb" stroke-width="3"/>
<text x="292" y="299" font-size="15" font-family="PingFang SC, Arial" fill="#1d4ed8">高位窄箱体</text>
<polyline points="115,460 163,454 211,450 259,420 307,416 355,410 403,407 451,385 499,403 547,401 595,394 643,379 691,361 739,326" fill="none" stroke="#f59e0b" stroke-width="2.5"/>
<polyline points="115,459 163,459 211,458 259,446 307,442 355,435 403,431 451,417 499,411 547,409 595,403 643,393 691,373 739,365" fill="none" stroke="#8b5cf6" stroke-width="2.5" stroke-dasharray="8,4"/>
<polyline points="115,460 163,462 211,463 259,457 307,456 355,453 403,450 451,443 499,439 547,435 595,431 643,426 691,415 739,405" fill="none" stroke="#10b981" stroke-width="2.5"/>
<polyline points="115,438 163,439 211,441 259,438 307,439 355,439 403,441 451,439 499,440 547,441 595,441 643,439 691,433 739,426" fill="none" stroke="#f97316" stroke-width="2.5"/>
<polyline points="115,444 163,442 211,440 259,436 307,434 355,432 403,430 451,428 499,427 547,426 595,426 643,424 691,423 739,421" fill="none" stroke="#ef4444" stroke-width="2.5"/>
<polyline points="115,505 163,505 211,505 259,503 307,503 355,503 403,502 451,502 499,501 547,501 595,501 643,500 691,498 739,495" fill="none" stroke="#6b7280" stroke-width="2.5"/>
<line x1="115" y1="409" x2="115" y2="465" stroke="#d74b42" stroke-width="3"/>
<rect x="104" y="426" width="22" height="23" fill="#d74b42"/>
<line x1="163" y1="427" x2="163" y2="469" stroke="#2f9e67" stroke-width="3"/>
<rect x="152" y="443" width="22" height="9" fill="#2f9e67"/>
<line x1="211" y1="409" x2="211" y2="463" stroke="#d74b42" stroke-width="3"/>
<rect x="200" y="425" width="22" height="21" fill="#d74b42"/>
<line x1="259" y1="278" x2="259" y2="403" stroke="#2f9e67" stroke-width="3"/>
<rect x="248" y="314" width="22" height="63" fill="#2f9e67"/>
<line x1="307" y1="407" x2="307" y2="438" stroke="#d74b42" stroke-width="3"/>
<rect x="296" y="417" width="22" height="11" fill="#d74b42"/>
<line x1="355" y1="396" x2="355" y2="431" stroke="#d74b42" stroke-width="3"/>
<rect x="344" y="406" width="22" height="15" fill="#d74b42"/>
<line x1="403" y1="416" x2="403" y2="445" stroke="#2f9e67" stroke-width="3"/>
<rect x="392" y="426" width="22" height="9" fill="#2f9e67"/>
<line x1="451" y1="314" x2="451" y2="347" stroke="#d74b42" stroke-width="3"/>
<rect x="440" y="325" width="22" height="11" fill="#d74b42"/>
<line x1="499" y1="394" x2="499" y2="421" stroke="#2f9e67" stroke-width="3"/>
<rect x="488" y="404" width="22" height="7" fill="#2f9e67"/>
<line x1="547" y1="409" x2="547" y2="435" stroke="#2f9e67" stroke-width="3"/>
<rect x="536" y="419" width="22" height="5" fill="#2f9e67"/>
<line x1="595" y1="365" x2="595" y2="428" stroke="#2f9e67" stroke-width="3"/>
<rect x="584" y="386" width="22" height="29" fill="#2f9e67"/>
<line x1="643" y1="330" x2="643" y2="389" stroke="#2f9e67" stroke-width="3"/>
<rect x="632" y="351" width="22" height="26" fill="#2f9e67"/>
<line x1="691" y1="219" x2="691" y2="320" stroke="#2f9e67" stroke-width="3"/>
<rect x="680" y="245" width="22" height="56" fill="#2f9e67"/>
<line x1="739" y1="208" x2="739" y2="283" stroke="#2f9e67" stroke-width="3"/>
<rect x="728" y="227" width="22" height="46" fill="#2f9e67"/>
<rect x="103" y="548" width="24" height="12" fill="#d74b42"/>
<rect x="151" y="546" width="24" height="14" fill="#6abf88"/>
<rect x="199" y="544" width="24" height="16" fill="#d74b42"/>
<rect x="247" y="502" width="24" height="58" fill="#6abf88"/>
<rect x="295" y="542" width="24" height="18" fill="#d74b42"/>
<rect x="343" y="544" width="24" height="16" fill="#d74b42"/>
<rect x="391" y="542" width="24" height="18" fill="#6abf88"/>
<rect x="439" y="546" width="24" height="14" fill="#d74b42"/>
<rect x="487" y="546" width="24" height="14" fill="#6abf88"/>
<rect x="535" y="544" width="24" height="16" fill="#6abf88"/>
<rect x="583" y="530" width="24" height="30" fill="#6abf88"/>
<rect x="631" y="542" width="24" height="18" fill="#6abf88"/>
<rect x="679" y="505" width="24" height="55" fill="#6abf88"/>
<rect x="727" y="525" width="24" height="35" fill="#6abf88"/>
<text x="90" y="578" font-size="15" font-family="PingFang SC, Arial" fill="#6b7280">量能区</text>
<circle cx="451" cy="347" r="6" fill="none" stroke="#ef4444" stroke-width="2"/>
<text x="461" y="362" font-size="13" font-family="PingFang SC, Arial" fill="#dc2626">低吸试错点</text>
<circle cx="691" cy="219" r="6" fill="#ef4444" stroke="none"/>
<text x="651" y="204" font-size="13" font-family="PingFang SC, Arial" fill="#dc2626">突破确认点</text>
<rect x="850" y="135" width="280" height="450" rx="16" fill="#ffffff" stroke="#d0c7bc"/>
<text x="875" y="178" font-size="24" font-family="PingFang SC, Arial" fill="#111827">点评</text>
<text x="875" y="220" font-size="18" font-family="PingFang SC, Arial" fill="#374151">多个小结构后高位加速</text>
<text x="875" y="262" font-size="18" font-family="PingFang SC, Arial" fill="#4b5563">• 量价配合</text>
<text x="875" y="296" font-size="18" font-family="PingFang SC, Arial" fill="#4b5563">• 波段强</text>
<text x="875" y="330" font-size="18" font-family="PingFang SC, Arial" fill="#4b5563">• 风险：过热信号</text>
<text x="875" y="655" font-size="18" font-family="PingFang SC, Arial" fill="#7c746b">教学示意图：重绘，不复刻原截图</text>
</svg>
