<svg xmlns="http://www.w3.org/2000/svg" width="1200" height="720" viewBox="0 0 1200 720">
<rect width="1200" height="720" fill="#fbfaf7"/>
<rect x="70" y="135" width="750" height="450" rx="18" fill="#fffefb" stroke="#c9c2b8" stroke-width="2"/>
<text x="70" y="70" font-size="34" font-family="PingFang SC, Arial" fill="#1f2933">案例23｜赣能股份 000899</text>
<text x="850" y="70" font-size="34" font-family="PingFang SC, Arial" fill="#0f8a4b">78/100  较标准</text>
<rect x="282" y="328" width="386" height="86" fill="none" stroke="#2563eb" stroke-width="3"/>
<text x="90" y="162" font-size="13" font-family="PingFang SC, Arial" fill="#4b5563" font-weight="bold">均线</text>
<line x1="125" y1="159" x2="145" y2="159" stroke="#f59e0b" stroke-width="3"/>
<text x="149" y="162" font-size="12" font-family="PingFang SC, Arial" fill="#f59e0b">MA5</text>
<line x1="183" y1="159" x2="203" y2="159" stroke="#8b5cf6" stroke-width="3" stroke-dasharray="6,4"/>
<text x="207" y="162" font-size="12" font-family="PingFang SC, Arial" fill="#8b5cf6">MA10</text>
<line x1="241" y1="159" x2="261" y2="159" stroke="#10b981" stroke-width="3"/>
<text x="265" y="162" font-size="12" font-family="PingFang SC, Arial" fill="#10b981">MA20</text>
<line x1="299" y1="159" x2="319" y2="159" stroke="#f97316" stroke-width="3"/>
<text x="323" y="162" font-size="12" font-family="PingFang SC, Arial" fill="#f97316">MA30</text>
<line x1="357" y1="159" x2="377" y2="159" stroke="#ef4444" stroke-width="3"/>
<text x="381" y="162" font-size="12" font-family="PingFang SC, Arial" fill="#ef4444">MA60</text>
<line x1="415" y1="159" x2="435" y2="159" stroke="#6b7280" stroke-width="3"/>
<text x="439" y="162" font-size="12" font-family="PingFang SC, Arial" fill="#6b7280">MA120</text>
<line x1="110" y1="248" x2="780" y2="248" stroke="#7c3aed" stroke-width="2" stroke-dasharray="8,4"/>
<text x="630" y="238" font-size="15" font-family="PingFang SC, Arial" fill="#6d28d9">前高压力线</text>
<rect x="292" y="320" width="270" height="185" fill="none" stroke="#2563eb" stroke-width="3"/>
<text x="292" y="310" font-size="15" font-family="PingFang SC, Arial" fill="#1d4ed8">高位窄箱体</text>
<polyline points="115,446 163,457 211,462 259,440 307,436 355,435 403,431 451,406 499,429 547,428 595,416 643,400 691,383 739,343" fill="none" stroke="#f59e0b" stroke-width="2.5"/>
<polyline points="115,416 163,426 211,435 259,429 307,434 355,440 403,444 451,433 499,435 547,432 595,425 643,415 691,395 739,387" fill="none" stroke="#8b5cf6" stroke-width="2.5" stroke-dasharray="8,4"/>
<polyline points="115,402 163,408 211,411 259,407 307,409 355,413 403,416 451,413 499,415 547,418 595,421 643,421 691,415 739,408" fill="none" stroke="#10b981" stroke-width="2.5"/>
<polyline points="115,369 163,375 211,382 259,382 307,388 355,394 403,400 451,401 499,405 547,408 595,410 643,410 691,406 739,400" fill="none" stroke="#f97316" stroke-width="2.5"/>
<polyline points="115,340 163,341 211,343 259,343 307,346 355,349 403,351 451,352 499,355 547,358 595,360 643,362 691,361 739,360" fill="none" stroke="#ef4444" stroke-width="2.5"/>
<polyline points="115,358 163,359 211,359 259,358 307,359 355,360 403,361 451,360 499,361 547,361 595,361 643,361 691,360 739,359" fill="none" stroke="#6b7280" stroke-width="2.5"/>
<line x1="115" y1="439" x2="115" y2="497" stroke="#d74b42" stroke-width="3"/>
<rect x="104" y="457" width="22" height="22" fill="#d74b42"/>
<line x1="163" y1="453" x2="163" y2="502" stroke="#2f9e67" stroke-width="3"/>
<rect x="152" y="472" width="22" height="11" fill="#2f9e67"/>
<line x1="211" y1="420" x2="211" y2="482" stroke="#d74b42" stroke-width="3"/>
<rect x="200" y="438" width="22" height="26" fill="#d74b42"/>
<line x1="259" y1="273" x2="259" y2="415" stroke="#2f9e67" stroke-width="3"/>
<rect x="248" y="314" width="22" height="71" fill="#2f9e67"/>
<line x1="307" y1="432" x2="307" y2="465" stroke="#d74b42" stroke-width="3"/>
<rect x="296" y="443" width="22" height="10" fill="#d74b42"/>
<line x1="355" y1="462" x2="355" y2="500" stroke="#2f9e67" stroke-width="3"/>
<rect x="344" y="473" width="22" height="16" fill="#2f9e67"/>
<line x1="403" y1="442" x2="403" y2="483" stroke="#2f9e67" stroke-width="3"/>
<rect x="392" y="453" width="22" height="19" fill="#2f9e67"/>
<line x1="451" y1="325" x2="451" y2="361" stroke="#2f9e67" stroke-width="3"/>
<rect x="440" y="337" width="22" height="12" fill="#2f9e67"/>
<line x1="499" y1="420" x2="499" y2="452" stroke="#2f9e67" stroke-width="3"/>
<rect x="488" y="431" width="22" height="9" fill="#2f9e67"/>
<line x1="547" y1="427" x2="547" y2="459" stroke="#d74b42" stroke-width="3"/>
<rect x="536" y="438" width="22" height="9" fill="#d74b42"/>
<line x1="595" y1="387" x2="595" y2="457" stroke="#2f9e67" stroke-width="3"/>
<rect x="584" y="410" width="22" height="34" fill="#2f9e67"/>
<line x1="643" y1="342" x2="643" y2="386" stroke="#d74b42" stroke-width="3"/>
<rect x="632" y="365" width="22" height="6" fill="#d74b42"/>
<line x1="691" y1="224" x2="691" y2="337" stroke="#2f9e67" stroke-width="3"/>
<rect x="680" y="254" width="22" height="62" fill="#2f9e67"/>
<line x1="739" y1="211" x2="739" y2="288" stroke="#2f9e67" stroke-width="3"/>
<rect x="728" y="233" width="22" height="45" fill="#2f9e67"/>
<rect x="103" y="548" width="24" height="12" fill="#d74b42"/>
<rect x="151" y="546" width="24" height="14" fill="#6abf88"/>
<rect x="199" y="544" width="24" height="16" fill="#d74b42"/>
<rect x="247" y="502" width="24" height="58" fill="#6abf88"/>
<rect x="295" y="542" width="24" height="18" fill="#d74b42"/>
<rect x="343" y="544" width="24" height="16" fill="#6abf88"/>
<rect x="391" y="542" width="24" height="18" fill="#6abf88"/>
<rect x="439" y="546" width="24" height="14" fill="#6abf88"/>
<rect x="487" y="546" width="24" height="14" fill="#6abf88"/>
<rect x="535" y="544" width="24" height="16" fill="#d74b42"/>
<rect x="583" y="530" width="24" height="30" fill="#6abf88"/>
<rect x="631" y="542" width="24" height="18" fill="#d74b42"/>
<rect x="679" y="505" width="24" height="55" fill="#6abf88"/>
<rect x="727" y="525" width="24" height="35" fill="#6abf88"/>
<text x="90" y="578" font-size="15" font-family="PingFang SC, Arial" fill="#6b7280">量能区</text>
<circle cx="451" cy="361" r="6" fill="none" stroke="#ef4444" stroke-width="2"/>
<text x="461" y="376" font-size="13" font-family="PingFang SC, Arial" fill="#dc2626">低吸试错点</text>
<circle cx="691" cy="224" r="6" fill="#ef4444" stroke="none"/>
<text x="651" y="209" font-size="13" font-family="PingFang SC, Arial" fill="#dc2626">突破确认点</text>
<rect x="850" y="135" width="280" height="450" rx="16" fill="#ffffff" stroke="#d0c7bc"/>
<text x="875" y="178" font-size="24" font-family="PingFang SC, Arial" fill="#111827">点评</text>
<text x="875" y="220" font-size="18" font-family="PingFang SC, Arial" fill="#374151">结构成立但压力近</text>
<text x="875" y="262" font-size="18" font-family="PingFang SC, Arial" fill="#4b5563">• 颈线切入</text>
<text x="875" y="296" font-size="18" font-family="PingFang SC, Arial" fill="#4b5563">• 均线多头</text>
<text x="875" y="330" font-size="18" font-family="PingFang SC, Arial" fill="#4b5563">• 风险：容错低</text>
<text x="875" y="655" font-size="18" font-family="PingFang SC, Arial" fill="#7c746b">教学示意图：重绘，不复刻原截图</text>
</svg>
