<svg xmlns="http://www.w3.org/2000/svg" width="1200" height="720" viewBox="0 0 1200 720">
<rect width="1200" height="720" fill="#fbfaf7"/>
<rect x="70" y="135" width="750" height="450" rx="18" fill="#fffefb" stroke="#c9c2b8" stroke-width="2"/>
<text x="70" y="70" font-size="34" font-family="PingFang SC, Arial" fill="#1f2933">案例39｜清溢光电 688138</text>
<text x="850" y="70" font-size="34" font-family="PingFang SC, Arial" fill="#b7791f">72/100  勉强</text>
<text x="620" y="200" font-size="18" font-family="PingFang SC, Arial" fill="#6d28d9">前高/压力线</text>
<text x="90" y="162" font-size="13" font-family="PingFang SC, Arial" fill="#4b5563" font-weight="bold">均线</text>
<line x1="125" y1="159" x2="145" y2="159" stroke="#f59e0b" stroke-width="3"/>
<text x="149" y="162" font-size="12" font-family="PingFang SC, Arial" fill="#f59e0b">MA5</text>
<line x1="183" y1="159" x2="203" y2="159" stroke="#8b5cf6" stroke-width="3" stroke-dasharray="6,4"/>
<text x="207" y="162" font-size="12" font-family="PingFang SC, Arial" fill="#8b5cf6">MA10</text>
<line x1="241" y1="159" x2="261" y2="159" stroke="#10b981" stroke-width="3"/>
<text x="265" y="162" font-size="12" font-family="PingFang SC, Arial" fill="#10b981">MA20</text>
<line x1="299" y1="159" x2="319" y2="159" stroke="#f97316" stroke-width="3"/>
<text x="323" y="162" font-size="12" font-family="PingFang SC, Arial" fill="#f97316">MA30</text>
<line x1="357" y1="159" x2="377" y2="159" stroke="#ef4444" stroke-width="3"/>
<text x="381" y="162" font-size="12" font-family="PingFang SC, Arial" fill="#ef4444">MA60</text>
<line x1="415" y1="159" x2="435" y2="159" stroke="#6b7280" stroke-width="3"/>
<text x="439" y="162" font-size="12" font-family="PingFang SC, Arial" fill="#6b7280">MA120</text>
<polyline points="115,456 163,458 211,450 259,429 307,415 355,398 403,375 451,361 499,352 547,337 595,333 643,323 691,295 739,280" fill="none" stroke="#f59e0b" stroke-width="2.5"/>
<polyline points="115,433 163,437 211,440 259,436 307,433 355,427 403,417 451,405 499,390 547,376 595,366 643,349 691,328 739,316" fill="none" stroke="#8b5cf6" stroke-width="2.5" stroke-dasharray="8,4"/>
<polyline points="115,428 163,431 211,435 259,435 307,435 355,431 403,425 451,422 499,416 547,406 595,400 643,393 691,384 739,376" fill="none" stroke="#10b981" stroke-width="2.5"/>
<polyline points="115,404 163,408 211,411 259,412 307,413 355,413 403,412 451,412 499,410 547,409 595,407 643,404 691,399 739,395" fill="none" stroke="#f97316" stroke-width="2.5"/>
<polyline points="115,442 163,442 211,441 259,440 307,439 355,437 403,434 451,433 499,430 547,428 595,426 643,422 691,418 739,414" fill="none" stroke="#ef4444" stroke-width="2.5"/>
<polyline points="115,499 163,497 211,496 259,494 307,492 355,490 403,487 451,485 499,482 547,480 595,477 643,475 691,471 739,468" fill="none" stroke="#6b7280" stroke-width="2.5"/>
<line x1="110" y1="250" x2="780" y2="250" stroke="#7c3aed" stroke-width="2" stroke-dasharray="8,4"/>
<text x="630" y="240" font-size="15" font-family="PingFang SC, Arial" fill="#6d28d9">前高压力线</text>
<rect x="292" y="343" width="270" height="127" fill="none" stroke="#2563eb" stroke-width="3"/>
<text x="292" y="331" font-size="15" font-family="PingFang SC, Arial" fill="#1d4ed8">高位窄箱体</text>
<line x1="115" y1="438" x2="115" y2="456" stroke="#2f9e67" stroke-width="3"/>
<rect x="104" y="440" width="22" height="15" fill="#2f9e67"/>
<line x1="163" y1="432" x2="163" y2="459" stroke="#d74b42" stroke-width="3"/>
<rect x="152" y="434" width="22" height="22" fill="#d74b42"/>
<line x1="211" y1="418" x2="211" y2="462" stroke="#2f9e67" stroke-width="3"/>
<rect x="200" y="427" width="22" height="29" fill="#2f9e67"/>
<line x1="259" y1="359" x2="259" y2="434" stroke="#2f9e67" stroke-width="3"/>
<rect x="248" y="368" width="22" height="61" fill="#2f9e67"/>
<line x1="307" y1="358" x2="307" y2="391" stroke="#d74b42" stroke-width="3"/>
<rect x="296" y="362" width="22" height="23" fill="#d74b42"/>
<line x1="355" y1="350" x2="355" y2="387" stroke="#2f9e67" stroke-width="3"/>
<rect x="344" y="354" width="22" height="31" fill="#2f9e67"/>
<line x1="403" y1="337" x2="403" y2="356" stroke="#2f9e67" stroke-width="3"/>
<rect x="392" y="339" width="22" height="15" fill="#2f9e67"/>
<line x1="451" y1="329" x2="451" y2="363" stroke="#d74b42" stroke-width="3"/>
<rect x="440" y="333" width="22" height="23" fill="#d74b42"/>
<line x1="499" y1="321" x2="499" y2="359" stroke="#2f9e67" stroke-width="3"/>
<rect x="488" y="326" width="22" height="31" fill="#2f9e67"/>
<line x1="547" y1="307" x2="547" y2="327" stroke="#2f9e67" stroke-width="3"/>
<rect x="536" y="310" width="22" height="15" fill="#2f9e67"/>
<line x1="595" y1="293" x2="595" y2="350" stroke="#d74b42" stroke-width="3"/>
<rect x="584" y="300" width="22" height="38" fill="#d74b42"/>
<line x1="643" y1="276" x2="643" y2="344" stroke="#2f9e67" stroke-width="3"/>
<rect x="632" y="284" width="22" height="55" fill="#2f9e67"/>
<line x1="691" y1="203" x2="691" y2="293" stroke="#2f9e67" stroke-width="3"/>
<rect x="680" y="214" width="22" height="73" fill="#2f9e67"/>
<line x1="739" y1="194" x2="739" y2="263" stroke="#d74b42" stroke-width="3"/>
<rect x="728" y="199" width="22" height="56" fill="#d74b42"/>
<rect x="103" y="550" width="24" height="10" fill="#6abf88"/>
<rect x="151" y="545" width="24" height="15" fill="#d74b42"/>
<rect x="199" y="540" width="24" height="20" fill="#6abf88"/>
<rect x="247" y="520" width="24" height="40" fill="#6abf88"/>
<rect x="295" y="545" width="24" height="15" fill="#d74b42"/>
<rect x="343" y="540" width="24" height="20" fill="#6abf88"/>
<rect x="391" y="550" width="24" height="10" fill="#6abf88"/>
<rect x="439" y="545" width="24" height="15" fill="#d74b42"/>
<rect x="487" y="540" width="24" height="20" fill="#6abf88"/>
<rect x="535" y="550" width="24" height="10" fill="#6abf88"/>
<rect x="583" y="535" width="24" height="25" fill="#d74b42"/>
<rect x="631" y="525" width="24" height="35" fill="#6abf88"/>
<rect x="679" y="515" width="24" height="45" fill="#6abf88"/>
<rect x="727" y="525" width="24" height="35" fill="#d74b42"/>
<text x="90" y="578" font-size="15" font-family="PingFang SC, Arial" fill="#6b7280">量能区</text>
<rect x="850" y="135" width="280" height="450" rx="16" fill="#ffffff" stroke="#d0c7bc"/>
<text x="875" y="178" font-size="24" font-family="PingFang SC, Arial" fill="#111827">点评</text>
<text x="875" y="220" font-size="18" font-family="PingFang SC, Arial" fill="#374151">趋势尚可，横盘天数不足</text>
<text x="875" y="258" font-size="18" font-family="PingFang SC, Arial" fill="#374151">低吸试错：回踩5日线</text>
<text x="875" y="296" font-size="18" font-family="PingFang SC, Arial" fill="#374151">突破确认：过34.50前高</text>
<text x="875" y="655" font-size="18" font-family="PingFang SC, Arial" fill="#7c746b">教学重绘图：不复刻原截图</text>
</svg>
