<svg xmlns="http://www.w3.org/2000/svg" width="1200" height="720" viewBox="0 0 1200 720">
<rect width="1200" height="720" fill="#fbfaf7"/>
<rect x="70" y="135" width="750" height="450" rx="18" fill="#fffefb" stroke="#c9c2b8" stroke-width="2"/>
<text x="70" y="70" font-size="34" font-family="PingFang SC, Arial" fill="#1f2933">案例22｜赣能股份 000899</text>
<text x="850" y="70" font-size="34" font-family="PingFang SC, Arial" fill="#0f8a4b">80/100  较标准</text>
<rect x="282" y="328" width="386" height="86" fill="none" stroke="#2563eb" stroke-width="3"/>
<text x="90" y="162" font-size="13" font-family="PingFang SC, Arial" fill="#4b5563" font-weight="bold">均线</text>
<line x1="125" y1="159" x2="145" y2="159" stroke="#f59e0b" stroke-width="3"/>
<text x="149" y="162" font-size="12" font-family="PingFang SC, Arial" fill="#f59e0b">MA5</text>
<line x1="183" y1="159" x2="203" y2="159" stroke="#8b5cf6" stroke-width="3" stroke-dasharray="6,4"/>
<text x="207" y="162" font-size="12" font-family="PingFang SC, Arial" fill="#8b5cf6">MA10</text>
<line x1="241" y1="159" x2="261" y2="159" stroke="#10b981" stroke-width="3"/>
<text x="265" y="162" font-size="12" font-family="PingFang SC, Arial" fill="#10b981">MA20</text>
<line x1="299" y1="159" x2="319" y2="159" stroke="#f97316" stroke-width="3"/>
<text x="323" y="162" font-size="12" font-family="PingFang SC, Arial" fill="#f97316">MA30</text>
<line x1="357" y1="159" x2="377" y2="159" stroke="#ef4444" stroke-width="3"/>
<text x="381" y="162" font-size="12" font-family="PingFang SC, Arial" fill="#ef4444">MA60</text>
<line x1="415" y1="159" x2="435" y2="159" stroke="#6b7280" stroke-width="3"/>
<text x="439" y="162" font-size="12" font-family="PingFang SC, Arial" fill="#6b7280">MA120</text>
<line x1="110" y1="273" x2="780" y2="273" stroke="#7c3aed" stroke-width="2" stroke-dasharray="8,4"/>
<text x="630" y="263" font-size="15" font-family="PingFang SC, Arial" fill="#6d28d9">前高压力线</text>
<rect x="292" y="339" width="270" height="143" fill="none" stroke="#2563eb" stroke-width="3"/>
<text x="292" y="329" font-size="15" font-family="PingFang SC, Arial" fill="#1d4ed8">高位窄箱体</text>
<polyline points="115,472 163,466 211,468 259,445 307,440 355,437 403,433 451,410 499,429 547,426 595,413 643,394 691,373 739,333" fill="none" stroke="#f59e0b" stroke-width="2.5"/>
<polyline points="115,461 163,466 211,470 259,458 307,458 355,455 403,450 451,439 499,437 547,432 595,426 643,414 691,391 739,381" fill="none" stroke="#8b5cf6" stroke-width="2.5" stroke-dasharray="8,4"/>
<polyline points="115,441 163,442 211,445 259,440 307,442 355,445 403,447 451,442 499,444 547,446 595,444 643,440 691,431 739,420" fill="none" stroke="#10b981" stroke-width="2.5"/>
<polyline points="115,429 163,435 211,440 259,439 307,441 355,442 403,444 451,440 499,440 547,439 595,436 643,432 691,427 739,420" fill="none" stroke="#f97316" stroke-width="2.5"/>
<polyline points="115,354 163,356 211,360 259,362 307,365 355,368 403,373 451,374 499,377 547,381 595,383 643,385 691,384 739,383" fill="none" stroke="#ef4444" stroke-width="2.5"/>
<polyline points="115,221 163,225 211,230 259,233 307,236 355,240 403,244 451,246 499,250 547,253 595,256 643,260 691,261 739,263" fill="none" stroke="#6b7280" stroke-width="2.5"/>
<line x1="115" y1="455" x2="115" y2="504" stroke="#2f9e67" stroke-width="3"/>
<rect x="104" y="472" width="22" height="15" fill="#2f9e67"/>
<line x1="163" y1="431" x2="163" y2="487" stroke="#d74b42" stroke-width="3"/>
<rect x="152" y="448" width="22" height="22" fill="#d74b42"/>
<line x1="211" y1="456" x2="211" y2="502" stroke="#2f9e67" stroke-width="3"/>
<rect x="200" y="473" width="22" height="12" fill="#2f9e67"/>
<line x1="259" y1="298" x2="259" y2="428" stroke="#2f9e67" stroke-width="3"/>
<rect x="248" y="335" width="22" height="65" fill="#2f9e67"/>
<line x1="307" y1="440" x2="307" y2="477" stroke="#2f9e67" stroke-width="3"/>
<rect x="296" y="450" width="22" height="17" fill="#2f9e67"/>
<line x1="355" y1="424" x2="355" y2="466" stroke="#d74b42" stroke-width="3"/>
<rect x="344" y="436" width="22" height="20" fill="#d74b42"/>
<line x1="403" y1="446" x2="403" y2="475" stroke="#2f9e67" stroke-width="3"/>
<rect x="392" y="456" width="22" height="9" fill="#2f9e67"/>
<line x1="451" y1="344" x2="451" y2="372" stroke="#2f9e67" stroke-width="3"/>
<rect x="440" y="355" width="22" height="6" fill="#2f9e67"/>
<line x1="499" y1="402" x2="499" y2="440" stroke="#d74b42" stroke-width="3"/>
<rect x="488" y="413" width="22" height="16" fill="#d74b42"/>
<line x1="547" y1="422" x2="547" y2="459" stroke="#2f9e67" stroke-width="3"/>
<rect x="536" y="432" width="22" height="16" fill="#2f9e67"/>
<line x1="595" y1="374" x2="595" y2="442" stroke="#2f9e67" stroke-width="3"/>
<rect x="584" y="395" width="22" height="34" fill="#2f9e67"/>
<line x1="643" y1="336" x2="643" y2="404" stroke="#2f9e67" stroke-width="3"/>
<rect x="632" y="358" width="22" height="33" fill="#2f9e67"/>
<line x1="691" y1="221" x2="691" y2="326" stroke="#2f9e67" stroke-width="3"/>
<rect x="680" y="247" width="22" height="59" fill="#2f9e67"/>
<line x1="739" y1="209" x2="739" y2="284" stroke="#2f9e67" stroke-width="3"/>
<rect x="728" y="230" width="22" height="44" fill="#2f9e67"/>
<rect x="103" y="548" width="24" height="12" fill="#6abf88"/>
<rect x="151" y="546" width="24" height="14" fill="#d74b42"/>
<rect x="199" y="544" width="24" height="16" fill="#6abf88"/>
<rect x="247" y="502" width="24" height="58" fill="#6abf88"/>
<rect x="295" y="542" width="24" height="18" fill="#6abf88"/>
<rect x="343" y="544" width="24" height="16" fill="#d74b42"/>
<rect x="391" y="542" width="24" height="18" fill="#6abf88"/>
<rect x="439" y="546" width="24" height="14" fill="#6abf88"/>
<rect x="487" y="546" width="24" height="14" fill="#d74b42"/>
<rect x="535" y="544" width="24" height="16" fill="#6abf88"/>
<rect x="583" y="530" width="24" height="30" fill="#6abf88"/>
<rect x="631" y="542" width="24" height="18" fill="#6abf88"/>
<rect x="679" y="505" width="24" height="55" fill="#6abf88"/>
<rect x="727" y="525" width="24" height="35" fill="#6abf88"/>
<text x="90" y="578" font-size="15" font-family="PingFang SC, Arial" fill="#6b7280">量能区</text>
<circle cx="451" cy="372" r="6" fill="none" stroke="#ef4444" stroke-width="2"/>
<text x="461" y="387" font-size="13" font-family="PingFang SC, Arial" fill="#dc2626">低吸试错点</text>
<circle cx="691" cy="221" r="6" fill="#ef4444" stroke="none"/>
<text x="651" y="206" font-size="13" font-family="PingFang SC, Arial" fill="#dc2626">突破确认点</text>
<rect x="850" y="135" width="280" height="450" rx="16" fill="#ffffff" stroke="#d0c7bc"/>
<text x="875" y="178" font-size="24" font-family="PingFang SC, Arial" fill="#111827">点评</text>
<text x="875" y="220" font-size="18" font-family="PingFang SC, Arial" fill="#374151">高位小箱+贴5日线</text>
<text x="875" y="262" font-size="18" font-family="PingFang SC, Arial" fill="#4b5563">• 横盘数日</text>
<text x="875" y="296" font-size="18" font-family="PingFang SC, Arial" fill="#4b5563">• 量能温和</text>
<text x="875" y="330" font-size="18" font-family="PingFang SC, Arial" fill="#4b5563">• 风险：前高压力</text>
<text x="875" y="655" font-size="18" font-family="PingFang SC, Arial" fill="#7c746b">教学示意图：重绘，不复刻原截图</text>
</svg>
