<svg xmlns="http://www.w3.org/2000/svg" width="1200" height="720" viewBox="0 0 1200 720">
<rect width="1200" height="720" fill="#fbfaf7"/>
<rect x="70" y="135" width="750" height="450" rx="18" fill="#fffefb" stroke="#c9c2b8" stroke-width="2"/>
<text x="70" y="70" font-size="34" font-family="PingFang SC, Arial" fill="#1f2933">案例09｜演示K线</text>
<text x="850" y="70" font-size="34" font-family="PingFang SC, Arial" fill="#b7791f">58/100  勉强</text>
<rect x="282" y="290" width="338" height="105" fill="none" stroke="#2563eb" stroke-width="3"/>
<text x="90" y="162" font-size="13" font-family="PingFang SC, Arial" fill="#4b5563" font-weight="bold">均线</text>
<line x1="125" y1="159" x2="145" y2="159" stroke="#f59e0b" stroke-width="3"/>
<text x="149" y="162" font-size="12" font-family="PingFang SC, Arial" fill="#f59e0b">MA5</text>
<line x1="183" y1="159" x2="203" y2="159" stroke="#8b5cf6" stroke-width="3" stroke-dasharray="6,4"/>
<text x="207" y="162" font-size="12" font-family="PingFang SC, Arial" fill="#8b5cf6">MA10</text>
<line x1="241" y1="159" x2="261" y2="159" stroke="#10b981" stroke-width="3"/>
<text x="265" y="162" font-size="12" font-family="PingFang SC, Arial" fill="#10b981">MA20</text>
<line x1="299" y1="159" x2="319" y2="159" stroke="#f97316" stroke-width="3"/>
<text x="323" y="162" font-size="12" font-family="PingFang SC, Arial" fill="#f97316">MA30</text>
<line x1="357" y1="159" x2="377" y2="159" stroke="#ef4444" stroke-width="3"/>
<text x="381" y="162" font-size="12" font-family="PingFang SC, Arial" fill="#ef4444">MA60</text>
<line x1="415" y1="159" x2="435" y2="159" stroke="#6b7280" stroke-width="3"/>
<text x="439" y="162" font-size="12" font-family="PingFang SC, Arial" fill="#6b7280">MA120</text>
<polyline points="115,507 163,503 211,502 259,493 307,478 355,460 403,447 451,426 499,399 547,381 595,359 643,323 691,298 739,272" fill="none" stroke="#f59e0b" stroke-width="2.5"/>
<polyline points="115,493 163,493 211,496 259,494 307,490 355,483 403,475 451,464 499,446 547,430 595,409 643,385 691,362 739,336" fill="none" stroke="#8b5cf6" stroke-width="2.5" stroke-dasharray="8,4"/>
<polyline points="115,484 163,487 211,489 259,489 307,487 355,483 403,480 451,474 499,465 547,459 595,451 643,439 691,429 739,415" fill="none" stroke="#10b981" stroke-width="2.5"/>
<polyline points="115,451 163,456 211,460 259,463 307,465 355,465 403,466 451,465 499,464 547,463 595,460 643,453 691,447 739,438" fill="none" stroke="#f97316" stroke-width="2.5"/>
<polyline points="115,405 163,408 211,411 259,413 307,417 355,418 403,421 451,422 499,423 547,424 595,423 643,422 691,419 739,417" fill="none" stroke="#ef4444" stroke-width="2.5"/>
<polyline points="115,360 163,361 211,362 259,362 307,362 355,362 403,362 451,361 499,360 547,359 595,358 643,356 691,354 739,353" fill="none" stroke="#6b7280" stroke-width="2.5"/>
<line x1="110" y1="235" x2="780" y2="235" stroke="#7c3aed" stroke-width="2" stroke-dasharray="8,4"/>
<text x="630" y="225" font-size="15" font-family="PingFang SC, Arial" fill="#6d28d9">前高压力线</text>
<rect x="292" y="309" width="270" height="175" fill="none" stroke="#2563eb" stroke-width="3"/>
<text x="292" y="297" font-size="15" font-family="PingFang SC, Arial" fill="#1d4ed8">高位窄箱体</text>
<line x1="115" y1="498" x2="115" y2="518" stroke="#2f9e67" stroke-width="3"/>
<rect x="104" y="500" width="22" height="16" fill="#2f9e67"/>
<line x1="163" y1="482" x2="163" y2="502" stroke="#2f9e67" stroke-width="3"/>
<rect x="152" y="485" width="22" height="16" fill="#2f9e67"/>
<line x1="211" y1="479" x2="211" y2="495" stroke="#d74b42" stroke-width="3"/>
<rect x="200" y="481" width="22" height="11" fill="#d74b42"/>
<line x1="259" y1="467" x2="259" y2="494" stroke="#2f9e67" stroke-width="3"/>
<rect x="248" y="470" width="22" height="22" fill="#2f9e67"/>
<line x1="307" y1="439" x2="307" y2="474" stroke="#2f9e67" stroke-width="3"/>
<rect x="296" y="443" width="22" height="28" fill="#2f9e67"/>
<line x1="355" y1="405" x2="355" y2="447" stroke="#2f9e67" stroke-width="3"/>
<rect x="344" y="410" width="22" height="34" fill="#2f9e67"/>
<line x1="403" y1="402" x2="403" y2="427" stroke="#d74b42" stroke-width="3"/>
<rect x="392" y="405" width="22" height="17" fill="#d74b42"/>
<line x1="451" y1="377" x2="451" y2="427" stroke="#2f9e67" stroke-width="3"/>
<rect x="440" y="383" width="22" height="40" fill="#2f9e67"/>
<line x1="499" y1="329" x2="499" y2="388" stroke="#2f9e67" stroke-width="3"/>
<rect x="488" y="336" width="22" height="48" fill="#2f9e67"/>
<line x1="547" y1="326" x2="547" y2="361" stroke="#d74b42" stroke-width="3"/>
<rect x="536" y="330" width="22" height="24" fill="#d74b42"/>
<line x1="595" y1="293" x2="595" y2="360" stroke="#2f9e67" stroke-width="3"/>
<rect x="584" y="301" width="22" height="54" fill="#2f9e67"/>
<line x1="643" y1="231" x2="643" y2="308" stroke="#2f9e67" stroke-width="3"/>
<rect x="632" y="240" width="22" height="63" fill="#2f9e67"/>
<line x1="691" y1="222" x2="691" y2="277" stroke="#d74b42" stroke-width="3"/>
<rect x="680" y="231" width="22" height="31" fill="#d74b42"/>
<line x1="739" y1="198" x2="739" y2="269" stroke="#2f9e67" stroke-width="3"/>
<rect x="728" y="207" width="22" height="57" fill="#2f9e67"/>
<rect x="103" y="545" width="24" height="15" fill="#6abf88"/>
<rect x="151" y="545" width="24" height="15" fill="#6abf88"/>
<rect x="199" y="550" width="24" height="10" fill="#d74b42"/>
<rect x="247" y="540" width="24" height="20" fill="#6abf88"/>
<rect x="295" y="535" width="24" height="25" fill="#6abf88"/>
<rect x="343" y="530" width="24" height="30" fill="#6abf88"/>
<rect x="391" y="545" width="24" height="15" fill="#d74b42"/>
<rect x="439" y="525" width="24" height="35" fill="#6abf88"/>
<rect x="487" y="520" width="24" height="40" fill="#6abf88"/>
<rect x="535" y="540" width="24" height="20" fill="#d74b42"/>
<rect x="583" y="515" width="24" height="45" fill="#6abf88"/>
<rect x="631" y="510" width="24" height="50" fill="#6abf88"/>
<rect x="679" y="535" width="24" height="25" fill="#d74b42"/>
<rect x="727" y="515" width="24" height="45" fill="#6abf88"/>
<text x="90" y="578" font-size="15" font-family="PingFang SC, Arial" fill="#6b7280">量能区</text>
<rect x="850" y="135" width="280" height="450" rx="16" fill="#ffffff" stroke="#d0c7bc"/>
<text x="875" y="178" font-size="24" font-family="PingFang SC, Arial" fill="#111827">点评</text>
<text x="875" y="220" font-size="18" font-family="PingFang SC, Arial" fill="#374151">强趋势尾段加速，非健康启动点</text>
<text x="875" y="262" font-size="18" font-family="PingFang SC, Arial" fill="#4b5563">• 均线多头</text>
<text x="875" y="296" font-size="18" font-family="PingFang SC, Arial" fill="#4b5563">• 量价强</text>
<text x="875" y="330" font-size="18" font-family="PingFang SC, Arial" fill="#4b5563">• 风险：缺蓄势平台</text>
<text x="875" y="655" font-size="18" font-family="PingFang SC, Arial" fill="#7c746b">教学示意图：重绘，不复刻原截图</text>
</svg>
