<svg xmlns="http://www.w3.org/2000/svg" width="1200" height="720" viewBox="0 0 1200 720">
<rect width="1200" height="720" fill="#fbfaf7"/>
<rect x="70" y="135" width="750" height="450" rx="18" fill="#fffefb" stroke="#c9c2b8" stroke-width="2"/>
<text x="70" y="70" font-size="34" font-family="PingFang SC, Arial" fill="#1f2933">案例15｜兖矿能源 600188</text>
<text x="850" y="70" font-size="34" font-family="PingFang SC, Arial" fill="#b7791f">68/100  勉强</text>
<text x="90" y="162" font-size="13" font-family="PingFang SC, Arial" fill="#4b5563" font-weight="bold">均线</text>
<line x1="125" y1="159" x2="145" y2="159" stroke="#f59e0b" stroke-width="3"/>
<text x="149" y="162" font-size="12" font-family="PingFang SC, Arial" fill="#f59e0b">MA5</text>
<line x1="183" y1="159" x2="203" y2="159" stroke="#8b5cf6" stroke-width="3" stroke-dasharray="6,4"/>
<text x="207" y="162" font-size="12" font-family="PingFang SC, Arial" fill="#8b5cf6">MA10</text>
<line x1="241" y1="159" x2="261" y2="159" stroke="#10b981" stroke-width="3"/>
<text x="265" y="162" font-size="12" font-family="PingFang SC, Arial" fill="#10b981">MA20</text>
<line x1="299" y1="159" x2="319" y2="159" stroke="#f97316" stroke-width="3"/>
<text x="323" y="162" font-size="12" font-family="PingFang SC, Arial" fill="#f97316">MA30</text>
<line x1="357" y1="159" x2="377" y2="159" stroke="#ef4444" stroke-width="3"/>
<text x="381" y="162" font-size="12" font-family="PingFang SC, Arial" fill="#ef4444">MA60</text>
<line x1="415" y1="159" x2="435" y2="159" stroke="#6b7280" stroke-width="3"/>
<text x="439" y="162" font-size="12" font-family="PingFang SC, Arial" fill="#6b7280">MA120</text>
<line x1="110" y1="272" x2="780" y2="272" stroke="#7c3aed" stroke-width="2" stroke-dasharray="8,4"/>
<text x="630" y="262" font-size="15" font-family="PingFang SC, Arial" fill="#6d28d9">前高压力线</text>
<rect x="292" y="316" width="270" height="167" fill="none" stroke="#2563eb" stroke-width="3"/>
<text x="292" y="306" font-size="15" font-family="PingFang SC, Arial" fill="#1d4ed8">高位窄箱体</text>
<polyline points="115,474 163,482 211,479 259,444 307,438 355,433 403,431 451,407 499,424 547,422 595,412 643,393 691,372 739,334" fill="none" stroke="#f59e0b" stroke-width="2.5"/>
<polyline points="115,469 163,473 211,473 259,456 307,453 355,454 403,457 451,442 499,434 547,430 595,423 643,412 691,389 739,379" fill="none" stroke="#8b5cf6" stroke-width="2.5" stroke-dasharray="8,4"/>
<polyline points="115,449 163,452 211,457 259,452 307,454 355,454 403,455 451,451 499,449 547,449 595,446 643,442 691,431 739,417" fill="none" stroke="#10b981" stroke-width="2.5"/>
<polyline points="115,445 163,447 211,449 259,446 307,446 355,445 403,445 451,442 499,441 547,441 595,441 643,439 691,434 739,428" fill="none" stroke="#f97316" stroke-width="2.5"/>
<polyline points="115,402 163,406 211,409 259,411 307,414 355,416 403,419 451,420 499,423 547,425 595,428 643,429 691,429 739,427" fill="none" stroke="#ef4444" stroke-width="2.5"/>
<polyline points="115,365 163,365 211,364 259,362 307,361 355,361 403,360 451,359 499,359 547,358 595,358 643,357 691,355 739,353" fill="none" stroke="#6b7280" stroke-width="2.5"/>
<line x1="115" y1="441" x2="115" y2="486" stroke="#d74b42" stroke-width="3"/>
<rect x="104" y="458" width="22" height="10" fill="#d74b42"/>
<line x1="163" y1="437" x2="163" y2="486" stroke="#d74b42" stroke-width="3"/>
<rect x="152" y="455" width="22" height="13" fill="#d74b42"/>
<line x1="211" y1="456" x2="211" y2="504" stroke="#2f9e67" stroke-width="3"/>
<rect x="200" y="474" width="22" height="12" fill="#2f9e67"/>
<line x1="259" y1="297" x2="259" y2="428" stroke="#2f9e67" stroke-width="3"/>
<rect x="248" y="334" width="22" height="66" fill="#2f9e67"/>
<line x1="307" y1="435" x2="307" y2="466" stroke="#2f9e67" stroke-width="3"/>
<rect x="296" y="446" width="22" height="9" fill="#2f9e67"/>
<line x1="355" y1="415" x2="355" y2="455" stroke="#d74b42" stroke-width="3"/>
<rect x="344" y="424" width="22" height="20" fill="#d74b42"/>
<line x1="403" y1="443" x2="403" y2="478" stroke="#2f9e67" stroke-width="3"/>
<rect x="392" y="454" width="22" height="13" fill="#2f9e67"/>
<line x1="451" y1="321" x2="451" y2="366" stroke="#d74b42" stroke-width="3"/>
<rect x="440" y="333" width="22" height="21" fill="#d74b42"/>
<line x1="499" y1="412" x2="499" y2="450" stroke="#2f9e67" stroke-width="3"/>
<rect x="488" y="423" width="22" height="17" fill="#2f9e67"/>
<line x1="547" y1="422" x2="547" y2="459" stroke="#2f9e67" stroke-width="3"/>
<rect x="536" y="433" width="22" height="16" fill="#2f9e67"/>
<line x1="595" y1="375" x2="595" y2="433" stroke="#2f9e67" stroke-width="3"/>
<rect x="584" y="396" width="22" height="24" fill="#2f9e67"/>
<line x1="643" y1="338" x2="643" y2="400" stroke="#2f9e67" stroke-width="3"/>
<rect x="632" y="360" width="22" height="26" fill="#2f9e67"/>
<line x1="691" y1="221" x2="691" y2="327" stroke="#2f9e67" stroke-width="3"/>
<rect x="680" y="249" width="22" height="59" fill="#2f9e67"/>
<line x1="739" y1="210" x2="739" y2="285" stroke="#2f9e67" stroke-width="3"/>
<rect x="728" y="229" width="22" height="47" fill="#2f9e67"/>
<rect x="103" y="548" width="24" height="12" fill="#d74b42"/>
<rect x="151" y="546" width="24" height="14" fill="#d74b42"/>
<rect x="199" y="544" width="24" height="16" fill="#6abf88"/>
<rect x="247" y="502" width="24" height="58" fill="#6abf88"/>
<rect x="295" y="542" width="24" height="18" fill="#6abf88"/>
<rect x="343" y="544" width="24" height="16" fill="#d74b42"/>
<rect x="391" y="542" width="24" height="18" fill="#6abf88"/>
<rect x="439" y="546" width="24" height="14" fill="#d74b42"/>
<rect x="487" y="546" width="24" height="14" fill="#6abf88"/>
<rect x="535" y="544" width="24" height="16" fill="#6abf88"/>
<rect x="583" y="530" width="24" height="30" fill="#6abf88"/>
<rect x="631" y="542" width="24" height="18" fill="#6abf88"/>
<rect x="679" y="505" width="24" height="55" fill="#6abf88"/>
<rect x="727" y="525" width="24" height="35" fill="#6abf88"/>
<text x="90" y="578" font-size="15" font-family="PingFang SC, Arial" fill="#6b7280">量能区</text>
<circle cx="451" cy="366" r="6" fill="none" stroke="#ef4444" stroke-width="2"/>
<text x="461" y="381" font-size="13" font-family="PingFang SC, Arial" fill="#dc2626">低吸试错点</text>
<circle cx="691" cy="221" r="6" fill="#ef4444" stroke="none"/>
<text x="651" y="206" font-size="13" font-family="PingFang SC, Arial" fill="#dc2626">突破确认点</text>
<rect x="850" y="135" width="280" height="450" rx="16" fill="#ffffff" stroke="#d0c7bc"/>
<text x="875" y="178" font-size="24" font-family="PingFang SC, Arial" fill="#111827">点评</text>
<text x="875" y="220" font-size="18" font-family="PingFang SC, Arial" fill="#374151">放量涨停，缺小箱蓄势</text>
<text x="875" y="262" font-size="18" font-family="PingFang SC, Arial" fill="#4b5563">• 板块走强</text>
<text x="875" y="296" font-size="18" font-family="PingFang SC, Arial" fill="#4b5563">• 站上均线</text>
<text x="875" y="330" font-size="18" font-family="PingFang SC, Arial" fill="#4b5563">• 风险：跳跃拉升</text>
<text x="875" y="655" font-size="18" font-family="PingFang SC, Arial" fill="#7c746b">教学示意图：重绘，不复刻原截图</text>
</svg>
