<svg xmlns="http://www.w3.org/2000/svg" width="1200" height="720" viewBox="0 0 1200 720">
<rect width="1200" height="720" fill="#fbfaf7"/>
<rect x="70" y="135" width="750" height="450" rx="18" fill="#fffefb" stroke="#c9c2b8" stroke-width="2"/>
<text x="70" y="70" font-size="34" font-family="PingFang SC, Arial" fill="#1f2933">案例12｜建投能源 000600</text>
<text x="850" y="70" font-size="34" font-family="PingFang SC, Arial" fill="#b7791f">55/100  勉强</text>
<rect x="282" y="290" width="338" height="105" fill="none" stroke="#2563eb" stroke-width="3"/>
<text x="90" y="162" font-size="13" font-family="PingFang SC, Arial" fill="#4b5563" font-weight="bold">均线</text>
<line x1="125" y1="159" x2="145" y2="159" stroke="#f59e0b" stroke-width="3"/>
<text x="149" y="162" font-size="12" font-family="PingFang SC, Arial" fill="#f59e0b">MA5</text>
<line x1="183" y1="159" x2="203" y2="159" stroke="#8b5cf6" stroke-width="3" stroke-dasharray="6,4"/>
<text x="207" y="162" font-size="12" font-family="PingFang SC, Arial" fill="#8b5cf6">MA10</text>
<line x1="241" y1="159" x2="261" y2="159" stroke="#10b981" stroke-width="3"/>
<text x="265" y="162" font-size="12" font-family="PingFang SC, Arial" fill="#10b981">MA20</text>
<line x1="299" y1="159" x2="319" y2="159" stroke="#f97316" stroke-width="3"/>
<text x="323" y="162" font-size="12" font-family="PingFang SC, Arial" fill="#f97316">MA30</text>
<line x1="357" y1="159" x2="377" y2="159" stroke="#ef4444" stroke-width="3"/>
<text x="381" y="162" font-size="12" font-family="PingFang SC, Arial" fill="#ef4444">MA60</text>
<line x1="415" y1="159" x2="435" y2="159" stroke="#6b7280" stroke-width="3"/>
<text x="439" y="162" font-size="12" font-family="PingFang SC, Arial" fill="#6b7280">MA120</text>
<line x1="110" y1="269" x2="780" y2="269" stroke="#7c3aed" stroke-width="2" stroke-dasharray="8,4"/>
<text x="630" y="259" font-size="15" font-family="PingFang SC, Arial" fill="#6d28d9">前高压力线</text>
<rect x="292" y="323" width="270" height="142" fill="none" stroke="#2563eb" stroke-width="3"/>
<text x="292" y="313" font-size="15" font-family="PingFang SC, Arial" fill="#1d4ed8">高位窄箱体</text>
<polyline points="115,456 163,460 211,467 259,441 307,437 355,433 403,429 451,406 499,423 547,421 595,409 643,391 691,371 739,331" fill="none" stroke="#f59e0b" stroke-width="2.5"/>
<polyline points="115,430 163,440 211,450 259,443 307,444 355,445 403,445 451,436 499,432 547,429 595,422 643,410 691,388 739,378" fill="none" stroke="#8b5cf6" stroke-width="2.5" stroke-dasharray="8,4"/>
<polyline points="115,396 163,402 211,409 259,407 307,413 355,418 403,421 451,420 499,421 547,423 595,425 643,425 691,419 739,410" fill="none" stroke="#10b981" stroke-width="2.5"/>
<polyline points="115,409 163,409 211,409 259,404 307,403 355,401 403,402 451,399 499,400 547,403 595,405 643,405 691,402 739,397" fill="none" stroke="#f97316" stroke-width="2.5"/>
<polyline points="115,389 163,392 211,395 259,395 307,397 355,399 403,401 451,402 499,404 547,406 595,406 643,406 691,405 739,402" fill="none" stroke="#ef4444" stroke-width="2.5"/>
<polyline points="115,363 163,363 211,364 259,364 307,365 355,365 403,366 451,365 499,366 547,366 595,366 643,366 691,365 739,364" fill="none" stroke="#6b7280" stroke-width="2.5"/>
<line x1="115" y1="437" x2="115" y2="484" stroke="#d74b42" stroke-width="3"/>
<rect x="104" y="454" width="22" height="12" fill="#d74b42"/>
<line x1="163" y1="445" x2="163" y2="489" stroke="#d74b42" stroke-width="3"/>
<rect x="152" y="463" width="22" height="9" fill="#d74b42"/>
<line x1="211" y1="453" x2="211" y2="504" stroke="#2f9e67" stroke-width="3"/>
<rect x="200" y="470" width="22" height="17" fill="#2f9e67"/>
<line x1="259" y1="294" x2="259" y2="425" stroke="#2f9e67" stroke-width="3"/>
<rect x="248" y="332" width="22" height="65" fill="#2f9e67"/>
<line x1="307" y1="416" x2="307" y2="455" stroke="#d74b42" stroke-width="3"/>
<rect x="296" y="427" width="22" height="17" fill="#d74b42"/>
<line x1="355" y1="429" x2="355" y2="460" stroke="#d74b42" stroke-width="3"/>
<rect x="344" y="440" width="22" height="9" fill="#d74b42"/>
<line x1="403" y1="419" x2="403" y2="459" stroke="#d74b42" stroke-width="3"/>
<rect x="392" y="430" width="22" height="19" fill="#d74b42"/>
<line x1="451" y1="328" x2="451" y2="364" stroke="#d74b42" stroke-width="3"/>
<rect x="440" y="338" width="22" height="16" fill="#d74b42"/>
<line x1="499" y1="393" x2="499" y2="433" stroke="#d74b42" stroke-width="3"/>
<rect x="488" y="404" width="22" height="19" fill="#d74b42"/>
<line x1="547" y1="418" x2="547" y2="449" stroke="#2f9e67" stroke-width="3"/>
<rect x="536" y="429" width="22" height="9" fill="#2f9e67"/>
<line x1="595" y1="372" x2="595" y2="437" stroke="#2f9e67" stroke-width="3"/>
<rect x="584" y="394" width="22" height="30" fill="#2f9e67"/>
<line x1="643" y1="336" x2="643" y2="398" stroke="#2f9e67" stroke-width="3"/>
<rect x="632" y="358" width="22" height="27" fill="#2f9e67"/>
<line x1="691" y1="221" x2="691" y2="326" stroke="#2f9e67" stroke-width="3"/>
<rect x="680" y="248" width="22" height="58" fill="#2f9e67"/>
<line x1="739" y1="209" x2="739" y2="271" stroke="#2f9e67" stroke-width="3"/>
<rect x="728" y="229" width="22" height="32" fill="#2f9e67"/>
<rect x="103" y="548" width="24" height="12" fill="#d74b42"/>
<rect x="151" y="546" width="24" height="14" fill="#d74b42"/>
<rect x="199" y="544" width="24" height="16" fill="#6abf88"/>
<rect x="247" y="502" width="24" height="58" fill="#6abf88"/>
<rect x="295" y="542" width="24" height="18" fill="#d74b42"/>
<rect x="343" y="544" width="24" height="16" fill="#d74b42"/>
<rect x="391" y="542" width="24" height="18" fill="#d74b42"/>
<rect x="439" y="546" width="24" height="14" fill="#d74b42"/>
<rect x="487" y="546" width="24" height="14" fill="#d74b42"/>
<rect x="535" y="544" width="24" height="16" fill="#6abf88"/>
<rect x="583" y="530" width="24" height="30" fill="#6abf88"/>
<rect x="631" y="542" width="24" height="18" fill="#6abf88"/>
<rect x="679" y="505" width="24" height="55" fill="#6abf88"/>
<rect x="727" y="525" width="24" height="35" fill="#6abf88"/>
<text x="90" y="578" font-size="15" font-family="PingFang SC, Arial" fill="#6b7280">量能区</text>
<circle cx="451" cy="364" r="6" fill="none" stroke="#ef4444" stroke-width="2"/>
<text x="461" y="379" font-size="13" font-family="PingFang SC, Arial" fill="#dc2626">低吸试错点</text>
<circle cx="691" cy="221" r="6" fill="#ef4444" stroke="none"/>
<text x="651" y="206" font-size="13" font-family="PingFang SC, Arial" fill="#dc2626">突破确认点</text>
<rect x="850" y="135" width="280" height="450" rx="16" fill="#ffffff" stroke="#d0c7bc"/>
<text x="875" y="178" font-size="24" font-family="PingFang SC, Arial" fill="#111827">点评</text>
<text x="875" y="220" font-size="18" font-family="PingFang SC, Arial" fill="#374151">趋势漂亮但更像加速段</text>
<text x="875" y="262" font-size="18" font-family="PingFang SC, Arial" fill="#4b5563">• 均线多头</text>
<text x="875" y="296" font-size="18" font-family="PingFang SC, Arial" fill="#4b5563">• 连续放量阳线</text>
<text x="875" y="330" font-size="18" font-family="PingFang SC, Arial" fill="#4b5563">• 风险：缺4日窄箱</text>
<text x="875" y="655" font-size="18" font-family="PingFang SC, Arial" fill="#7c746b">教学示意图：重绘，不复刻原截图</text>
</svg>
