<svg xmlns="http://www.w3.org/2000/svg" width="1200" height="720" viewBox="0 0 1200 720">
<rect width="1200" height="720" fill="#fbfaf7"/>
<rect x="70" y="135" width="750" height="450" rx="18" fill="#fffefb" stroke="#c9c2b8" stroke-width="2"/>
<text x="70" y="70" font-size="34" font-family="PingFang SC, Arial" fill="#1f2933">案例16｜赣能股份 000899</text>
<text x="850" y="70" font-size="34" font-family="PingFang SC, Arial" fill="#b7791f">60/100  勉强</text>
<text x="90" y="162" font-size="13" font-family="PingFang SC, Arial" fill="#4b5563" font-weight="bold">均线</text>
<line x1="125" y1="159" x2="145" y2="159" stroke="#f59e0b" stroke-width="3"/>
<text x="149" y="162" font-size="12" font-family="PingFang SC, Arial" fill="#f59e0b">MA5</text>
<line x1="183" y1="159" x2="203" y2="159" stroke="#8b5cf6" stroke-width="3" stroke-dasharray="6,4"/>
<text x="207" y="162" font-size="12" font-family="PingFang SC, Arial" fill="#8b5cf6">MA10</text>
<line x1="241" y1="159" x2="261" y2="159" stroke="#10b981" stroke-width="3"/>
<text x="265" y="162" font-size="12" font-family="PingFang SC, Arial" fill="#10b981">MA20</text>
<line x1="299" y1="159" x2="319" y2="159" stroke="#f97316" stroke-width="3"/>
<text x="323" y="162" font-size="12" font-family="PingFang SC, Arial" fill="#f97316">MA30</text>
<line x1="357" y1="159" x2="377" y2="159" stroke="#ef4444" stroke-width="3"/>
<text x="381" y="162" font-size="12" font-family="PingFang SC, Arial" fill="#ef4444">MA60</text>
<line x1="415" y1="159" x2="435" y2="159" stroke="#6b7280" stroke-width="3"/>
<text x="439" y="162" font-size="12" font-family="PingFang SC, Arial" fill="#6b7280">MA120</text>
<polyline points="115,464 163,465 211,457 259,436 307,421 355,404 403,380 451,366 499,357 547,341 595,338 643,327 691,298 739,283" fill="none" stroke="#f59e0b" stroke-width="2.5"/>
<polyline points="115,447 163,449 211,447 259,443 307,441 355,434 403,422 451,411 499,396 547,382 595,371 643,354 691,331 739,320" fill="none" stroke="#8b5cf6" stroke-width="2.5" stroke-dasharray="8,4"/>
<polyline points="115,484 163,481 211,475 259,465 307,458 355,450 403,440 451,432 499,422 547,414 595,408 643,401 691,389 739,382" fill="none" stroke="#10b981" stroke-width="2.5"/>
<polyline points="115,495 163,494 211,492 259,488 307,484 355,479 403,473 451,467 499,460 547,453 595,447 643,439 691,427 739,416" fill="none" stroke="#f97316" stroke-width="2.5"/>
<polyline points="115,489 163,490 211,491 259,490 307,489 355,487 403,486 451,484 499,483 547,480 595,478 643,476 691,472 739,468" fill="none" stroke="#ef4444" stroke-width="2.5"/>
<polyline points="115,498 163,497 211,496 259,495 307,494 355,493 403,491 451,490 499,488 547,486 595,485 643,483 691,480 739,478" fill="none" stroke="#6b7280" stroke-width="2.5"/>
<line x1="110" y1="251" x2="780" y2="251" stroke="#7c3aed" stroke-width="2" stroke-dasharray="8,4"/>
<text x="630" y="241" font-size="15" font-family="PingFang SC, Arial" fill="#6d28d9">前高压力线</text>
<rect x="292" y="347" width="270" height="121" fill="none" stroke="#2563eb" stroke-width="3"/>
<text x="292" y="335" font-size="15" font-family="PingFang SC, Arial" fill="#1d4ed8">高位窄箱体</text>
<line x1="115" y1="445" x2="115" y2="464" stroke="#2f9e67" stroke-width="3"/>
<rect x="104" y="448" width="22" height="15" fill="#2f9e67"/>
<line x1="163" y1="439" x2="163" y2="466" stroke="#d74b42" stroke-width="3"/>
<rect x="152" y="441" width="22" height="22" fill="#d74b42"/>
<line x1="211" y1="425" x2="211" y2="469" stroke="#2f9e67" stroke-width="3"/>
<rect x="200" y="434" width="22" height="30" fill="#2f9e67"/>
<line x1="259" y1="365" x2="259" y2="441" stroke="#2f9e67" stroke-width="3"/>
<rect x="248" y="374" width="22" height="62" fill="#2f9e67"/>
<line x1="307" y1="363" x2="307" y2="397" stroke="#d74b42" stroke-width="3"/>
<rect x="296" y="367" width="22" height="23" fill="#d74b42"/>
<line x1="355" y1="355" x2="355" y2="393" stroke="#2f9e67" stroke-width="3"/>
<rect x="344" y="360" width="22" height="31" fill="#2f9e67"/>
<line x1="403" y1="341" x2="403" y2="361" stroke="#2f9e67" stroke-width="3"/>
<rect x="392" y="343" width="22" height="16" fill="#2f9e67"/>
<line x1="451" y1="333" x2="451" y2="368" stroke="#d74b42" stroke-width="3"/>
<rect x="440" y="337" width="22" height="24" fill="#d74b42"/>
<line x1="499" y1="325" x2="499" y2="364" stroke="#2f9e67" stroke-width="3"/>
<rect x="488" y="329" width="22" height="32" fill="#2f9e67"/>
<line x1="547" y1="312" x2="547" y2="331" stroke="#2f9e67" stroke-width="3"/>
<rect x="536" y="314" width="22" height="16" fill="#2f9e67"/>
<line x1="595" y1="296" x2="595" y2="354" stroke="#d74b42" stroke-width="3"/>
<rect x="584" y="303" width="22" height="39" fill="#d74b42"/>
<line x1="643" y1="279" x2="643" y2="349" stroke="#2f9e67" stroke-width="3"/>
<rect x="632" y="288" width="22" height="56" fill="#2f9e67"/>
<line x1="691" y1="204" x2="691" y2="296" stroke="#2f9e67" stroke-width="3"/>
<rect x="680" y="215" width="22" height="74" fill="#2f9e67"/>
<line x1="739" y1="194" x2="739" y2="265" stroke="#d74b42" stroke-width="3"/>
<rect x="728" y="200" width="22" height="56" fill="#d74b42"/>
<rect x="103" y="550" width="24" height="10" fill="#6abf88"/>
<rect x="151" y="545" width="24" height="15" fill="#d74b42"/>
<rect x="199" y="540" width="24" height="20" fill="#6abf88"/>
<rect x="247" y="520" width="24" height="40" fill="#6abf88"/>
<rect x="295" y="545" width="24" height="15" fill="#d74b42"/>
<rect x="343" y="540" width="24" height="20" fill="#6abf88"/>
<rect x="391" y="550" width="24" height="10" fill="#6abf88"/>
<rect x="439" y="545" width="24" height="15" fill="#d74b42"/>
<rect x="487" y="540" width="24" height="20" fill="#6abf88"/>
<rect x="535" y="550" width="24" height="10" fill="#6abf88"/>
<rect x="583" y="535" width="24" height="25" fill="#d74b42"/>
<rect x="631" y="525" width="24" height="35" fill="#6abf88"/>
<rect x="679" y="515" width="24" height="45" fill="#6abf88"/>
<rect x="727" y="525" width="24" height="35" fill="#d74b42"/>
<text x="90" y="578" font-size="15" font-family="PingFang SC, Arial" fill="#6b7280">量能区</text>
<rect x="850" y="135" width="280" height="450" rx="16" fill="#ffffff" stroke="#d0c7bc"/>
<text x="875" y="178" font-size="24" font-family="PingFang SC, Arial" fill="#111827">点评</text>
<text x="875" y="220" font-size="18" font-family="PingFang SC, Arial" fill="#374151">突破大阳，但像反弹冲高</text>
<text x="875" y="262" font-size="18" font-family="PingFang SC, Arial" fill="#4b5563">• 放量突破</text>
<text x="875" y="296" font-size="18" font-family="PingFang SC, Arial" fill="#4b5563">• 回踩后启动</text>
<text x="875" y="330" font-size="18" font-family="PingFang SC, Arial" fill="#4b5563">• 风险：双头压力</text>
<text x="875" y="655" font-size="18" font-family="PingFang SC, Arial" fill="#7c746b">教学示意图：重绘，不复刻原截图</text>
</svg>
