<svg xmlns="http://www.w3.org/2000/svg" width="1200" height="720" viewBox="0 0 1200 720">
<rect width="1200" height="720" fill="#fbfaf7"/>
<rect x="70" y="135" width="750" height="450" rx="18" fill="#fffefb" stroke="#c9c2b8" stroke-width="2"/>
<text x="70" y="70" font-size="34" font-family="PingFang SC, Arial" fill="#1f2933">案例21｜教学示意图</text>
<text x="850" y="70" font-size="34" font-family="PingFang SC, Arial" fill="#0f8a4b">88/100  标准</text>
<rect x="234" y="385" width="338" height="118" fill="none" stroke="#2563eb" stroke-width="3"/>
<text x="90" y="162" font-size="13" font-family="PingFang SC, Arial" fill="#4b5563" font-weight="bold">均线</text>
<line x1="125" y1="159" x2="145" y2="159" stroke="#f59e0b" stroke-width="3"/>
<text x="149" y="162" font-size="12" font-family="PingFang SC, Arial" fill="#f59e0b">MA5</text>
<line x1="183" y1="159" x2="203" y2="159" stroke="#8b5cf6" stroke-width="3" stroke-dasharray="6,4"/>
<text x="207" y="162" font-size="12" font-family="PingFang SC, Arial" fill="#8b5cf6">MA10</text>
<line x1="241" y1="159" x2="261" y2="159" stroke="#10b981" stroke-width="3"/>
<text x="265" y="162" font-size="12" font-family="PingFang SC, Arial" fill="#10b981">MA20</text>
<line x1="299" y1="159" x2="319" y2="159" stroke="#f97316" stroke-width="3"/>
<text x="323" y="162" font-size="12" font-family="PingFang SC, Arial" fill="#f97316">MA30</text>
<line x1="357" y1="159" x2="377" y2="159" stroke="#ef4444" stroke-width="3"/>
<text x="381" y="162" font-size="12" font-family="PingFang SC, Arial" fill="#ef4444">MA60</text>
<line x1="415" y1="159" x2="435" y2="159" stroke="#6b7280" stroke-width="3"/>
<text x="439" y="162" font-size="12" font-family="PingFang SC, Arial" fill="#6b7280">MA120</text>
<line x1="110" y1="233" x2="780" y2="233" stroke="#7c3aed" stroke-width="2" stroke-dasharray="8,4"/>
<text x="630" y="223" font-size="15" font-family="PingFang SC, Arial" fill="#6d28d9">前高压力线</text>
<rect x="292" y="287" width="270" height="95" fill="none" stroke="#2563eb" stroke-width="3"/>
<text x="292" y="277" font-size="15" font-family="PingFang SC, Arial" fill="#1d4ed8">高位窄箱体</text>
<polyline points="115,366 163,375 211,379 259,361 307,359 355,356 403,353 451,336 499,349 547,347 595,339 643,327 691,312 739,285" fill="none" stroke="#f59e0b" stroke-width="2.5"/>
<polyline points="115,374 163,370 211,368 259,359 307,359 355,361 403,364 451,358 499,355 547,353 595,348 643,340 691,324 739,317" fill="none" stroke="#8b5cf6" stroke-width="2.5" stroke-dasharray="8,4"/>
<polyline points="115,391 163,391 211,389 259,382 307,380 355,377 403,376 451,372 499,369 547,366 595,361 643,355 691,346 739,338" fill="none" stroke="#10b981" stroke-width="2.5"/>
<polyline points="115,394 163,393 211,392 259,389 307,387 355,386 403,386 451,382 499,380 547,379 595,376 643,373 691,368 739,360" fill="none" stroke="#f97316" stroke-width="2.5"/>
<polyline points="115,418 163,417 211,415 259,412 307,410 355,408 403,408 451,405 499,404 547,403 595,400 643,398 691,393 739,389" fill="none" stroke="#ef4444" stroke-width="2.5"/>
<polyline points="115,514 163,510 211,507 259,504 307,501 355,497 403,494 451,491 499,488 547,484 595,482 643,478 691,474 739,470" fill="none" stroke="#6b7280" stroke-width="2.5"/>
<line x1="115" y1="368" x2="115" y2="404" stroke="#2f9e67" stroke-width="3"/>
<rect x="104" y="380" width="22" height="12" fill="#2f9e67"/>
<line x1="163" y1="359" x2="163" y2="396" stroke="#d74b42" stroke-width="3"/>
<rect x="152" y="371" width="22" height="12" fill="#d74b42"/>
<line x1="211" y1="368" x2="211" y2="399" stroke="#2f9e67" stroke-width="3"/>
<rect x="200" y="380" width="22" height="7" fill="#2f9e67"/>
<line x1="259" y1="258" x2="259" y2="349" stroke="#2f9e67" stroke-width="3"/>
<rect x="248" y="284" width="22" height="45" fill="#2f9e67"/>
<line x1="307" y1="356" x2="307" y2="377" stroke="#2f9e67" stroke-width="3"/>
<rect x="296" y="364" width="22" height="6" fill="#2f9e67"/>
<line x1="355" y1="348" x2="355" y2="374" stroke="#d74b42" stroke-width="3"/>
<rect x="344" y="356" width="22" height="11" fill="#d74b42"/>
<line x1="403" y1="347" x2="403" y2="375" stroke="#d74b42" stroke-width="3"/>
<rect x="392" y="355" width="22" height="13" fill="#d74b42"/>
<line x1="451" y1="292" x2="451" y2="320" stroke="#2f9e67" stroke-width="3"/>
<rect x="440" y="299" width="22" height="13" fill="#2f9e67"/>
<line x1="499" y1="330" x2="499" y2="356" stroke="#d74b42" stroke-width="3"/>
<rect x="488" y="337" width="22" height="12" fill="#d74b42"/>
<line x1="547" y1="333" x2="547" y2="361" stroke="#d74b42" stroke-width="3"/>
<rect x="536" y="340" width="22" height="13" fill="#d74b42"/>
<line x1="595" y1="314" x2="595" y2="361" stroke="#2f9e67" stroke-width="3"/>
<rect x="584" y="329" width="22" height="23" fill="#2f9e67"/>
<line x1="643" y1="288" x2="643" y2="329" stroke="#2f9e67" stroke-width="3"/>
<rect x="632" y="304" width="22" height="16" fill="#2f9e67"/>
<line x1="691" y1="208" x2="691" y2="281" stroke="#2f9e67" stroke-width="3"/>
<rect x="680" y="227" width="22" height="41" fill="#2f9e67"/>
<line x1="739" y1="200" x2="739" y2="245" stroke="#2f9e67" stroke-width="3"/>
<rect x="728" y="214" width="22" height="24" fill="#2f9e67"/>
<rect x="103" y="548" width="24" height="12" fill="#6abf88"/>
<rect x="151" y="546" width="24" height="14" fill="#d74b42"/>
<rect x="199" y="544" width="24" height="16" fill="#6abf88"/>
<rect x="247" y="502" width="24" height="58" fill="#6abf88"/>
<rect x="295" y="542" width="24" height="18" fill="#6abf88"/>
<rect x="343" y="544" width="24" height="16" fill="#d74b42"/>
<rect x="391" y="542" width="24" height="18" fill="#d74b42"/>
<rect x="439" y="546" width="24" height="14" fill="#6abf88"/>
<rect x="487" y="546" width="24" height="14" fill="#d74b42"/>
<rect x="535" y="544" width="24" height="16" fill="#d74b42"/>
<rect x="583" y="530" width="24" height="30" fill="#6abf88"/>
<rect x="631" y="542" width="24" height="18" fill="#6abf88"/>
<rect x="679" y="505" width="24" height="55" fill="#6abf88"/>
<rect x="727" y="525" width="24" height="35" fill="#6abf88"/>
<text x="90" y="578" font-size="15" font-family="PingFang SC, Arial" fill="#6b7280">量能区</text>
<circle cx="451" cy="320" r="6" fill="none" stroke="#ef4444" stroke-width="2"/>
<text x="461" y="335" font-size="13" font-family="PingFang SC, Arial" fill="#dc2626">低吸试错点</text>
<circle cx="691" cy="208" r="6" fill="#ef4444" stroke="none"/>
<text x="651" y="193" font-size="13" font-family="PingFang SC, Arial" fill="#dc2626">突破确认点</text>
<rect x="850" y="135" width="280" height="450" rx="16" fill="#ffffff" stroke="#d0c7bc"/>
<text x="875" y="178" font-size="24" font-family="PingFang SC, Arial" fill="#111827">点评</text>
<text x="875" y="220" font-size="18" font-family="PingFang SC, Arial" fill="#374151">教科书式小结构样板</text>
<text x="875" y="262" font-size="18" font-family="PingFang SC, Arial" fill="#4b5563">• 低位横盘</text>
<text x="875" y="296" font-size="18" font-family="PingFang SC, Arial" fill="#4b5563">• 放量突破</text>
<text x="875" y="330" font-size="18" font-family="PingFang SC, Arial" fill="#4b5563">• 风险：短线偏高</text>
<text x="875" y="655" font-size="18" font-family="PingFang SC, Arial" fill="#7c746b">教学示意图：重绘，不复刻原截图</text>
</svg>
