<svg xmlns="http://www.w3.org/2000/svg" width="1200" height="720" viewBox="0 0 1200 720">
<rect width="1200" height="720" fill="#fbfaf7"/>
<rect x="70" y="135" width="750" height="450" rx="18" fill="#fffefb" stroke="#c9c2b8" stroke-width="2"/>
<text x="70" y="70" font-size="34" font-family="PingFang SC, Arial" fill="#1f2933">案例40｜浙能电力 600023</text>
<text x="850" y="70" font-size="34" font-family="PingFang SC, Arial" fill="#b7791f">68/100  勉强</text>
<text x="620" y="200" font-size="18" font-family="PingFang SC, Arial" fill="#6d28d9">前高/压力线</text>
<text x="90" y="162" font-size="13" font-family="PingFang SC, Arial" fill="#4b5563" font-weight="bold">均线</text>
<line x1="125" y1="159" x2="145" y2="159" stroke="#f59e0b" stroke-width="3"/>
<text x="149" y="162" font-size="12" font-family="PingFang SC, Arial" fill="#f59e0b">MA5</text>
<line x1="183" y1="159" x2="203" y2="159" stroke="#8b5cf6" stroke-width="3" stroke-dasharray="6,4"/>
<text x="207" y="162" font-size="12" font-family="PingFang SC, Arial" fill="#8b5cf6">MA10</text>
<line x1="241" y1="159" x2="261" y2="159" stroke="#10b981" stroke-width="3"/>
<text x="265" y="162" font-size="12" font-family="PingFang SC, Arial" fill="#10b981">MA20</text>
<line x1="299" y1="159" x2="319" y2="159" stroke="#f97316" stroke-width="3"/>
<text x="323" y="162" font-size="12" font-family="PingFang SC, Arial" fill="#f97316">MA30</text>
<line x1="357" y1="159" x2="377" y2="159" stroke="#ef4444" stroke-width="3"/>
<text x="381" y="162" font-size="12" font-family="PingFang SC, Arial" fill="#ef4444">MA60</text>
<line x1="415" y1="159" x2="435" y2="159" stroke="#6b7280" stroke-width="3"/>
<text x="439" y="162" font-size="12" font-family="PingFang SC, Arial" fill="#6b7280">MA120</text>
<polyline points="115,474 163,466 211,455 259,437 307,423 355,405 403,381 451,367 499,358 547,342 595,338 643,327 691,298 739,283" fill="none" stroke="#f59e0b" stroke-width="2.5"/>
<polyline points="115,498 163,489 211,482 259,468 307,454 355,439 403,423 451,411 499,398 547,382 595,372 643,354 691,332 739,321" fill="none" stroke="#8b5cf6" stroke-width="2.5" stroke-dasharray="8,4"/>
<polyline points="115,488 163,490 211,489 259,484 307,481 355,474 403,468 451,465 499,457 547,446 595,435 643,421 691,407 739,395" fill="none" stroke="#10b981" stroke-width="2.5"/>
<polyline points="115,465 163,466 211,466 259,465 307,465 355,462 403,460 451,458 499,454 547,452 595,450 643,444 691,437 739,430" fill="none" stroke="#f97316" stroke-width="2.5"/>
<polyline points="115,397 163,400 211,405 259,407 307,409 355,412 403,413 451,414 499,414 547,414 595,414 643,414 691,412 739,411" fill="none" stroke="#ef4444" stroke-width="2.5"/>
<polyline points="115,280 163,281 211,282 259,282 307,283 355,284 403,285 451,287 499,288 547,289 595,290 643,291 691,291 739,292" fill="none" stroke="#6b7280" stroke-width="2.5"/>
<line x1="110" y1="252" x2="780" y2="252" stroke="#7c3aed" stroke-width="2" stroke-dasharray="8,4"/>
<text x="630" y="242" font-size="15" font-family="PingFang SC, Arial" fill="#6d28d9">前高压力线</text>
<rect x="292" y="349" width="270" height="118" fill="none" stroke="#2563eb" stroke-width="3"/>
<text x="292" y="337" font-size="15" font-family="PingFang SC, Arial" fill="#1d4ed8">高位窄箱体</text>
<line x1="115" y1="446" x2="115" y2="465" stroke="#2f9e67" stroke-width="3"/>
<rect x="104" y="449" width="22" height="15" fill="#2f9e67"/>
<line x1="163" y1="440" x2="163" y2="468" stroke="#d74b42" stroke-width="3"/>
<rect x="152" y="442" width="22" height="23" fill="#d74b42"/>
<line x1="211" y1="426" x2="211" y2="470" stroke="#2f9e67" stroke-width="3"/>
<rect x="200" y="435" width="22" height="30" fill="#2f9e67"/>
<line x1="259" y1="366" x2="259" y2="443" stroke="#2f9e67" stroke-width="3"/>
<rect x="248" y="375" width="22" height="62" fill="#2f9e67"/>
<line x1="307" y1="364" x2="307" y2="398" stroke="#d74b42" stroke-width="3"/>
<rect x="296" y="368" width="22" height="23" fill="#d74b42"/>
<line x1="355" y1="355" x2="355" y2="394" stroke="#2f9e67" stroke-width="3"/>
<rect x="344" y="360" width="22" height="31" fill="#2f9e67"/>
<line x1="403" y1="343" x2="403" y2="362" stroke="#2f9e67" stroke-width="3"/>
<rect x="392" y="345" width="22" height="16" fill="#2f9e67"/>
<line x1="451" y1="333" x2="451" y2="368" stroke="#d74b42" stroke-width="3"/>
<rect x="440" y="338" width="22" height="23" fill="#d74b42"/>
<line x1="499" y1="325" x2="499" y2="365" stroke="#2f9e67" stroke-width="3"/>
<rect x="488" y="330" width="22" height="32" fill="#2f9e67"/>
<line x1="547" y1="312" x2="547" y2="332" stroke="#2f9e67" stroke-width="3"/>
<rect x="536" y="314" width="22" height="16" fill="#2f9e67"/>
<line x1="595" y1="296" x2="595" y2="355" stroke="#d74b42" stroke-width="3"/>
<rect x="584" y="303" width="22" height="40" fill="#d74b42"/>
<line x1="643" y1="279" x2="643" y2="349" stroke="#2f9e67" stroke-width="3"/>
<rect x="632" y="288" width="22" height="56" fill="#2f9e67"/>
<line x1="691" y1="204" x2="691" y2="297" stroke="#2f9e67" stroke-width="3"/>
<rect x="680" y="215" width="22" height="75" fill="#2f9e67"/>
<line x1="739" y1="194" x2="739" y2="265" stroke="#d74b42" stroke-width="3"/>
<rect x="728" y="199" width="22" height="58" fill="#d74b42"/>
<rect x="103" y="550" width="24" height="10" fill="#6abf88"/>
<rect x="151" y="545" width="24" height="15" fill="#d74b42"/>
<rect x="199" y="540" width="24" height="20" fill="#6abf88"/>
<rect x="247" y="520" width="24" height="40" fill="#6abf88"/>
<rect x="295" y="545" width="24" height="15" fill="#d74b42"/>
<rect x="343" y="540" width="24" height="20" fill="#6abf88"/>
<rect x="391" y="550" width="24" height="10" fill="#6abf88"/>
<rect x="439" y="545" width="24" height="15" fill="#d74b42"/>
<rect x="487" y="540" width="24" height="20" fill="#6abf88"/>
<rect x="535" y="550" width="24" height="10" fill="#6abf88"/>
<rect x="583" y="535" width="24" height="25" fill="#d74b42"/>
<rect x="631" y="525" width="24" height="35" fill="#6abf88"/>
<rect x="679" y="515" width="24" height="45" fill="#6abf88"/>
<rect x="727" y="525" width="24" height="35" fill="#d74b42"/>
<text x="90" y="578" font-size="15" font-family="PingFang SC, Arial" fill="#6b7280">量能区</text>
<rect x="850" y="135" width="280" height="450" rx="16" fill="#ffffff" stroke="#d0c7bc"/>
<text x="875" y="178" font-size="24" font-family="PingFang SC, Arial" fill="#111827">点评</text>
<text x="875" y="220" font-size="18" font-family="PingFang SC, Arial" fill="#374151">突破强但缺横盘小结构</text>
<text x="875" y="258" font-size="18" font-family="PingFang SC, Arial" fill="#374151">突破确认：6.77涨停日</text>
<text x="875" y="296" font-size="18" font-family="PingFang SC, Arial" fill="#374151">观察：等回踩5日线</text>
<text x="875" y="655" font-size="18" font-family="PingFang SC, Arial" fill="#7c746b">教学重绘图：不复刻原截图</text>
</svg>
