<svg xmlns="http://www.w3.org/2000/svg" width="1200" height="720" viewBox="0 0 1200 720">
<rect width="1200" height="720" fill="#fbfaf7"/>
<rect x="70" y="135" width="750" height="450" rx="18" fill="#fffefb" stroke="#c9c2b8" stroke-width="2"/>
<text x="70" y="70" font-size="34" font-family="PingFang SC, Arial" fill="#1f2933">案例38｜长盛轴承 300718</text>
<text x="850" y="70" font-size="34" font-family="PingFang SC, Arial" fill="#0f8a4b">82/100  较标准</text>
<text x="620" y="200" font-size="18" font-family="PingFang SC, Arial" fill="#6d28d9">前高/压力线</text>
<rect x="282" y="324" width="386" height="84" fill="none" stroke="#2563eb" stroke-width="3"/>
<text x="90" y="162" font-size="13" font-family="PingFang SC, Arial" fill="#4b5563" font-weight="bold">均线</text>
<line x1="125" y1="159" x2="145" y2="159" stroke="#f59e0b" stroke-width="3"/>
<text x="149" y="162" font-size="12" font-family="PingFang SC, Arial" fill="#f59e0b">MA5</text>
<line x1="183" y1="159" x2="203" y2="159" stroke="#8b5cf6" stroke-width="3" stroke-dasharray="6,4"/>
<text x="207" y="162" font-size="12" font-family="PingFang SC, Arial" fill="#8b5cf6">MA10</text>
<line x1="241" y1="159" x2="261" y2="159" stroke="#10b981" stroke-width="3"/>
<text x="265" y="162" font-size="12" font-family="PingFang SC, Arial" fill="#10b981">MA20</text>
<line x1="299" y1="159" x2="319" y2="159" stroke="#f97316" stroke-width="3"/>
<text x="323" y="162" font-size="12" font-family="PingFang SC, Arial" fill="#f97316">MA30</text>
<line x1="357" y1="159" x2="377" y2="159" stroke="#ef4444" stroke-width="3"/>
<text x="381" y="162" font-size="12" font-family="PingFang SC, Arial" fill="#ef4444">MA60</text>
<line x1="415" y1="159" x2="435" y2="159" stroke="#6b7280" stroke-width="3"/>
<text x="439" y="162" font-size="12" font-family="PingFang SC, Arial" fill="#6b7280">MA120</text>
<polyline points="115,396 163,397 211,398 259,382 307,371 355,357 403,338 451,326 499,319 547,307 595,304 643,295 691,272 739,261" fill="none" stroke="#f59e0b" stroke-width="2.5"/>
<polyline points="115,402 163,400 211,396 259,389 307,384 355,377 403,368 451,362 499,351 547,339 595,331 643,317 691,299 739,290" fill="none" stroke="#8b5cf6" stroke-width="2.5" stroke-dasharray="8,4"/>
<polyline points="115,414 163,413 211,410 259,406 307,403 355,396 403,391 451,387 499,381 547,374 595,366 643,358 691,348 739,340" fill="none" stroke="#10b981" stroke-width="2.5"/>
<polyline points="115,433 163,430 211,427 259,421 307,417 355,412 403,407 451,401 499,396 547,391 595,386 643,381 691,373 739,368" fill="none" stroke="#f97316" stroke-width="2.5"/>
<polyline points="115,492 163,488 211,484 259,479 307,475 355,471 403,466 451,462 499,457 547,453 595,447 643,442 691,437 739,431" fill="none" stroke="#ef4444" stroke-width="2.5"/>
<polyline points="115,506 163,504 211,504 259,502 307,501 355,499 403,497 451,495 499,494 547,492 595,490 643,487 691,485 739,483" fill="none" stroke="#6b7280" stroke-width="2.5"/>
<line x1="110" y1="236" x2="780" y2="236" stroke="#7c3aed" stroke-width="2" stroke-dasharray="8,4"/>
<text x="630" y="226" font-size="15" font-family="PingFang SC, Arial" fill="#6d28d9">前高压力线</text>
<rect x="292" y="312" width="270" height="171" fill="none" stroke="#2563eb" stroke-width="3"/>
<text x="292" y="300" font-size="15" font-family="PingFang SC, Arial" fill="#1d4ed8">高位窄箱体</text>
<line x1="115" y1="389" x2="115" y2="403" stroke="#2f9e67" stroke-width="3"/>
<rect x="104" y="391" width="22" height="11" fill="#2f9e67"/>
<line x1="163" y1="384" x2="163" y2="406" stroke="#d74b42" stroke-width="3"/>
<rect x="152" y="386" width="22" height="18" fill="#d74b42"/>
<line x1="211" y1="373" x2="211" y2="408" stroke="#2f9e67" stroke-width="3"/>
<rect x="200" y="380" width="22" height="24" fill="#2f9e67"/>
<line x1="259" y1="326" x2="259" y2="386" stroke="#2f9e67" stroke-width="3"/>
<rect x="248" y="333" width="22" height="49" fill="#2f9e67"/>
<line x1="307" y1="324" x2="307" y2="351" stroke="#d74b42" stroke-width="3"/>
<rect x="296" y="328" width="22" height="18" fill="#d74b42"/>
<line x1="355" y1="318" x2="355" y2="348" stroke="#2f9e67" stroke-width="3"/>
<rect x="344" y="321" width="22" height="25" fill="#2f9e67"/>
<line x1="403" y1="307" x2="403" y2="323" stroke="#2f9e67" stroke-width="3"/>
<rect x="392" y="309" width="22" height="12" fill="#2f9e67"/>
<line x1="451" y1="300" x2="451" y2="328" stroke="#d74b42" stroke-width="3"/>
<rect x="440" y="304" width="22" height="18" fill="#d74b42"/>
<line x1="499" y1="294" x2="499" y2="325" stroke="#2f9e67" stroke-width="3"/>
<rect x="488" y="298" width="22" height="24" fill="#2f9e67"/>
<line x1="547" y1="283" x2="547" y2="299" stroke="#2f9e67" stroke-width="3"/>
<rect x="536" y="285" width="22" height="13" fill="#2f9e67"/>
<line x1="595" y1="271" x2="595" y2="317" stroke="#d74b42" stroke-width="3"/>
<rect x="584" y="277" width="22" height="31" fill="#d74b42"/>
<line x1="643" y1="258" x2="643" y2="313" stroke="#2f9e67" stroke-width="3"/>
<rect x="632" y="264" width="22" height="45" fill="#2f9e67"/>
<line x1="691" y1="199" x2="691" y2="272" stroke="#2f9e67" stroke-width="3"/>
<rect x="680" y="208" width="22" height="58" fill="#2f9e67"/>
<line x1="739" y1="191" x2="739" y2="247" stroke="#d74b42" stroke-width="3"/>
<rect x="728" y="195" width="22" height="45" fill="#d74b42"/>
<rect x="103" y="550" width="24" height="10" fill="#6abf88"/>
<rect x="151" y="545" width="24" height="15" fill="#d74b42"/>
<rect x="199" y="540" width="24" height="20" fill="#6abf88"/>
<rect x="247" y="520" width="24" height="40" fill="#6abf88"/>
<rect x="295" y="545" width="24" height="15" fill="#d74b42"/>
<rect x="343" y="540" width="24" height="20" fill="#6abf88"/>
<rect x="391" y="550" width="24" height="10" fill="#6abf88"/>
<rect x="439" y="545" width="24" height="15" fill="#d74b42"/>
<rect x="487" y="540" width="24" height="20" fill="#6abf88"/>
<rect x="535" y="550" width="24" height="10" fill="#6abf88"/>
<rect x="583" y="535" width="24" height="25" fill="#d74b42"/>
<rect x="631" y="525" width="24" height="35" fill="#6abf88"/>
<rect x="679" y="515" width="24" height="45" fill="#6abf88"/>
<rect x="727" y="525" width="24" height="35" fill="#d74b42"/>
<text x="90" y="578" font-size="15" font-family="PingFang SC, Arial" fill="#6b7280">量能区</text>
<rect x="850" y="135" width="280" height="450" rx="16" fill="#ffffff" stroke="#d0c7bc"/>
<text x="875" y="178" font-size="24" font-family="PingFang SC, Arial" fill="#111827">点评</text>
<text x="875" y="220" font-size="18" font-family="PingFang SC, Arial" fill="#374151">高位窄箱待突破样本</text>
<text x="875" y="258" font-size="18" font-family="PingFang SC, Arial" fill="#374151">低吸试错：箱体下沿约79</text>
<text x="875" y="296" font-size="18" font-family="PingFang SC, Arial" fill="#374151">突破确认：放量过84.22</text>
<text x="875" y="655" font-size="18" font-family="PingFang SC, Arial" fill="#7c746b">教学重绘图：不复刻原截图</text>
</svg>
