<svg xmlns="http://www.w3.org/2000/svg" width="1200" height="720" viewBox="0 0 1200 720">
<rect width="1200" height="720" fill="#fbfaf7"/>
<rect x="70" y="135" width="750" height="450" rx="18" fill="#fffefb" stroke="#c9c2b8" stroke-width="2"/>
<text x="70" y="70" font-size="34" font-family="PingFang SC, Arial" fill="#1f2933">案例31｜疑似能控股</text>
<text x="850" y="70" font-size="34" font-family="PingFang SC, Arial" fill="#b7791f">62/100  勉强</text>
<text x="90" y="162" font-size="13" font-family="PingFang SC, Arial" fill="#4b5563" font-weight="bold">均线</text>
<line x1="125" y1="159" x2="145" y2="159" stroke="#f59e0b" stroke-width="3"/>
<text x="149" y="162" font-size="12" font-family="PingFang SC, Arial" fill="#f59e0b">MA5</text>
<line x1="183" y1="159" x2="203" y2="159" stroke="#8b5cf6" stroke-width="3" stroke-dasharray="6,4"/>
<text x="207" y="162" font-size="12" font-family="PingFang SC, Arial" fill="#8b5cf6">MA10</text>
<line x1="241" y1="159" x2="261" y2="159" stroke="#10b981" stroke-width="3"/>
<text x="265" y="162" font-size="12" font-family="PingFang SC, Arial" fill="#10b981">MA20</text>
<line x1="299" y1="159" x2="319" y2="159" stroke="#f97316" stroke-width="3"/>
<text x="323" y="162" font-size="12" font-family="PingFang SC, Arial" fill="#f97316">MA30</text>
<line x1="357" y1="159" x2="377" y2="159" stroke="#ef4444" stroke-width="3"/>
<text x="381" y="162" font-size="12" font-family="PingFang SC, Arial" fill="#ef4444">MA60</text>
<line x1="415" y1="159" x2="435" y2="159" stroke="#6b7280" stroke-width="3"/>
<text x="439" y="162" font-size="12" font-family="PingFang SC, Arial" fill="#6b7280">MA120</text>
<line x1="110" y1="279" x2="780" y2="279" stroke="#7c3aed" stroke-width="2" stroke-dasharray="8,4"/>
<text x="630" y="269" font-size="15" font-family="PingFang SC, Arial" fill="#6d28d9">前高压力线</text>
<rect x="292" y="336" width="270" height="149" fill="none" stroke="#2563eb" stroke-width="3"/>
<text x="292" y="326" font-size="15" font-family="PingFang SC, Arial" fill="#1d4ed8">高位窄箱体</text>
<polyline points="115,470 163,468 211,468 259,444 307,439 355,436 403,433 451,410 499,425 547,423 595,411 643,391 691,368 739,330" fill="none" stroke="#f59e0b" stroke-width="2.5"/>
<polyline points="115,488 163,485 211,481 259,464 307,459 355,453 403,450 451,439 499,435 547,430 595,423 643,412 691,389 739,378" fill="none" stroke="#8b5cf6" stroke-width="2.5" stroke-dasharray="8,4"/>
<polyline points="115,497 163,495 211,492 259,483 307,480 355,478 403,477 451,471 499,466 547,463 595,456 643,448 691,435 739,421" fill="none" stroke="#10b981" stroke-width="2.5"/>
<polyline points="115,500 163,501 211,501 259,495 307,493 355,491 403,489 451,484 499,479 547,476 595,472 643,467 691,458 739,447" fill="none" stroke="#f97316" stroke-width="2.5"/>
<polyline points="115,504 163,504 211,505 259,502 307,501 355,500 403,498 451,495 499,493 547,491 595,488 643,485 691,481 739,477" fill="none" stroke="#ef4444" stroke-width="2.5"/>
<polyline points="115,411 163,413 211,415 259,416 307,417 355,418 403,420 451,421 499,422 547,423 595,425 643,426 691,426 739,426" fill="none" stroke="#6b7280" stroke-width="2.5"/>
<line x1="115" y1="447" x2="115" y2="497" stroke="#2f9e67" stroke-width="3"/>
<rect x="104" y="465" width="22" height="15" fill="#2f9e67"/>
<line x1="163" y1="453" x2="163" y2="504" stroke="#2f9e67" stroke-width="3"/>
<rect x="152" y="470" width="22" height="17" fill="#2f9e67"/>
<line x1="211" y1="459" x2="211" y2="505" stroke="#2f9e67" stroke-width="3"/>
<rect x="200" y="476" width="22" height="12" fill="#2f9e67"/>
<line x1="259" y1="304" x2="259" y2="432" stroke="#2f9e67" stroke-width="3"/>
<rect x="248" y="341" width="22" height="63" fill="#2f9e67"/>
<line x1="307" y1="432" x2="307" y2="466" stroke="#2f9e67" stroke-width="3"/>
<rect x="296" y="443" width="22" height="13" fill="#2f9e67"/>
<line x1="355" y1="439" x2="355" y2="471" stroke="#2f9e67" stroke-width="3"/>
<rect x="344" y="449" width="22" height="12" fill="#2f9e67"/>
<line x1="403" y1="444" x2="403" y2="480" stroke="#2f9e67" stroke-width="3"/>
<rect x="392" y="455" width="22" height="14" fill="#2f9e67"/>
<line x1="451" y1="341" x2="451" y2="372" stroke="#d74b42" stroke-width="3"/>
<rect x="440" y="352" width="22" height="9" fill="#d74b42"/>
<line x1="499" y1="410" x2="499" y2="447" stroke="#2f9e67" stroke-width="3"/>
<rect x="488" y="421" width="22" height="16" fill="#2f9e67"/>
<line x1="547" y1="403" x2="547" y2="437" stroke="#d74b42" stroke-width="3"/>
<rect x="536" y="413" width="22" height="13" fill="#d74b42"/>
<line x1="595" y1="370" x2="595" y2="435" stroke="#2f9e67" stroke-width="3"/>
<rect x="584" y="391" width="22" height="32" fill="#2f9e67"/>
<line x1="643" y1="328" x2="643" y2="369" stroke="#d74b42" stroke-width="3"/>
<rect x="632" y="350" width="22" height="6" fill="#d74b42"/>
<line x1="691" y1="220" x2="691" y2="323" stroke="#2f9e67" stroke-width="3"/>
<rect x="680" y="247" width="22" height="57" fill="#2f9e67"/>
<line x1="739" y1="209" x2="739" y2="271" stroke="#2f9e67" stroke-width="3"/>
<rect x="728" y="228" width="22" height="33" fill="#2f9e67"/>
<rect x="103" y="548" width="24" height="12" fill="#6abf88"/>
<rect x="151" y="546" width="24" height="14" fill="#6abf88"/>
<rect x="199" y="544" width="24" height="16" fill="#6abf88"/>
<rect x="247" y="502" width="24" height="58" fill="#6abf88"/>
<rect x="295" y="542" width="24" height="18" fill="#6abf88"/>
<rect x="343" y="544" width="24" height="16" fill="#6abf88"/>
<rect x="391" y="542" width="24" height="18" fill="#6abf88"/>
<rect x="439" y="546" width="24" height="14" fill="#d74b42"/>
<rect x="487" y="546" width="24" height="14" fill="#6abf88"/>
<rect x="535" y="544" width="24" height="16" fill="#d74b42"/>
<rect x="583" y="530" width="24" height="30" fill="#6abf88"/>
<rect x="631" y="542" width="24" height="18" fill="#d74b42"/>
<rect x="679" y="505" width="24" height="55" fill="#6abf88"/>
<rect x="727" y="525" width="24" height="35" fill="#6abf88"/>
<text x="90" y="578" font-size="15" font-family="PingFang SC, Arial" fill="#6b7280">量能区</text>
<circle cx="451" cy="372" r="6" fill="none" stroke="#ef4444" stroke-width="2"/>
<text x="461" y="387" font-size="13" font-family="PingFang SC, Arial" fill="#dc2626">低吸试错点</text>
<circle cx="691" cy="220" r="6" fill="#ef4444" stroke="none"/>
<text x="651" y="205" font-size="13" font-family="PingFang SC, Arial" fill="#dc2626">突破确认点</text>
<rect x="850" y="135" width="280" height="450" rx="16" fill="#ffffff" stroke="#d0c7bc"/>
<text x="875" y="178" font-size="24" font-family="PingFang SC, Arial" fill="#111827">点评</text>
<text x="875" y="220" font-size="18" font-family="PingFang SC, Arial" fill="#374151">趋势启动但缺4天窄箱</text>
<text x="875" y="262" font-size="18" font-family="PingFang SC, Arial" fill="#4b5563">• 放量突破</text>
<text x="875" y="296" font-size="18" font-family="PingFang SC, Arial" fill="#4b5563">• 贴短均线</text>
<text x="875" y="330" font-size="18" font-family="PingFang SC, Arial" fill="#4b5563">• 风险：遮挡较多</text>
<text x="875" y="655" font-size="18" font-family="PingFang SC, Arial" fill="#7c746b">教学示意图：重绘，不复刻原截图</text>
</svg>
