<svg xmlns="http://www.w3.org/2000/svg" width="1200" height="720" viewBox="0 0 1200 720">
<rect width="1200" height="720" fill="#fbfaf7"/>
<rect x="70" y="135" width="750" height="450" rx="18" fill="#fffefb" stroke="#c9c2b8" stroke-width="2"/>
<text x="70" y="70" font-size="34" font-family="PingFang SC, Arial" fill="#1f2933">案例39｜清溢光电 688138</text>
<text x="850" y="70" font-size="34" font-family="PingFang SC, Arial" fill="#b7791f">72/100  勉强</text>
<text x="620" y="200" font-size="18" font-family="PingFang SC, Arial" fill="#6d28d9">前高/压力线</text>
<text x="90" y="162" font-size="13" font-family="PingFang SC, Arial" fill="#4b5563" font-weight="bold">均线</text>
<line x1="125" y1="159" x2="145" y2="159" stroke="#f59e0b" stroke-width="3"/>
<text x="149" y="162" font-size="12" font-family="PingFang SC, Arial" fill="#f59e0b">MA5</text>
<line x1="183" y1="159" x2="203" y2="159" stroke="#8b5cf6" stroke-width="3" stroke-dasharray="6,4"/>
<text x="207" y="162" font-size="12" font-family="PingFang SC, Arial" fill="#8b5cf6">MA10</text>
<line x1="241" y1="159" x2="261" y2="159" stroke="#10b981" stroke-width="3"/>
<text x="265" y="162" font-size="12" font-family="PingFang SC, Arial" fill="#10b981">MA20</text>
<line x1="299" y1="159" x2="319" y2="159" stroke="#f97316" stroke-width="3"/>
<text x="323" y="162" font-size="12" font-family="PingFang SC, Arial" fill="#f97316">MA30</text>
<line x1="357" y1="159" x2="377" y2="159" stroke="#ef4444" stroke-width="3"/>
<text x="381" y="162" font-size="12" font-family="PingFang SC, Arial" fill="#ef4444">MA60</text>
<line x1="415" y1="159" x2="435" y2="159" stroke="#6b7280" stroke-width="3"/>
<text x="439" y="162" font-size="12" font-family="PingFang SC, Arial" fill="#6b7280">MA120</text>
<line x1="110" y1="275" x2="780" y2="275" stroke="#7c3aed" stroke-width="2" stroke-dasharray="8,4"/>
<text x="630" y="265" font-size="15" font-family="PingFang SC, Arial" fill="#6d28d9">前高压力线</text>
<rect x="292" y="339" width="270" height="136" fill="none" stroke="#2563eb" stroke-width="3"/>
<text x="292" y="329" font-size="15" font-family="PingFang SC, Arial" fill="#1d4ed8">高位窄箱体</text>
<polyline points="115,452 163,455 211,460 259,439 307,437 355,432 403,428 451,405 499,423 547,418 595,406 643,388 691,366 739,327" fill="none" stroke="#f59e0b" stroke-width="2.5"/>
<polyline points="115,427 163,437 211,446 259,439 307,441 355,442 403,441 451,433 499,431 547,427 595,420 643,408 691,385 739,375" fill="none" stroke="#8b5cf6" stroke-width="2.5" stroke-dasharray="8,4"/>
<polyline points="115,377 163,387 211,395 259,394 307,399 355,406 403,411 451,413 499,417 547,422 595,424 643,422 691,416 739,407" fill="none" stroke="#10b981" stroke-width="2.5"/>
<polyline points="115,351 163,357 211,363 259,366 307,372 355,377 403,381 451,382 499,385 547,389 595,391 643,394 691,392 739,388" fill="none" stroke="#f97316" stroke-width="2.5"/>
<polyline points="115,369 163,371 211,373 259,373 307,375 355,376 403,377 451,378 499,379 547,380 595,380 643,379 691,376 739,372" fill="none" stroke="#ef4444" stroke-width="2.5"/>
<polyline points="115,441 163,441 211,440 259,438 307,437 355,437 403,435 451,434 499,432 547,431 595,429 643,427 691,424 739,422" fill="none" stroke="#6b7280" stroke-width="2.5"/>
<line x1="115" y1="450" x2="115" y2="493" stroke="#2f9e67" stroke-width="3"/>
<rect x="104" y="466" width="22" height="11" fill="#2f9e67"/>
<line x1="163" y1="437" x2="163" y2="482" stroke="#d74b42" stroke-width="3"/>
<rect x="152" y="454" width="22" height="11" fill="#d74b42"/>
<line x1="211" y1="453" x2="211" y2="505" stroke="#2f9e67" stroke-width="3"/>
<rect x="200" y="469" width="22" height="20" fill="#2f9e67"/>
<line x1="259" y1="300" x2="259" y2="426" stroke="#2f9e67" stroke-width="3"/>
<rect x="248" y="336" width="22" height="63" fill="#2f9e67"/>
<line x1="307" y1="435" x2="307" y2="463" stroke="#2f9e67" stroke-width="3"/>
<rect x="296" y="445" width="22" height="8" fill="#2f9e67"/>
<line x1="355" y1="434" x2="355" y2="470" stroke="#2f9e67" stroke-width="3"/>
<rect x="344" y="444" width="22" height="16" fill="#2f9e67"/>
<line x1="403" y1="436" x2="403" y2="469" stroke="#2f9e67" stroke-width="3"/>
<rect x="392" y="446" width="22" height="12" fill="#2f9e67"/>
<line x1="451" y1="344" x2="451" y2="382" stroke="#2f9e67" stroke-width="3"/>
<rect x="440" y="354" width="22" height="17" fill="#2f9e67"/>
<line x1="499" y1="396" x2="499" y2="433" stroke="#d74b42" stroke-width="3"/>
<rect x="488" y="406" width="22" height="17" fill="#d74b42"/>
<line x1="547" y1="399" x2="547" y2="432" stroke="#d74b42" stroke-width="3"/>
<rect x="536" y="410" width="22" height="12" fill="#d74b42"/>
<line x1="595" y1="361" x2="595" y2="400" stroke="#d74b42" stroke-width="3"/>
<rect x="584" y="382" width="22" height="6" fill="#d74b42"/>
<line x1="643" y1="331" x2="643" y2="389" stroke="#2f9e67" stroke-width="3"/>
<rect x="632" y="353" width="22" height="22" fill="#2f9e67"/>
<line x1="691" y1="220" x2="691" y2="322" stroke="#2f9e67" stroke-width="3"/>
<rect x="680" y="246" width="22" height="57" fill="#2f9e67"/>
<line x1="739" y1="208" x2="739" y2="284" stroke="#2f9e67" stroke-width="3"/>
<rect x="728" y="228" width="22" height="46" fill="#2f9e67"/>
<rect x="103" y="548" width="24" height="12" fill="#6abf88"/>
<rect x="151" y="546" width="24" height="14" fill="#d74b42"/>
<rect x="199" y="544" width="24" height="16" fill="#6abf88"/>
<rect x="247" y="502" width="24" height="58" fill="#6abf88"/>
<rect x="295" y="542" width="24" height="18" fill="#6abf88"/>
<rect x="343" y="544" width="24" height="16" fill="#6abf88"/>
<rect x="391" y="542" width="24" height="18" fill="#6abf88"/>
<rect x="439" y="546" width="24" height="14" fill="#6abf88"/>
<rect x="487" y="546" width="24" height="14" fill="#d74b42"/>
<rect x="535" y="544" width="24" height="16" fill="#d74b42"/>
<rect x="583" y="530" width="24" height="30" fill="#d74b42"/>
<rect x="631" y="542" width="24" height="18" fill="#6abf88"/>
<rect x="679" y="505" width="24" height="55" fill="#6abf88"/>
<rect x="727" y="525" width="24" height="35" fill="#6abf88"/>
<text x="90" y="578" font-size="15" font-family="PingFang SC, Arial" fill="#6b7280">量能区</text>
<circle cx="451" cy="382" r="6" fill="none" stroke="#ef4444" stroke-width="2"/>
<text x="461" y="397" font-size="13" font-family="PingFang SC, Arial" fill="#dc2626">低吸试错点</text>
<circle cx="691" cy="220" r="6" fill="#ef4444" stroke="none"/>
<text x="651" y="205" font-size="13" font-family="PingFang SC, Arial" fill="#dc2626">突破确认点</text>
<rect x="850" y="135" width="280" height="450" rx="16" fill="#ffffff" stroke="#d0c7bc"/>
<text x="875" y="178" font-size="24" font-family="PingFang SC, Arial" fill="#111827">点评</text>
<text x="875" y="220" font-size="18" font-family="PingFang SC, Arial" fill="#374151">趋势尚可，横盘天数不足</text>
<text x="875" y="258" font-size="18" font-family="PingFang SC, Arial" fill="#374151">低吸试错：回踩5日线</text>
<text x="875" y="296" font-size="18" font-family="PingFang SC, Arial" fill="#374151">突破确认：过34.50前高</text>
<text x="875" y="655" font-size="18" font-family="PingFang SC, Arial" fill="#7c746b">教学重绘图：不复刻原截图</text>
</svg>
