<svg xmlns="http://www.w3.org/2000/svg" width="1200" height="720" viewBox="0 0 1200 720">
<rect width="1200" height="720" fill="#fbfaf7"/>
<rect x="70" y="135" width="750" height="450" rx="18" fill="#fffefb" stroke="#c9c2b8" stroke-width="2"/>
<text x="70" y="70" font-size="34" font-family="PingFang SC, Arial" fill="#1f2933">案例34｜疑似浙江个股</text>
<text x="850" y="70" font-size="34" font-family="PingFang SC, Arial" fill="#0f8a4b">78/100  较标准</text>
<rect x="282" y="338" width="386" height="84" fill="none" stroke="#2563eb" stroke-width="3"/>
<text x="90" y="162" font-size="13" font-family="PingFang SC, Arial" fill="#4b5563" font-weight="bold">均线</text>
<line x1="125" y1="159" x2="145" y2="159" stroke="#f59e0b" stroke-width="3"/>
<text x="149" y="162" font-size="12" font-family="PingFang SC, Arial" fill="#f59e0b">MA5</text>
<line x1="183" y1="159" x2="203" y2="159" stroke="#8b5cf6" stroke-width="3" stroke-dasharray="6,4"/>
<text x="207" y="162" font-size="12" font-family="PingFang SC, Arial" fill="#8b5cf6">MA10</text>
<line x1="241" y1="159" x2="261" y2="159" stroke="#10b981" stroke-width="3"/>
<text x="265" y="162" font-size="12" font-family="PingFang SC, Arial" fill="#10b981">MA20</text>
<line x1="299" y1="159" x2="319" y2="159" stroke="#f97316" stroke-width="3"/>
<text x="323" y="162" font-size="12" font-family="PingFang SC, Arial" fill="#f97316">MA30</text>
<line x1="357" y1="159" x2="377" y2="159" stroke="#ef4444" stroke-width="3"/>
<text x="381" y="162" font-size="12" font-family="PingFang SC, Arial" fill="#ef4444">MA60</text>
<line x1="415" y1="159" x2="435" y2="159" stroke="#6b7280" stroke-width="3"/>
<text x="439" y="162" font-size="12" font-family="PingFang SC, Arial" fill="#6b7280">MA120</text>
<polyline points="115,395 163,397 211,394 259,377 307,366 355,352 403,334 451,323 499,316 547,304 595,301 643,293 691,271 739,259" fill="none" stroke="#f59e0b" stroke-width="2.5"/>
<polyline points="115,374 163,381 211,383 259,380 307,379 355,374 403,366 451,359 499,346 547,335 595,327 643,313 691,297 739,288" fill="none" stroke="#8b5cf6" stroke-width="2.5" stroke-dasharray="8,4"/>
<polyline points="115,399 163,395 211,389 259,381 307,375 355,369 403,364 451,360 499,356 547,352 595,351 643,347 691,340 739,333" fill="none" stroke="#10b981" stroke-width="2.5"/>
<polyline points="115,442 163,437 211,430 259,423 307,416 355,409 403,402 451,396 499,389 547,381 595,375 643,368 691,359 739,350" fill="none" stroke="#f97316" stroke-width="2.5"/>
<polyline points="115,490 163,487 211,484 259,481 307,477 355,474 403,471 451,468 499,464 547,460 595,457 643,452 691,447 739,442" fill="none" stroke="#ef4444" stroke-width="2.5"/>
<polyline points="115,507 163,505 211,503 259,501 307,499 355,496 403,494 451,491 499,489 547,486 595,483 643,480 691,477 739,473" fill="none" stroke="#6b7280" stroke-width="2.5"/>
<line x1="110" y1="235" x2="780" y2="235" stroke="#7c3aed" stroke-width="2" stroke-dasharray="8,4"/>
<text x="630" y="225" font-size="15" font-family="PingFang SC, Arial" fill="#6d28d9">前高压力线</text>
<rect x="292" y="309" width="270" height="175" fill="none" stroke="#2563eb" stroke-width="3"/>
<text x="292" y="297" font-size="15" font-family="PingFang SC, Arial" fill="#1d4ed8">高位窄箱体</text>
<line x1="115" y1="384" x2="115" y2="398" stroke="#2f9e67" stroke-width="3"/>
<rect x="104" y="386" width="22" height="11" fill="#2f9e67"/>
<line x1="163" y1="379" x2="163" y2="400" stroke="#d74b42" stroke-width="3"/>
<rect x="152" y="381" width="22" height="17" fill="#d74b42"/>
<line x1="211" y1="368" x2="211" y2="402" stroke="#2f9e67" stroke-width="3"/>
<rect x="200" y="375" width="22" height="23" fill="#2f9e67"/>
<line x1="259" y1="322" x2="259" y2="381" stroke="#2f9e67" stroke-width="3"/>
<rect x="248" y="329" width="22" height="48" fill="#2f9e67"/>
<line x1="307" y1="321" x2="307" y2="347" stroke="#d74b42" stroke-width="3"/>
<rect x="296" y="324" width="22" height="18" fill="#d74b42"/>
<line x1="355" y1="314" x2="355" y2="344" stroke="#2f9e67" stroke-width="3"/>
<rect x="344" y="318" width="22" height="24" fill="#2f9e67"/>
<line x1="403" y1="305" x2="403" y2="319" stroke="#2f9e67" stroke-width="3"/>
<rect x="392" y="306" width="22" height="12" fill="#2f9e67"/>
<line x1="451" y1="298" x2="451" y2="325" stroke="#d74b42" stroke-width="3"/>
<rect x="440" y="301" width="22" height="18" fill="#d74b42"/>
<line x1="499" y1="291" x2="499" y2="321" stroke="#2f9e67" stroke-width="3"/>
<rect x="488" y="295" width="22" height="24" fill="#2f9e67"/>
<line x1="547" y1="281" x2="547" y2="296" stroke="#2f9e67" stroke-width="3"/>
<rect x="536" y="283" width="22" height="12" fill="#2f9e67"/>
<line x1="595" y1="269" x2="595" y2="314" stroke="#d74b42" stroke-width="3"/>
<rect x="584" y="275" width="22" height="30" fill="#d74b42"/>
<line x1="643" y1="256" x2="643" y2="310" stroke="#2f9e67" stroke-width="3"/>
<rect x="632" y="263" width="22" height="43" fill="#2f9e67"/>
<line x1="691" y1="198" x2="691" y2="269" stroke="#2f9e67" stroke-width="3"/>
<rect x="680" y="207" width="22" height="57" fill="#2f9e67"/>
<line x1="739" y1="190" x2="739" y2="245" stroke="#d74b42" stroke-width="3"/>
<rect x="728" y="194" width="22" height="44" fill="#d74b42"/>
<rect x="103" y="550" width="24" height="10" fill="#6abf88"/>
<rect x="151" y="545" width="24" height="15" fill="#d74b42"/>
<rect x="199" y="540" width="24" height="20" fill="#6abf88"/>
<rect x="247" y="520" width="24" height="40" fill="#6abf88"/>
<rect x="295" y="545" width="24" height="15" fill="#d74b42"/>
<rect x="343" y="540" width="24" height="20" fill="#6abf88"/>
<rect x="391" y="550" width="24" height="10" fill="#6abf88"/>
<rect x="439" y="545" width="24" height="15" fill="#d74b42"/>
<rect x="487" y="540" width="24" height="20" fill="#6abf88"/>
<rect x="535" y="550" width="24" height="10" fill="#6abf88"/>
<rect x="583" y="535" width="24" height="25" fill="#d74b42"/>
<rect x="631" y="525" width="24" height="35" fill="#6abf88"/>
<rect x="679" y="515" width="24" height="45" fill="#6abf88"/>
<rect x="727" y="525" width="24" height="35" fill="#d74b42"/>
<text x="90" y="578" font-size="15" font-family="PingFang SC, Arial" fill="#6b7280">量能区</text>
<rect x="850" y="135" width="280" height="450" rx="16" fill="#ffffff" stroke="#d0c7bc"/>
<text x="875" y="178" font-size="24" font-family="PingFang SC, Arial" fill="#111827">点评</text>
<text x="875" y="220" font-size="18" font-family="PingFang SC, Arial" fill="#374151">阳线启动+窄箱突破</text>
<text x="875" y="262" font-size="18" font-family="PingFang SC, Arial" fill="#4b5563">• 3-4日窄箱</text>
<text x="875" y="296" font-size="18" font-family="PingFang SC, Arial" fill="#4b5563">• 贴5日线</text>
<text x="875" y="330" font-size="18" font-family="PingFang SC, Arial" fill="#4b5563">• 风险：上影线</text>
<text x="875" y="655" font-size="18" font-family="PingFang SC, Arial" fill="#7c746b">教学示意图：重绘，不复刻原截图</text>
</svg>
