<svg xmlns="http://www.w3.org/2000/svg" width="1200" height="720" viewBox="0 0 1200 720">
<rect width="1200" height="720" fill="#fbfaf7"/>
<rect x="70" y="135" width="750" height="450" rx="18" fill="#fffefb" stroke="#c9c2b8" stroke-width="2"/>
<text x="70" y="70" font-size="34" font-family="PingFang SC, Arial" fill="#1f2933">案例11｜教学示意图</text>
<text x="850" y="70" font-size="34" font-family="PingFang SC, Arial" fill="#b7791f">60/100  勉强</text>
<rect x="282" y="290" width="338" height="105" fill="none" stroke="#2563eb" stroke-width="3"/>
<text x="90" y="162" font-size="13" font-family="PingFang SC, Arial" fill="#4b5563" font-weight="bold">均线</text>
<line x1="125" y1="159" x2="145" y2="159" stroke="#f59e0b" stroke-width="3"/>
<text x="149" y="162" font-size="12" font-family="PingFang SC, Arial" fill="#f59e0b">MA5</text>
<line x1="183" y1="159" x2="203" y2="159" stroke="#8b5cf6" stroke-width="3" stroke-dasharray="6,4"/>
<text x="207" y="162" font-size="12" font-family="PingFang SC, Arial" fill="#8b5cf6">MA10</text>
<line x1="241" y1="159" x2="261" y2="159" stroke="#10b981" stroke-width="3"/>
<text x="265" y="162" font-size="12" font-family="PingFang SC, Arial" fill="#10b981">MA20</text>
<line x1="299" y1="159" x2="319" y2="159" stroke="#f97316" stroke-width="3"/>
<text x="323" y="162" font-size="12" font-family="PingFang SC, Arial" fill="#f97316">MA30</text>
<line x1="357" y1="159" x2="377" y2="159" stroke="#ef4444" stroke-width="3"/>
<text x="381" y="162" font-size="12" font-family="PingFang SC, Arial" fill="#ef4444">MA60</text>
<line x1="415" y1="159" x2="435" y2="159" stroke="#6b7280" stroke-width="3"/>
<text x="439" y="162" font-size="12" font-family="PingFang SC, Arial" fill="#6b7280">MA120</text>
<line x1="110" y1="259" x2="780" y2="259" stroke="#7c3aed" stroke-width="2" stroke-dasharray="8,4"/>
<text x="630" y="249" font-size="15" font-family="PingFang SC, Arial" fill="#6d28d9">前高压力线</text>
<rect x="292" y="321" width="270" height="142" fill="none" stroke="#2563eb" stroke-width="3"/>
<text x="292" y="311" font-size="15" font-family="PingFang SC, Arial" fill="#1d4ed8">高位窄箱体</text>
<polyline points="115,407 163,419 211,428 259,413 307,410 355,408 403,406 451,385 499,402 547,399 595,389 643,370 691,351 739,316" fill="none" stroke="#f59e0b" stroke-width="2.5"/>
<polyline points="115,388 163,395 211,403 259,399 307,404 355,407 403,413 451,407 499,408 547,405 595,398 643,389 691,368 739,359" fill="none" stroke="#8b5cf6" stroke-width="2.5" stroke-dasharray="8,4"/>
<polyline points="115,391 163,393 211,395 259,390 307,391 355,392 403,392 451,390 499,390 547,392 595,393 643,392 691,386 739,379" fill="none" stroke="#10b981" stroke-width="2.5"/>
<polyline points="115,422 163,418 211,414 259,407 307,405 355,403 403,402 451,398 499,396 547,395 595,393 643,392 691,385 739,380" fill="none" stroke="#f97316" stroke-width="2.5"/>
<polyline points="115,488 163,485 211,482 259,477 307,474 355,471 403,468 451,464 499,461 547,458 595,455 643,452 691,447 739,441" fill="none" stroke="#ef4444" stroke-width="2.5"/>
<polyline points="115,507 163,506 211,506 259,503 307,502 355,501 403,500 451,498 499,496 547,495 595,493 643,492 691,489 739,486" fill="none" stroke="#6b7280" stroke-width="2.5"/>
<line x1="115" y1="422" x2="115" y2="466" stroke="#2f9e67" stroke-width="3"/>
<rect x="104" y="437" width="22" height="14" fill="#2f9e67"/>
<line x1="163" y1="399" x2="163" y2="454" stroke="#d74b42" stroke-width="3"/>
<rect x="152" y="416" width="22" height="22" fill="#d74b42"/>
<line x1="211" y1="408" x2="211" y2="457" stroke="#d74b42" stroke-width="3"/>
<rect x="200" y="423" width="22" height="18" fill="#d74b42"/>
<line x1="259" y1="284" x2="259" y2="401" stroke="#2f9e67" stroke-width="3"/>
<rect x="248" y="317" width="22" height="59" fill="#2f9e67"/>
<line x1="307" y1="409" x2="307" y2="433" stroke="#2f9e67" stroke-width="3"/>
<rect x="296" y="418" width="22" height="5" fill="#2f9e67"/>
<line x1="355" y1="414" x2="355" y2="444" stroke="#2f9e67" stroke-width="3"/>
<rect x="344" y="423" width="22" height="11" fill="#2f9e67"/>
<line x1="403" y1="424" x2="403" y2="458" stroke="#2f9e67" stroke-width="3"/>
<rect x="392" y="433" width="22" height="15" fill="#2f9e67"/>
<line x1="451" y1="326" x2="451" y2="353" stroke="#2f9e67" stroke-width="3"/>
<rect x="440" y="336" width="22" height="7" fill="#2f9e67"/>
<line x1="499" y1="388" x2="499" y2="413" stroke="#2f9e67" stroke-width="3"/>
<rect x="488" y="397" width="22" height="7" fill="#2f9e67"/>
<line x1="547" y1="396" x2="547" y2="430" stroke="#2f9e67" stroke-width="3"/>
<rect x="536" y="405" width="22" height="16" fill="#2f9e67"/>
<line x1="595" y1="353" x2="595" y2="409" stroke="#2f9e67" stroke-width="3"/>
<rect x="584" y="372" width="22" height="25" fill="#2f9e67"/>
<line x1="643" y1="320" x2="643" y2="385" stroke="#2f9e67" stroke-width="3"/>
<rect x="632" y="340" width="22" height="33" fill="#2f9e67"/>
<line x1="691" y1="216" x2="691" y2="312" stroke="#2f9e67" stroke-width="3"/>
<rect x="680" y="241" width="22" height="53" fill="#2f9e67"/>
<line x1="739" y1="206" x2="739" y2="276" stroke="#2f9e67" stroke-width="3"/>
<rect x="728" y="224" width="22" height="44" fill="#2f9e67"/>
<rect x="103" y="548" width="24" height="12" fill="#6abf88"/>
<rect x="151" y="546" width="24" height="14" fill="#d74b42"/>
<rect x="199" y="544" width="24" height="16" fill="#d74b42"/>
<rect x="247" y="502" width="24" height="58" fill="#6abf88"/>
<rect x="295" y="542" width="24" height="18" fill="#6abf88"/>
<rect x="343" y="544" width="24" height="16" fill="#6abf88"/>
<rect x="391" y="542" width="24" height="18" fill="#6abf88"/>
<rect x="439" y="546" width="24" height="14" fill="#6abf88"/>
<rect x="487" y="546" width="24" height="14" fill="#6abf88"/>
<rect x="535" y="544" width="24" height="16" fill="#6abf88"/>
<rect x="583" y="530" width="24" height="30" fill="#6abf88"/>
<rect x="631" y="542" width="24" height="18" fill="#6abf88"/>
<rect x="679" y="505" width="24" height="55" fill="#6abf88"/>
<rect x="727" y="525" width="24" height="35" fill="#6abf88"/>
<text x="90" y="578" font-size="15" font-family="PingFang SC, Arial" fill="#6b7280">量能区</text>
<circle cx="451" cy="353" r="6" fill="none" stroke="#ef4444" stroke-width="2"/>
<text x="461" y="368" font-size="13" font-family="PingFang SC, Arial" fill="#dc2626">低吸试错点</text>
<circle cx="691" cy="216" r="6" fill="#ef4444" stroke="none"/>
<text x="651" y="201" font-size="13" font-family="PingFang SC, Arial" fill="#dc2626">突破确认点</text>
<rect x="850" y="135" width="280" height="450" rx="16" fill="#ffffff" stroke="#d0c7bc"/>
<text x="875" y="178" font-size="24" font-family="PingFang SC, Arial" fill="#111827">点评</text>
<text x="875" y="220" font-size="18" font-family="PingFang SC, Arial" fill="#374151">启动阳线有，但箱体/量能不足</text>
<text x="875" y="262" font-size="18" font-family="PingFang SC, Arial" fill="#4b5563">• 突破小平台</text>
<text x="875" y="296" font-size="18" font-family="PingFang SC, Arial" fill="#4b5563">• 贴近短均线</text>
<text x="875" y="330" font-size="18" font-family="PingFang SC, Arial" fill="#4b5563">• 风险：缺量能验证</text>
<text x="875" y="655" font-size="18" font-family="PingFang SC, Arial" fill="#7c746b">教学示意图：重绘，不复刻原截图</text>
</svg>
