<svg xmlns="http://www.w3.org/2000/svg" width="1200" height="720" viewBox="0 0 1200 720">
<rect width="1200" height="720" fill="#fbfaf7"/>
<rect x="70" y="135" width="750" height="450" rx="18" fill="#fffefb" stroke="#c9c2b8" stroke-width="2"/>
<text x="70" y="70" font-size="34" font-family="PingFang SC, Arial" fill="#1f2933">案例10｜立新能源 001258</text>
<text x="850" y="70" font-size="34" font-family="PingFang SC, Arial" fill="#0f8a4b">70/100  较标准</text>
<rect x="282" y="320" width="338" height="80" fill="none" stroke="#2563eb" stroke-width="3"/>
<text x="90" y="162" font-size="13" font-family="PingFang SC, Arial" fill="#4b5563" font-weight="bold">均线</text>
<line x1="125" y1="159" x2="145" y2="159" stroke="#f59e0b" stroke-width="3"/>
<text x="149" y="162" font-size="12" font-family="PingFang SC, Arial" fill="#f59e0b">MA5</text>
<line x1="183" y1="159" x2="203" y2="159" stroke="#8b5cf6" stroke-width="3" stroke-dasharray="6,4"/>
<text x="207" y="162" font-size="12" font-family="PingFang SC, Arial" fill="#8b5cf6">MA10</text>
<line x1="241" y1="159" x2="261" y2="159" stroke="#10b981" stroke-width="3"/>
<text x="265" y="162" font-size="12" font-family="PingFang SC, Arial" fill="#10b981">MA20</text>
<line x1="299" y1="159" x2="319" y2="159" stroke="#f97316" stroke-width="3"/>
<text x="323" y="162" font-size="12" font-family="PingFang SC, Arial" fill="#f97316">MA30</text>
<line x1="357" y1="159" x2="377" y2="159" stroke="#ef4444" stroke-width="3"/>
<text x="381" y="162" font-size="12" font-family="PingFang SC, Arial" fill="#ef4444">MA60</text>
<polyline points="115,440 163,437 211,431 259,421 307,412 355,403 403,386 451,365 499,353 547,335 595,322 643,310 691,298 739,273" fill="none" stroke="#f59e0b" stroke-width="2.5"/>
<polyline points="115,473 163,464 211,453 259,440 307,431 355,422 403,411 451,397 499,387 547,373 595,363 643,348 691,332 739,313" fill="none" stroke="#8b5cf6" stroke-width="2.5" stroke-dasharray="8,4"/>
<polyline points="115,510 163,506 211,499 259,491 307,483 355,473 403,463 451,451 499,440 547,428 595,418 643,406 691,393 739,377" fill="none" stroke="#10b981" stroke-width="2.5"/>
<polyline points="115,498 163,498 211,497 259,495 307,493 355,490 403,486 451,481 499,475 547,468 595,462 643,453 691,444 739,432" fill="none" stroke="#f97316" stroke-width="2.5"/>
<polyline points="115,460 163,460 211,461 259,460 307,460 355,459 403,459 451,457 499,455 547,453 595,451 643,449 691,446 739,442" fill="none" stroke="#ef4444" stroke-width="2.5"/>
<polyline points="115,441 163,441 211,442 259,441 307,442 355,441 403,441 451,440 499,439 547,438 595,437 643,437 691,435 739,433" fill="none" stroke="#6b7280" stroke-width="2.5"/>
<line x1="110" y1="228" x2="780" y2="228" stroke="#7c3aed" stroke-width="2" stroke-dasharray="8,4"/>
<text x="630" y="218" font-size="15" font-family="PingFang SC, Arial" fill="#6d28d9">前高压力线</text>
<rect x="292" y="292" width="270" height="200" fill="none" stroke="#2563eb" stroke-width="3"/>
<text x="292" y="280" font-size="15" font-family="PingFang SC, Arial" fill="#1d4ed8">高位窄箱体</text>
<line x1="115" y1="424" x2="115" y2="447" stroke="#2f9e67" stroke-width="3"/>
<rect x="104" y="426" width="22" height="19" fill="#2f9e67"/>
<line x1="163" y1="420" x2="163" y2="441" stroke="#d74b42" stroke-width="3"/>
<rect x="152" y="423" width="22" height="14" fill="#d74b42"/>
<line x1="211" y1="410" x2="211" y2="439" stroke="#2f9e67" stroke-width="3"/>
<rect x="200" y="413" width="22" height="24" fill="#2f9e67"/>
<line x1="259" y1="380" x2="259" y2="416" stroke="#2f9e67" stroke-width="3"/>
<rect x="248" y="384" width="22" height="30" fill="#2f9e67"/>
<line x1="307" y1="375" x2="307" y2="404" stroke="#d74b42" stroke-width="3"/>
<rect x="296" y="379" width="22" height="19" fill="#d74b42"/>
<line x1="355" y1="381" x2="355" y2="400" stroke="#2f9e67" stroke-width="3"/>
<rect x="344" y="384" width="22" height="14" fill="#2f9e67"/>
<line x1="403" y1="344" x2="403" y2="387" stroke="#2f9e67" stroke-width="3"/>
<rect x="392" y="349" width="22" height="35" fill="#2f9e67"/>
<line x1="451" y1="297" x2="451" y2="358" stroke="#2f9e67" stroke-width="3"/>
<rect x="440" y="309" width="22" height="42" fill="#2f9e67"/>
<line x1="499" y1="295" x2="499" y2="341" stroke="#d74b42" stroke-width="3"/>
<rect x="488" y="302" width="22" height="26" fill="#d74b42"/>
<line x1="547" y1="304" x2="547" y2="330" stroke="#2f9e67" stroke-width="3"/>
<rect x="536" y="307" width="22" height="21" fill="#2f9e67"/>
<line x1="595" y1="300" x2="595" y2="323" stroke="#d74b42" stroke-width="3"/>
<rect x="584" y="303" width="22" height="15" fill="#d74b42"/>
<line x1="643" y1="283" x2="643" y2="322" stroke="#2f9e67" stroke-width="3"/>
<rect x="632" y="288" width="22" height="31" fill="#2f9e67"/>
<line x1="691" y1="246" x2="691" y2="292" stroke="#2f9e67" stroke-width="3"/>
<rect x="680" y="251" width="22" height="38" fill="#2f9e67"/>
<line x1="739" y1="196" x2="739" y2="257" stroke="#2f9e67" stroke-width="3"/>
<rect x="728" y="203" width="22" height="50" fill="#2f9e67"/>
<rect x="103" y="540" width="24" height="20" fill="#6abf88"/>
<rect x="151" y="545" width="24" height="15" fill="#d74b42"/>
<rect x="199" y="535" width="24" height="25" fill="#6abf88"/>
<rect x="247" y="530" width="24" height="30" fill="#6abf88"/>
<rect x="295" y="540" width="24" height="20" fill="#d74b42"/>
<rect x="343" y="545" width="24" height="15" fill="#6abf88"/>
<rect x="391" y="525" width="24" height="35" fill="#6abf88"/>
<rect x="439" y="520" width="24" height="40" fill="#6abf88"/>
<rect x="487" y="535" width="24" height="25" fill="#d74b42"/>
<rect x="535" y="540" width="24" height="20" fill="#6abf88"/>
<rect x="583" y="545" width="24" height="15" fill="#d74b42"/>
<rect x="631" y="530" width="24" height="30" fill="#6abf88"/>
<rect x="679" y="525" width="24" height="35" fill="#6abf88"/>
<rect x="727" y="515" width="24" height="45" fill="#6abf88"/>
<text x="90" y="578" font-size="15" font-family="PingFang SC, Arial" fill="#6b7280">量能区</text>
<rect x="850" y="135" width="280" height="450" rx="16" fill="#ffffff" stroke="#d0c7bc"/>
<text x="875" y="178" font-size="24" font-family="PingFang SC, Arial" fill="#111827">点评</text>
<text x="875" y="220" font-size="18" font-family="PingFang SC, Arial" fill="#374151">横盘蓄势后放量挑战前高</text>
<text x="875" y="262" font-size="18" font-family="PingFang SC, Arial" fill="#4b5563">• 底部抬高</text>
<text x="875" y="296" font-size="18" font-family="PingFang SC, Arial" fill="#4b5563">• 均线向上发散</text>
<text x="875" y="330" font-size="18" font-family="PingFang SC, Arial" fill="#4b5563">• 风险：压力位验证不足</text>
<text x="875" y="655" font-size="18" font-family="PingFang SC, Arial" fill="#7c746b">教学示意图：重绘，不复刻原截图</text>
</svg>
