<svg xmlns="http://www.w3.org/2000/svg" width="1200" height="720" viewBox="0 0 1200 720">
<rect width="1200" height="720" fill="#fbfaf7"/>
<rect x="70" y="135" width="750" height="450" rx="18" fill="#fffefb" stroke="#c9c2b8" stroke-width="2"/>
<text x="70" y="70" font-size="34" font-family="PingFang SC, Arial" fill="#1f2933">案例07｜惠丰钻石 920725</text>
<text x="850" y="70" font-size="34" font-family="PingFang SC, Arial" fill="#b7791f">60/100  勉强</text>
<rect x="282" y="290" width="338" height="105" fill="none" stroke="#2563eb" stroke-width="3"/>
<text x="90" y="162" font-size="13" font-family="PingFang SC, Arial" fill="#4b5563" font-weight="bold">均线</text>
<line x1="125" y1="159" x2="145" y2="159" stroke="#f59e0b" stroke-width="3"/>
<text x="149" y="162" font-size="12" font-family="PingFang SC, Arial" fill="#f59e0b">MA5</text>
<line x1="183" y1="159" x2="203" y2="159" stroke="#8b5cf6" stroke-width="3" stroke-dasharray="6,4"/>
<text x="207" y="162" font-size="12" font-family="PingFang SC, Arial" fill="#8b5cf6">MA10</text>
<line x1="241" y1="159" x2="261" y2="159" stroke="#10b981" stroke-width="3"/>
<text x="265" y="162" font-size="12" font-family="PingFang SC, Arial" fill="#10b981">MA20</text>
<line x1="299" y1="159" x2="319" y2="159" stroke="#f97316" stroke-width="3"/>
<text x="323" y="162" font-size="12" font-family="PingFang SC, Arial" fill="#f97316">MA30</text>
<line x1="357" y1="159" x2="377" y2="159" stroke="#ef4444" stroke-width="3"/>
<text x="381" y="162" font-size="12" font-family="PingFang SC, Arial" fill="#ef4444">MA60</text>
<line x1="415" y1="159" x2="435" y2="159" stroke="#6b7280" stroke-width="3"/>
<text x="439" y="162" font-size="12" font-family="PingFang SC, Arial" fill="#6b7280">MA120</text>
<polyline points="115,492 163,487 211,482 259,474 307,467 355,455 403,441 451,424 499,404 547,389 595,371 643,348 691,322 739,291" fill="none" stroke="#f59e0b" stroke-width="2.5"/>
<polyline points="115,492 163,489 211,486 259,483 307,480 355,473 403,464 451,453 499,439 547,428 595,413 643,395 691,373 739,348" fill="none" stroke="#8b5cf6" stroke-width="2.5" stroke-dasharray="8,4"/>
<polyline points="115,501 163,498 211,496 259,494 307,490 355,487 403,482 451,476 499,468 547,460 595,452 643,442 691,430 739,415" fill="none" stroke="#10b981" stroke-width="2.5"/>
<polyline points="115,512 163,510 211,507 259,505 307,501 355,497 403,492 451,487 499,482 547,477 595,471 643,464 691,455 739,445" fill="none" stroke="#f97316" stroke-width="2.5"/>
<polyline points="115,482 163,484 211,485 259,487 307,487 355,487 403,487 451,487 499,485 547,485 595,483 643,481 691,478 739,475" fill="none" stroke="#ef4444" stroke-width="2.5"/>
<polyline points="115,397 163,398 211,400 259,401 307,403 355,404 403,405 451,405 499,406 547,406 595,406 643,405 691,405 739,403" fill="none" stroke="#6b7280" stroke-width="2.5"/>
<rect x="289" y="345" width="276" height="118" fill="none" stroke="#2563eb" stroke-width="3"/>
<text x="289" y="333" font-size="15" font-family="PingFang SC, Arial" fill="#1d4ed8">高位窄箱体</text>
<line x1="110" y1="430" x2="780" y2="430" stroke="#7c3aed" stroke-width="2" stroke-dasharray="8,4"/>
<text x="630" y="420" font-size="15" font-family="PingFang SC, Arial" fill="#6d28d9">前高压力线</text>
<line x1="115" y1="477" x2="115" y2="488" stroke="#20b86e" stroke-width="3"/>
<rect x="104" y="478" width="22" height="9" fill="#20b86e"/>
<line x1="163" y1="477" x2="163" y2="488" stroke="#e83c3c" stroke-width="3"/>
<rect x="152" y="478" width="22" height="9" fill="#e83c3c"/>
<line x1="211" y1="469" x2="211" y2="479" stroke="#e83c3c" stroke-width="3"/>
<rect x="200" y="470" width="22" height="9" fill="#e83c3c"/>
<line x1="259" y1="455" x2="259" y2="471" stroke="#e83c3c" stroke-width="3"/>
<rect x="248" y="457" width="22" height="13" fill="#e83c3c"/>
<line x1="307" y1="442" x2="307" y2="458" stroke="#e83c3c" stroke-width="3"/>
<rect x="296" y="444" width="22" height="13" fill="#e83c3c"/>
<line x1="355" y1="424" x2="355" y2="446" stroke="#e83c3c" stroke-width="3"/>
<rect x="344" y="426" width="22" height="18" fill="#e83c3c"/>
<line x1="403" y1="403" x2="403" y2="430" stroke="#e83c3c" stroke-width="3"/>
<rect x="392" y="408" width="22" height="18" fill="#e83c3c"/>
<line x1="451" y1="382" x2="451" y2="410" stroke="#e83c3c" stroke-width="3"/>
<rect x="440" y="385" width="22" height="23" fill="#e83c3c"/>
<line x1="499" y1="354" x2="499" y2="389" stroke="#e83c3c" stroke-width="3"/>
<rect x="488" y="358" width="22" height="28" fill="#e83c3c"/>
<line x1="547" y1="350" x2="547" y2="375" stroke="#20b86e" stroke-width="3"/>
<rect x="536" y="354" width="22" height="14" fill="#20b86e"/>
<line x1="595" y1="330" x2="595" y2="372" stroke="#e83c3c" stroke-width="3"/>
<rect x="584" y="335" width="22" height="34" fill="#e83c3c"/>
<line x1="643" y1="291" x2="643" y2="340" stroke="#e83c3c" stroke-width="3"/>
<rect x="632" y="297" width="22" height="39" fill="#e83c3c"/>
<line x1="691" y1="246" x2="691" y2="302" stroke="#e83c3c" stroke-width="3"/>
<rect x="680" y="253" width="22" height="45" fill="#e83c3c"/>
<line x1="739" y1="194" x2="739" y2="259" stroke="#e83c3c" stroke-width="3"/>
<rect x="728" y="202" width="22" height="52" fill="#e83c3c"/>
<rect x="103" y="550" width="24" height="10" fill="#20b86e"/>
<rect x="151" y="550" width="24" height="10" fill="#e83c3c"/>
<rect x="199" y="550" width="24" height="10" fill="#e83c3c"/>
<rect x="247" y="545" width="24" height="15" fill="#e83c3c"/>
<rect x="295" y="545" width="24" height="15" fill="#e83c3c"/>
<rect x="343" y="540" width="24" height="20" fill="#e83c3c"/>
<rect x="391" y="540" width="24" height="20" fill="#e83c3c"/>
<rect x="439" y="535" width="24" height="25" fill="#e83c3c"/>
<rect x="487" y="530" width="24" height="30" fill="#e83c3c"/>
<rect x="535" y="545" width="24" height="15" fill="#20b86e"/>
<rect x="583" y="525" width="24" height="35" fill="#e83c3c"/>
<rect x="631" y="520" width="24" height="40" fill="#e83c3c"/>
<rect x="679" y="515" width="24" height="45" fill="#e83c3c"/>
<rect x="727" y="510" width="24" height="50" fill="#e83c3c"/>
<text x="90" y="578" font-size="15" font-family="PingFang SC, Arial" fill="#6b7280">量能区</text>
<rect x="850" y="135" width="280" height="450" rx="16" fill="#ffffff" stroke="#d0c7bc"/>
<text x="875" y="178" font-size="24" font-family="PingFang SC, Arial" fill="#111827">点评</text>
<text x="875" y="220" font-size="18" font-family="PingFang SC, Arial" fill="#374151">历史买点不错，当下已偏高</text>
<text x="875" y="262" font-size="18" font-family="PingFang SC, Arial" fill="#4b5563">• 早期启动有效</text>
<text x="875" y="296" font-size="18" font-family="PingFang SC, Arial" fill="#4b5563">• 中段短暂横盘</text>
<text x="875" y="330" font-size="18" font-family="PingFang SC, Arial" fill="#4b5563">• 风险：涨幅巨大</text>
<text x="875" y="655" font-size="18" font-family="PingFang SC, Arial" fill="#7c746b">教学示意图：重绘，不复刻原截图</text>
</svg>
