<svg xmlns="http://www.w3.org/2000/svg" width="1200" height="720" viewBox="0 0 1200 720">
<rect width="1200" height="720" fill="#fbfaf7"/>
<rect x="70" y="135" width="750" height="450" rx="18" fill="#fffefb" stroke="#c9c2b8" stroke-width="2"/>
<text x="70" y="70" font-size="34" font-family="PingFang SC, Arial" fill="#1f2933">案例02｜煤炭ETF国泰 515220</text>
<text x="850" y="70" font-size="34" font-family="PingFang SC, Arial" fill="#9b2c2c">10/100  不合格</text>
<text x="90" y="162" font-size="13" font-family="PingFang SC, Arial" fill="#4b5563" font-weight="bold">均线</text>
<line x1="125" y1="159" x2="145" y2="159" stroke="#f59e0b" stroke-width="3"/>
<text x="149" y="162" font-size="12" font-family="PingFang SC, Arial" fill="#f59e0b">MA5</text>
<line x1="183" y1="159" x2="203" y2="159" stroke="#8b5cf6" stroke-width="3" stroke-dasharray="6,4"/>
<text x="207" y="162" font-size="12" font-family="PingFang SC, Arial" fill="#8b5cf6">MA10</text>
<line x1="241" y1="159" x2="261" y2="159" stroke="#10b981" stroke-width="3"/>
<text x="265" y="162" font-size="12" font-family="PingFang SC, Arial" fill="#10b981">MA20</text>
<line x1="299" y1="159" x2="319" y2="159" stroke="#f97316" stroke-width="3"/>
<text x="323" y="162" font-size="12" font-family="PingFang SC, Arial" fill="#f97316">MA30</text>
<line x1="357" y1="159" x2="377" y2="159" stroke="#ef4444" stroke-width="3"/>
<text x="381" y="162" font-size="12" font-family="PingFang SC, Arial" fill="#ef4444">MA60</text>
<line x1="415" y1="159" x2="435" y2="159" stroke="#6b7280" stroke-width="3"/>
<text x="439" y="162" font-size="12" font-family="PingFang SC, Arial" fill="#6b7280">MA120</text>
<line x1="110" y1="275" x2="780" y2="275" stroke="#7c3aed" stroke-width="2" stroke-dasharray="8,4"/>
<text x="630" y="265" font-size="15" font-family="PingFang SC, Arial" fill="#6d28d9">前高压力线</text>
<rect x="292" y="322" width="270" height="156" fill="none" stroke="#2563eb" stroke-width="3"/>
<text x="292" y="312" font-size="15" font-family="PingFang SC, Arial" fill="#1d4ed8">高位窄箱体</text>
<polyline points="115,479 163,472 211,466 259,441 307,438 355,434 403,429 451,406 499,424 547,419 595,408 643,389 691,367 739,328" fill="none" stroke="#f59e0b" stroke-width="2.5"/>
<polyline points="115,482 163,483 211,481 259,466 307,461 355,456 403,450 451,436 499,432 547,429 595,421 643,409 691,387 739,376" fill="none" stroke="#8b5cf6" stroke-width="2.5" stroke-dasharray="8,4"/>
<polyline points="115,466 163,465 211,464 259,457 307,456 355,456 403,457 451,454 499,454 547,454 595,451 643,446 691,434 739,421" fill="none" stroke="#10b981" stroke-width="2.5"/>
<polyline points="115,440 163,445 211,451 259,451 307,453 355,454 403,455 451,453 499,453 547,453 595,451 643,446 691,439 739,430" fill="none" stroke="#f97316" stroke-width="2.5"/>
<polyline points="115,445 163,445 211,445 259,443 307,443 355,443 403,442 451,441 499,439 547,438 595,435 643,432 691,427 739,422" fill="none" stroke="#ef4444" stroke-width="2.5"/>
<polyline points="115,497 163,496 211,495 259,493 307,491 355,489 403,489 451,486 499,485 547,483 595,481 643,479 691,476 739,472" fill="none" stroke="#6b7280" stroke-width="2.5"/>
<line x1="115" y1="439" x2="115" y2="483" stroke="#d74b42" stroke-width="3"/>
<rect x="104" y="456" width="22" height="10" fill="#d74b42"/>
<line x1="163" y1="452" x2="163" y2="505" stroke="#2f9e67" stroke-width="3"/>
<rect x="152" y="469" width="22" height="19" fill="#2f9e67"/>
<line x1="211" y1="435" x2="211" y2="487" stroke="#d74b42" stroke-width="3"/>
<rect x="200" y="452" width="22" height="18" fill="#d74b42"/>
<line x1="259" y1="300" x2="259" y2="427" stroke="#2f9e67" stroke-width="3"/>
<rect x="248" y="337" width="22" height="63" fill="#2f9e67"/>
<line x1="307" y1="416" x2="307" y2="456" stroke="#d74b42" stroke-width="3"/>
<rect x="296" y="426" width="22" height="19" fill="#d74b42"/>
<line x1="355" y1="436" x2="355" y2="473" stroke="#2f9e67" stroke-width="3"/>
<rect x="344" y="446" width="22" height="17" fill="#2f9e67"/>
<line x1="403" y1="437" x2="403" y2="472" stroke="#2f9e67" stroke-width="3"/>
<rect x="392" y="447" width="22" height="15" fill="#2f9e67"/>
<line x1="451" y1="327" x2="451" y2="367" stroke="#d74b42" stroke-width="3"/>
<rect x="440" y="338" width="22" height="18" fill="#d74b42"/>
<line x1="499" y1="394" x2="499" y2="434" stroke="#d74b42" stroke-width="3"/>
<rect x="488" y="404" width="22" height="20" fill="#d74b42"/>
<line x1="547" y1="413" x2="547" y2="449" stroke="#2f9e67" stroke-width="3"/>
<rect x="536" y="423" width="22" height="16" fill="#2f9e67"/>
<line x1="595" y1="361" x2="595" y2="401" stroke="#d74b42" stroke-width="3"/>
<rect x="584" y="382" width="22" height="6" fill="#d74b42"/>
<line x1="643" y1="326" x2="643" y2="367" stroke="#d74b42" stroke-width="3"/>
<rect x="632" y="347" width="22" height="7" fill="#d74b42"/>
<line x1="691" y1="220" x2="691" y2="322" stroke="#2f9e67" stroke-width="3"/>
<rect x="680" y="246" width="22" height="57" fill="#2f9e67"/>
<line x1="739" y1="209" x2="739" y2="283" stroke="#2f9e67" stroke-width="3"/>
<rect x="728" y="228" width="22" height="45" fill="#2f9e67"/>
<rect x="103" y="548" width="24" height="12" fill="#d74b42"/>
<rect x="151" y="546" width="24" height="14" fill="#6abf88"/>
<rect x="199" y="544" width="24" height="16" fill="#d74b42"/>
<rect x="247" y="502" width="24" height="58" fill="#6abf88"/>
<rect x="295" y="542" width="24" height="18" fill="#d74b42"/>
<rect x="343" y="544" width="24" height="16" fill="#6abf88"/>
<rect x="391" y="542" width="24" height="18" fill="#6abf88"/>
<rect x="439" y="546" width="24" height="14" fill="#d74b42"/>
<rect x="487" y="546" width="24" height="14" fill="#d74b42"/>
<rect x="535" y="544" width="24" height="16" fill="#6abf88"/>
<rect x="583" y="530" width="24" height="30" fill="#d74b42"/>
<rect x="631" y="542" width="24" height="18" fill="#d74b42"/>
<rect x="679" y="505" width="24" height="55" fill="#6abf88"/>
<rect x="727" y="525" width="24" height="35" fill="#6abf88"/>
<text x="90" y="578" font-size="15" font-family="PingFang SC, Arial" fill="#6b7280">量能区</text>
<circle cx="451" cy="367" r="6" fill="none" stroke="#ef4444" stroke-width="2"/>
<text x="461" y="382" font-size="13" font-family="PingFang SC, Arial" fill="#dc2626">低吸试错点</text>
<circle cx="691" cy="220" r="6" fill="#ef4444" stroke="none"/>
<text x="651" y="205" font-size="13" font-family="PingFang SC, Arial" fill="#dc2626">突破确认点</text>
<rect x="850" y="135" width="280" height="450" rx="16" fill="#ffffff" stroke="#d0c7bc"/>
<text x="875" y="178" font-size="24" font-family="PingFang SC, Arial" fill="#111827">点评</text>
<text x="875" y="220" font-size="18" font-family="PingFang SC, Arial" fill="#374151">只见行情数据，K线被遮挡</text>
<text x="875" y="262" font-size="18" font-family="PingFang SC, Arial" fill="#4b5563">• 结构信息缺失</text>
<text x="875" y="296" font-size="18" font-family="PingFang SC, Arial" fill="#4b5563">• 无法确认窄箱体</text>
<text x="875" y="330" font-size="18" font-family="PingFang SC, Arial" fill="#4b5563">• 仅可作无效样本</text>
<text x="875" y="655" font-size="18" font-family="PingFang SC, Arial" fill="#7c746b">教学示意图：重绘，不复刻原截图</text>
</svg>
