<svg xmlns="http://www.w3.org/2000/svg" width="1200" height="720" viewBox="0 0 1200 720">
<rect width="1200" height="720" fill="#fbfaf7"/>
<rect x="70" y="135" width="750" height="450" rx="18" fill="#fffefb" stroke="#c9c2b8" stroke-width="2"/>
<text x="70" y="70" font-size="34" font-family="PingFang SC, Arial" fill="#1f2933">案例04｜演示K线</text>
<text x="850" y="70" font-size="34" font-family="PingFang SC, Arial" fill="#b7791f">55/100  勉强</text>
<rect x="282" y="290" width="338" height="105" fill="none" stroke="#2563eb" stroke-width="3"/>
<text x="90" y="162" font-size="13" font-family="PingFang SC, Arial" fill="#4b5563" font-weight="bold">均线</text>
<line x1="125" y1="159" x2="145" y2="159" stroke="#f59e0b" stroke-width="3"/>
<text x="149" y="162" font-size="12" font-family="PingFang SC, Arial" fill="#f59e0b">MA5</text>
<line x1="183" y1="159" x2="203" y2="159" stroke="#8b5cf6" stroke-width="3" stroke-dasharray="6,4"/>
<text x="207" y="162" font-size="12" font-family="PingFang SC, Arial" fill="#8b5cf6">MA10</text>
<line x1="241" y1="159" x2="261" y2="159" stroke="#10b981" stroke-width="3"/>
<text x="265" y="162" font-size="12" font-family="PingFang SC, Arial" fill="#10b981">MA20</text>
<line x1="299" y1="159" x2="319" y2="159" stroke="#f97316" stroke-width="3"/>
<text x="323" y="162" font-size="12" font-family="PingFang SC, Arial" fill="#f97316">MA30</text>
<line x1="357" y1="159" x2="377" y2="159" stroke="#ef4444" stroke-width="3"/>
<text x="381" y="162" font-size="12" font-family="PingFang SC, Arial" fill="#ef4444">MA60</text>
<polyline points="115,501 163,501 211,498 259,496 307,489 355,475 403,464 451,452 499,431 547,406 595,390 643,363 691,330 739,294" fill="none" stroke="#f59e0b" stroke-width="2.5"/>
<polyline points="115,502 163,502 211,500 259,498 307,494 355,488 403,483 451,475 499,463 547,448 595,432 643,413 691,391 739,362" fill="none" stroke="#8b5cf6" stroke-width="2.5" stroke-dasharray="8,4"/>
<polyline points="115,498 163,499 211,497 259,498 307,499 355,497 403,493 451,490 499,484 547,475 595,467 643,458 691,446 739,430" fill="none" stroke="#10b981" stroke-width="2.5"/>
<polyline points="115,487 163,489 211,490 259,492 307,492 355,491 403,490 451,488 499,485 547,481 595,476 643,470 691,462 739,453" fill="none" stroke="#f97316" stroke-width="2.5"/>
<polyline points="115,471 163,473 211,473 259,474 307,475 355,475 403,475 451,474 499,473 547,470 595,469 643,466 691,462 739,458" fill="none" stroke="#ef4444" stroke-width="2.5"/>
<polyline points="115,432 163,433 211,433 259,434 307,435 355,435 403,435 451,435 499,435 547,435 595,435 643,435 691,433 739,432" fill="none" stroke="#6b7280" stroke-width="2.5"/>
<line x1="110" y1="230" x2="780" y2="230" stroke="#7c3aed" stroke-width="2" stroke-dasharray="8,4"/>
<text x="630" y="220" font-size="15" font-family="PingFang SC, Arial" fill="#6d28d9">前高压力线</text>
<rect x="292" y="298" width="270" height="191" fill="none" stroke="#2563eb" stroke-width="3"/>
<text x="292" y="286" font-size="15" font-family="PingFang SC, Arial" fill="#1d4ed8">高位窄箱体</text>
<line x1="115" y1="492" x2="115" y2="513" stroke="#d74b42" stroke-width="3"/>
<rect x="104" y="495" width="22" height="14" fill="#d74b42"/>
<line x1="163" y1="498" x2="163" y2="510" stroke="#2f9e67" stroke-width="3"/>
<rect x="152" y="500" width="22" height="9" fill="#2f9e67"/>
<line x1="211" y1="475" x2="211" y2="504" stroke="#2f9e67" stroke-width="3"/>
<rect x="200" y="481" width="22" height="19" fill="#2f9e67"/>
<line x1="259" y1="472" x2="259" y2="498" stroke="#d74b42" stroke-width="3"/>
<rect x="248" y="476" width="22" height="15" fill="#d74b42"/>
<line x1="307" y1="463" x2="307" y2="493" stroke="#2f9e67" stroke-width="3"/>
<rect x="296" y="467" width="22" height="24" fill="#2f9e67"/>
<line x1="355" y1="433" x2="355" y2="470" stroke="#2f9e67" stroke-width="3"/>
<rect x="344" y="437" width="22" height="31" fill="#2f9e67"/>
<line x1="403" y1="433" x2="403" y2="448" stroke="#d74b42" stroke-width="3"/>
<rect x="392" y="435" width="22" height="10" fill="#d74b42"/>
<line x1="451" y1="416" x2="451" y2="448" stroke="#2f9e67" stroke-width="3"/>
<rect x="440" y="420" width="22" height="25" fill="#2f9e67"/>
<line x1="499" y1="379" x2="499" y2="424" stroke="#2f9e67" stroke-width="3"/>
<rect x="488" y="384" width="22" height="37" fill="#2f9e67"/>
<line x1="547" y1="336" x2="547" y2="389" stroke="#2f9e67" stroke-width="3"/>
<rect x="536" y="343" width="22" height="42" fill="#2f9e67"/>
<line x1="595" y1="333" x2="595" y2="364" stroke="#d74b42" stroke-width="3"/>
<rect x="584" y="337" width="22" height="21" fill="#d74b42"/>
<line x1="643" y1="303" x2="643" y2="364" stroke="#2f9e67" stroke-width="3"/>
<rect x="632" y="310" width="22" height="50" fill="#2f9e67"/>
<line x1="691" y1="247" x2="691" y2="317" stroke="#2f9e67" stroke-width="3"/>
<rect x="680" y="256" width="22" height="56" fill="#2f9e67"/>
<line x1="739" y1="197" x2="739" y2="262" stroke="#2f9e67" stroke-width="3"/>
<rect x="728" y="205" width="22" height="52" fill="#2f9e67"/>
<rect x="103" y="545" width="24" height="15" fill="#d74b42"/>
<rect x="151" y="550" width="24" height="10" fill="#6abf88"/>
<rect x="199" y="540" width="24" height="20" fill="#6abf88"/>
<rect x="247" y="545" width="24" height="15" fill="#d74b42"/>
<rect x="295" y="535" width="24" height="25" fill="#6abf88"/>
<rect x="343" y="530" width="24" height="30" fill="#6abf88"/>
<rect x="391" y="550" width="24" height="10" fill="#d74b42"/>
<rect x="439" y="535" width="24" height="25" fill="#6abf88"/>
<rect x="487" y="525" width="24" height="35" fill="#6abf88"/>
<rect x="535" y="520" width="24" height="40" fill="#6abf88"/>
<rect x="583" y="540" width="24" height="20" fill="#d74b42"/>
<rect x="631" y="515" width="24" height="45" fill="#6abf88"/>
<rect x="679" y="510" width="24" height="50" fill="#6abf88"/>
<rect x="727" y="515" width="24" height="45" fill="#6abf88"/>
<text x="90" y="578" font-size="15" font-family="PingFang SC, Arial" fill="#6b7280">量能区</text>
<rect x="850" y="135" width="280" height="450" rx="16" fill="#ffffff" stroke="#d0c7bc"/>
<text x="875" y="178" font-size="24" font-family="PingFang SC, Arial" fill="#111827">点评</text>
<text x="875" y="220" font-size="18" font-family="PingFang SC, Arial" fill="#374151">趋势漂亮，但当下偏加速末端</text>
<text x="875" y="262" font-size="18" font-family="PingFang SC, Arial" fill="#4b5563">• 底部启动清晰</text>
<text x="875" y="296" font-size="18" font-family="PingFang SC, Arial" fill="#4b5563">• 缺高位窄箱体</text>
<text x="875" y="330" font-size="18" font-family="PingFang SC, Arial" fill="#4b5563">• 风险：远离均线</text>
<text x="875" y="655" font-size="18" font-family="PingFang SC, Arial" fill="#7c746b">教学示意图：重绘，不复刻原截图</text>
</svg>
