<svg xmlns="http://www.w3.org/2000/svg" width="1200" height="720" viewBox="0 0 1200 720">
<rect width="1200" height="720" fill="#fbfaf7"/>
<rect x="70" y="135" width="750" height="450" rx="18" fill="#fffefb" stroke="#c9c2b8" stroke-width="2"/>
<text x="70" y="70" font-size="34" font-family="PingFang SC, Arial" fill="#1f2933">案例13｜600995</text>
<text x="850" y="70" font-size="34" font-family="PingFang SC, Arial" fill="#0f8a4b">78/100  较标准</text>
<rect x="282" y="418" width="338" height="78" fill="none" stroke="#2563eb" stroke-width="3"/>
<text x="90" y="162" font-size="13" font-family="PingFang SC, Arial" fill="#4b5563" font-weight="bold">均线</text>
<line x1="125" y1="159" x2="145" y2="159" stroke="#f59e0b" stroke-width="3"/>
<text x="149" y="162" font-size="12" font-family="PingFang SC, Arial" fill="#f59e0b">MA5</text>
<line x1="183" y1="159" x2="203" y2="159" stroke="#8b5cf6" stroke-width="3" stroke-dasharray="6,4"/>
<text x="207" y="162" font-size="12" font-family="PingFang SC, Arial" fill="#8b5cf6">MA10</text>
<line x1="241" y1="159" x2="261" y2="159" stroke="#10b981" stroke-width="3"/>
<text x="265" y="162" font-size="12" font-family="PingFang SC, Arial" fill="#10b981">MA20</text>
<line x1="299" y1="159" x2="319" y2="159" stroke="#f97316" stroke-width="3"/>
<text x="323" y="162" font-size="12" font-family="PingFang SC, Arial" fill="#f97316">MA30</text>
<line x1="357" y1="159" x2="377" y2="159" stroke="#ef4444" stroke-width="3"/>
<text x="381" y="162" font-size="12" font-family="PingFang SC, Arial" fill="#ef4444">MA60</text>
<line x1="415" y1="159" x2="435" y2="159" stroke="#6b7280" stroke-width="3"/>
<text x="439" y="162" font-size="12" font-family="PingFang SC, Arial" fill="#6b7280">MA120</text>
<polyline points="115,487 163,490 211,485 259,464 307,448 355,428 403,401 451,386 499,376 547,359 595,355 643,343 691,311 739,294" fill="none" stroke="#f59e0b" stroke-width="2.5"/>
<polyline points="115,483 163,484 211,481 259,471 307,467 355,457 403,446 451,436 499,420 547,404 595,391 643,372 691,348 739,335" fill="none" stroke="#8b5cf6" stroke-width="2.5" stroke-dasharray="8,4"/>
<polyline points="115,438 163,446 211,451 259,453 307,457 355,457 403,456 451,455 499,450 547,442 595,437 643,428 691,415 739,402" fill="none" stroke="#10b981" stroke-width="2.5"/>
<polyline points="115,362 163,372 211,381 259,388 307,396 355,402 403,409 451,415 499,419 547,420 595,423 643,422 691,416 739,414" fill="none" stroke="#f97316" stroke-width="2.5"/>
<polyline points="115,331 163,334 211,335 259,335 307,336 355,336 403,336 451,337 499,336 547,335 595,336 643,335 691,332 739,331" fill="none" stroke="#ef4444" stroke-width="2.5"/>
<polyline points="115,374 163,376 211,377 259,378 307,380 355,380 403,381 451,381 499,381 547,380 595,380 643,378 691,376 739,374" fill="none" stroke="#6b7280" stroke-width="2.5"/>
<line x1="110" y1="260" x2="780" y2="260" stroke="#7c3aed" stroke-width="2" stroke-dasharray="8,4"/>
<text x="630" y="250" font-size="15" font-family="PingFang SC, Arial" fill="#6d28d9">前高压力线</text>
<rect x="292" y="366" width="270" height="94" fill="none" stroke="#2563eb" stroke-width="3"/>
<text x="292" y="354" font-size="15" font-family="PingFang SC, Arial" fill="#1d4ed8">高位窄箱体</text>
<line x1="115" y1="474" x2="115" y2="494" stroke="#2f9e67" stroke-width="3"/>
<rect x="104" y="476" width="22" height="17" fill="#2f9e67"/>
<line x1="163" y1="467" x2="163" y2="498" stroke="#d74b42" stroke-width="3"/>
<rect x="152" y="469" width="22" height="25" fill="#d74b42"/>
<line x1="211" y1="451" x2="211" y2="500" stroke="#2f9e67" stroke-width="3"/>
<rect x="200" y="461" width="22" height="33" fill="#2f9e67"/>
<line x1="259" y1="384" x2="259" y2="469" stroke="#2f9e67" stroke-width="3"/>
<rect x="248" y="395" width="22" height="68" fill="#2f9e67"/>
<line x1="307" y1="382" x2="307" y2="420" stroke="#d74b42" stroke-width="3"/>
<rect x="296" y="387" width="22" height="26" fill="#d74b42"/>
<line x1="355" y1="373" x2="355" y2="416" stroke="#2f9e67" stroke-width="3"/>
<rect x="344" y="378" width="22" height="35" fill="#2f9e67"/>
<line x1="403" y1="359" x2="403" y2="381" stroke="#2f9e67" stroke-width="3"/>
<rect x="392" y="362" width="22" height="17" fill="#2f9e67"/>
<line x1="451" y1="349" x2="451" y2="387" stroke="#d74b42" stroke-width="3"/>
<rect x="440" y="354" width="22" height="26" fill="#d74b42"/>
<line x1="499" y1="340" x2="499" y2="383" stroke="#2f9e67" stroke-width="3"/>
<rect x="488" y="345" width="22" height="35" fill="#2f9e67"/>
<line x1="547" y1="326" x2="547" y2="348" stroke="#2f9e67" stroke-width="3"/>
<rect x="536" y="329" width="22" height="17" fill="#2f9e67"/>
<line x1="595" y1="308" x2="595" y2="372" stroke="#d74b42" stroke-width="3"/>
<rect x="584" y="316" width="22" height="43" fill="#d74b42"/>
<line x1="643" y1="290" x2="643" y2="367" stroke="#2f9e67" stroke-width="3"/>
<rect x="632" y="299" width="22" height="63" fill="#2f9e67"/>
<line x1="691" y1="207" x2="691" y2="309" stroke="#2f9e67" stroke-width="3"/>
<rect x="680" y="219" width="22" height="83" fill="#2f9e67"/>
<line x1="739" y1="196" x2="739" y2="274" stroke="#d74b42" stroke-width="3"/>
<rect x="728" y="202" width="22" height="63" fill="#d74b42"/>
<rect x="103" y="550" width="24" height="10" fill="#6abf88"/>
<rect x="151" y="545" width="24" height="15" fill="#d74b42"/>
<rect x="199" y="540" width="24" height="20" fill="#6abf88"/>
<rect x="247" y="520" width="24" height="40" fill="#6abf88"/>
<rect x="295" y="545" width="24" height="15" fill="#d74b42"/>
<rect x="343" y="540" width="24" height="20" fill="#6abf88"/>
<rect x="391" y="550" width="24" height="10" fill="#6abf88"/>
<rect x="439" y="545" width="24" height="15" fill="#d74b42"/>
<rect x="487" y="540" width="24" height="20" fill="#6abf88"/>
<rect x="535" y="550" width="24" height="10" fill="#6abf88"/>
<rect x="583" y="535" width="24" height="25" fill="#d74b42"/>
<rect x="631" y="525" width="24" height="35" fill="#6abf88"/>
<rect x="679" y="515" width="24" height="45" fill="#6abf88"/>
<rect x="727" y="525" width="24" height="35" fill="#d74b42"/>
<text x="90" y="578" font-size="15" font-family="PingFang SC, Arial" fill="#6b7280">量能区</text>
<rect x="850" y="135" width="280" height="450" rx="16" fill="#ffffff" stroke="#d0c7bc"/>
<text x="875" y="178" font-size="24" font-family="PingFang SC, Arial" fill="#111827">点评</text>
<text x="875" y="220" font-size="18" font-family="PingFang SC, Arial" fill="#374151">均线粘合后放量突破</text>
<text x="875" y="262" font-size="18" font-family="PingFang SC, Arial" fill="#4b5563">• 窄幅整理</text>
<text x="875" y="296" font-size="18" font-family="PingFang SC, Arial" fill="#4b5563">• 均线粘合</text>
<text x="875" y="330" font-size="18" font-family="PingFang SC, Arial" fill="#4b5563">• 风险：需确认箱体天数</text>
<text x="875" y="655" font-size="18" font-family="PingFang SC, Arial" fill="#7c746b">教学示意图：重绘，不复刻原截图</text>
</svg>
