<svg xmlns="http://www.w3.org/2000/svg" width="1200" height="720" viewBox="0 0 1200 720">
<rect width="1200" height="720" fill="#fbfaf7"/>
<rect x="70" y="135" width="750" height="450" rx="18" fill="#fffefb" stroke="#c9c2b8" stroke-width="2"/>
<text x="70" y="70" font-size="34" font-family="PingFang SC, Arial" fill="#1f2933">案例48｜昊志机电 300503</text>
<text x="850" y="70" font-size="34" font-family="PingFang SC, Arial" fill="#0f8a4b">85/100  标准</text>
<text x="620" y="200" font-size="18" font-family="PingFang SC, Arial" fill="#6d28d9">前高/压力线</text>
<rect x="282" y="324" width="386" height="84" fill="none" stroke="#2563eb" stroke-width="3"/>
<text x="90" y="162" font-size="13" font-family="PingFang SC, Arial" fill="#4b5563" font-weight="bold">均线</text>
<line x1="125" y1="159" x2="145" y2="159" stroke="#f59e0b" stroke-width="3"/>
<text x="149" y="162" font-size="12" font-family="PingFang SC, Arial" fill="#f59e0b">MA5</text>
<line x1="183" y1="159" x2="203" y2="159" stroke="#8b5cf6" stroke-width="3" stroke-dasharray="6,4"/>
<text x="207" y="162" font-size="12" font-family="PingFang SC, Arial" fill="#8b5cf6">MA10</text>
<line x1="241" y1="159" x2="261" y2="159" stroke="#10b981" stroke-width="3"/>
<text x="265" y="162" font-size="12" font-family="PingFang SC, Arial" fill="#10b981">MA20</text>
<line x1="299" y1="159" x2="319" y2="159" stroke="#f97316" stroke-width="3"/>
<text x="323" y="162" font-size="12" font-family="PingFang SC, Arial" fill="#f97316">MA30</text>
<line x1="357" y1="159" x2="377" y2="159" stroke="#ef4444" stroke-width="3"/>
<text x="381" y="162" font-size="12" font-family="PingFang SC, Arial" fill="#ef4444">MA60</text>
<line x1="415" y1="159" x2="435" y2="159" stroke="#6b7280" stroke-width="3"/>
<text x="439" y="162" font-size="12" font-family="PingFang SC, Arial" fill="#6b7280">MA120</text>
<line x1="110" y1="261" x2="780" y2="261" stroke="#7c3aed" stroke-width="2" stroke-dasharray="8,4"/>
<text x="630" y="251" font-size="15" font-family="PingFang SC, Arial" fill="#6d28d9">前高压力线</text>
<rect x="292" y="314" width="270" height="150" fill="none" stroke="#2563eb" stroke-width="3"/>
<text x="292" y="304" font-size="15" font-family="PingFang SC, Arial" fill="#1d4ed8">高位窄箱体</text>
<polyline points="115,452 163,459 211,459 259,428 307,423 355,420 403,415 451,393 499,411 547,407 595,397 643,381 691,361 739,325" fill="none" stroke="#f59e0b" stroke-width="2.5"/>
<polyline points="115,435 163,435 211,438 259,428 307,431 355,436 403,437 451,426 499,420 547,415 595,408 643,398 691,377 739,368" fill="none" stroke="#8b5cf6" stroke-width="2.5" stroke-dasharray="8,4"/>
<polyline points="115,437 163,441 211,445 259,441 307,441 355,441 403,440 451,434 499,430 547,427 595,422 643,416 691,408 739,398" fill="none" stroke="#10b981" stroke-width="2.5"/>
<polyline points="115,415 163,420 211,424 259,424 307,425 355,427 403,428 451,427 499,428 547,428 595,428 643,427 691,422 739,416" fill="none" stroke="#f97316" stroke-width="2.5"/>
<polyline points="115,422 163,422 211,421 259,419 307,418 355,417 403,416 451,414 499,413 547,412 595,411 643,410 691,407 739,404" fill="none" stroke="#ef4444" stroke-width="2.5"/>
<polyline points="115,505 163,505 211,504 259,501 307,500 355,499 403,497 451,496 499,495 547,493 595,492 643,489 691,487 739,484" fill="none" stroke="#6b7280" stroke-width="2.5"/>
<line x1="115" y1="436" x2="115" y2="488" stroke="#2f9e67" stroke-width="3"/>
<rect x="104" y="452" width="22" height="19" fill="#2f9e67"/>
<line x1="163" y1="426" x2="163" y2="472" stroke="#d74b42" stroke-width="3"/>
<rect x="152" y="443" width="22" height="13" fill="#d74b42"/>
<line x1="211" y1="437" x2="211" y2="488" stroke="#2f9e67" stroke-width="3"/>
<rect x="200" y="454" width="22" height="17" fill="#2f9e67"/>
<line x1="259" y1="286" x2="259" y2="411" stroke="#2f9e67" stroke-width="3"/>
<rect x="248" y="321" width="22" height="63" fill="#2f9e67"/>
<line x1="307" y1="413" x2="307" y2="441" stroke="#d74b42" stroke-width="3"/>
<rect x="296" y="424" width="22" height="7" fill="#d74b42"/>
<line x1="355" y1="428" x2="355" y2="459" stroke="#2f9e67" stroke-width="3"/>
<rect x="344" y="438" width="22" height="12" fill="#2f9e67"/>
<line x1="403" y1="423" x2="403" y2="456" stroke="#2f9e67" stroke-width="3"/>
<rect x="392" y="433" width="22" height="13" fill="#2f9e67"/>
<line x1="451" y1="319" x2="451" y2="352" stroke="#d74b42" stroke-width="3"/>
<rect x="440" y="330" width="22" height="12" fill="#d74b42"/>
<line x1="499" y1="398" x2="499" y2="426" stroke="#2f9e67" stroke-width="3"/>
<rect x="488" y="408" width="22" height="7" fill="#2f9e67"/>
<line x1="547" y1="388" x2="547" y2="428" stroke="#d74b42" stroke-width="3"/>
<rect x="536" y="398" width="22" height="20" fill="#d74b42"/>
<line x1="595" y1="364" x2="595" y2="424" stroke="#2f9e67" stroke-width="3"/>
<rect x="584" y="385" width="22" height="26" fill="#2f9e67"/>
<line x1="643" y1="325" x2="643" y2="364" stroke="#d74b42" stroke-width="3"/>
<rect x="632" y="346" width="22" height="5" fill="#d74b42"/>
<line x1="691" y1="219" x2="691" y2="320" stroke="#2f9e67" stroke-width="3"/>
<rect x="680" y="245" width="22" height="56" fill="#2f9e67"/>
<line x1="739" y1="208" x2="739" y2="268" stroke="#2f9e67" stroke-width="3"/>
<rect x="728" y="227" width="22" height="31" fill="#2f9e67"/>
<rect x="103" y="548" width="24" height="12" fill="#6abf88"/>
<rect x="151" y="546" width="24" height="14" fill="#d74b42"/>
<rect x="199" y="544" width="24" height="16" fill="#6abf88"/>
<rect x="247" y="502" width="24" height="58" fill="#6abf88"/>
<rect x="295" y="542" width="24" height="18" fill="#d74b42"/>
<rect x="343" y="544" width="24" height="16" fill="#6abf88"/>
<rect x="391" y="542" width="24" height="18" fill="#6abf88"/>
<rect x="439" y="546" width="24" height="14" fill="#d74b42"/>
<rect x="487" y="546" width="24" height="14" fill="#6abf88"/>
<rect x="535" y="544" width="24" height="16" fill="#d74b42"/>
<rect x="583" y="530" width="24" height="30" fill="#6abf88"/>
<rect x="631" y="542" width="24" height="18" fill="#d74b42"/>
<rect x="679" y="505" width="24" height="55" fill="#6abf88"/>
<rect x="727" y="525" width="24" height="35" fill="#6abf88"/>
<text x="90" y="578" font-size="15" font-family="PingFang SC, Arial" fill="#6b7280">量能区</text>
<circle cx="451" cy="352" r="6" fill="none" stroke="#ef4444" stroke-width="2"/>
<text x="461" y="367" font-size="13" font-family="PingFang SC, Arial" fill="#dc2626">低吸试错点</text>
<circle cx="691" cy="219" r="6" fill="#ef4444" stroke="none"/>
<text x="651" y="204" font-size="13" font-family="PingFang SC, Arial" fill="#dc2626">突破确认点</text>
<rect x="850" y="135" width="280" height="450" rx="16" fill="#ffffff" stroke="#d0c7bc"/>
<text x="875" y="178" font-size="24" font-family="PingFang SC, Arial" fill="#111827">点评</text>
<text x="875" y="220" font-size="18" font-family="PingFang SC, Arial" fill="#374151">同昊志机电标准样本</text>
<text x="875" y="258" font-size="18" font-family="PingFang SC, Arial" fill="#374151">低吸试错：70-71</text>
<text x="875" y="296" font-size="18" font-family="PingFang SC, Arial" fill="#374151">突破确认：过74-75</text>
<text x="875" y="655" font-size="18" font-family="PingFang SC, Arial" fill="#7c746b">教学重绘图：不复刻原截图</text>
</svg>
