<svg xmlns="http://www.w3.org/2000/svg" width="1200" height="720" viewBox="0 0 1200 720">
<rect width="1200" height="720" fill="#fbfaf7"/>
<rect x="70" y="135" width="750" height="450" rx="18" fill="#fffefb" stroke="#c9c2b8" stroke-width="2"/>
<text x="70" y="70" font-size="34" font-family="PingFang SC, Arial" fill="#1f2933">案例13｜600995</text>
<text x="850" y="70" font-size="34" font-family="PingFang SC, Arial" fill="#0f8a4b">78/100  较标准</text>
<rect x="282" y="418" width="338" height="78" fill="none" stroke="#2563eb" stroke-width="3"/>
<text x="90" y="162" font-size="13" font-family="PingFang SC, Arial" fill="#4b5563" font-weight="bold">均线</text>
<line x1="125" y1="159" x2="145" y2="159" stroke="#f59e0b" stroke-width="3"/>
<text x="149" y="162" font-size="12" font-family="PingFang SC, Arial" fill="#f59e0b">MA5</text>
<line x1="183" y1="159" x2="203" y2="159" stroke="#8b5cf6" stroke-width="3" stroke-dasharray="6,4"/>
<text x="207" y="162" font-size="12" font-family="PingFang SC, Arial" fill="#8b5cf6">MA10</text>
<line x1="241" y1="159" x2="261" y2="159" stroke="#10b981" stroke-width="3"/>
<text x="265" y="162" font-size="12" font-family="PingFang SC, Arial" fill="#10b981">MA20</text>
<line x1="299" y1="159" x2="319" y2="159" stroke="#f97316" stroke-width="3"/>
<text x="323" y="162" font-size="12" font-family="PingFang SC, Arial" fill="#f97316">MA30</text>
<line x1="357" y1="159" x2="377" y2="159" stroke="#ef4444" stroke-width="3"/>
<text x="381" y="162" font-size="12" font-family="PingFang SC, Arial" fill="#ef4444">MA60</text>
<line x1="415" y1="159" x2="435" y2="159" stroke="#6b7280" stroke-width="3"/>
<text x="439" y="162" font-size="12" font-family="PingFang SC, Arial" fill="#6b7280">MA120</text>
<line x1="110" y1="269" x2="780" y2="269" stroke="#7c3aed" stroke-width="2" stroke-dasharray="8,4"/>
<text x="630" y="259" font-size="15" font-family="PingFang SC, Arial" fill="#6d28d9">前高压力线</text>
<rect x="292" y="337" width="270" height="128" fill="none" stroke="#2563eb" stroke-width="3"/>
<text x="292" y="327" font-size="15" font-family="PingFang SC, Arial" fill="#1d4ed8">高位窄箱体</text>
<polyline points="115,465 163,467 211,468 259,440 307,436 355,430 403,428 451,405 499,422 547,420 595,411 643,394 691,373 739,335" fill="none" stroke="#f59e0b" stroke-width="2.5"/>
<polyline points="115,456 163,459 211,461 259,450 307,449 355,448 403,448 451,436 499,431 547,428 595,421 643,411 691,389 739,379" fill="none" stroke="#8b5cf6" stroke-width="2.5" stroke-dasharray="8,4"/>
<polyline points="115,408 163,415 211,421 259,421 307,426 355,430 403,435 451,435 499,437 547,440 595,439 643,435 691,425 739,414" fill="none" stroke="#10b981" stroke-width="2.5"/>
<polyline points="115,394 163,397 211,400 259,398 307,400 355,401 403,403 451,403 499,405 547,410 595,412 643,414 691,410 739,407" fill="none" stroke="#f97316" stroke-width="2.5"/>
<polyline points="115,388 163,389 211,390 259,389 307,390 355,392 403,393 451,391 499,392 547,393 595,392 643,392 691,390 739,387" fill="none" stroke="#ef4444" stroke-width="2.5"/>
<polyline points="115,435 163,435 211,434 259,432 307,431 355,430 403,430 451,429 499,428 547,426 595,425 643,424 691,421 739,419" fill="none" stroke="#6b7280" stroke-width="2.5"/>
<line x1="115" y1="450" x2="115" y2="504" stroke="#2f9e67" stroke-width="3"/>
<rect x="104" y="467" width="22" height="19" fill="#2f9e67"/>
<line x1="163" y1="445" x2="163" y2="490" stroke="#2f9e67" stroke-width="3"/>
<rect x="152" y="463" width="22" height="10" fill="#2f9e67"/>
<line x1="211" y1="436" x2="211" y2="489" stroke="#d74b42" stroke-width="3"/>
<rect x="200" y="454" width="22" height="18" fill="#d74b42"/>
<line x1="259" y1="294" x2="259" y2="427" stroke="#2f9e67" stroke-width="3"/>
<rect x="248" y="332" width="22" height="67" fill="#2f9e67"/>
<line x1="307" y1="427" x2="307" y2="456" stroke="#d74b42" stroke-width="3"/>
<rect x="296" y="438" width="22" height="7" fill="#d74b42"/>
<line x1="355" y1="416" x2="355" y2="452" stroke="#d74b42" stroke-width="3"/>
<rect x="344" y="427" width="22" height="14" fill="#d74b42"/>
<line x1="403" y1="420" x2="403" y2="460" stroke="#d74b42" stroke-width="3"/>
<rect x="392" y="430" width="22" height="19" fill="#d74b42"/>
<line x1="451" y1="342" x2="451" y2="382" stroke="#2f9e67" stroke-width="3"/>
<rect x="440" y="354" width="22" height="16" fill="#2f9e67"/>
<line x1="499" y1="397" x2="499" y2="434" stroke="#d74b42" stroke-width="3"/>
<rect x="488" y="408" width="22" height="15" fill="#d74b42"/>
<line x1="547" y1="414" x2="547" y2="445" stroke="#d74b42" stroke-width="3"/>
<rect x="536" y="425" width="22" height="10" fill="#d74b42"/>
<line x1="595" y1="376" x2="595" y2="445" stroke="#2f9e67" stroke-width="3"/>
<rect x="584" y="398" width="22" height="35" fill="#2f9e67"/>
<line x1="643" y1="333" x2="643" y2="375" stroke="#d74b42" stroke-width="3"/>
<rect x="632" y="355" width="22" height="6" fill="#d74b42"/>
<line x1="691" y1="221" x2="691" y2="328" stroke="#2f9e67" stroke-width="3"/>
<rect x="680" y="249" width="22" height="59" fill="#2f9e67"/>
<line x1="739" y1="210" x2="739" y2="271" stroke="#2f9e67" stroke-width="3"/>
<rect x="728" y="230" width="22" height="31" fill="#2f9e67"/>
<rect x="103" y="548" width="24" height="12" fill="#6abf88"/>
<rect x="151" y="546" width="24" height="14" fill="#6abf88"/>
<rect x="199" y="544" width="24" height="16" fill="#d74b42"/>
<rect x="247" y="502" width="24" height="58" fill="#6abf88"/>
<rect x="295" y="542" width="24" height="18" fill="#d74b42"/>
<rect x="343" y="544" width="24" height="16" fill="#d74b42"/>
<rect x="391" y="542" width="24" height="18" fill="#d74b42"/>
<rect x="439" y="546" width="24" height="14" fill="#6abf88"/>
<rect x="487" y="546" width="24" height="14" fill="#d74b42"/>
<rect x="535" y="544" width="24" height="16" fill="#d74b42"/>
<rect x="583" y="530" width="24" height="30" fill="#6abf88"/>
<rect x="631" y="542" width="24" height="18" fill="#d74b42"/>
<rect x="679" y="505" width="24" height="55" fill="#6abf88"/>
<rect x="727" y="525" width="24" height="35" fill="#6abf88"/>
<text x="90" y="578" font-size="15" font-family="PingFang SC, Arial" fill="#6b7280">量能区</text>
<circle cx="451" cy="382" r="6" fill="none" stroke="#ef4444" stroke-width="2"/>
<text x="461" y="397" font-size="13" font-family="PingFang SC, Arial" fill="#dc2626">低吸试错点</text>
<circle cx="691" cy="221" r="6" fill="#ef4444" stroke="none"/>
<text x="651" y="206" font-size="13" font-family="PingFang SC, Arial" fill="#dc2626">突破确认点</text>
<rect x="850" y="135" width="280" height="450" rx="16" fill="#ffffff" stroke="#d0c7bc"/>
<text x="875" y="178" font-size="24" font-family="PingFang SC, Arial" fill="#111827">点评</text>
<text x="875" y="220" font-size="18" font-family="PingFang SC, Arial" fill="#374151">均线粘合后放量突破</text>
<text x="875" y="262" font-size="18" font-family="PingFang SC, Arial" fill="#4b5563">• 窄幅整理</text>
<text x="875" y="296" font-size="18" font-family="PingFang SC, Arial" fill="#4b5563">• 均线粘合</text>
<text x="875" y="330" font-size="18" font-family="PingFang SC, Arial" fill="#4b5563">• 风险：需确认箱体天数</text>
<text x="875" y="655" font-size="18" font-family="PingFang SC, Arial" fill="#7c746b">教学示意图：重绘，不复刻原截图</text>
</svg>
