<svg xmlns="http://www.w3.org/2000/svg" width="1200" height="720" viewBox="0 0 1200 720">
<rect width="1200" height="720" fill="#fbfaf7"/>
<rect x="70" y="135" width="750" height="450" rx="18" fill="#fffefb" stroke="#c9c2b8" stroke-width="2"/>
<text x="70" y="70" font-size="34" font-family="PingFang SC, Arial" fill="#1f2933">案例04｜演示K线</text>
<text x="850" y="70" font-size="34" font-family="PingFang SC, Arial" fill="#b7791f">55/100  勉强</text>
<rect x="282" y="290" width="338" height="105" fill="none" stroke="#2563eb" stroke-width="3"/>
<text x="90" y="162" font-size="13" font-family="PingFang SC, Arial" fill="#4b5563" font-weight="bold">均线</text>
<line x1="125" y1="159" x2="145" y2="159" stroke="#f59e0b" stroke-width="3"/>
<text x="149" y="162" font-size="12" font-family="PingFang SC, Arial" fill="#f59e0b">MA5</text>
<line x1="183" y1="159" x2="203" y2="159" stroke="#8b5cf6" stroke-width="3" stroke-dasharray="6,4"/>
<text x="207" y="162" font-size="12" font-family="PingFang SC, Arial" fill="#8b5cf6">MA10</text>
<line x1="241" y1="159" x2="261" y2="159" stroke="#10b981" stroke-width="3"/>
<text x="265" y="162" font-size="12" font-family="PingFang SC, Arial" fill="#10b981">MA20</text>
<line x1="299" y1="159" x2="319" y2="159" stroke="#f97316" stroke-width="3"/>
<text x="323" y="162" font-size="12" font-family="PingFang SC, Arial" fill="#f97316">MA30</text>
<line x1="357" y1="159" x2="377" y2="159" stroke="#ef4444" stroke-width="3"/>
<text x="381" y="162" font-size="12" font-family="PingFang SC, Arial" fill="#ef4444">MA60</text>
<line x1="415" y1="159" x2="435" y2="159" stroke="#6b7280" stroke-width="3"/>
<text x="439" y="162" font-size="12" font-family="PingFang SC, Arial" fill="#6b7280">MA120</text>
<line x1="110" y1="262" x2="780" y2="262" stroke="#7c3aed" stroke-width="2" stroke-dasharray="8,4"/>
<text x="630" y="252" font-size="15" font-family="PingFang SC, Arial" fill="#6d28d9">前高压力线</text>
<rect x="292" y="327" width="270" height="124" fill="none" stroke="#2563eb" stroke-width="3"/>
<text x="292" y="317" font-size="15" font-family="PingFang SC, Arial" fill="#1d4ed8">高位窄箱体</text>
<polyline points="115,453 163,449 211,450 259,426 307,421 355,418 403,415 451,394 499,412 547,408 595,396 643,380 691,360 739,322" fill="none" stroke="#f59e0b" stroke-width="2.5"/>
<polyline points="115,476 163,469 211,463 259,445 307,440 355,435 403,432 451,422 499,419 547,415 595,408 643,397 691,377 739,367" fill="none" stroke="#8b5cf6" stroke-width="2.5" stroke-dasharray="8,4"/>
<polyline points="115,500 163,495 211,491 259,481 307,477 355,474 403,470 451,461 499,455 547,449 595,441 643,434 691,420 739,406" fill="none" stroke="#10b981" stroke-width="2.5"/>
<polyline points="115,497 163,497 211,497 259,491 307,491 355,489 403,488 451,482 499,478 547,474 595,469 643,462 691,453 739,443" fill="none" stroke="#f97316" stroke-width="2.5"/>
<polyline points="115,505 163,504 211,504 259,500 307,498 355,497 403,495 451,492 499,491 547,488 595,485 643,482 691,477 739,471" fill="none" stroke="#ef4444" stroke-width="2.5"/>
<polyline points="115,504 163,504 211,505 259,504 307,504 355,505 403,505 451,505 499,505 547,506 595,506 643,505 691,504 739,502" fill="none" stroke="#6b7280" stroke-width="2.5"/>
<line x1="115" y1="416" x2="115" y2="471" stroke="#d74b42" stroke-width="3"/>
<rect x="104" y="432" width="22" height="22" fill="#d74b42"/>
<line x1="163" y1="431" x2="163" y2="477" stroke="#2f9e67" stroke-width="3"/>
<rect x="152" y="447" width="22" height="14" fill="#2f9e67"/>
<line x1="211" y1="422" x2="211" y2="466" stroke="#d74b42" stroke-width="3"/>
<rect x="200" y="439" width="22" height="11" fill="#d74b42"/>
<line x1="259" y1="287" x2="259" y2="409" stroke="#2f9e67" stroke-width="3"/>
<rect x="248" y="321" width="22" height="62" fill="#2f9e67"/>
<line x1="307" y1="406" x2="307" y2="444" stroke="#d74b42" stroke-width="3"/>
<rect x="296" y="415" width="22" height="19" fill="#d74b42"/>
<line x1="355" y1="409" x2="355" y2="446" stroke="#d74b42" stroke-width="3"/>
<rect x="344" y="419" width="22" height="17" fill="#d74b42"/>
<line x1="403" y1="416" x2="403" y2="443" stroke="#d74b42" stroke-width="3"/>
<rect x="392" y="426" width="22" height="8" fill="#d74b42"/>
<line x1="451" y1="332" x2="451" y2="358" stroke="#2f9e67" stroke-width="3"/>
<rect x="440" y="342" width="22" height="6" fill="#2f9e67"/>
<line x1="499" y1="390" x2="499" y2="423" stroke="#d74b42" stroke-width="3"/>
<rect x="488" y="400" width="22" height="14" fill="#d74b42"/>
<line x1="547" y1="384" x2="547" y2="423" stroke="#d74b42" stroke-width="3"/>
<rect x="536" y="394" width="22" height="20" fill="#d74b42"/>
<line x1="595" y1="361" x2="595" y2="415" stroke="#2f9e67" stroke-width="3"/>
<rect x="584" y="381" width="22" height="21" fill="#2f9e67"/>
<line x1="643" y1="327" x2="643" y2="390" stroke="#2f9e67" stroke-width="3"/>
<rect x="632" y="348" width="22" height="29" fill="#2f9e67"/>
<line x1="691" y1="219" x2="691" y2="317" stroke="#2f9e67" stroke-width="3"/>
<rect x="680" y="245" width="22" height="54" fill="#2f9e67"/>
<line x1="739" y1="207" x2="739" y2="266" stroke="#2f9e67" stroke-width="3"/>
<rect x="728" y="226" width="22" height="31" fill="#2f9e67"/>
<rect x="103" y="548" width="24" height="12" fill="#d74b42"/>
<rect x="151" y="546" width="24" height="14" fill="#6abf88"/>
<rect x="199" y="544" width="24" height="16" fill="#d74b42"/>
<rect x="247" y="502" width="24" height="58" fill="#6abf88"/>
<rect x="295" y="542" width="24" height="18" fill="#d74b42"/>
<rect x="343" y="544" width="24" height="16" fill="#d74b42"/>
<rect x="391" y="542" width="24" height="18" fill="#d74b42"/>
<rect x="439" y="546" width="24" height="14" fill="#6abf88"/>
<rect x="487" y="546" width="24" height="14" fill="#d74b42"/>
<rect x="535" y="544" width="24" height="16" fill="#d74b42"/>
<rect x="583" y="530" width="24" height="30" fill="#6abf88"/>
<rect x="631" y="542" width="24" height="18" fill="#6abf88"/>
<rect x="679" y="505" width="24" height="55" fill="#6abf88"/>
<rect x="727" y="525" width="24" height="35" fill="#6abf88"/>
<text x="90" y="578" font-size="15" font-family="PingFang SC, Arial" fill="#6b7280">量能区</text>
<circle cx="451" cy="358" r="6" fill="none" stroke="#ef4444" stroke-width="2"/>
<text x="461" y="373" font-size="13" font-family="PingFang SC, Arial" fill="#dc2626">低吸试错点</text>
<circle cx="691" cy="219" r="6" fill="#ef4444" stroke="none"/>
<text x="651" y="204" font-size="13" font-family="PingFang SC, Arial" fill="#dc2626">突破确认点</text>
<rect x="850" y="135" width="280" height="450" rx="16" fill="#ffffff" stroke="#d0c7bc"/>
<text x="875" y="178" font-size="24" font-family="PingFang SC, Arial" fill="#111827">点评</text>
<text x="875" y="220" font-size="18" font-family="PingFang SC, Arial" fill="#374151">趋势漂亮，但当下偏加速末端</text>
<text x="875" y="262" font-size="18" font-family="PingFang SC, Arial" fill="#4b5563">• 底部启动清晰</text>
<text x="875" y="296" font-size="18" font-family="PingFang SC, Arial" fill="#4b5563">• 缺高位窄箱体</text>
<text x="875" y="330" font-size="18" font-family="PingFang SC, Arial" fill="#4b5563">• 风险：远离均线</text>
<text x="875" y="655" font-size="18" font-family="PingFang SC, Arial" fill="#7c746b">教学示意图：重绘，不复刻原截图</text>
</svg>
