<svg xmlns="http://www.w3.org/2000/svg" width="1200" height="720" viewBox="0 0 1200 720">
<rect width="1200" height="720" fill="#fbfaf7"/>
<rect x="70" y="135" width="750" height="450" rx="18" fill="#fffefb" stroke="#c9c2b8" stroke-width="2"/>
<text x="70" y="70" font-size="34" font-family="PingFang SC, Arial" fill="#1f2933">案例10｜立新能源 001258</text>
<text x="850" y="70" font-size="34" font-family="PingFang SC, Arial" fill="#0f8a4b">70/100  较标准</text>
<rect x="282" y="320" width="338" height="80" fill="none" stroke="#2563eb" stroke-width="3"/>
<text x="90" y="162" font-size="13" font-family="PingFang SC, Arial" fill="#4b5563" font-weight="bold">均线</text>
<line x1="125" y1="159" x2="145" y2="159" stroke="#f59e0b" stroke-width="3"/>
<text x="149" y="162" font-size="12" font-family="PingFang SC, Arial" fill="#f59e0b">MA5</text>
<line x1="183" y1="159" x2="203" y2="159" stroke="#8b5cf6" stroke-width="3" stroke-dasharray="6,4"/>
<text x="207" y="162" font-size="12" font-family="PingFang SC, Arial" fill="#8b5cf6">MA10</text>
<line x1="241" y1="159" x2="261" y2="159" stroke="#10b981" stroke-width="3"/>
<text x="265" y="162" font-size="12" font-family="PingFang SC, Arial" fill="#10b981">MA20</text>
<line x1="299" y1="159" x2="319" y2="159" stroke="#f97316" stroke-width="3"/>
<text x="323" y="162" font-size="12" font-family="PingFang SC, Arial" fill="#f97316">MA30</text>
<line x1="357" y1="159" x2="377" y2="159" stroke="#ef4444" stroke-width="3"/>
<text x="381" y="162" font-size="12" font-family="PingFang SC, Arial" fill="#ef4444">MA60</text>
<line x1="415" y1="159" x2="435" y2="159" stroke="#6b7280" stroke-width="3"/>
<text x="439" y="162" font-size="12" font-family="PingFang SC, Arial" fill="#6b7280">MA120</text>
<line x1="110" y1="269" x2="780" y2="269" stroke="#7c3aed" stroke-width="2" stroke-dasharray="8,4"/>
<text x="630" y="259" font-size="15" font-family="PingFang SC, Arial" fill="#6d28d9">前高压力线</text>
<rect x="292" y="315" width="270" height="166" fill="none" stroke="#2563eb" stroke-width="3"/>
<text x="292" y="305" font-size="15" font-family="PingFang SC, Arial" fill="#1d4ed8">高位窄箱体</text>
<polyline points="115,484 163,477 211,473 259,444 307,440 355,439 403,436 451,412 499,430 547,429 595,417 643,398 691,378 739,340" fill="none" stroke="#f59e0b" stroke-width="2.5"/>
<polyline points="115,488 163,484 211,484 259,469 307,466 355,462 403,457 451,442 499,437 547,434 595,428 643,418 691,395 739,385" fill="none" stroke="#8b5cf6" stroke-width="2.5" stroke-dasharray="8,4"/>
<polyline points="115,462 163,464 211,468 259,466 307,467 355,469 403,471 451,466 499,464 547,463 595,458 643,450 691,439 739,427" fill="none" stroke="#10b981" stroke-width="2.5"/>
<polyline points="115,450 163,449 211,449 259,445 307,447 355,449 403,451 451,449 499,450 547,451 595,450 643,448 691,443 739,438" fill="none" stroke="#f97316" stroke-width="2.5"/>
<polyline points="115,471 163,470 211,469 259,467 307,467 355,466 403,466 451,463 499,462 547,461 595,459 643,456 691,451 739,446" fill="none" stroke="#ef4444" stroke-width="2.5"/>
<polyline points="115,443 163,444 211,445 259,445 307,446 355,447 403,447 451,447 499,448 547,448 595,448 643,448 691,446 739,445" fill="none" stroke="#6b7280" stroke-width="2.5"/>
<line x1="115" y1="454" x2="115" y2="503" stroke="#2f9e67" stroke-width="3"/>
<rect x="104" y="472" width="22" height="12" fill="#2f9e67"/>
<line x1="163" y1="454" x2="163" y2="502" stroke="#2f9e67" stroke-width="3"/>
<rect x="152" y="472" width="22" height="11" fill="#2f9e67"/>
<line x1="211" y1="439" x2="211" y2="496" stroke="#d74b42" stroke-width="3"/>
<rect x="200" y="458" width="22" height="19" fill="#d74b42"/>
<line x1="259" y1="294" x2="259" y2="430" stroke="#2f9e67" stroke-width="3"/>
<rect x="248" y="333" width="22" height="68" fill="#2f9e67"/>
<line x1="307" y1="418" x2="307" y2="459" stroke="#d74b42" stroke-width="3"/>
<rect x="296" y="429" width="22" height="18" fill="#d74b42"/>
<line x1="355" y1="439" x2="355" y2="476" stroke="#d74b42" stroke-width="3"/>
<rect x="344" y="450" width="22" height="15" fill="#d74b42"/>
<line x1="403" y1="436" x2="403" y2="470" stroke="#d74b42" stroke-width="3"/>
<rect x="392" y="446" width="22" height="13" fill="#d74b42"/>
<line x1="451" y1="320" x2="451" y2="365" stroke="#d74b42" stroke-width="3"/>
<rect x="440" y="332" width="22" height="22" fill="#d74b42"/>
<line x1="499" y1="413" x2="499" y2="454" stroke="#2f9e67" stroke-width="3"/>
<rect x="488" y="424" width="22" height="18" fill="#2f9e67"/>
<line x1="547" y1="419" x2="547" y2="454" stroke="#d74b42" stroke-width="3"/>
<rect x="536" y="430" width="22" height="12" fill="#d74b42"/>
<line x1="595" y1="383" x2="595" y2="442" stroke="#2f9e67" stroke-width="3"/>
<rect x="584" y="405" width="22" height="24" fill="#2f9e67"/>
<line x1="643" y1="345" x2="643" y2="418" stroke="#2f9e67" stroke-width="3"/>
<rect x="632" y="367" width="22" height="37" fill="#2f9e67"/>
<line x1="691" y1="223" x2="691" y2="333" stroke="#2f9e67" stroke-width="3"/>
<rect x="680" y="252" width="22" height="61" fill="#2f9e67"/>
<line x1="739" y1="211" x2="739" y2="282" stroke="#2f9e67" stroke-width="3"/>
<rect x="728" y="231" width="22" height="41" fill="#2f9e67"/>
<rect x="103" y="548" width="24" height="12" fill="#6abf88"/>
<rect x="151" y="546" width="24" height="14" fill="#6abf88"/>
<rect x="199" y="544" width="24" height="16" fill="#d74b42"/>
<rect x="247" y="502" width="24" height="58" fill="#6abf88"/>
<rect x="295" y="542" width="24" height="18" fill="#d74b42"/>
<rect x="343" y="544" width="24" height="16" fill="#d74b42"/>
<rect x="391" y="542" width="24" height="18" fill="#d74b42"/>
<rect x="439" y="546" width="24" height="14" fill="#d74b42"/>
<rect x="487" y="546" width="24" height="14" fill="#6abf88"/>
<rect x="535" y="544" width="24" height="16" fill="#d74b42"/>
<rect x="583" y="530" width="24" height="30" fill="#6abf88"/>
<rect x="631" y="542" width="24" height="18" fill="#6abf88"/>
<rect x="679" y="505" width="24" height="55" fill="#6abf88"/>
<rect x="727" y="525" width="24" height="35" fill="#6abf88"/>
<text x="90" y="578" font-size="15" font-family="PingFang SC, Arial" fill="#6b7280">量能区</text>
<circle cx="451" cy="365" r="6" fill="none" stroke="#ef4444" stroke-width="2"/>
<text x="461" y="380" font-size="13" font-family="PingFang SC, Arial" fill="#dc2626">低吸试错点</text>
<circle cx="691" cy="223" r="6" fill="#ef4444" stroke="none"/>
<text x="651" y="208" font-size="13" font-family="PingFang SC, Arial" fill="#dc2626">突破确认点</text>
<rect x="850" y="135" width="280" height="450" rx="16" fill="#ffffff" stroke="#d0c7bc"/>
<text x="875" y="178" font-size="24" font-family="PingFang SC, Arial" fill="#111827">点评</text>
<text x="875" y="220" font-size="18" font-family="PingFang SC, Arial" fill="#374151">横盘蓄势后放量挑战前高</text>
<text x="875" y="262" font-size="18" font-family="PingFang SC, Arial" fill="#4b5563">• 底部抬高</text>
<text x="875" y="296" font-size="18" font-family="PingFang SC, Arial" fill="#4b5563">• 均线向上发散</text>
<text x="875" y="330" font-size="18" font-family="PingFang SC, Arial" fill="#4b5563">• 风险：压力位验证不足</text>
<text x="875" y="655" font-size="18" font-family="PingFang SC, Arial" fill="#7c746b">教学示意图：重绘，不复刻原截图</text>
</svg>
