<svg xmlns="http://www.w3.org/2000/svg" width="1200" height="720" viewBox="0 0 1200 720">
<rect width="1200" height="720" fill="#fbfaf7"/>
<rect x="70" y="135" width="750" height="450" rx="18" fill="#fffefb" stroke="#c9c2b8" stroke-width="2"/>
<text x="70" y="70" font-size="34" font-family="PingFang SC, Arial" fill="#1f2933">案例34｜疑似浙江个股</text>
<text x="850" y="70" font-size="34" font-family="PingFang SC, Arial" fill="#0f8a4b">78/100  较标准</text>
<rect x="282" y="338" width="386" height="84" fill="none" stroke="#2563eb" stroke-width="3"/>
<text x="90" y="162" font-size="13" font-family="PingFang SC, Arial" fill="#4b5563" font-weight="bold">均线</text>
<line x1="125" y1="159" x2="145" y2="159" stroke="#f59e0b" stroke-width="3"/>
<text x="149" y="162" font-size="12" font-family="PingFang SC, Arial" fill="#f59e0b">MA5</text>
<line x1="183" y1="159" x2="203" y2="159" stroke="#8b5cf6" stroke-width="3" stroke-dasharray="6,4"/>
<text x="207" y="162" font-size="12" font-family="PingFang SC, Arial" fill="#8b5cf6">MA10</text>
<line x1="241" y1="159" x2="261" y2="159" stroke="#10b981" stroke-width="3"/>
<text x="265" y="162" font-size="12" font-family="PingFang SC, Arial" fill="#10b981">MA20</text>
<line x1="299" y1="159" x2="319" y2="159" stroke="#f97316" stroke-width="3"/>
<text x="323" y="162" font-size="12" font-family="PingFang SC, Arial" fill="#f97316">MA30</text>
<line x1="357" y1="159" x2="377" y2="159" stroke="#ef4444" stroke-width="3"/>
<text x="381" y="162" font-size="12" font-family="PingFang SC, Arial" fill="#ef4444">MA60</text>
<line x1="415" y1="159" x2="435" y2="159" stroke="#6b7280" stroke-width="3"/>
<text x="439" y="162" font-size="12" font-family="PingFang SC, Arial" fill="#6b7280">MA120</text>
<line x1="110" y1="274" x2="780" y2="274" stroke="#7c3aed" stroke-width="2" stroke-dasharray="8,4"/>
<text x="630" y="264" font-size="15" font-family="PingFang SC, Arial" fill="#6d28d9">前高压力线</text>
<rect x="292" y="332" width="270" height="163" fill="none" stroke="#2563eb" stroke-width="3"/>
<text x="292" y="322" font-size="15" font-family="PingFang SC, Arial" fill="#1d4ed8">高位窄箱体</text>
<polyline points="115,479 163,482 211,483 259,456 307,450 355,445 403,440 451,416 499,435 547,431 595,419 643,399 691,379 739,337" fill="none" stroke="#f59e0b" stroke-width="2.5"/>
<polyline points="115,499 163,495 211,491 259,471 307,465 355,462 403,461 451,449 499,446 547,440 595,432 643,419 691,397 739,386" fill="none" stroke="#8b5cf6" stroke-width="2.5" stroke-dasharray="8,4"/>
<polyline points="115,483 163,485 211,488 259,483 307,485 355,485 403,485 451,479 499,477 547,473 595,465 643,457 691,444 739,428" fill="none" stroke="#10b981" stroke-width="2.5"/>
<polyline points="115,488 163,486 211,485 259,481 307,479 355,477 403,475 451,471 499,469 547,467 595,465 643,463 691,457 739,451" fill="none" stroke="#f97316" stroke-width="2.5"/>
<polyline points="115,493 163,493 211,494 259,493 307,492 355,491 403,491 451,489 499,488 547,488 595,486 643,484 691,480 739,475" fill="none" stroke="#ef4444" stroke-width="2.5"/>
<polyline points="115,459 163,460 211,461 259,460 307,461 355,462 403,462 451,462 499,463 547,463 595,462 643,462 691,461 739,459" fill="none" stroke="#6b7280" stroke-width="2.5"/>
<line x1="115" y1="448" x2="115" y2="503" stroke="#d74b42" stroke-width="3"/>
<rect x="104" y="465" width="22" height="21" fill="#d74b42"/>
<line x1="163" y1="452" x2="163" y2="503" stroke="#d74b42" stroke-width="3"/>
<rect x="152" y="469" width="22" height="17" fill="#d74b42"/>
<line x1="211" y1="438" x2="211" y2="496" stroke="#d74b42" stroke-width="3"/>
<rect x="200" y="456" width="22" height="23" fill="#d74b42"/>
<line x1="259" y1="299" x2="259" y2="433" stroke="#2f9e67" stroke-width="3"/>
<rect x="248" y="337" width="22" height="67" fill="#2f9e67"/>
<line x1="307" y1="451" x2="307" y2="478" stroke="#2f9e67" stroke-width="3"/>
<rect x="296" y="461" width="22" height="6" fill="#2f9e67"/>
<line x1="355" y1="452" x2="355" y2="490" stroke="#2f9e67" stroke-width="3"/>
<rect x="344" y="462" width="22" height="17" fill="#2f9e67"/>
<line x1="403" y1="430" x2="403" y2="470" stroke="#d74b42" stroke-width="3"/>
<rect x="392" y="441" width="22" height="18" fill="#d74b42"/>
<line x1="451" y1="337" x2="451" y2="369" stroke="#d74b42" stroke-width="3"/>
<rect x="440" y="347" width="22" height="10" fill="#d74b42"/>
<line x1="499" y1="426" x2="499" y2="462" stroke="#2f9e67" stroke-width="3"/>
<rect x="488" y="437" width="22" height="15" fill="#2f9e67"/>
<line x1="547" y1="427" x2="547" y2="458" stroke="#2f9e67" stroke-width="3"/>
<rect x="536" y="438" width="22" height="10" fill="#2f9e67"/>
<line x1="595" y1="379" x2="595" y2="440" stroke="#2f9e67" stroke-width="3"/>
<rect x="584" y="401" width="22" height="25" fill="#2f9e67"/>
<line x1="643" y1="342" x2="643" y2="405" stroke="#2f9e67" stroke-width="3"/>
<rect x="632" y="364" width="22" height="27" fill="#2f9e67"/>
<line x1="691" y1="223" x2="691" y2="331" stroke="#2f9e67" stroke-width="3"/>
<rect x="680" y="251" width="22" height="60" fill="#2f9e67"/>
<line x1="739" y1="210" x2="739" y2="277" stroke="#2f9e67" stroke-width="3"/>
<rect x="728" y="231" width="22" height="37" fill="#2f9e67"/>
<rect x="103" y="548" width="24" height="12" fill="#d74b42"/>
<rect x="151" y="546" width="24" height="14" fill="#d74b42"/>
<rect x="199" y="544" width="24" height="16" fill="#d74b42"/>
<rect x="247" y="502" width="24" height="58" fill="#6abf88"/>
<rect x="295" y="542" width="24" height="18" fill="#6abf88"/>
<rect x="343" y="544" width="24" height="16" fill="#6abf88"/>
<rect x="391" y="542" width="24" height="18" fill="#d74b42"/>
<rect x="439" y="546" width="24" height="14" fill="#d74b42"/>
<rect x="487" y="546" width="24" height="14" fill="#6abf88"/>
<rect x="535" y="544" width="24" height="16" fill="#6abf88"/>
<rect x="583" y="530" width="24" height="30" fill="#6abf88"/>
<rect x="631" y="542" width="24" height="18" fill="#6abf88"/>
<rect x="679" y="505" width="24" height="55" fill="#6abf88"/>
<rect x="727" y="525" width="24" height="35" fill="#6abf88"/>
<text x="90" y="578" font-size="15" font-family="PingFang SC, Arial" fill="#6b7280">量能区</text>
<circle cx="451" cy="369" r="6" fill="none" stroke="#ef4444" stroke-width="2"/>
<text x="461" y="384" font-size="13" font-family="PingFang SC, Arial" fill="#dc2626">低吸试错点</text>
<circle cx="691" cy="223" r="6" fill="#ef4444" stroke="none"/>
<text x="651" y="208" font-size="13" font-family="PingFang SC, Arial" fill="#dc2626">突破确认点</text>
<rect x="850" y="135" width="280" height="450" rx="16" fill="#ffffff" stroke="#d0c7bc"/>
<text x="875" y="178" font-size="24" font-family="PingFang SC, Arial" fill="#111827">点评</text>
<text x="875" y="220" font-size="18" font-family="PingFang SC, Arial" fill="#374151">阳线启动+窄箱突破</text>
<text x="875" y="262" font-size="18" font-family="PingFang SC, Arial" fill="#4b5563">• 3-4日窄箱</text>
<text x="875" y="296" font-size="18" font-family="PingFang SC, Arial" fill="#4b5563">• 贴5日线</text>
<text x="875" y="330" font-size="18" font-family="PingFang SC, Arial" fill="#4b5563">• 风险：上影线</text>
<text x="875" y="655" font-size="18" font-family="PingFang SC, Arial" fill="#7c746b">教学示意图：重绘，不复刻原截图</text>
</svg>
