<svg xmlns="http://www.w3.org/2000/svg" width="1200" height="720" viewBox="0 0 1200 720">
<rect width="1200" height="720" fill="#fbfaf7"/>
<rect x="70" y="135" width="750" height="450" rx="18" fill="#fffefb" stroke="#c9c2b8" stroke-width="2"/>
<text x="70" y="70" font-size="34" font-family="PingFang SC, Arial" fill="#1f2933">案例43｜昊志机电 300503</text>
<text x="850" y="70" font-size="34" font-family="PingFang SC, Arial" fill="#0f8a4b">86/100  标准</text>
<text x="620" y="200" font-size="18" font-family="PingFang SC, Arial" fill="#6d28d9">前高/压力线</text>
<rect x="282" y="324" width="386" height="84" fill="none" stroke="#2563eb" stroke-width="3"/>
<text x="90" y="162" font-size="13" font-family="PingFang SC, Arial" fill="#4b5563" font-weight="bold">均线</text>
<line x1="125" y1="159" x2="145" y2="159" stroke="#f59e0b" stroke-width="3"/>
<text x="149" y="162" font-size="12" font-family="PingFang SC, Arial" fill="#f59e0b">MA5</text>
<line x1="183" y1="159" x2="203" y2="159" stroke="#8b5cf6" stroke-width="3" stroke-dasharray="6,4"/>
<text x="207" y="162" font-size="12" font-family="PingFang SC, Arial" fill="#8b5cf6">MA10</text>
<line x1="241" y1="159" x2="261" y2="159" stroke="#10b981" stroke-width="3"/>
<text x="265" y="162" font-size="12" font-family="PingFang SC, Arial" fill="#10b981">MA20</text>
<line x1="299" y1="159" x2="319" y2="159" stroke="#f97316" stroke-width="3"/>
<text x="323" y="162" font-size="12" font-family="PingFang SC, Arial" fill="#f97316">MA30</text>
<line x1="357" y1="159" x2="377" y2="159" stroke="#ef4444" stroke-width="3"/>
<text x="381" y="162" font-size="12" font-family="PingFang SC, Arial" fill="#ef4444">MA60</text>
<line x1="415" y1="159" x2="435" y2="159" stroke="#6b7280" stroke-width="3"/>
<text x="439" y="162" font-size="12" font-family="PingFang SC, Arial" fill="#6b7280">MA120</text>
<line x1="110" y1="263" x2="780" y2="263" stroke="#7c3aed" stroke-width="2" stroke-dasharray="8,4"/>
<text x="630" y="253" font-size="15" font-family="PingFang SC, Arial" fill="#6d28d9">前高压力线</text>
<rect x="292" y="309" width="270" height="166" fill="none" stroke="#2563eb" stroke-width="3"/>
<text x="292" y="299" font-size="15" font-family="PingFang SC, Arial" fill="#1d4ed8">高位窄箱体</text>
<polyline points="115,480 163,475 211,470 259,440 307,435 355,432 403,431 451,407 499,426 547,423 595,412 643,392 691,372 739,333" fill="none" stroke="#f59e0b" stroke-width="2.5"/>
<polyline points="115,491 163,489 211,486 259,466 307,461 355,456 403,452 451,439 499,433 547,429 595,422 643,411 691,389 739,380" fill="none" stroke="#8b5cf6" stroke-width="2.5" stroke-dasharray="8,4"/>
<polyline points="115,503 163,504 211,504 259,496 307,494 355,489 403,484 451,474 499,467 547,463 595,456 643,449 691,438 739,423" fill="none" stroke="#10b981" stroke-width="2.5"/>
<polyline points="115,498 163,497 211,497 259,492 307,490 355,488 403,485 451,480 499,479 547,479 595,476 643,473 691,466 739,458" fill="none" stroke="#f97316" stroke-width="2.5"/>
<polyline points="115,476 163,478 211,480 259,479 307,480 355,480 403,480 451,479 499,479 547,479 595,478 643,477 691,474 739,469" fill="none" stroke="#ef4444" stroke-width="2.5"/>
<polyline points="115,434 163,435 211,435 259,435 307,435 355,436 403,437 451,436 499,436 547,436 595,436 643,435 691,433 739,432" fill="none" stroke="#6b7280" stroke-width="2.5"/>
<line x1="115" y1="451" x2="115" y2="500" stroke="#2f9e67" stroke-width="3"/>
<rect x="104" y="468" width="22" height="15" fill="#2f9e67"/>
<line x1="163" y1="451" x2="163" y2="499" stroke="#2f9e67" stroke-width="3"/>
<rect x="152" y="468" width="22" height="13" fill="#2f9e67"/>
<line x1="211" y1="438" x2="211" y2="482" stroke="#d74b42" stroke-width="3"/>
<rect x="200" y="456" width="22" height="9" fill="#d74b42"/>
<line x1="259" y1="288" x2="259" y2="420" stroke="#2f9e67" stroke-width="3"/>
<rect x="248" y="326" width="22" height="66" fill="#2f9e67"/>
<line x1="307" y1="423" x2="307" y2="457" stroke="#d74b42" stroke-width="3"/>
<rect x="296" y="433" width="22" height="14" fill="#d74b42"/>
<line x1="355" y1="431" x2="355" y2="464" stroke="#d74b42" stroke-width="3"/>
<rect x="344" y="441" width="22" height="13" fill="#d74b42"/>
<line x1="403" y1="430" x2="403" y2="470" stroke="#d74b42" stroke-width="3"/>
<rect x="392" y="440" width="22" height="20" fill="#d74b42"/>
<line x1="451" y1="314" x2="451" y2="358" stroke="#d74b42" stroke-width="3"/>
<rect x="440" y="325" width="22" height="22" fill="#d74b42"/>
<line x1="499" y1="414" x2="499" y2="443" stroke="#2f9e67" stroke-width="3"/>
<rect x="488" y="424" width="22" height="8" fill="#2f9e67"/>
<line x1="547" y1="421" x2="547" y2="457" stroke="#2f9e67" stroke-width="3"/>
<rect x="536" y="432" width="22" height="15" fill="#2f9e67"/>
<line x1="595" y1="374" x2="595" y2="435" stroke="#2f9e67" stroke-width="3"/>
<rect x="584" y="396" width="22" height="26" fill="#2f9e67"/>
<line x1="643" y1="337" x2="643" y2="397" stroke="#2f9e67" stroke-width="3"/>
<rect x="632" y="360" width="22" height="24" fill="#2f9e67"/>
<line x1="691" y1="222" x2="691" y2="327" stroke="#2f9e67" stroke-width="3"/>
<rect x="680" y="249" width="22" height="58" fill="#2f9e67"/>
<line x1="739" y1="209" x2="739" y2="272" stroke="#2f9e67" stroke-width="3"/>
<rect x="728" y="229" width="22" height="34" fill="#2f9e67"/>
<rect x="103" y="548" width="24" height="12" fill="#6abf88"/>
<rect x="151" y="546" width="24" height="14" fill="#6abf88"/>
<rect x="199" y="544" width="24" height="16" fill="#d74b42"/>
<rect x="247" y="502" width="24" height="58" fill="#6abf88"/>
<rect x="295" y="542" width="24" height="18" fill="#d74b42"/>
<rect x="343" y="544" width="24" height="16" fill="#d74b42"/>
<rect x="391" y="542" width="24" height="18" fill="#d74b42"/>
<rect x="439" y="546" width="24" height="14" fill="#d74b42"/>
<rect x="487" y="546" width="24" height="14" fill="#6abf88"/>
<rect x="535" y="544" width="24" height="16" fill="#6abf88"/>
<rect x="583" y="530" width="24" height="30" fill="#6abf88"/>
<rect x="631" y="542" width="24" height="18" fill="#6abf88"/>
<rect x="679" y="505" width="24" height="55" fill="#6abf88"/>
<rect x="727" y="525" width="24" height="35" fill="#6abf88"/>
<text x="90" y="578" font-size="15" font-family="PingFang SC, Arial" fill="#6b7280">量能区</text>
<circle cx="451" cy="358" r="6" fill="none" stroke="#ef4444" stroke-width="2"/>
<text x="461" y="373" font-size="13" font-family="PingFang SC, Arial" fill="#dc2626">低吸试错点</text>
<circle cx="691" cy="222" r="6" fill="#ef4444" stroke="none"/>
<text x="651" y="207" font-size="13" font-family="PingFang SC, Arial" fill="#dc2626">突破确认点</text>
<rect x="850" y="135" width="280" height="450" rx="16" fill="#ffffff" stroke="#d0c7bc"/>
<text x="875" y="178" font-size="24" font-family="PingFang SC, Arial" fill="#111827">点评</text>
<text x="875" y="220" font-size="18" font-family="PingFang SC, Arial" fill="#374151">高位窄箱+放量中阳突破</text>
<text x="875" y="258" font-size="18" font-family="PingFang SC, Arial" fill="#374151">低吸试错：70-71</text>
<text x="875" y="296" font-size="18" font-family="PingFang SC, Arial" fill="#374151">突破确认：过74-75</text>
<text x="875" y="655" font-size="18" font-family="PingFang SC, Arial" fill="#7c746b">教学重绘图：不复刻原截图</text>
</svg>
