<svg xmlns="http://www.w3.org/2000/svg" width="1200" height="720" viewBox="0 0 1200 720">
<rect width="1200" height="720" fill="#fbfaf7"/>
<rect x="70" y="135" width="750" height="450" rx="18" fill="#fffefb" stroke="#c9c2b8" stroke-width="2"/>
<text x="70" y="70" font-size="34" font-family="PingFang SC, Arial" fill="#1f2933">案例19｜中钨高新</text>
<text x="850" y="70" font-size="34" font-family="PingFang SC, Arial" fill="#b7791f">65/100  勉强</text>
<text x="90" y="162" font-size="13" font-family="PingFang SC, Arial" fill="#4b5563" font-weight="bold">均线</text>
<line x1="125" y1="159" x2="145" y2="159" stroke="#f59e0b" stroke-width="3"/>
<text x="149" y="162" font-size="12" font-family="PingFang SC, Arial" fill="#f59e0b">MA5</text>
<line x1="183" y1="159" x2="203" y2="159" stroke="#8b5cf6" stroke-width="3" stroke-dasharray="6,4"/>
<text x="207" y="162" font-size="12" font-family="PingFang SC, Arial" fill="#8b5cf6">MA10</text>
<line x1="241" y1="159" x2="261" y2="159" stroke="#10b981" stroke-width="3"/>
<text x="265" y="162" font-size="12" font-family="PingFang SC, Arial" fill="#10b981">MA20</text>
<line x1="299" y1="159" x2="319" y2="159" stroke="#f97316" stroke-width="3"/>
<text x="323" y="162" font-size="12" font-family="PingFang SC, Arial" fill="#f97316">MA30</text>
<line x1="357" y1="159" x2="377" y2="159" stroke="#ef4444" stroke-width="3"/>
<text x="381" y="162" font-size="12" font-family="PingFang SC, Arial" fill="#ef4444">MA60</text>
<line x1="415" y1="159" x2="435" y2="159" stroke="#6b7280" stroke-width="3"/>
<text x="439" y="162" font-size="12" font-family="PingFang SC, Arial" fill="#6b7280">MA120</text>
<line x1="110" y1="247" x2="780" y2="247" stroke="#7c3aed" stroke-width="2" stroke-dasharray="8,4"/>
<text x="630" y="237" font-size="15" font-family="PingFang SC, Arial" fill="#6d28d9">前高压力线</text>
<rect x="292" y="288" width="270" height="120" fill="none" stroke="#2563eb" stroke-width="3"/>
<text x="292" y="278" font-size="15" font-family="PingFang SC, Arial" fill="#1d4ed8">高位窄箱体</text>
<polyline points="115,402 163,402 211,404 259,386 307,383 355,380 403,376 451,358 499,372 547,369 595,360 643,346 691,329 739,298" fill="none" stroke="#f59e0b" stroke-width="2.5"/>
<polyline points="115,400 163,401 211,403 259,395 307,392 355,391 403,389 451,381 499,379 547,376 595,371 643,361 691,344 739,335" fill="none" stroke="#8b5cf6" stroke-width="2.5" stroke-dasharray="8,4"/>
<polyline points="115,400 163,400 211,400 259,395 307,396 355,397 403,397 451,393 499,391 547,389 595,385 643,381 691,373 739,365" fill="none" stroke="#10b981" stroke-width="2.5"/>
<polyline points="115,407 163,406 211,404 259,400 307,399 355,398 403,397 451,394 499,393 547,391 595,390 643,387 691,381 739,375" fill="none" stroke="#f97316" stroke-width="2.5"/>
<polyline points="115,486 163,484 211,482 259,478 307,475 355,472 403,468 451,464 499,460 547,456 595,451 643,447 691,441 739,434" fill="none" stroke="#ef4444" stroke-width="2.5"/>
<polyline points="115,511 163,509 211,507 259,505 307,503 355,502 403,500 451,498 499,497 547,494 595,493 643,490 691,487 739,484" fill="none" stroke="#6b7280" stroke-width="2.5"/>
<line x1="115" y1="377" x2="115" y2="419" stroke="#d74b42" stroke-width="3"/>
<rect x="104" y="390" width="22" height="16" fill="#d74b42"/>
<line x1="163" y1="379" x2="163" y2="423" stroke="#d74b42" stroke-width="3"/>
<rect x="152" y="392" width="22" height="18" fill="#d74b42"/>
<line x1="211" y1="374" x2="211" y2="421" stroke="#d74b42" stroke-width="3"/>
<rect x="200" y="388" width="22" height="19" fill="#d74b42"/>
<line x1="259" y1="272" x2="259" y2="373" stroke="#2f9e67" stroke-width="3"/>
<rect x="248" y="301" width="22" height="50" fill="#2f9e67"/>
<line x1="307" y1="368" x2="307" y2="398" stroke="#d74b42" stroke-width="3"/>
<rect x="296" y="376" width="22" height="14" fill="#d74b42"/>
<line x1="355" y1="375" x2="355" y2="401" stroke="#d74b42" stroke-width="3"/>
<rect x="344" y="382" width="22" height="11" fill="#d74b42"/>
<line x1="403" y1="381" x2="403" y2="403" stroke="#2f9e67" stroke-width="3"/>
<rect x="392" y="390" width="22" height="6" fill="#2f9e67"/>
<line x1="451" y1="293" x2="451" y2="325" stroke="#d74b42" stroke-width="3"/>
<rect x="440" y="302" width="22" height="15" fill="#d74b42"/>
<line x1="499" y1="365" x2="499" y2="393" stroke="#2f9e67" stroke-width="3"/>
<rect x="488" y="373" width="22" height="12" fill="#2f9e67"/>
<line x1="547" y1="366" x2="547" y2="394" stroke="#2f9e67" stroke-width="3"/>
<rect x="536" y="374" width="22" height="12" fill="#2f9e67"/>
<line x1="595" y1="326" x2="595" y2="357" stroke="#d74b42" stroke-width="3"/>
<rect x="584" y="343" width="22" height="4" fill="#d74b42"/>
<line x1="643" y1="301" x2="643" y2="350" stroke="#2f9e67" stroke-width="3"/>
<rect x="632" y="319" width="22" height="21" fill="#2f9e67"/>
<line x1="691" y1="212" x2="691" y2="294" stroke="#2f9e67" stroke-width="3"/>
<rect x="680" y="233" width="22" height="45" fill="#2f9e67"/>
<line x1="739" y1="203" x2="739" y2="251" stroke="#2f9e67" stroke-width="3"/>
<rect x="728" y="218" width="22" height="25" fill="#2f9e67"/>
<rect x="103" y="548" width="24" height="12" fill="#d74b42"/>
<rect x="151" y="546" width="24" height="14" fill="#d74b42"/>
<rect x="199" y="544" width="24" height="16" fill="#d74b42"/>
<rect x="247" y="502" width="24" height="58" fill="#6abf88"/>
<rect x="295" y="542" width="24" height="18" fill="#d74b42"/>
<rect x="343" y="544" width="24" height="16" fill="#d74b42"/>
<rect x="391" y="542" width="24" height="18" fill="#6abf88"/>
<rect x="439" y="546" width="24" height="14" fill="#d74b42"/>
<rect x="487" y="546" width="24" height="14" fill="#6abf88"/>
<rect x="535" y="544" width="24" height="16" fill="#6abf88"/>
<rect x="583" y="530" width="24" height="30" fill="#d74b42"/>
<rect x="631" y="542" width="24" height="18" fill="#6abf88"/>
<rect x="679" y="505" width="24" height="55" fill="#6abf88"/>
<rect x="727" y="525" width="24" height="35" fill="#6abf88"/>
<text x="90" y="578" font-size="15" font-family="PingFang SC, Arial" fill="#6b7280">量能区</text>
<circle cx="451" cy="325" r="6" fill="none" stroke="#ef4444" stroke-width="2"/>
<text x="461" y="340" font-size="13" font-family="PingFang SC, Arial" fill="#dc2626">低吸试错点</text>
<circle cx="691" cy="212" r="6" fill="#ef4444" stroke="none"/>
<text x="651" y="197" font-size="13" font-family="PingFang SC, Arial" fill="#dc2626">突破确认点</text>
<rect x="850" y="135" width="280" height="450" rx="16" fill="#ffffff" stroke="#d0c7bc"/>
<text x="875" y="178" font-size="24" font-family="PingFang SC, Arial" fill="#111827">点评</text>
<text x="875" y="220" font-size="18" font-family="PingFang SC, Arial" fill="#374151">通道内冲前高，缺窄箱</text>
<text x="875" y="262" font-size="18" font-family="PingFang SC, Arial" fill="#4b5563">• 均线多头</text>
<text x="875" y="296" font-size="18" font-family="PingFang SC, Arial" fill="#4b5563">• 冲击前高</text>
<text x="875" y="330" font-size="18" font-family="PingFang SC, Arial" fill="#4b5563">• 风险：双头压力</text>
<text x="875" y="655" font-size="18" font-family="PingFang SC, Arial" fill="#7c746b">教学示意图：重绘，不复刻原截图</text>
</svg>
