<svg xmlns="http://www.w3.org/2000/svg" width="1200" height="720" viewBox="0 0 1200 720">
<rect width="1200" height="720" fill="#fbfaf7"/>
<rect x="70" y="135" width="750" height="450" rx="18" fill="#fffefb" stroke="#c9c2b8" stroke-width="2"/>
<text x="70" y="70" font-size="34" font-family="PingFang SC, Arial" fill="#1f2933">案例29｜生益科技 600183</text>
<text x="850" y="70" font-size="34" font-family="PingFang SC, Arial" fill="#b7791f">60/100  勉强</text>
<text x="90" y="162" font-size="13" font-family="PingFang SC, Arial" fill="#4b5563" font-weight="bold">均线</text>
<line x1="125" y1="159" x2="145" y2="159" stroke="#f59e0b" stroke-width="3"/>
<text x="149" y="162" font-size="12" font-family="PingFang SC, Arial" fill="#f59e0b">MA5</text>
<line x1="183" y1="159" x2="203" y2="159" stroke="#8b5cf6" stroke-width="3" stroke-dasharray="6,4"/>
<text x="207" y="162" font-size="12" font-family="PingFang SC, Arial" fill="#8b5cf6">MA10</text>
<line x1="241" y1="159" x2="261" y2="159" stroke="#10b981" stroke-width="3"/>
<text x="265" y="162" font-size="12" font-family="PingFang SC, Arial" fill="#10b981">MA20</text>
<line x1="299" y1="159" x2="319" y2="159" stroke="#f97316" stroke-width="3"/>
<text x="323" y="162" font-size="12" font-family="PingFang SC, Arial" fill="#f97316">MA30</text>
<line x1="357" y1="159" x2="377" y2="159" stroke="#ef4444" stroke-width="3"/>
<text x="381" y="162" font-size="12" font-family="PingFang SC, Arial" fill="#ef4444">MA60</text>
<line x1="415" y1="159" x2="435" y2="159" stroke="#6b7280" stroke-width="3"/>
<text x="439" y="162" font-size="12" font-family="PingFang SC, Arial" fill="#6b7280">MA120</text>
<line x1="110" y1="241" x2="780" y2="241" stroke="#7c3aed" stroke-width="2" stroke-dasharray="8,4"/>
<text x="630" y="231" font-size="15" font-family="PingFang SC, Arial" fill="#6d28d9">前高压力线</text>
<rect x="292" y="292" width="270" height="95" fill="none" stroke="#2563eb" stroke-width="3"/>
<text x="292" y="282" font-size="15" font-family="PingFang SC, Arial" fill="#1d4ed8">高位窄箱体</text>
<polyline points="115,372 163,375 211,379 259,365 307,363 355,359 403,357 451,341 499,353 547,349 595,341 643,328 691,312 739,284" fill="none" stroke="#f59e0b" stroke-width="2.5"/>
<polyline points="115,381 163,378 211,376 259,368 307,368 355,366 403,366 451,360 499,359 547,356 595,350 643,342 691,326 739,319" fill="none" stroke="#8b5cf6" stroke-width="2.5" stroke-dasharray="8,4"/>
<polyline points="115,399 163,396 211,393 259,387 307,384 355,381 403,379 451,374 499,372 547,370 595,366 643,360 691,351 739,343" fill="none" stroke="#10b981" stroke-width="2.5"/>
<polyline points="115,414 163,412 211,411 259,407 307,405 355,402 403,398 451,394 499,390 547,387 595,383 643,378 691,371 739,364" fill="none" stroke="#f97316" stroke-width="2.5"/>
<polyline points="115,450 163,448 211,446 259,443 307,441 355,438 403,436 451,433 499,430 547,428 595,425 643,422 691,417 739,413" fill="none" stroke="#ef4444" stroke-width="2.5"/>
<polyline points="115,514 163,511 211,509 259,505 307,502 355,500 403,497 451,494 499,492 547,489 595,486 643,483 691,479 739,476" fill="none" stroke="#6b7280" stroke-width="2.5"/>
<line x1="115" y1="362" x2="115" y2="397" stroke="#d74b42" stroke-width="3"/>
<rect x="104" y="374" width="22" height="11" fill="#d74b42"/>
<line x1="163" y1="371" x2="163" y2="407" stroke="#2f9e67" stroke-width="3"/>
<rect x="152" y="382" width="22" height="14" fill="#2f9e67"/>
<line x1="211" y1="374" x2="211" y2="405" stroke="#2f9e67" stroke-width="3"/>
<rect x="200" y="385" width="22" height="8" fill="#2f9e67"/>
<line x1="259" y1="266" x2="259" y2="355" stroke="#2f9e67" stroke-width="3"/>
<rect x="248" y="291" width="22" height="45" fill="#2f9e67"/>
<line x1="307" y1="363" x2="307" y2="382" stroke="#2f9e67" stroke-width="3"/>
<rect x="296" y="370" width="22" height="5" fill="#2f9e67"/>
<line x1="355" y1="348" x2="355" y2="375" stroke="#d74b42" stroke-width="3"/>
<rect x="344" y="356" width="22" height="12" fill="#d74b42"/>
<line x1="403" y1="362" x2="403" y2="382" stroke="#2f9e67" stroke-width="3"/>
<rect x="392" y="369" width="22" height="6" fill="#2f9e67"/>
<line x1="451" y1="297" x2="451" y2="318" stroke="#2f9e67" stroke-width="3"/>
<rect x="440" y="305" width="22" height="6" fill="#2f9e67"/>
<line x1="499" y1="335" x2="499" y2="361" stroke="#d74b42" stroke-width="3"/>
<rect x="488" y="342" width="22" height="12" fill="#d74b42"/>
<line x1="547" y1="333" x2="547" y2="359" stroke="#d74b42" stroke-width="3"/>
<rect x="536" y="340" width="22" height="11" fill="#d74b42"/>
<line x1="595" y1="312" x2="595" y2="355" stroke="#2f9e67" stroke-width="3"/>
<rect x="584" y="327" width="22" height="19" fill="#2f9e67"/>
<line x1="643" y1="287" x2="643" y2="333" stroke="#2f9e67" stroke-width="3"/>
<rect x="632" y="302" width="22" height="22" fill="#2f9e67"/>
<line x1="691" y1="208" x2="691" y2="280" stroke="#2f9e67" stroke-width="3"/>
<rect x="680" y="227" width="22" height="40" fill="#2f9e67"/>
<line x1="739" y1="200" x2="739" y2="246" stroke="#2f9e67" stroke-width="3"/>
<rect x="728" y="213" width="22" height="25" fill="#2f9e67"/>
<rect x="103" y="548" width="24" height="12" fill="#d74b42"/>
<rect x="151" y="546" width="24" height="14" fill="#6abf88"/>
<rect x="199" y="544" width="24" height="16" fill="#6abf88"/>
<rect x="247" y="502" width="24" height="58" fill="#6abf88"/>
<rect x="295" y="542" width="24" height="18" fill="#6abf88"/>
<rect x="343" y="544" width="24" height="16" fill="#d74b42"/>
<rect x="391" y="542" width="24" height="18" fill="#6abf88"/>
<rect x="439" y="546" width="24" height="14" fill="#6abf88"/>
<rect x="487" y="546" width="24" height="14" fill="#d74b42"/>
<rect x="535" y="544" width="24" height="16" fill="#d74b42"/>
<rect x="583" y="530" width="24" height="30" fill="#6abf88"/>
<rect x="631" y="542" width="24" height="18" fill="#6abf88"/>
<rect x="679" y="505" width="24" height="55" fill="#6abf88"/>
<rect x="727" y="525" width="24" height="35" fill="#6abf88"/>
<text x="90" y="578" font-size="15" font-family="PingFang SC, Arial" fill="#6b7280">量能区</text>
<circle cx="451" cy="318" r="6" fill="none" stroke="#ef4444" stroke-width="2"/>
<text x="461" y="333" font-size="13" font-family="PingFang SC, Arial" fill="#dc2626">低吸试错点</text>
<circle cx="691" cy="208" r="6" fill="#ef4444" stroke="none"/>
<text x="651" y="193" font-size="13" font-family="PingFang SC, Arial" fill="#dc2626">突破确认点</text>
<rect x="850" y="135" width="280" height="450" rx="16" fill="#ffffff" stroke="#d0c7bc"/>
<text x="875" y="178" font-size="24" font-family="PingFang SC, Arial" fill="#111827">点评</text>
<text x="875" y="220" font-size="18" font-family="PingFang SC, Arial" fill="#374151">趋势强但位置偏高</text>
<text x="875" y="262" font-size="18" font-family="PingFang SC, Arial" fill="#4b5563">• 均线多头</text>
<text x="875" y="296" font-size="18" font-family="PingFang SC, Arial" fill="#4b5563">• 沿5日线</text>
<text x="875" y="330" font-size="18" font-family="PingFang SC, Arial" fill="#4b5563">• 风险：高位加速</text>
<text x="875" y="655" font-size="18" font-family="PingFang SC, Arial" fill="#7c746b">教学示意图：重绘，不复刻原截图</text>
</svg>
