<svg xmlns="http://www.w3.org/2000/svg" width="1200" height="720" viewBox="0 0 1200 720">
<rect width="1200" height="720" fill="#fbfaf7"/>
<rect x="70" y="135" width="750" height="450" rx="18" fill="#fffefb" stroke="#c9c2b8" stroke-width="2"/>
<text x="70" y="70" font-size="34" font-family="PingFang SC, Arial" fill="#1f2933">案例47｜教学示意图</text>
<text x="850" y="70" font-size="34" font-family="PingFang SC, Arial" fill="#0f8a4b">88/100  标准</text>
<text x="620" y="200" font-size="18" font-family="PingFang SC, Arial" fill="#6d28d9">前高/压力线</text>
<rect x="282" y="324" width="386" height="84" fill="none" stroke="#2563eb" stroke-width="3"/>
<text x="90" y="162" font-size="13" font-family="PingFang SC, Arial" fill="#4b5563" font-weight="bold">均线</text>
<line x1="125" y1="159" x2="145" y2="159" stroke="#f59e0b" stroke-width="3"/>
<text x="149" y="162" font-size="12" font-family="PingFang SC, Arial" fill="#f59e0b">MA5</text>
<line x1="183" y1="159" x2="203" y2="159" stroke="#8b5cf6" stroke-width="3" stroke-dasharray="6,4"/>
<text x="207" y="162" font-size="12" font-family="PingFang SC, Arial" fill="#8b5cf6">MA10</text>
<line x1="241" y1="159" x2="261" y2="159" stroke="#10b981" stroke-width="3"/>
<text x="265" y="162" font-size="12" font-family="PingFang SC, Arial" fill="#10b981">MA20</text>
<line x1="299" y1="159" x2="319" y2="159" stroke="#f97316" stroke-width="3"/>
<text x="323" y="162" font-size="12" font-family="PingFang SC, Arial" fill="#f97316">MA30</text>
<line x1="357" y1="159" x2="377" y2="159" stroke="#ef4444" stroke-width="3"/>
<text x="381" y="162" font-size="12" font-family="PingFang SC, Arial" fill="#ef4444">MA60</text>
<line x1="415" y1="159" x2="435" y2="159" stroke="#6b7280" stroke-width="3"/>
<text x="439" y="162" font-size="12" font-family="PingFang SC, Arial" fill="#6b7280">MA120</text>
<polyline points="115,372 163,370 211,363 259,354 307,344 355,331 403,316 451,306 499,300 547,289 595,287 643,279 691,260 739,250" fill="none" stroke="#f59e0b" stroke-width="2.5"/>
<polyline points="115,374 163,373 211,371 259,364 307,359 355,352 403,342 451,334 499,327 547,316 595,309 643,298 691,282 739,275" fill="none" stroke="#8b5cf6" stroke-width="2.5" stroke-dasharray="8,4"/>
<polyline points="115,403 163,400 211,394 259,387 307,380 355,373 403,366 451,361 499,354 547,347 595,342 643,335 691,327 739,319" fill="none" stroke="#10b981" stroke-width="2.5"/>
<polyline points="115,425 163,421 211,417 259,410 307,405 355,399 403,393 451,389 499,383 547,377 595,372 643,366 691,357 739,350" fill="none" stroke="#f97316" stroke-width="2.5"/>
<polyline points="115,467 163,464 211,461 259,457 307,453 355,449 403,445 451,441 499,437 547,433 595,429 643,424 691,419 739,414" fill="none" stroke="#ef4444" stroke-width="2.5"/>
<polyline points="115,510 163,508 211,507 259,504 307,501 355,499 403,497 451,494 499,492 547,490 595,487 643,484 691,481 739,479" fill="none" stroke="#6b7280" stroke-width="2.5"/>
<rect x="289" y="264" width="276" height="68" fill="none" stroke="#2563eb" stroke-width="3"/>
<text x="289" y="252" font-size="15" font-family="PingFang SC, Arial" fill="#1d4ed8">高位窄箱体</text>
<line x1="110" y1="280" x2="780" y2="280" stroke="#7c3aed" stroke-width="2" stroke-dasharray="8,4"/>
<text x="630" y="270" font-size="15" font-family="PingFang SC, Arial" fill="#6d28d9">前高压力线</text>
<line x1="115" y1="360" x2="115" y2="372" stroke="#e83c3c" stroke-width="3"/>
<rect x="104" y="361" width="22" height="10" fill="#e83c3c"/>
<line x1="163" y1="355" x2="163" y2="374" stroke="#20b86e" stroke-width="3"/>
<rect x="152" y="357" width="22" height="15" fill="#20b86e"/>
<line x1="211" y1="346" x2="211" y2="376" stroke="#e83c3c" stroke-width="3"/>
<rect x="200" y="352" width="22" height="20" fill="#e83c3c"/>
<line x1="259" y1="305" x2="259" y2="357" stroke="#e83c3c" stroke-width="3"/>
<rect x="248" y="311" width="22" height="42" fill="#e83c3c"/>
<line x1="307" y1="304" x2="307" y2="327" stroke="#20b86e" stroke-width="3"/>
<rect x="296" y="306" width="22" height="16" fill="#20b86e"/>
<line x1="355" y1="298" x2="355" y2="325" stroke="#e83c3c" stroke-width="3"/>
<rect x="344" y="302" width="22" height="21" fill="#e83c3c"/>
<line x1="403" y1="290" x2="403" y2="303" stroke="#e83c3c" stroke-width="3"/>
<rect x="392" y="291" width="22" height="11" fill="#e83c3c"/>
<line x1="451" y1="284" x2="451" y2="307" stroke="#20b86e" stroke-width="3"/>
<rect x="440" y="286" width="22" height="16" fill="#20b86e"/>
<line x1="499" y1="278" x2="499" y2="304" stroke="#e83c3c" stroke-width="3"/>
<rect x="488" y="281" width="22" height="22" fill="#e83c3c"/>
<line x1="547" y1="269" x2="547" y2="282" stroke="#e83c3c" stroke-width="3"/>
<rect x="536" y="271" width="22" height="10" fill="#e83c3c"/>
<line x1="595" y1="259" x2="595" y2="298" stroke="#20b86e" stroke-width="3"/>
<rect x="584" y="263" width="22" height="27" fill="#20b86e"/>
<line x1="643" y1="247" x2="643" y2="294" stroke="#e83c3c" stroke-width="3"/>
<rect x="632" y="253" width="22" height="38" fill="#e83c3c"/>
<line x1="691" y1="196" x2="691" y2="258" stroke="#e83c3c" stroke-width="3"/>
<rect x="680" y="204" width="22" height="50" fill="#e83c3c"/>
<line x1="739" y1="189" x2="739" y2="237" stroke="#20b86e" stroke-width="3"/>
<rect x="728" y="193" width="22" height="39" fill="#20b86e"/>
<rect x="103" y="550" width="24" height="10" fill="#e83c3c"/>
<rect x="151" y="545" width="24" height="15" fill="#20b86e"/>
<rect x="199" y="540" width="24" height="20" fill="#e83c3c"/>
<rect x="247" y="520" width="24" height="40" fill="#e83c3c"/>
<rect x="295" y="545" width="24" height="15" fill="#20b86e"/>
<rect x="343" y="540" width="24" height="20" fill="#e83c3c"/>
<rect x="391" y="550" width="24" height="10" fill="#e83c3c"/>
<rect x="439" y="545" width="24" height="15" fill="#20b86e"/>
<rect x="487" y="540" width="24" height="20" fill="#e83c3c"/>
<rect x="535" y="550" width="24" height="10" fill="#e83c3c"/>
<rect x="583" y="535" width="24" height="25" fill="#20b86e"/>
<rect x="631" y="525" width="24" height="35" fill="#e83c3c"/>
<rect x="679" y="515" width="24" height="45" fill="#e83c3c"/>
<rect x="727" y="525" width="24" height="35" fill="#20b86e"/>
<text x="90" y="578" font-size="15" font-family="PingFang SC, Arial" fill="#6b7280">量能区</text>
<rect x="850" y="135" width="280" height="450" rx="16" fill="#ffffff" stroke="#d0c7bc"/>
<text x="875" y="178" font-size="24" font-family="PingFang SC, Arial" fill="#111827">点评</text>
<text x="875" y="220" font-size="18" font-family="PingFang SC, Arial" fill="#374151">高位小结构典型样本</text>
<text x="875" y="258" font-size="18" font-family="PingFang SC, Arial" fill="#374151">低吸试错：80-82</text>
<text x="875" y="296" font-size="18" font-family="PingFang SC, Arial" fill="#374151">突破确认：过85</text>
<text x="875" y="655" font-size="18" font-family="PingFang SC, Arial" fill="#7c746b">教学重绘图：不复刻原截图</text>
</svg>
