<svg xmlns="http://www.w3.org/2000/svg" width="1200" height="720" viewBox="0 0 1200 720">
<rect width="1200" height="720" fill="#fbfaf7"/>
<rect x="70" y="135" width="750" height="450" rx="18" fill="#fffefb" stroke="#c9c2b8" stroke-width="2"/>
<text x="70" y="70" font-size="34" font-family="PingFang SC, Arial" fill="#1f2933">案例36｜浙能电力 600023</text>
<text x="850" y="70" font-size="34" font-family="PingFang SC, Arial" fill="#b7791f">70/100  勉强</text>
<text x="620" y="200" font-size="18" font-family="PingFang SC, Arial" fill="#6d28d9">前高/压力线</text>
<line x1="110" y1="151" x2="780" y2="151" stroke="#7c3aed" stroke-width="2"/>
<text x="630" y="136" font-size="18" font-family="PingFang SC, Arial" fill="#6d28d9">前高压力线</text>
<rect x="292" y="379" width="270" height="20" fill="none" stroke="#2563eb" stroke-width="3"/>
<text x="292" y="367" font-size="18" font-family="PingFang SC, Arial" fill="#1d4ed8">高位窄箱体</text>
<polyline points="307,397 355,391 403,385 451,379 499,397 547,397 595,391 643,387 691,358 739,344" fill="none" stroke="#f59e0b" stroke-width="3"/>
<polyline points="547,396 595,390 643,385 691,368 739,370" fill="none" stroke="#8b5cf6" stroke-width="3" stroke-dasharray="8,4"/>
<line x1="90" y1="91" x2="120" y2="91" stroke="#f59e0b" stroke-width="3"/>
<text x="125" y="96" font-size="15" font-family="PingFang SC, Arial" fill="#b45309">MA5</text>
<line x1="165" y1="91" x2="195" y2="91" stroke="#8b5cf6" stroke-width="3" stroke-dasharray="8,4"/>
<text x="200" y="96" font-size="15" font-family="PingFang SC, Arial" fill="#7c3aed">MA10</text>
<line x1="115" y1="403" x2="115" y2="435" stroke="#2f9e67" stroke-width="3"/>
<rect x="104" y="415" width="22" height="8" fill="#2f9e67"/>
<line x1="163" y1="399" x2="163" y2="437" stroke="#d74b42" stroke-width="3"/>
<rect x="152" y="413" width="22" height="10" fill="#d74b42"/>
<line x1="211" y1="401" x2="211" y2="439" stroke="#2f9e67" stroke-width="3"/>
<rect x="200" y="415" width="22" height="10" fill="#2f9e67"/>
<line x1="259" y1="181" x2="259" y2="369" stroke="#2f9e67" stroke-width="3"/>
<rect x="248" y="249" width="22" height="52" fill="#2f9e67"/>
<line x1="307" y1="368" x2="307" y2="408" stroke="#d74b42" stroke-width="3"/>
<rect x="296" y="383" width="22" height="10" fill="#d74b42"/>
<line x1="355" y1="373" x2="355" y2="405" stroke="#2f9e67" stroke-width="3"/>
<rect x="344" y="385" width="22" height="8" fill="#2f9e67"/>
<line x1="403" y1="367" x2="403" y2="411" stroke="#d74b42" stroke-width="3"/>
<rect x="392" y="383" width="22" height="12" fill="#d74b42"/>
<line x1="451" y1="374" x2="451" y2="404" stroke="#2f9e67" stroke-width="3"/>
<rect x="440" y="385" width="22" height="8" fill="#2f9e67"/>
<line x1="499" y1="369" x2="499" y2="407" stroke="#d74b42" stroke-width="3"/>
<rect x="488" y="383" width="22" height="10" fill="#d74b42"/>
<line x1="547" y1="375" x2="547" y2="401" stroke="#2f9e67" stroke-width="3"/>
<rect x="536" y="385" width="22" height="6" fill="#2f9e67"/>
<line x1="595" y1="309" x2="595" y2="391" stroke="#2f9e67" stroke-width="3"/>
<rect x="584" y="339" width="22" height="22" fill="#2f9e67"/>
<line x1="643" y1="354" x2="643" y2="392" stroke="#d74b42" stroke-width="3"/>
<rect x="632" y="368" width="22" height="10" fill="#d74b42"/>
<line x1="691" y1="147" x2="691" y2="307" stroke="#2f9e67" stroke-width="3"/>
<rect x="680" y="205" width="22" height="44" fill="#2f9e67"/>
<line x1="739" y1="259" x2="739" y2="359" stroke="#2f9e67" stroke-width="3"/>
<rect x="728" y="295" width="22" height="28" fill="#2f9e67"/>
<rect x="103" y="516" width="24" height="14" fill="#2f9e67"/>
<rect x="151" y="514" width="24" height="16" fill="#d74b42"/>
<rect x="199" y="512" width="24" height="18" fill="#2f9e67"/>
<rect x="247" y="465" width="24" height="65" fill="#2f9e67"/>
<rect x="295" y="512" width="24" height="18" fill="#d74b42"/>
<rect x="343" y="514" width="24" height="16" fill="#2f9e67"/>
<rect x="391" y="512" width="24" height="18" fill="#d74b42"/>
<rect x="439" y="516" width="24" height="14" fill="#2f9e67"/>
<rect x="487" y="516" width="24" height="14" fill="#d74b42"/>
<rect x="535" y="514" width="24" height="16" fill="#2f9e67"/>
<rect x="583" y="498" width="24" height="32" fill="#2f9e67"/>
<rect x="631" y="512" width="24" height="18" fill="#d74b42"/>
<rect x="679" y="470" width="24" height="60" fill="#2f9e67"/>
<rect x="727" y="492" width="24" height="38" fill="#2f9e67"/>
<text x="90" y="535" font-size="18" font-family="PingFang SC, Arial" fill="#6b7280">量能区</text>
<rect x="850" y="135" width="280" height="450" rx="16" fill="#ffffff" stroke="#d0c7bc"/>
<text x="875" y="178" font-size="24" font-family="PingFang SC, Arial" fill="#111827">点评</text>
<text x="875" y="220" font-size="18" font-family="PingFang SC, Arial" fill="#374151">主升长阳，结构强但追高位差</text>
<text x="875" y="258" font-size="18" font-family="PingFang SC, Arial" fill="#374151">突破确认：6.77放量长阳</text>
<text x="875" y="296" font-size="18" font-family="PingFang SC, Arial" fill="#374151">失效：跌破启动阳线半分位</text>
<text x="875" y="655" font-size="18" font-family="PingFang SC, Arial" fill="#7c746b">教学重绘图：不复刻原截图</text>
</svg>
