<svg xmlns="http://www.w3.org/2000/svg" width="1200" height="720" viewBox="0 0 1200 720">
<rect width="1200" height="720" fill="#fbfaf7"/>
<rect x="70" y="135" width="750" height="450" rx="18" fill="#fffefb" stroke="#c9c2b8" stroke-width="2"/>
<text x="70" y="70" font-size="34" font-family="PingFang SC, Arial" fill="#1f2933">案例47｜教学示意图</text>
<text x="850" y="70" font-size="34" font-family="PingFang SC, Arial" fill="#0f8a4b">88/100  标准</text>
<text x="620" y="200" font-size="18" font-family="PingFang SC, Arial" fill="#6d28d9">前高/压力线</text>
<rect x="282" y="324" width="386" height="84" fill="none" stroke="#2563eb" stroke-width="3"/>
<text x="90" y="162" font-size="13" font-family="PingFang SC, Arial" fill="#4b5563" font-weight="bold">均线</text>
<line x1="125" y1="159" x2="145" y2="159" stroke="#f59e0b" stroke-width="3"/>
<text x="149" y="162" font-size="12" font-family="PingFang SC, Arial" fill="#f59e0b">MA5</text>
<line x1="183" y1="159" x2="203" y2="159" stroke="#8b5cf6" stroke-width="3" stroke-dasharray="6,4"/>
<text x="207" y="162" font-size="12" font-family="PingFang SC, Arial" fill="#8b5cf6">MA10</text>
<line x1="241" y1="159" x2="261" y2="159" stroke="#10b981" stroke-width="3"/>
<text x="265" y="162" font-size="12" font-family="PingFang SC, Arial" fill="#10b981">MA20</text>
<line x1="299" y1="159" x2="319" y2="159" stroke="#f97316" stroke-width="3"/>
<text x="323" y="162" font-size="12" font-family="PingFang SC, Arial" fill="#f97316">MA30</text>
<line x1="357" y1="159" x2="377" y2="159" stroke="#ef4444" stroke-width="3"/>
<text x="381" y="162" font-size="12" font-family="PingFang SC, Arial" fill="#ef4444">MA60</text>
<line x1="415" y1="159" x2="435" y2="159" stroke="#6b7280" stroke-width="3"/>
<text x="439" y="162" font-size="12" font-family="PingFang SC, Arial" fill="#6b7280">MA120</text>
<line x1="110" y1="244" x2="780" y2="244" stroke="#7c3aed" stroke-width="2" stroke-dasharray="8,4"/>
<text x="630" y="234" font-size="15" font-family="PingFang SC, Arial" fill="#6d28d9">前高压力线</text>
<rect x="292" y="300" width="270" height="119" fill="none" stroke="#2563eb" stroke-width="3"/>
<text x="292" y="290" font-size="15" font-family="PingFang SC, Arial" fill="#1d4ed8">高位窄箱体</text>
<polyline points="115,416 163,412 211,411 259,388 307,383 355,379 403,375 451,356 499,371 547,369 595,361 643,347 691,332 739,301" fill="none" stroke="#f59e0b" stroke-width="2.5"/>
<polyline points="115,422 163,418 211,414 259,402 307,400 355,397 403,394 451,383 499,380 547,376 595,370 643,361 691,344 739,336" fill="none" stroke="#8b5cf6" stroke-width="2.5" stroke-dasharray="8,4"/>
<polyline points="115,434 163,432 211,432 259,424 307,421 355,418 403,415 451,408 499,405 547,401 595,396 643,389 691,379 739,369" fill="none" stroke="#10b981" stroke-width="2.5"/>
<polyline points="115,437 163,434 211,434 259,430 307,428 355,426 403,424 451,420 499,418 547,415 595,412 643,409 691,403 739,395" fill="none" stroke="#f97316" stroke-width="2.5"/>
<polyline points="115,483 163,480 211,478 259,474 307,471 355,467 403,465 451,461 499,459 547,456 595,453 643,451 691,446 739,441" fill="none" stroke="#ef4444" stroke-width="2.5"/>
<polyline points="115,511 163,510 211,510 259,508 307,508 355,507 403,506 451,506 499,505 547,504 595,504 643,502 691,500 739,499" fill="none" stroke="#6b7280" stroke-width="2.5"/>
<line x1="115" y1="381" x2="115" y2="424" stroke="#d74b42" stroke-width="3"/>
<rect x="104" y="395" width="22" height="15" fill="#d74b42"/>
<line x1="163" y1="394" x2="163" y2="432" stroke="#2f9e67" stroke-width="3"/>
<rect x="152" y="408" width="22" height="10" fill="#2f9e67"/>
<line x1="211" y1="395" x2="211" y2="431" stroke="#2f9e67" stroke-width="3"/>
<rect x="200" y="408" width="22" height="9" fill="#2f9e67"/>
<line x1="259" y1="269" x2="259" y2="373" stroke="#2f9e67" stroke-width="3"/>
<rect x="248" y="299" width="22" height="51" fill="#2f9e67"/>
<line x1="307" y1="383" x2="307" y2="414" stroke="#2f9e67" stroke-width="3"/>
<rect x="296" y="391" width="22" height="14" fill="#2f9e67"/>
<line x1="355" y1="369" x2="355" y2="397" stroke="#d74b42" stroke-width="3"/>
<rect x="344" y="377" width="22" height="12" fill="#d74b42"/>
<line x1="403" y1="381" x2="403" y2="405" stroke="#2f9e67" stroke-width="3"/>
<rect x="392" y="389" width="22" height="8" fill="#2f9e67"/>
<line x1="451" y1="305" x2="451" y2="334" stroke="#2f9e67" stroke-width="3"/>
<rect x="440" y="313" width="22" height="13" fill="#2f9e67"/>
<line x1="499" y1="364" x2="499" y2="386" stroke="#2f9e67" stroke-width="3"/>
<rect x="488" y="373" width="22" height="4" fill="#2f9e67"/>
<line x1="547" y1="361" x2="547" y2="387" stroke="#d74b42" stroke-width="3"/>
<rect x="536" y="370" width="22" height="9" fill="#d74b42"/>
<line x1="595" y1="330" x2="595" y2="361" stroke="#d74b42" stroke-width="3"/>
<rect x="584" y="346" width="22" height="4" fill="#d74b42"/>
<line x1="643" y1="304" x2="643" y2="350" stroke="#2f9e67" stroke-width="3"/>
<rect x="632" y="321" width="22" height="19" fill="#2f9e67"/>
<line x1="691" y1="213" x2="691" y2="296" stroke="#2f9e67" stroke-width="3"/>
<rect x="680" y="234" width="22" height="46" fill="#2f9e67"/>
<line x1="739" y1="203" x2="739" y2="259" stroke="#2f9e67" stroke-width="3"/>
<rect x="728" y="219" width="22" height="33" fill="#2f9e67"/>
<rect x="103" y="548" width="24" height="12" fill="#d74b42"/>
<rect x="151" y="546" width="24" height="14" fill="#6abf88"/>
<rect x="199" y="544" width="24" height="16" fill="#6abf88"/>
<rect x="247" y="502" width="24" height="58" fill="#6abf88"/>
<rect x="295" y="542" width="24" height="18" fill="#6abf88"/>
<rect x="343" y="544" width="24" height="16" fill="#d74b42"/>
<rect x="391" y="542" width="24" height="18" fill="#6abf88"/>
<rect x="439" y="546" width="24" height="14" fill="#6abf88"/>
<rect x="487" y="546" width="24" height="14" fill="#6abf88"/>
<rect x="535" y="544" width="24" height="16" fill="#d74b42"/>
<rect x="583" y="530" width="24" height="30" fill="#d74b42"/>
<rect x="631" y="542" width="24" height="18" fill="#6abf88"/>
<rect x="679" y="505" width="24" height="55" fill="#6abf88"/>
<rect x="727" y="525" width="24" height="35" fill="#6abf88"/>
<text x="90" y="578" font-size="15" font-family="PingFang SC, Arial" fill="#6b7280">量能区</text>
<circle cx="451" cy="334" r="6" fill="none" stroke="#ef4444" stroke-width="2"/>
<text x="461" y="349" font-size="13" font-family="PingFang SC, Arial" fill="#dc2626">低吸试错点</text>
<circle cx="691" cy="213" r="6" fill="#ef4444" stroke="none"/>
<text x="651" y="198" font-size="13" font-family="PingFang SC, Arial" fill="#dc2626">突破确认点</text>
<rect x="850" y="135" width="280" height="450" rx="16" fill="#ffffff" stroke="#d0c7bc"/>
<text x="875" y="178" font-size="24" font-family="PingFang SC, Arial" fill="#111827">点评</text>
<text x="875" y="220" font-size="18" font-family="PingFang SC, Arial" fill="#374151">高位小结构典型样本</text>
<text x="875" y="258" font-size="18" font-family="PingFang SC, Arial" fill="#374151">低吸试错：80-82</text>
<text x="875" y="296" font-size="18" font-family="PingFang SC, Arial" fill="#374151">突破确认：过85</text>
<text x="875" y="655" font-size="18" font-family="PingFang SC, Arial" fill="#7c746b">教学重绘图：不复刻原截图</text>
</svg>
