<svg xmlns="http://www.w3.org/2000/svg" width="1200" height="720" viewBox="0 0 1200 720">
<rect width="1200" height="720" fill="#fbfaf7"/>
<rect x="70" y="135" width="750" height="450" rx="18" fill="#fffefb" stroke="#c9c2b8" stroke-width="2"/>
<text x="70" y="70" font-size="34" font-family="PingFang SC, Arial" fill="#1f2933">案例22｜赣能股份 000899</text>
<text x="850" y="70" font-size="34" font-family="PingFang SC, Arial" fill="#0f8a4b">80/100  较标准</text>
<rect x="282" y="328" width="386" height="86" fill="none" stroke="#2563eb" stroke-width="3"/>
<text x="90" y="162" font-size="13" font-family="PingFang SC, Arial" fill="#4b5563" font-weight="bold">均线</text>
<line x1="125" y1="159" x2="145" y2="159" stroke="#f59e0b" stroke-width="3"/>
<text x="149" y="162" font-size="12" font-family="PingFang SC, Arial" fill="#f59e0b">MA5</text>
<line x1="183" y1="159" x2="203" y2="159" stroke="#8b5cf6" stroke-width="3" stroke-dasharray="6,4"/>
<text x="207" y="162" font-size="12" font-family="PingFang SC, Arial" fill="#8b5cf6">MA10</text>
<line x1="241" y1="159" x2="261" y2="159" stroke="#10b981" stroke-width="3"/>
<text x="265" y="162" font-size="12" font-family="PingFang SC, Arial" fill="#10b981">MA20</text>
<line x1="299" y1="159" x2="319" y2="159" stroke="#f97316" stroke-width="3"/>
<text x="323" y="162" font-size="12" font-family="PingFang SC, Arial" fill="#f97316">MA30</text>
<line x1="357" y1="159" x2="377" y2="159" stroke="#ef4444" stroke-width="3"/>
<text x="381" y="162" font-size="12" font-family="PingFang SC, Arial" fill="#ef4444">MA60</text>
<line x1="415" y1="159" x2="435" y2="159" stroke="#6b7280" stroke-width="3"/>
<text x="439" y="162" font-size="12" font-family="PingFang SC, Arial" fill="#6b7280">MA120</text>
<polyline points="115,422 163,421 211,412 259,397 307,385 355,369 403,349 451,337 499,329 547,317 595,313 643,304 691,279 739,267" fill="none" stroke="#f59e0b" stroke-width="2.5"/>
<polyline points="115,442 163,438 211,430 259,416 307,406 355,396 403,385 451,375 499,363 547,351 595,341 643,327 691,308 739,298" fill="none" stroke="#8b5cf6" stroke-width="2.5" stroke-dasharray="8,4"/>
<polyline points="115,454 163,451 211,448 259,441 307,435 355,427 403,420 451,414 499,406 547,398 595,392 643,383 691,369 739,358" fill="none" stroke="#10b981" stroke-width="2.5"/>
<polyline points="115,455 163,454 211,452 259,449 307,446 355,442 403,438 451,433 499,428 547,422 595,417 643,409 691,401 739,393" fill="none" stroke="#f97316" stroke-width="2.5"/>
<polyline points="115,471 163,470 211,468 259,466 307,464 355,460 403,457 451,454 499,450 547,447 595,443 643,440 691,436 739,432" fill="none" stroke="#ef4444" stroke-width="2.5"/>
<polyline points="115,504 163,503 211,502 259,501 307,500 355,499 403,497 451,495 499,494 547,492 595,490 643,489 691,486 739,484" fill="none" stroke="#6b7280" stroke-width="2.5"/>
<rect x="289" y="286" width="276" height="82" fill="none" stroke="#2563eb" stroke-width="3"/>
<text x="289" y="274" font-size="15" font-family="PingFang SC, Arial" fill="#1d4ed8">高位窄箱体</text>
<line x1="110" y1="311" x2="780" y2="311" stroke="#7c3aed" stroke-width="2" stroke-dasharray="8,4"/>
<text x="630" y="301" font-size="15" font-family="PingFang SC, Arial" fill="#6d28d9">前高压力线</text>
<line x1="115" y1="404" x2="115" y2="420" stroke="#e83c3c" stroke-width="3"/>
<rect x="104" y="406" width="22" height="13" fill="#e83c3c"/>
<line x1="163" y1="399" x2="163" y2="422" stroke="#20b86e" stroke-width="3"/>
<rect x="152" y="401" width="22" height="19" fill="#20b86e"/>
<line x1="211" y1="387" x2="211" y2="425" stroke="#e83c3c" stroke-width="3"/>
<rect x="200" y="395" width="22" height="25" fill="#e83c3c"/>
<line x1="259" y1="336" x2="259" y2="401" stroke="#e83c3c" stroke-width="3"/>
<rect x="248" y="344" width="22" height="52" fill="#e83c3c"/>
<line x1="307" y1="334" x2="307" y2="363" stroke="#20b86e" stroke-width="3"/>
<rect x="296" y="338" width="22" height="20" fill="#20b86e"/>
<line x1="355" y1="328" x2="355" y2="361" stroke="#e83c3c" stroke-width="3"/>
<rect x="344" y="332" width="22" height="26" fill="#e83c3c"/>
<line x1="403" y1="316" x2="403" y2="333" stroke="#e83c3c" stroke-width="3"/>
<rect x="392" y="318" width="22" height="14" fill="#e83c3c"/>
<line x1="451" y1="310" x2="451" y2="339" stroke="#20b86e" stroke-width="3"/>
<rect x="440" y="313" width="22" height="20" fill="#20b86e"/>
<line x1="499" y1="303" x2="499" y2="336" stroke="#e83c3c" stroke-width="3"/>
<rect x="488" y="307" width="22" height="26" fill="#e83c3c"/>
<line x1="547" y1="291" x2="547" y2="308" stroke="#e83c3c" stroke-width="3"/>
<rect x="536" y="293" width="22" height="13" fill="#e83c3c"/>
<line x1="595" y1="277" x2="595" y2="327" stroke="#20b86e" stroke-width="3"/>
<rect x="584" y="283" width="22" height="34" fill="#20b86e"/>
<line x1="643" y1="264" x2="643" y2="323" stroke="#e83c3c" stroke-width="3"/>
<rect x="632" y="271" width="22" height="47" fill="#e83c3c"/>
<line x1="691" y1="200" x2="691" y2="278" stroke="#e83c3c" stroke-width="3"/>
<rect x="680" y="210" width="22" height="63" fill="#e83c3c"/>
<line x1="739" y1="192" x2="739" y2="252" stroke="#20b86e" stroke-width="3"/>
<rect x="728" y="196" width="22" height="48" fill="#20b86e"/>
<rect x="103" y="550" width="24" height="10" fill="#e83c3c"/>
<rect x="151" y="545" width="24" height="15" fill="#20b86e"/>
<rect x="199" y="540" width="24" height="20" fill="#e83c3c"/>
<rect x="247" y="520" width="24" height="40" fill="#e83c3c"/>
<rect x="295" y="545" width="24" height="15" fill="#20b86e"/>
<rect x="343" y="540" width="24" height="20" fill="#e83c3c"/>
<rect x="391" y="550" width="24" height="10" fill="#e83c3c"/>
<rect x="439" y="545" width="24" height="15" fill="#20b86e"/>
<rect x="487" y="540" width="24" height="20" fill="#e83c3c"/>
<rect x="535" y="550" width="24" height="10" fill="#e83c3c"/>
<rect x="583" y="535" width="24" height="25" fill="#20b86e"/>
<rect x="631" y="525" width="24" height="35" fill="#e83c3c"/>
<rect x="679" y="515" width="24" height="45" fill="#e83c3c"/>
<rect x="727" y="525" width="24" height="35" fill="#20b86e"/>
<text x="90" y="578" font-size="15" font-family="PingFang SC, Arial" fill="#6b7280">量能区</text>
<rect x="850" y="135" width="280" height="450" rx="16" fill="#ffffff" stroke="#d0c7bc"/>
<text x="875" y="178" font-size="24" font-family="PingFang SC, Arial" fill="#111827">点评</text>
<text x="875" y="220" font-size="18" font-family="PingFang SC, Arial" fill="#374151">高位小箱+贴5日线</text>
<text x="875" y="262" font-size="18" font-family="PingFang SC, Arial" fill="#4b5563">• 横盘数日</text>
<text x="875" y="296" font-size="18" font-family="PingFang SC, Arial" fill="#4b5563">• 量能温和</text>
<text x="875" y="330" font-size="18" font-family="PingFang SC, Arial" fill="#4b5563">• 风险：前高压力</text>
<text x="875" y="655" font-size="18" font-family="PingFang SC, Arial" fill="#7c746b">教学示意图：重绘，不复刻原截图</text>
</svg>
