<svg xmlns="http://www.w3.org/2000/svg" width="1200" height="720" viewBox="0 0 1200 720">
<rect width="1200" height="720" fill="#fbfaf7"/>
<rect x="70" y="135" width="750" height="450" rx="18" fill="#fffefb" stroke="#c9c2b8" stroke-width="2"/>
<text x="70" y="70" font-size="34" font-family="PingFang SC, Arial" fill="#1f2933">案例18｜长华集团</text>
<text x="850" y="70" font-size="34" font-family="PingFang SC, Arial" fill="#b7791f">62/100  勉强</text>
<text x="90" y="162" font-size="13" font-family="PingFang SC, Arial" fill="#4b5563" font-weight="bold">均线</text>
<line x1="125" y1="159" x2="145" y2="159" stroke="#f59e0b" stroke-width="3"/>
<text x="149" y="162" font-size="12" font-family="PingFang SC, Arial" fill="#f59e0b">MA5</text>
<line x1="183" y1="159" x2="203" y2="159" stroke="#8b5cf6" stroke-width="3" stroke-dasharray="6,4"/>
<text x="207" y="162" font-size="12" font-family="PingFang SC, Arial" fill="#8b5cf6">MA10</text>
<line x1="241" y1="159" x2="261" y2="159" stroke="#10b981" stroke-width="3"/>
<text x="265" y="162" font-size="12" font-family="PingFang SC, Arial" fill="#10b981">MA20</text>
<line x1="299" y1="159" x2="319" y2="159" stroke="#f97316" stroke-width="3"/>
<text x="323" y="162" font-size="12" font-family="PingFang SC, Arial" fill="#f97316">MA30</text>
<line x1="357" y1="159" x2="377" y2="159" stroke="#ef4444" stroke-width="3"/>
<text x="381" y="162" font-size="12" font-family="PingFang SC, Arial" fill="#ef4444">MA60</text>
<line x1="415" y1="159" x2="435" y2="159" stroke="#6b7280" stroke-width="3"/>
<text x="439" y="162" font-size="12" font-family="PingFang SC, Arial" fill="#6b7280">MA120</text>
<polyline points="115,358 163,352 211,345 259,333 307,324 355,314 403,299 451,291 499,285 547,276 595,274 643,268 691,250 739,242" fill="none" stroke="#f59e0b" stroke-width="2.5"/>
<polyline points="115,367 163,365 211,361 259,353 307,345 355,336 403,326 451,318 499,309 547,300 595,294 643,283 691,270 739,263" fill="none" stroke="#8b5cf6" stroke-width="2.5" stroke-dasharray="8,4"/>
<polyline points="115,392 163,387 211,381 259,374 307,367 355,361 403,353 451,347 499,340 547,335 595,331 643,325 691,316 739,308" fill="none" stroke="#10b981" stroke-width="2.5"/>
<polyline points="115,418 163,414 211,409 259,403 307,397 355,391 403,384 451,378 499,372 547,365 595,359 643,352 691,344 739,337" fill="none" stroke="#f97316" stroke-width="2.5"/>
<polyline points="115,449 163,447 211,444 259,441 307,437 355,434 403,430 451,426 499,423 547,419 595,415 643,411 691,406 739,403" fill="none" stroke="#ef4444" stroke-width="2.5"/>
<polyline points="115,513 163,511 211,509 259,507 307,504 355,502 403,500 451,498 499,495 547,493 595,490 643,487 691,484 739,482" fill="none" stroke="#6b7280" stroke-width="2.5"/>
<line x1="110" y1="223" x2="780" y2="223" stroke="#7c3aed" stroke-width="2" stroke-dasharray="8,4"/>
<text x="630" y="213" font-size="15" font-family="PingFang SC, Arial" fill="#6d28d9">前高压力线</text>
<rect x="292" y="280" width="270" height="217" fill="none" stroke="#2563eb" stroke-width="3"/>
<text x="292" y="268" font-size="15" font-family="PingFang SC, Arial" fill="#1d4ed8">高位窄箱体</text>
<line x1="115" y1="338" x2="115" y2="349" stroke="#2f9e67" stroke-width="3"/>
<rect x="104" y="340" width="22" height="9" fill="#2f9e67"/>
<line x1="163" y1="335" x2="163" y2="351" stroke="#d74b42" stroke-width="3"/>
<rect x="152" y="336" width="22" height="13" fill="#d74b42"/>
<line x1="211" y1="326" x2="211" y2="353" stroke="#2f9e67" stroke-width="3"/>
<rect x="200" y="332" width="22" height="18" fill="#2f9e67"/>
<line x1="259" y1="290" x2="259" y2="336" stroke="#2f9e67" stroke-width="3"/>
<rect x="248" y="295" width="22" height="37" fill="#2f9e67"/>
<line x1="307" y1="289" x2="307" y2="310" stroke="#d74b42" stroke-width="3"/>
<rect x="296" y="292" width="22" height="13" fill="#d74b42"/>
<line x1="355" y1="284" x2="355" y2="307" stroke="#2f9e67" stroke-width="3"/>
<rect x="344" y="287" width="22" height="18" fill="#2f9e67"/>
<line x1="403" y1="276" x2="403" y2="288" stroke="#2f9e67" stroke-width="3"/>
<rect x="392" y="278" width="22" height="9" fill="#2f9e67"/>
<line x1="451" y1="271" x2="451" y2="292" stroke="#d74b42" stroke-width="3"/>
<rect x="440" y="274" width="22" height="14" fill="#d74b42"/>
<line x1="499" y1="266" x2="499" y2="290" stroke="#2f9e67" stroke-width="3"/>
<rect x="488" y="269" width="22" height="19" fill="#2f9e67"/>
<line x1="547" y1="258" x2="547" y2="270" stroke="#2f9e67" stroke-width="3"/>
<rect x="536" y="260" width="22" height="9" fill="#2f9e67"/>
<line x1="595" y1="249" x2="595" y2="284" stroke="#d74b42" stroke-width="3"/>
<rect x="584" y="253" width="22" height="24" fill="#d74b42"/>
<line x1="643" y1="239" x2="643" y2="281" stroke="#2f9e67" stroke-width="3"/>
<rect x="632" y="244" width="22" height="34" fill="#2f9e67"/>
<line x1="691" y1="194" x2="691" y2="249" stroke="#2f9e67" stroke-width="3"/>
<rect x="680" y="201" width="22" height="44" fill="#2f9e67"/>
<line x1="739" y1="188" x2="739" y2="231" stroke="#d74b42" stroke-width="3"/>
<rect x="728" y="191" width="22" height="34" fill="#d74b42"/>
<rect x="103" y="550" width="24" height="10" fill="#6abf88"/>
<rect x="151" y="545" width="24" height="15" fill="#d74b42"/>
<rect x="199" y="540" width="24" height="20" fill="#6abf88"/>
<rect x="247" y="520" width="24" height="40" fill="#6abf88"/>
<rect x="295" y="545" width="24" height="15" fill="#d74b42"/>
<rect x="343" y="540" width="24" height="20" fill="#6abf88"/>
<rect x="391" y="550" width="24" height="10" fill="#6abf88"/>
<rect x="439" y="545" width="24" height="15" fill="#d74b42"/>
<rect x="487" y="540" width="24" height="20" fill="#6abf88"/>
<rect x="535" y="550" width="24" height="10" fill="#6abf88"/>
<rect x="583" y="535" width="24" height="25" fill="#d74b42"/>
<rect x="631" y="525" width="24" height="35" fill="#6abf88"/>
<rect x="679" y="515" width="24" height="45" fill="#6abf88"/>
<rect x="727" y="525" width="24" height="35" fill="#d74b42"/>
<text x="90" y="578" font-size="15" font-family="PingFang SC, Arial" fill="#6b7280">量能区</text>
<rect x="850" y="135" width="280" height="450" rx="16" fill="#ffffff" stroke="#d0c7bc"/>
<text x="875" y="178" font-size="24" font-family="PingFang SC, Arial" fill="#111827">点评</text>
<text x="875" y="220" font-size="18" font-family="PingFang SC, Arial" fill="#374151">趋势漂亮但偏追高</text>
<text x="875" y="262" font-size="18" font-family="PingFang SC, Arial" fill="#4b5563">• 沿5日线上行</text>
<text x="875" y="296" font-size="18" font-family="PingFang SC, Arial" fill="#4b5563">• 放量涨停</text>
<text x="875" y="330" font-size="18" font-family="PingFang SC, Arial" fill="#4b5563">• 风险：缺横盘</text>
<text x="875" y="655" font-size="18" font-family="PingFang SC, Arial" fill="#7c746b">教学示意图：重绘，不复刻原截图</text>
</svg>
