<svg xmlns="http://www.w3.org/2000/svg" width="1200" height="720" viewBox="0 0 1200 720">
<rect width="1200" height="720" fill="#fbfaf7"/>
<rect x="70" y="135" width="750" height="450" rx="18" fill="#fffefb" stroke="#c9c2b8" stroke-width="2"/>
<text x="70" y="70" font-size="34" font-family="PingFang SC, Arial" fill="#1f2933">案例25｜蓝思科技 300433</text>
<text x="850" y="70" font-size="34" font-family="PingFang SC, Arial" fill="#b7791f">72/100  勉强</text>
<rect x="282" y="210" width="386" height="195" fill="none" stroke="#2563eb" stroke-width="3"/>
<text x="90" y="162" font-size="13" font-family="PingFang SC, Arial" fill="#4b5563" font-weight="bold">均线</text>
<line x1="125" y1="159" x2="145" y2="159" stroke="#f59e0b" stroke-width="3"/>
<text x="149" y="162" font-size="12" font-family="PingFang SC, Arial" fill="#f59e0b">MA5</text>
<line x1="183" y1="159" x2="203" y2="159" stroke="#8b5cf6" stroke-width="3" stroke-dasharray="6,4"/>
<text x="207" y="162" font-size="12" font-family="PingFang SC, Arial" fill="#8b5cf6">MA10</text>
<line x1="241" y1="159" x2="261" y2="159" stroke="#10b981" stroke-width="3"/>
<text x="265" y="162" font-size="12" font-family="PingFang SC, Arial" fill="#10b981">MA20</text>
<line x1="299" y1="159" x2="319" y2="159" stroke="#f97316" stroke-width="3"/>
<text x="323" y="162" font-size="12" font-family="PingFang SC, Arial" fill="#f97316">MA30</text>
<line x1="357" y1="159" x2="377" y2="159" stroke="#ef4444" stroke-width="3"/>
<text x="381" y="162" font-size="12" font-family="PingFang SC, Arial" fill="#ef4444">MA60</text>
<line x1="415" y1="159" x2="435" y2="159" stroke="#6b7280" stroke-width="3"/>
<text x="439" y="162" font-size="12" font-family="PingFang SC, Arial" fill="#6b7280">MA120</text>
<line x1="110" y1="251" x2="780" y2="251" stroke="#7c3aed" stroke-width="2" stroke-dasharray="8,4"/>
<text x="630" y="241" font-size="15" font-family="PingFang SC, Arial" fill="#6d28d9">前高压力线</text>
<rect x="292" y="313" width="270" height="148" fill="none" stroke="#2563eb" stroke-width="3"/>
<text x="292" y="303" font-size="15" font-family="PingFang SC, Arial" fill="#1d4ed8">高位窄箱体</text>
<polyline points="115,447 163,440 211,436 259,412 307,409 355,405 403,405 451,383 499,400 547,398 595,390 643,370 691,352 739,319" fill="none" stroke="#f59e0b" stroke-width="2.5"/>
<polyline points="115,477 163,474 211,466 259,443 307,435 355,426 403,423 451,409 499,406 547,404 595,397 643,388 691,368 739,359" fill="none" stroke="#8b5cf6" stroke-width="2.5" stroke-dasharray="8,4"/>
<polyline points="115,489 163,487 211,484 259,475 307,471 355,467 403,464 451,454 499,448 547,443 595,437 643,430 691,418 739,401" fill="none" stroke="#10b981" stroke-width="2.5"/>
<polyline points="115,507 163,503 211,500 259,492 307,487 355,483 403,479 451,471 499,467 547,464 595,459 643,453 691,446 739,436" fill="none" stroke="#f97316" stroke-width="2.5"/>
<polyline points="115,492 163,490 211,489 259,484 307,482 355,480 403,477 451,474 499,472 547,471 595,469 643,466 691,464 739,459" fill="none" stroke="#ef4444" stroke-width="2.5"/>
<polyline points="115,462 163,463 211,464 259,463 307,464 355,465 403,465 451,465 499,465 547,465 595,465 643,465 691,463 739,461" fill="none" stroke="#6b7280" stroke-width="2.5"/>
<line x1="115" y1="422" x2="115" y2="462" stroke="#2f9e67" stroke-width="3"/>
<rect x="104" y="438" width="22" height="9" fill="#2f9e67"/>
<line x1="163" y1="416" x2="163" y2="457" stroke="#d74b42" stroke-width="3"/>
<rect x="152" y="431" width="22" height="10" fill="#d74b42"/>
<line x1="211" y1="423" x2="211" y2="474" stroke="#2f9e67" stroke-width="3"/>
<rect x="200" y="439" width="22" height="19" fill="#2f9e67"/>
<line x1="259" y1="276" x2="259" y2="397" stroke="#2f9e67" stroke-width="3"/>
<rect x="248" y="311" width="22" height="60" fill="#2f9e67"/>
<line x1="307" y1="406" x2="307" y2="433" stroke="#2f9e67" stroke-width="3"/>
<rect x="296" y="416" width="22" height="8" fill="#2f9e67"/>
<line x1="355" y1="390" x2="355" y2="428" stroke="#d74b42" stroke-width="3"/>
<rect x="344" y="400" width="22" height="18" fill="#d74b42"/>
<line x1="403" y1="432" x2="403" y2="456" stroke="#2f9e67" stroke-width="3"/>
<rect x="392" y="441" width="22" height="6" fill="#2f9e67"/>
<line x1="451" y1="318" x2="451" y2="346" stroke="#2f9e67" stroke-width="3"/>
<rect x="440" y="328" width="22" height="8" fill="#2f9e67"/>
<line x1="499" y1="368" x2="499" y2="404" stroke="#d74b42" stroke-width="3"/>
<rect x="488" y="378" width="22" height="16" fill="#d74b42"/>
<line x1="547" y1="400" x2="547" y2="424" stroke="#2f9e67" stroke-width="3"/>
<rect x="536" y="409" width="22" height="6" fill="#2f9e67"/>
<line x1="595" y1="357" x2="595" y2="421" stroke="#2f9e67" stroke-width="3"/>
<rect x="584" y="376" width="22" height="33" fill="#2f9e67"/>
<line x1="643" y1="323" x2="643" y2="381" stroke="#2f9e67" stroke-width="3"/>
<rect x="632" y="343" width="22" height="25" fill="#2f9e67"/>
<line x1="691" y1="217" x2="691" y2="314" stroke="#2f9e67" stroke-width="3"/>
<rect x="680" y="242" width="22" height="54" fill="#2f9e67"/>
<line x1="739" y1="207" x2="739" y2="266" stroke="#2f9e67" stroke-width="3"/>
<rect x="728" y="225" width="22" height="32" fill="#2f9e67"/>
<rect x="103" y="548" width="24" height="12" fill="#6abf88"/>
<rect x="151" y="546" width="24" height="14" fill="#d74b42"/>
<rect x="199" y="544" width="24" height="16" fill="#6abf88"/>
<rect x="247" y="502" width="24" height="58" fill="#6abf88"/>
<rect x="295" y="542" width="24" height="18" fill="#6abf88"/>
<rect x="343" y="544" width="24" height="16" fill="#d74b42"/>
<rect x="391" y="542" width="24" height="18" fill="#6abf88"/>
<rect x="439" y="546" width="24" height="14" fill="#6abf88"/>
<rect x="487" y="546" width="24" height="14" fill="#d74b42"/>
<rect x="535" y="544" width="24" height="16" fill="#6abf88"/>
<rect x="583" y="530" width="24" height="30" fill="#6abf88"/>
<rect x="631" y="542" width="24" height="18" fill="#6abf88"/>
<rect x="679" y="505" width="24" height="55" fill="#6abf88"/>
<rect x="727" y="525" width="24" height="35" fill="#6abf88"/>
<text x="90" y="578" font-size="15" font-family="PingFang SC, Arial" fill="#6b7280">量能区</text>
<circle cx="451" cy="346" r="6" fill="none" stroke="#ef4444" stroke-width="2"/>
<text x="461" y="361" font-size="13" font-family="PingFang SC, Arial" fill="#dc2626">低吸试错点</text>
<circle cx="691" cy="217" r="6" fill="#ef4444" stroke="none"/>
<text x="651" y="202" font-size="13" font-family="PingFang SC, Arial" fill="#dc2626">突破确认点</text>
<rect x="850" y="135" width="280" height="450" rx="16" fill="#ffffff" stroke="#d0c7bc"/>
<text x="875" y="178" font-size="24" font-family="PingFang SC, Arial" fill="#111827">点评</text>
<text x="875" y="220" font-size="18" font-family="PingFang SC, Arial" fill="#374151">结构在但位置险</text>
<text x="875" y="262" font-size="18" font-family="PingFang SC, Arial" fill="#4b5563">• 台阶上行</text>
<text x="875" y="296" font-size="18" font-family="PingFang SC, Arial" fill="#4b5563">• 巨量突破</text>
<text x="875" y="330" font-size="18" font-family="PingFang SC, Arial" fill="#4b5563">• 风险：远离5日线</text>
<text x="875" y="655" font-size="18" font-family="PingFang SC, Arial" fill="#7c746b">教学示意图：重绘，不复刻原截图</text>
</svg>
