<svg xmlns="http://www.w3.org/2000/svg" width="1200" height="720" viewBox="0 0 1200 720">
<rect width="1200" height="720" fill="#fbfaf7"/>
<rect x="70" y="135" width="750" height="450" rx="18" fill="#fffefb" stroke="#c9c2b8" stroke-width="2"/>
<text x="70" y="70" font-size="34" font-family="PingFang SC, Arial" fill="#1f2933">案例20｜阿尔特</text>
<text x="850" y="70" font-size="34" font-family="PingFang SC, Arial" fill="#0f8a4b">72/100  较标准</text>
<rect x="282" y="395" width="386" height="93" fill="none" stroke="#2563eb" stroke-width="3"/>
<text x="90" y="162" font-size="13" font-family="PingFang SC, Arial" fill="#4b5563" font-weight="bold">均线</text>
<line x1="125" y1="159" x2="145" y2="159" stroke="#f59e0b" stroke-width="3"/>
<text x="149" y="162" font-size="12" font-family="PingFang SC, Arial" fill="#f59e0b">MA5</text>
<line x1="183" y1="159" x2="203" y2="159" stroke="#8b5cf6" stroke-width="3" stroke-dasharray="6,4"/>
<text x="207" y="162" font-size="12" font-family="PingFang SC, Arial" fill="#8b5cf6">MA10</text>
<line x1="241" y1="159" x2="261" y2="159" stroke="#10b981" stroke-width="3"/>
<text x="265" y="162" font-size="12" font-family="PingFang SC, Arial" fill="#10b981">MA20</text>
<line x1="299" y1="159" x2="319" y2="159" stroke="#f97316" stroke-width="3"/>
<text x="323" y="162" font-size="12" font-family="PingFang SC, Arial" fill="#f97316">MA30</text>
<line x1="357" y1="159" x2="377" y2="159" stroke="#ef4444" stroke-width="3"/>
<text x="381" y="162" font-size="12" font-family="PingFang SC, Arial" fill="#ef4444">MA60</text>
<line x1="415" y1="159" x2="435" y2="159" stroke="#6b7280" stroke-width="3"/>
<text x="439" y="162" font-size="12" font-family="PingFang SC, Arial" fill="#6b7280">MA120</text>
<polyline points="115,379 163,389 211,392 259,384 307,372 355,358 403,339 451,328 499,321 547,309 595,305 643,297 691,274 739,262" fill="none" stroke="#f59e0b" stroke-width="2.5"/>
<polyline points="115,373 163,375 211,379 259,375 307,373 355,368 403,363 451,360 499,352 547,340 595,332 643,317 691,301 739,291" fill="none" stroke="#8b5cf6" stroke-width="2.5" stroke-dasharray="8,4"/>
<polyline points="115,389 163,388 211,386 259,382 307,379 355,375 403,372 451,368 499,363 547,356 595,352 643,346 691,340 739,333" fill="none" stroke="#10b981" stroke-width="2.5"/>
<polyline points="115,415 163,413 211,410 259,405 307,400 355,394 403,390 451,385 499,380 547,375 595,370 643,365 691,357 739,352" fill="none" stroke="#f97316" stroke-width="2.5"/>
<polyline points="115,461 163,460 211,457 259,454 307,452 355,448 403,445 451,441 499,437 547,433 595,430 643,426 691,421 739,417" fill="none" stroke="#ef4444" stroke-width="2.5"/>
<polyline points="115,506 163,505 211,503 259,501 307,499 355,497 403,495 451,493 499,491 547,488 595,487 643,484 691,481 739,479" fill="none" stroke="#6b7280" stroke-width="2.5"/>
<rect x="289" y="280" width="276" height="77" fill="none" stroke="#2563eb" stroke-width="3"/>
<text x="289" y="268" font-size="15" font-family="PingFang SC, Arial" fill="#1d4ed8">高位窄箱体</text>
<line x1="110" y1="302" x2="780" y2="302" stroke="#7c3aed" stroke-width="2" stroke-dasharray="8,4"/>
<text x="630" y="292" font-size="15" font-family="PingFang SC, Arial" fill="#6d28d9">前高压力线</text>
<line x1="115" y1="391" x2="115" y2="406" stroke="#e83c3c" stroke-width="3"/>
<rect x="104" y="393" width="22" height="12" fill="#e83c3c"/>
<line x1="163" y1="386" x2="163" y2="408" stroke="#20b86e" stroke-width="3"/>
<rect x="152" y="388" width="22" height="18" fill="#20b86e"/>
<line x1="211" y1="375" x2="211" y2="410" stroke="#e83c3c" stroke-width="3"/>
<rect x="200" y="382" width="22" height="24" fill="#e83c3c"/>
<line x1="259" y1="327" x2="259" y2="388" stroke="#e83c3c" stroke-width="3"/>
<rect x="248" y="334" width="22" height="49" fill="#e83c3c"/>
<line x1="307" y1="325" x2="307" y2="352" stroke="#20b86e" stroke-width="3"/>
<rect x="296" y="328" width="22" height="19" fill="#20b86e"/>
<line x1="355" y1="318" x2="355" y2="349" stroke="#e83c3c" stroke-width="3"/>
<rect x="344" y="322" width="22" height="25" fill="#e83c3c"/>
<line x1="403" y1="308" x2="403" y2="324" stroke="#e83c3c" stroke-width="3"/>
<rect x="392" y="310" width="22" height="13" fill="#e83c3c"/>
<line x1="451" y1="302" x2="451" y2="329" stroke="#20b86e" stroke-width="3"/>
<rect x="440" y="305" width="22" height="19" fill="#20b86e"/>
<line x1="499" y1="295" x2="499" y2="326" stroke="#e83c3c" stroke-width="3"/>
<rect x="488" y="299" width="22" height="25" fill="#e83c3c"/>
<line x1="547" y1="285" x2="547" y2="300" stroke="#e83c3c" stroke-width="3"/>
<rect x="536" y="286" width="22" height="13" fill="#e83c3c"/>
<line x1="595" y1="272" x2="595" y2="318" stroke="#20b86e" stroke-width="3"/>
<rect x="584" y="277" width="22" height="32" fill="#20b86e"/>
<line x1="643" y1="258" x2="643" y2="314" stroke="#e83c3c" stroke-width="3"/>
<rect x="632" y="265" width="22" height="45" fill="#e83c3c"/>
<line x1="691" y1="199" x2="691" y2="272" stroke="#e83c3c" stroke-width="3"/>
<rect x="680" y="208" width="22" height="59" fill="#e83c3c"/>
<line x1="739" y1="191" x2="739" y2="247" stroke="#20b86e" stroke-width="3"/>
<rect x="728" y="195" width="22" height="45" fill="#20b86e"/>
<rect x="103" y="550" width="24" height="10" fill="#e83c3c"/>
<rect x="151" y="545" width="24" height="15" fill="#20b86e"/>
<rect x="199" y="540" width="24" height="20" fill="#e83c3c"/>
<rect x="247" y="520" width="24" height="40" fill="#e83c3c"/>
<rect x="295" y="545" width="24" height="15" fill="#20b86e"/>
<rect x="343" y="540" width="24" height="20" fill="#e83c3c"/>
<rect x="391" y="550" width="24" height="10" fill="#e83c3c"/>
<rect x="439" y="545" width="24" height="15" fill="#20b86e"/>
<rect x="487" y="540" width="24" height="20" fill="#e83c3c"/>
<rect x="535" y="550" width="24" height="10" fill="#e83c3c"/>
<rect x="583" y="535" width="24" height="25" fill="#20b86e"/>
<rect x="631" y="525" width="24" height="35" fill="#e83c3c"/>
<rect x="679" y="515" width="24" height="45" fill="#e83c3c"/>
<rect x="727" y="525" width="24" height="35" fill="#20b86e"/>
<text x="90" y="578" font-size="15" font-family="PingFang SC, Arial" fill="#6b7280">量能区</text>
<rect x="850" y="135" width="280" height="450" rx="16" fill="#ffffff" stroke="#d0c7bc"/>
<text x="875" y="178" font-size="24" font-family="PingFang SC, Arial" fill="#111827">点评</text>
<text x="875" y="220" font-size="18" font-family="PingFang SC, Arial" fill="#374151">上升三角形成立，待放量</text>
<text x="875" y="262" font-size="18" font-family="PingFang SC, Arial" fill="#4b5563">• 低点抬高</text>
<text x="875" y="296" font-size="18" font-family="PingFang SC, Arial" fill="#4b5563">• 贴短均线</text>
<text x="875" y="330" font-size="18" font-family="PingFang SC, Arial" fill="#4b5563">• 风险：量能一般</text>
<text x="875" y="655" font-size="18" font-family="PingFang SC, Arial" fill="#7c746b">教学示意图：重绘，不复刻原截图</text>
</svg>
