<svg xmlns="http://www.w3.org/2000/svg" width="1200" height="720" viewBox="0 0 1200 720">
<rect width="1200" height="720" fill="#fbfaf7"/>
<rect x="70" y="135" width="750" height="450" rx="18" fill="#fffefb" stroke="#c9c2b8" stroke-width="2"/>
<text x="70" y="70" font-size="34" font-family="PingFang SC, Arial" fill="#1f2933">案例36｜浙能电力 600023</text>
<text x="850" y="70" font-size="34" font-family="PingFang SC, Arial" fill="#b7791f">70/100  勉强</text>
<text x="620" y="200" font-size="18" font-family="PingFang SC, Arial" fill="#6d28d9">前高/压力线</text>
<text x="90" y="162" font-size="13" font-family="PingFang SC, Arial" fill="#4b5563" font-weight="bold">均线</text>
<line x1="125" y1="159" x2="145" y2="159" stroke="#f59e0b" stroke-width="3"/>
<text x="149" y="162" font-size="12" font-family="PingFang SC, Arial" fill="#f59e0b">MA5</text>
<line x1="183" y1="159" x2="203" y2="159" stroke="#8b5cf6" stroke-width="3" stroke-dasharray="6,4"/>
<text x="207" y="162" font-size="12" font-family="PingFang SC, Arial" fill="#8b5cf6">MA10</text>
<line x1="241" y1="159" x2="261" y2="159" stroke="#10b981" stroke-width="3"/>
<text x="265" y="162" font-size="12" font-family="PingFang SC, Arial" fill="#10b981">MA20</text>
<line x1="299" y1="159" x2="319" y2="159" stroke="#f97316" stroke-width="3"/>
<text x="323" y="162" font-size="12" font-family="PingFang SC, Arial" fill="#f97316">MA30</text>
<line x1="357" y1="159" x2="377" y2="159" stroke="#ef4444" stroke-width="3"/>
<text x="381" y="162" font-size="12" font-family="PingFang SC, Arial" fill="#ef4444">MA60</text>
<line x1="415" y1="159" x2="435" y2="159" stroke="#6b7280" stroke-width="3"/>
<text x="439" y="162" font-size="12" font-family="PingFang SC, Arial" fill="#6b7280">MA120</text>
<polyline points="115,386 163,390 211,390 259,378 307,367 355,353 403,335 451,324 499,317 547,305 595,303 643,294 691,271 739,260" fill="none" stroke="#f59e0b" stroke-width="2.5"/>
<polyline points="115,389 163,389 211,387 259,381 307,376 355,370 403,362 451,357 499,348 547,336 595,328 643,315 691,298 739,288" fill="none" stroke="#8b5cf6" stroke-width="2.5" stroke-dasharray="8,4"/>
<polyline points="115,418 163,414 211,409 259,402 307,396 355,390 403,383 451,377 499,369 547,363 595,359 643,352 691,342 739,334" fill="none" stroke="#10b981" stroke-width="2.5"/>
<polyline points="115,442 163,439 211,436 259,431 307,426 355,420 403,413 451,407 499,400 547,394 595,388 643,381 691,371 739,365" fill="none" stroke="#f97316" stroke-width="2.5"/>
<polyline points="115,473 163,471 211,468 259,464 307,461 355,457 403,454 451,451 499,447 547,443 595,440 643,436 691,431 739,427" fill="none" stroke="#ef4444" stroke-width="2.5"/>
<polyline points="115,507 163,506 211,504 259,502 307,500 355,499 403,497 451,494 499,493 547,491 595,488 643,486 691,484 739,482" fill="none" stroke="#6b7280" stroke-width="2.5"/>
<line x1="110" y1="235" x2="780" y2="235" stroke="#7c3aed" stroke-width="2" stroke-dasharray="8,4"/>
<text x="630" y="225" font-size="15" font-family="PingFang SC, Arial" fill="#6d28d9">前高压力线</text>
<rect x="292" y="310" width="270" height="174" fill="none" stroke="#2563eb" stroke-width="3"/>
<text x="292" y="298" font-size="15" font-family="PingFang SC, Arial" fill="#1d4ed8">高位窄箱体</text>
<line x1="115" y1="386" x2="115" y2="400" stroke="#2f9e67" stroke-width="3"/>
<rect x="104" y="387" width="22" height="12" fill="#2f9e67"/>
<line x1="163" y1="381" x2="163" y2="402" stroke="#d74b42" stroke-width="3"/>
<rect x="152" y="382" width="22" height="17" fill="#d74b42"/>
<line x1="211" y1="370" x2="211" y2="404" stroke="#2f9e67" stroke-width="3"/>
<rect x="200" y="377" width="22" height="23" fill="#2f9e67"/>
<line x1="259" y1="323" x2="259" y2="382" stroke="#2f9e67" stroke-width="3"/>
<rect x="248" y="330" width="22" height="48" fill="#2f9e67"/>
<line x1="307" y1="322" x2="307" y2="348" stroke="#d74b42" stroke-width="3"/>
<rect x="296" y="325" width="22" height="18" fill="#d74b42"/>
<line x1="355" y1="316" x2="355" y2="346" stroke="#2f9e67" stroke-width="3"/>
<rect x="344" y="319" width="22" height="24" fill="#2f9e67"/>
<line x1="403" y1="306" x2="403" y2="321" stroke="#2f9e67" stroke-width="3"/>
<rect x="392" y="307" width="22" height="12" fill="#2f9e67"/>
<line x1="451" y1="299" x2="451" y2="326" stroke="#d74b42" stroke-width="3"/>
<rect x="440" y="302" width="22" height="18" fill="#d74b42"/>
<line x1="499" y1="292" x2="499" y2="323" stroke="#2f9e67" stroke-width="3"/>
<rect x="488" y="296" width="22" height="24" fill="#2f9e67"/>
<line x1="547" y1="282" x2="547" y2="297" stroke="#2f9e67" stroke-width="3"/>
<rect x="536" y="284" width="22" height="12" fill="#2f9e67"/>
<line x1="595" y1="270" x2="595" y2="315" stroke="#d74b42" stroke-width="3"/>
<rect x="584" y="275" width="22" height="31" fill="#d74b42"/>
<line x1="643" y1="257" x2="643" y2="311" stroke="#2f9e67" stroke-width="3"/>
<rect x="632" y="264" width="22" height="43" fill="#2f9e67"/>
<line x1="691" y1="198" x2="691" y2="270" stroke="#2f9e67" stroke-width="3"/>
<rect x="680" y="207" width="22" height="58" fill="#2f9e67"/>
<line x1="739" y1="191" x2="739" y2="246" stroke="#d74b42" stroke-width="3"/>
<rect x="728" y="195" width="22" height="44" fill="#d74b42"/>
<rect x="103" y="550" width="24" height="10" fill="#6abf88"/>
<rect x="151" y="545" width="24" height="15" fill="#d74b42"/>
<rect x="199" y="540" width="24" height="20" fill="#6abf88"/>
<rect x="247" y="520" width="24" height="40" fill="#6abf88"/>
<rect x="295" y="545" width="24" height="15" fill="#d74b42"/>
<rect x="343" y="540" width="24" height="20" fill="#6abf88"/>
<rect x="391" y="550" width="24" height="10" fill="#6abf88"/>
<rect x="439" y="545" width="24" height="15" fill="#d74b42"/>
<rect x="487" y="540" width="24" height="20" fill="#6abf88"/>
<rect x="535" y="550" width="24" height="10" fill="#6abf88"/>
<rect x="583" y="535" width="24" height="25" fill="#d74b42"/>
<rect x="631" y="525" width="24" height="35" fill="#6abf88"/>
<rect x="679" y="515" width="24" height="45" fill="#6abf88"/>
<rect x="727" y="525" width="24" height="35" fill="#d74b42"/>
<text x="90" y="578" font-size="15" font-family="PingFang SC, Arial" fill="#6b7280">量能区</text>
<rect x="850" y="135" width="280" height="450" rx="16" fill="#ffffff" stroke="#d0c7bc"/>
<text x="875" y="178" font-size="24" font-family="PingFang SC, Arial" fill="#111827">点评</text>
<text x="875" y="220" font-size="18" font-family="PingFang SC, Arial" fill="#374151">主升长阳，结构强但追高位差</text>
<text x="875" y="258" font-size="18" font-family="PingFang SC, Arial" fill="#374151">突破确认：6.77放量长阳</text>
<text x="875" y="296" font-size="18" font-family="PingFang SC, Arial" fill="#374151">失效：跌破启动阳线半分位</text>
<text x="875" y="655" font-size="18" font-family="PingFang SC, Arial" fill="#7c746b">教学重绘图：不复刻原截图</text>
</svg>
