<svg xmlns="http://www.w3.org/2000/svg" width="1200" height="720" viewBox="0 0 1200 720">
<rect width="1200" height="720" fill="#fbfaf7"/>
<rect x="70" y="135" width="750" height="450" rx="18" fill="#fffefb" stroke="#c9c2b8" stroke-width="2"/>
<text x="70" y="70" font-size="34" font-family="PingFang SC, Arial" fill="#1f2933">案例45｜华天科技 002185</text>
<text x="850" y="70" font-size="34" font-family="PingFang SC, Arial" fill="#b7791f">68/100  勉强</text>
<text x="620" y="200" font-size="18" font-family="PingFang SC, Arial" fill="#6d28d9">前高/压力线</text>
<text x="90" y="162" font-size="13" font-family="PingFang SC, Arial" fill="#4b5563" font-weight="bold">均线</text>
<line x1="125" y1="159" x2="145" y2="159" stroke="#f59e0b" stroke-width="3"/>
<text x="149" y="162" font-size="12" font-family="PingFang SC, Arial" fill="#f59e0b">MA5</text>
<line x1="183" y1="159" x2="203" y2="159" stroke="#8b5cf6" stroke-width="3" stroke-dasharray="6,4"/>
<text x="207" y="162" font-size="12" font-family="PingFang SC, Arial" fill="#8b5cf6">MA10</text>
<line x1="241" y1="159" x2="261" y2="159" stroke="#10b981" stroke-width="3"/>
<text x="265" y="162" font-size="12" font-family="PingFang SC, Arial" fill="#10b981">MA20</text>
<line x1="299" y1="159" x2="319" y2="159" stroke="#f97316" stroke-width="3"/>
<text x="323" y="162" font-size="12" font-family="PingFang SC, Arial" fill="#f97316">MA30</text>
<line x1="357" y1="159" x2="377" y2="159" stroke="#ef4444" stroke-width="3"/>
<text x="381" y="162" font-size="12" font-family="PingFang SC, Arial" fill="#ef4444">MA60</text>
<line x1="415" y1="159" x2="435" y2="159" stroke="#6b7280" stroke-width="3"/>
<text x="439" y="162" font-size="12" font-family="PingFang SC, Arial" fill="#6b7280">MA120</text>
<polyline points="115,468 163,468 211,463 259,441 307,427 355,408 403,384 451,369 499,360 547,345 595,341 643,330 691,300 739,284" fill="none" stroke="#f59e0b" stroke-width="2.5"/>
<polyline points="115,486 163,481 211,472 259,458 307,448 355,439 403,427 451,416 499,401 547,386 595,375 643,357 691,334 739,323" fill="none" stroke="#8b5cf6" stroke-width="2.5" stroke-dasharray="8,4"/>
<polyline points="115,480 163,482 211,482 259,480 307,477 355,472 403,466 451,460 499,451 547,440 595,431 643,419 691,403 739,390" fill="none" stroke="#10b981" stroke-width="2.5"/>
<polyline points="115,483 163,482 211,481 259,476 307,472 355,467 403,461 451,458 499,452 547,448 595,445 643,440 691,433 739,428" fill="none" stroke="#f97316" stroke-width="2.5"/>
<polyline points="115,498 163,498 211,496 259,494 307,492 355,490 403,487 451,486 499,483 547,481 595,477 643,474 691,469 739,464" fill="none" stroke="#ef4444" stroke-width="2.5"/>
<polyline points="115,472 163,472 211,473 259,473 307,472 355,472 403,472 451,470 499,469 547,469 595,468 643,467 691,465 739,464" fill="none" stroke="#6b7280" stroke-width="2.5"/>
<line x1="110" y1="253" x2="780" y2="253" stroke="#7c3aed" stroke-width="2" stroke-dasharray="8,4"/>
<text x="630" y="243" font-size="15" font-family="PingFang SC, Arial" fill="#6d28d9">前高压力线</text>
<rect x="292" y="351" width="270" height="116" fill="none" stroke="#2563eb" stroke-width="3"/>
<text x="292" y="339" font-size="15" font-family="PingFang SC, Arial" fill="#1d4ed8">高位窄箱体</text>
<line x1="115" y1="450" x2="115" y2="469" stroke="#2f9e67" stroke-width="3"/>
<rect x="104" y="452" width="22" height="16" fill="#2f9e67"/>
<line x1="163" y1="445" x2="163" y2="473" stroke="#d74b42" stroke-width="3"/>
<rect x="152" y="447" width="22" height="22" fill="#d74b42"/>
<line x1="211" y1="430" x2="211" y2="475" stroke="#2f9e67" stroke-width="3"/>
<rect x="200" y="439" width="22" height="31" fill="#2f9e67"/>
<line x1="259" y1="367" x2="259" y2="445" stroke="#2f9e67" stroke-width="3"/>
<rect x="248" y="377" width="22" height="63" fill="#2f9e67"/>
<line x1="307" y1="366" x2="307" y2="401" stroke="#d74b42" stroke-width="3"/>
<rect x="296" y="370" width="22" height="24" fill="#d74b42"/>
<line x1="355" y1="359" x2="355" y2="398" stroke="#2f9e67" stroke-width="3"/>
<rect x="344" y="363" width="22" height="32" fill="#2f9e67"/>
<line x1="403" y1="345" x2="403" y2="365" stroke="#2f9e67" stroke-width="3"/>
<rect x="392" y="348" width="22" height="16" fill="#2f9e67"/>
<line x1="451" y1="336" x2="451" y2="372" stroke="#d74b42" stroke-width="3"/>
<rect x="440" y="341" width="22" height="24" fill="#d74b42"/>
<line x1="499" y1="328" x2="499" y2="368" stroke="#2f9e67" stroke-width="3"/>
<rect x="488" y="333" width="22" height="32" fill="#2f9e67"/>
<line x1="547" y1="314" x2="547" y2="334" stroke="#2f9e67" stroke-width="3"/>
<rect x="536" y="316" width="22" height="16" fill="#2f9e67"/>
<line x1="595" y1="298" x2="595" y2="357" stroke="#d74b42" stroke-width="3"/>
<rect x="584" y="305" width="22" height="40" fill="#d74b42"/>
<line x1="643" y1="280" x2="643" y2="351" stroke="#2f9e67" stroke-width="3"/>
<rect x="632" y="289" width="22" height="57" fill="#2f9e67"/>
<line x1="691" y1="204" x2="691" y2="298" stroke="#2f9e67" stroke-width="3"/>
<rect x="680" y="216" width="22" height="76" fill="#2f9e67"/>
<line x1="739" y1="195" x2="739" y2="267" stroke="#d74b42" stroke-width="3"/>
<rect x="728" y="200" width="22" height="59" fill="#d74b42"/>
<rect x="103" y="550" width="24" height="10" fill="#6abf88"/>
<rect x="151" y="545" width="24" height="15" fill="#d74b42"/>
<rect x="199" y="540" width="24" height="20" fill="#6abf88"/>
<rect x="247" y="520" width="24" height="40" fill="#6abf88"/>
<rect x="295" y="545" width="24" height="15" fill="#d74b42"/>
<rect x="343" y="540" width="24" height="20" fill="#6abf88"/>
<rect x="391" y="550" width="24" height="10" fill="#6abf88"/>
<rect x="439" y="545" width="24" height="15" fill="#d74b42"/>
<rect x="487" y="540" width="24" height="20" fill="#6abf88"/>
<rect x="535" y="550" width="24" height="10" fill="#6abf88"/>
<rect x="583" y="535" width="24" height="25" fill="#d74b42"/>
<rect x="631" y="525" width="24" height="35" fill="#6abf88"/>
<rect x="679" y="515" width="24" height="45" fill="#6abf88"/>
<rect x="727" y="525" width="24" height="35" fill="#d74b42"/>
<text x="90" y="578" font-size="15" font-family="PingFang SC, Arial" fill="#6b7280">量能区</text>
<rect x="850" y="135" width="280" height="450" rx="16" fill="#ffffff" stroke="#d0c7bc"/>
<text x="875" y="178" font-size="24" font-family="PingFang SC, Arial" fill="#111827">点评</text>
<text x="875" y="220" font-size="18" font-family="PingFang SC, Arial" fill="#374151">深V反弹，未成标准窄箱</text>
<text x="875" y="258" font-size="18" font-family="PingFang SC, Arial" fill="#374151">低吸观察：14.3-14.</text>
<text x="875" y="286" font-size="18" font-family="PingFang SC, Arial" fill="#374151">6</text>
<text x="875" y="324" font-size="18" font-family="PingFang SC, Arial" fill="#374151">突破确认：过15.4-16</text>
<text x="875" y="655" font-size="18" font-family="PingFang SC, Arial" fill="#7c746b">教学重绘图：不复刻原截图</text>
</svg>
