<svg xmlns="http://www.w3.org/2000/svg" width="1200" height="720" viewBox="0 0 1200 720">
<rect width="1200" height="720" fill="#fbfaf7"/>
<rect x="70" y="135" width="750" height="450" rx="18" fill="#fffefb" stroke="#c9c2b8" stroke-width="2"/>
<text x="70" y="70" font-size="34" font-family="PingFang SC, Arial" fill="#1f2933">案例06｜惠丰钻石 920725</text>
<text x="850" y="70" font-size="34" font-family="PingFang SC, Arial" fill="#b7791f">50/100  勉强</text>
<rect x="282" y="160" width="338" height="220" fill="none" stroke="#2563eb" stroke-width="3"/>
<text x="90" y="162" font-size="13" font-family="PingFang SC, Arial" fill="#4b5563" font-weight="bold">均线</text>
<line x1="125" y1="159" x2="145" y2="159" stroke="#f59e0b" stroke-width="3"/>
<text x="149" y="162" font-size="12" font-family="PingFang SC, Arial" fill="#f59e0b">MA5</text>
<line x1="183" y1="159" x2="203" y2="159" stroke="#8b5cf6" stroke-width="3" stroke-dasharray="6,4"/>
<text x="207" y="162" font-size="12" font-family="PingFang SC, Arial" fill="#8b5cf6">MA10</text>
<line x1="241" y1="159" x2="261" y2="159" stroke="#10b981" stroke-width="3"/>
<text x="265" y="162" font-size="12" font-family="PingFang SC, Arial" fill="#10b981">MA20</text>
<line x1="299" y1="159" x2="319" y2="159" stroke="#f97316" stroke-width="3"/>
<text x="323" y="162" font-size="12" font-family="PingFang SC, Arial" fill="#f97316">MA30</text>
<line x1="357" y1="159" x2="377" y2="159" stroke="#ef4444" stroke-width="3"/>
<text x="381" y="162" font-size="12" font-family="PingFang SC, Arial" fill="#ef4444">MA60</text>
<line x1="415" y1="159" x2="435" y2="159" stroke="#6b7280" stroke-width="3"/>
<text x="439" y="162" font-size="12" font-family="PingFang SC, Arial" fill="#6b7280">MA120</text>
<line x1="110" y1="267" x2="780" y2="267" stroke="#7c3aed" stroke-width="2" stroke-dasharray="8,4"/>
<text x="630" y="257" font-size="15" font-family="PingFang SC, Arial" fill="#6d28d9">前高压力线</text>
<rect x="292" y="315" width="270" height="119" fill="none" stroke="#2563eb" stroke-width="3"/>
<text x="292" y="305" font-size="15" font-family="PingFang SC, Arial" fill="#1d4ed8">高位窄箱体</text>
<polyline points="115,410 163,417 211,426 259,407 307,405 355,403 403,400 451,381 499,393 547,391 595,381 643,364 691,343 739,310" fill="none" stroke="#f59e0b" stroke-width="2.5"/>
<polyline points="115,401 163,402 211,408 259,401 307,405 355,406 403,409 451,403 499,400 547,398 595,392 643,382 691,362 739,352" fill="none" stroke="#8b5cf6" stroke-width="2.5" stroke-dasharray="8,4"/>
<polyline points="115,449 163,445 211,440 259,430 307,423 355,416 403,412 451,404 499,400 547,399 595,397 643,392 691,385 739,376" fill="none" stroke="#10b981" stroke-width="2.5"/>
<polyline points="115,487 163,482 211,477 259,468 307,462 355,457 403,453 451,445 499,441 547,436 595,430 643,424 691,414 739,404" fill="none" stroke="#f97316" stroke-width="2.5"/>
<polyline points="115,508 163,508 211,508 259,506 307,505 355,504 403,503 451,501 499,499 547,497 595,495 643,492 691,487 739,483" fill="none" stroke="#ef4444" stroke-width="2.5"/>
<polyline points="115,409 163,412 211,414 259,415 307,417 355,419 403,421 451,422 499,424 547,425 595,427 643,428 691,428 739,428" fill="none" stroke="#6b7280" stroke-width="2.5"/>
<line x1="115" y1="400" x2="115" y2="438" stroke="#d74b42" stroke-width="3"/>
<rect x="104" y="415" width="22" height="9" fill="#d74b42"/>
<line x1="163" y1="417" x2="163" y2="455" stroke="#2f9e67" stroke-width="3"/>
<rect x="152" y="431" width="22" height="9" fill="#2f9e67"/>
<line x1="211" y1="409" x2="211" y2="455" stroke="#d74b42" stroke-width="3"/>
<rect x="200" y="424" width="22" height="17" fill="#d74b42"/>
<line x1="259" y1="292" x2="259" y2="403" stroke="#2f9e67" stroke-width="3"/>
<rect x="248" y="323" width="22" height="56" fill="#2f9e67"/>
<line x1="307" y1="395" x2="307" y2="428" stroke="#2f9e67" stroke-width="3"/>
<rect x="296" y="405" width="22" height="14" fill="#2f9e67"/>
<line x1="355" y1="389" x2="355" y2="422" stroke="#d74b42" stroke-width="3"/>
<rect x="344" y="399" width="22" height="14" fill="#d74b42"/>
<line x1="403" y1="400" x2="403" y2="429" stroke="#d74b42" stroke-width="3"/>
<rect x="392" y="409" width="22" height="11" fill="#d74b42"/>
<line x1="451" y1="320" x2="451" y2="351" stroke="#d74b42" stroke-width="3"/>
<rect x="440" y="329" width="22" height="12" fill="#d74b42"/>
<line x1="499" y1="358" x2="499" y2="394" stroke="#d74b42" stroke-width="3"/>
<rect x="488" y="366" width="22" height="18" fill="#d74b42"/>
<line x1="547" y1="375" x2="547" y2="404" stroke="#d74b42" stroke-width="3"/>
<rect x="536" y="384" width="22" height="10" fill="#d74b42"/>
<line x1="595" y1="346" x2="595" y2="400" stroke="#2f9e67" stroke-width="3"/>
<rect x="584" y="364" width="22" height="24" fill="#2f9e67"/>
<line x1="643" y1="309" x2="643" y2="345" stroke="#d74b42" stroke-width="3"/>
<rect x="632" y="328" width="22" height="6" fill="#d74b42"/>
<line x1="691" y1="215" x2="691" y2="305" stroke="#2f9e67" stroke-width="3"/>
<rect x="680" y="239" width="22" height="50" fill="#2f9e67"/>
<line x1="739" y1="205" x2="739" y2="268" stroke="#2f9e67" stroke-width="3"/>
<rect x="728" y="222" width="22" height="37" fill="#2f9e67"/>
<rect x="103" y="548" width="24" height="12" fill="#d74b42"/>
<rect x="151" y="546" width="24" height="14" fill="#6abf88"/>
<rect x="199" y="544" width="24" height="16" fill="#d74b42"/>
<rect x="247" y="502" width="24" height="58" fill="#6abf88"/>
<rect x="295" y="542" width="24" height="18" fill="#6abf88"/>
<rect x="343" y="544" width="24" height="16" fill="#d74b42"/>
<rect x="391" y="542" width="24" height="18" fill="#d74b42"/>
<rect x="439" y="546" width="24" height="14" fill="#d74b42"/>
<rect x="487" y="546" width="24" height="14" fill="#d74b42"/>
<rect x="535" y="544" width="24" height="16" fill="#d74b42"/>
<rect x="583" y="530" width="24" height="30" fill="#6abf88"/>
<rect x="631" y="542" width="24" height="18" fill="#d74b42"/>
<rect x="679" y="505" width="24" height="55" fill="#6abf88"/>
<rect x="727" y="525" width="24" height="35" fill="#6abf88"/>
<text x="90" y="578" font-size="15" font-family="PingFang SC, Arial" fill="#6b7280">量能区</text>
<circle cx="451" cy="351" r="6" fill="none" stroke="#ef4444" stroke-width="2"/>
<text x="461" y="366" font-size="13" font-family="PingFang SC, Arial" fill="#dc2626">低吸试错点</text>
<circle cx="691" cy="215" r="6" fill="#ef4444" stroke="none"/>
<text x="651" y="200" font-size="13" font-family="PingFang SC, Arial" fill="#dc2626">突破确认点</text>
<rect x="850" y="135" width="280" height="450" rx="16" fill="#ffffff" stroke="#d0c7bc"/>
<text x="875" y="178" font-size="24" font-family="PingFang SC, Arial" fill="#111827">点评</text>
<text x="875" y="220" font-size="18" font-family="PingFang SC, Arial" fill="#374151">强势但直接加速，缺横盘蓄势</text>
<text x="875" y="262" font-size="18" font-family="PingFang SC, Arial" fill="#4b5563">• 连续放量大阳</text>
<text x="875" y="296" font-size="18" font-family="PingFang SC, Arial" fill="#4b5563">• 未见4日窄箱</text>
<text x="875" y="330" font-size="18" font-family="PingFang SC, Arial" fill="#4b5563">• 风险：鱼尾加速</text>
<text x="875" y="655" font-size="18" font-family="PingFang SC, Arial" fill="#7c746b">教学示意图：重绘，不复刻原截图</text>
</svg>
