<svg xmlns="http://www.w3.org/2000/svg" width="1200" height="720" viewBox="0 0 1200 720">
<rect width="1200" height="720" fill="#fbfaf7"/>
<rect x="70" y="135" width="750" height="450" rx="18" fill="#fffefb" stroke="#c9c2b8" stroke-width="2"/>
<text x="70" y="70" font-size="34" font-family="PingFang SC, Arial" fill="#1f2933">案例19｜中钨高新</text>
<text x="850" y="70" font-size="34" font-family="PingFang SC, Arial" fill="#b7791f">65/100  勉强</text>
<text x="90" y="162" font-size="13" font-family="PingFang SC, Arial" fill="#4b5563" font-weight="bold">均线</text>
<line x1="125" y1="159" x2="145" y2="159" stroke="#f59e0b" stroke-width="3"/>
<text x="149" y="162" font-size="12" font-family="PingFang SC, Arial" fill="#f59e0b">MA5</text>
<line x1="183" y1="159" x2="203" y2="159" stroke="#8b5cf6" stroke-width="3" stroke-dasharray="6,4"/>
<text x="207" y="162" font-size="12" font-family="PingFang SC, Arial" fill="#8b5cf6">MA10</text>
<line x1="241" y1="159" x2="261" y2="159" stroke="#10b981" stroke-width="3"/>
<text x="265" y="162" font-size="12" font-family="PingFang SC, Arial" fill="#10b981">MA20</text>
<line x1="299" y1="159" x2="319" y2="159" stroke="#f97316" stroke-width="3"/>
<text x="323" y="162" font-size="12" font-family="PingFang SC, Arial" fill="#f97316">MA30</text>
<line x1="357" y1="159" x2="377" y2="159" stroke="#ef4444" stroke-width="3"/>
<text x="381" y="162" font-size="12" font-family="PingFang SC, Arial" fill="#ef4444">MA60</text>
<line x1="415" y1="159" x2="435" y2="159" stroke="#6b7280" stroke-width="3"/>
<text x="439" y="162" font-size="12" font-family="PingFang SC, Arial" fill="#6b7280">MA120</text>
<polyline points="115,483 163,476 211,464 259,446 307,432 355,413 403,389 451,373 499,364 547,348 595,344 643,332 691,303 739,287" fill="none" stroke="#f59e0b" stroke-width="2.5"/>
<polyline points="115,497 163,496 211,493 259,479 307,465 355,448 403,432 451,418 499,405 547,390 595,379 643,361 691,338 739,326" fill="none" stroke="#8b5cf6" stroke-width="2.5" stroke-dasharray="8,4"/>
<polyline points="115,492 163,491 211,489 259,485 307,480 355,475 403,468 451,461 499,453 547,445 595,437 643,428 691,415 739,402" fill="none" stroke="#10b981" stroke-width="2.5"/>
<polyline points="115,487 163,486 211,485 259,482 307,480 355,477 403,474 451,470 499,466 547,459 595,455 643,447 691,438 739,432" fill="none" stroke="#f97316" stroke-width="2.5"/>
<polyline points="115,490 163,490 211,489 259,487 307,486 355,485 403,482 451,480 499,477 547,475 595,472 643,469 691,465 739,463" fill="none" stroke="#ef4444" stroke-width="2.5"/>
<polyline points="115,453 163,454 211,454 259,453 307,453 355,453 403,451 451,451 499,450 547,449 595,448 643,447 691,445 739,443" fill="none" stroke="#6b7280" stroke-width="2.5"/>
<line x1="110" y1="255" x2="780" y2="255" stroke="#7c3aed" stroke-width="2" stroke-dasharray="8,4"/>
<text x="630" y="245" font-size="15" font-family="PingFang SC, Arial" fill="#6d28d9">前高压力线</text>
<rect x="292" y="355" width="270" height="110" fill="none" stroke="#2563eb" stroke-width="3"/>
<text x="292" y="343" font-size="15" font-family="PingFang SC, Arial" fill="#1d4ed8">高位窄箱体</text>
<line x1="115" y1="456" x2="115" y2="475" stroke="#2f9e67" stroke-width="3"/>
<rect x="104" y="458" width="22" height="16" fill="#2f9e67"/>
<line x1="163" y1="449" x2="163" y2="478" stroke="#d74b42" stroke-width="3"/>
<rect x="152" y="451" width="22" height="24" fill="#d74b42"/>
<line x1="211" y1="434" x2="211" y2="481" stroke="#2f9e67" stroke-width="3"/>
<rect x="200" y="444" width="22" height="31" fill="#2f9e67"/>
<line x1="259" y1="372" x2="259" y2="452" stroke="#2f9e67" stroke-width="3"/>
<rect x="248" y="382" width="22" height="64" fill="#2f9e67"/>
<line x1="307" y1="370" x2="307" y2="406" stroke="#d74b42" stroke-width="3"/>
<rect x="296" y="375" width="22" height="24" fill="#d74b42"/>
<line x1="355" y1="362" x2="355" y2="402" stroke="#2f9e67" stroke-width="3"/>
<rect x="344" y="367" width="22" height="32" fill="#2f9e67"/>
<line x1="403" y1="349" x2="403" y2="369" stroke="#2f9e67" stroke-width="3"/>
<rect x="392" y="351" width="22" height="16" fill="#2f9e67"/>
<line x1="451" y1="339" x2="451" y2="375" stroke="#d74b42" stroke-width="3"/>
<rect x="440" y="343" width="22" height="25" fill="#d74b42"/>
<line x1="499" y1="331" x2="499" y2="371" stroke="#2f9e67" stroke-width="3"/>
<rect x="488" y="336" width="22" height="32" fill="#2f9e67"/>
<line x1="547" y1="317" x2="547" y2="337" stroke="#2f9e67" stroke-width="3"/>
<rect x="536" y="319" width="22" height="17" fill="#2f9e67"/>
<line x1="595" y1="301" x2="595" y2="361" stroke="#d74b42" stroke-width="3"/>
<rect x="584" y="308" width="22" height="41" fill="#d74b42"/>
<line x1="643" y1="283" x2="643" y2="355" stroke="#2f9e67" stroke-width="3"/>
<rect x="632" y="292" width="22" height="58" fill="#2f9e67"/>
<line x1="691" y1="205" x2="691" y2="301" stroke="#2f9e67" stroke-width="3"/>
<rect x="680" y="216" width="22" height="78" fill="#2f9e67"/>
<line x1="739" y1="195" x2="739" y2="268" stroke="#d74b42" stroke-width="3"/>
<rect x="728" y="200" width="22" height="60" fill="#d74b42"/>
<rect x="103" y="550" width="24" height="10" fill="#6abf88"/>
<rect x="151" y="545" width="24" height="15" fill="#d74b42"/>
<rect x="199" y="540" width="24" height="20" fill="#6abf88"/>
<rect x="247" y="520" width="24" height="40" fill="#6abf88"/>
<rect x="295" y="545" width="24" height="15" fill="#d74b42"/>
<rect x="343" y="540" width="24" height="20" fill="#6abf88"/>
<rect x="391" y="550" width="24" height="10" fill="#6abf88"/>
<rect x="439" y="545" width="24" height="15" fill="#d74b42"/>
<rect x="487" y="540" width="24" height="20" fill="#6abf88"/>
<rect x="535" y="550" width="24" height="10" fill="#6abf88"/>
<rect x="583" y="535" width="24" height="25" fill="#d74b42"/>
<rect x="631" y="525" width="24" height="35" fill="#6abf88"/>
<rect x="679" y="515" width="24" height="45" fill="#6abf88"/>
<rect x="727" y="525" width="24" height="35" fill="#d74b42"/>
<text x="90" y="578" font-size="15" font-family="PingFang SC, Arial" fill="#6b7280">量能区</text>
<rect x="850" y="135" width="280" height="450" rx="16" fill="#ffffff" stroke="#d0c7bc"/>
<text x="875" y="178" font-size="24" font-family="PingFang SC, Arial" fill="#111827">点评</text>
<text x="875" y="220" font-size="18" font-family="PingFang SC, Arial" fill="#374151">通道内冲前高，缺窄箱</text>
<text x="875" y="262" font-size="18" font-family="PingFang SC, Arial" fill="#4b5563">• 均线多头</text>
<text x="875" y="296" font-size="18" font-family="PingFang SC, Arial" fill="#4b5563">• 冲击前高</text>
<text x="875" y="330" font-size="18" font-family="PingFang SC, Arial" fill="#4b5563">• 风险：双头压力</text>
<text x="875" y="655" font-size="18" font-family="PingFang SC, Arial" fill="#7c746b">教学示意图：重绘，不复刻原截图</text>
</svg>
