<svg xmlns="http://www.w3.org/2000/svg" width="1200" height="720" viewBox="0 0 1200 720">
<rect width="1200" height="720" fill="#fbfaf7"/>
<rect x="70" y="135" width="750" height="450" rx="18" fill="#fffefb" stroke="#c9c2b8" stroke-width="2"/>
<text x="70" y="70" font-size="34" font-family="PingFang SC, Arial" fill="#1f2933">案例21｜教学示意图</text>
<text x="850" y="70" font-size="34" font-family="PingFang SC, Arial" fill="#0f8a4b">88/100  标准</text>
<rect x="234" y="385" width="338" height="118" fill="none" stroke="#2563eb" stroke-width="3"/>
<text x="90" y="162" font-size="13" font-family="PingFang SC, Arial" fill="#4b5563" font-weight="bold">均线</text>
<line x1="125" y1="159" x2="145" y2="159" stroke="#f59e0b" stroke-width="3"/>
<text x="149" y="162" font-size="12" font-family="PingFang SC, Arial" fill="#f59e0b">MA5</text>
<line x1="183" y1="159" x2="203" y2="159" stroke="#8b5cf6" stroke-width="3" stroke-dasharray="6,4"/>
<text x="207" y="162" font-size="12" font-family="PingFang SC, Arial" fill="#8b5cf6">MA10</text>
<line x1="241" y1="159" x2="261" y2="159" stroke="#10b981" stroke-width="3"/>
<text x="265" y="162" font-size="12" font-family="PingFang SC, Arial" fill="#10b981">MA20</text>
<line x1="299" y1="159" x2="319" y2="159" stroke="#f97316" stroke-width="3"/>
<text x="323" y="162" font-size="12" font-family="PingFang SC, Arial" fill="#f97316">MA30</text>
<line x1="357" y1="159" x2="377" y2="159" stroke="#ef4444" stroke-width="3"/>
<text x="381" y="162" font-size="12" font-family="PingFang SC, Arial" fill="#ef4444">MA60</text>
<line x1="415" y1="159" x2="435" y2="159" stroke="#6b7280" stroke-width="3"/>
<text x="439" y="162" font-size="12" font-family="PingFang SC, Arial" fill="#6b7280">MA120</text>
<polyline points="115,467 163,464 211,459 259,444 307,430 355,411 403,386 451,372 499,362 547,347 595,343 643,331 691,302 739,286" fill="none" stroke="#f59e0b" stroke-width="2.5"/>
<polyline points="115,497 163,489 211,476 259,462 307,451 355,439 403,426 451,415 499,404 547,388 595,377 643,359 691,337 739,325" fill="none" stroke="#8b5cf6" stroke-width="2.5" stroke-dasharray="8,4"/>
<polyline points="115,487 163,491 211,494 259,491 307,488 355,484 403,476 451,468 499,459 547,448 595,438 643,425 691,407 739,393" fill="none" stroke="#10b981" stroke-width="2.5"/>
<polyline points="115,448 163,452 211,455 259,456 307,456 355,455 403,454 451,453 499,452 547,451 595,450 643,448 691,441 739,436" fill="none" stroke="#f97316" stroke-width="2.5"/>
<polyline points="115,388 163,389 211,391 259,391 307,392 355,393 403,392 451,392 499,391 547,391 595,391 643,389 691,387 739,385" fill="none" stroke="#ef4444" stroke-width="2.5"/>
<polyline points="115,449 163,449 211,448 259,447 307,445 355,444 403,442 451,441 499,439 547,438 595,437 643,434 691,432 739,430" fill="none" stroke="#6b7280" stroke-width="2.5"/>
<line x1="110" y1="254" x2="780" y2="254" stroke="#7c3aed" stroke-width="2" stroke-dasharray="8,4"/>
<text x="630" y="244" font-size="15" font-family="PingFang SC, Arial" fill="#6d28d9">前高压力线</text>
<rect x="292" y="354" width="270" height="111" fill="none" stroke="#2563eb" stroke-width="3"/>
<text x="292" y="342" font-size="15" font-family="PingFang SC, Arial" fill="#1d4ed8">高位窄箱体</text>
<line x1="115" y1="454" x2="115" y2="473" stroke="#2f9e67" stroke-width="3"/>
<rect x="104" y="456" width="22" height="16" fill="#2f9e67"/>
<line x1="163" y1="448" x2="163" y2="476" stroke="#d74b42" stroke-width="3"/>
<rect x="152" y="450" width="22" height="23" fill="#d74b42"/>
<line x1="211" y1="433" x2="211" y2="479" stroke="#2f9e67" stroke-width="3"/>
<rect x="200" y="442" width="22" height="31" fill="#2f9e67"/>
<line x1="259" y1="370" x2="259" y2="449" stroke="#2f9e67" stroke-width="3"/>
<rect x="248" y="380" width="22" height="64" fill="#2f9e67"/>
<line x1="307" y1="369" x2="307" y2="404" stroke="#d74b42" stroke-width="3"/>
<rect x="296" y="373" width="22" height="24" fill="#d74b42"/>
<line x1="355" y1="361" x2="355" y2="400" stroke="#2f9e67" stroke-width="3"/>
<rect x="344" y="365" width="22" height="33" fill="#2f9e67"/>
<line x1="403" y1="346" x2="403" y2="367" stroke="#2f9e67" stroke-width="3"/>
<rect x="392" y="349" width="22" height="16" fill="#2f9e67"/>
<line x1="451" y1="338" x2="451" y2="374" stroke="#d74b42" stroke-width="3"/>
<rect x="440" y="342" width="22" height="24" fill="#d74b42"/>
<line x1="499" y1="330" x2="499" y2="370" stroke="#2f9e67" stroke-width="3"/>
<rect x="488" y="335" width="22" height="32" fill="#2f9e67"/>
<line x1="547" y1="316" x2="547" y2="336" stroke="#2f9e67" stroke-width="3"/>
<rect x="536" y="318" width="22" height="17" fill="#2f9e67"/>
<line x1="595" y1="300" x2="595" y2="360" stroke="#d74b42" stroke-width="3"/>
<rect x="584" y="307" width="22" height="41" fill="#d74b42"/>
<line x1="643" y1="282" x2="643" y2="354" stroke="#2f9e67" stroke-width="3"/>
<rect x="632" y="291" width="22" height="58" fill="#2f9e67"/>
<line x1="691" y1="205" x2="691" y2="300" stroke="#2f9e67" stroke-width="3"/>
<rect x="680" y="216" width="22" height="77" fill="#2f9e67"/>
<line x1="739" y1="195" x2="739" y2="268" stroke="#d74b42" stroke-width="3"/>
<rect x="728" y="200" width="22" height="59" fill="#d74b42"/>
<rect x="103" y="550" width="24" height="10" fill="#6abf88"/>
<rect x="151" y="545" width="24" height="15" fill="#d74b42"/>
<rect x="199" y="540" width="24" height="20" fill="#6abf88"/>
<rect x="247" y="520" width="24" height="40" fill="#6abf88"/>
<rect x="295" y="545" width="24" height="15" fill="#d74b42"/>
<rect x="343" y="540" width="24" height="20" fill="#6abf88"/>
<rect x="391" y="550" width="24" height="10" fill="#6abf88"/>
<rect x="439" y="545" width="24" height="15" fill="#d74b42"/>
<rect x="487" y="540" width="24" height="20" fill="#6abf88"/>
<rect x="535" y="550" width="24" height="10" fill="#6abf88"/>
<rect x="583" y="535" width="24" height="25" fill="#d74b42"/>
<rect x="631" y="525" width="24" height="35" fill="#6abf88"/>
<rect x="679" y="515" width="24" height="45" fill="#6abf88"/>
<rect x="727" y="525" width="24" height="35" fill="#d74b42"/>
<text x="90" y="578" font-size="15" font-family="PingFang SC, Arial" fill="#6b7280">量能区</text>
<rect x="850" y="135" width="280" height="450" rx="16" fill="#ffffff" stroke="#d0c7bc"/>
<text x="875" y="178" font-size="24" font-family="PingFang SC, Arial" fill="#111827">点评</text>
<text x="875" y="220" font-size="18" font-family="PingFang SC, Arial" fill="#374151">教科书式小结构样板</text>
<text x="875" y="262" font-size="18" font-family="PingFang SC, Arial" fill="#4b5563">• 低位横盘</text>
<text x="875" y="296" font-size="18" font-family="PingFang SC, Arial" fill="#4b5563">• 放量突破</text>
<text x="875" y="330" font-size="18" font-family="PingFang SC, Arial" fill="#4b5563">• 风险：短线偏高</text>
<text x="875" y="655" font-size="18" font-family="PingFang SC, Arial" fill="#7c746b">教学示意图：重绘，不复刻原截图</text>
</svg>
