<svg xmlns="http://www.w3.org/2000/svg" width="1200" height="720" viewBox="0 0 1200 720">
<rect width="1200" height="720" fill="#fbfaf7"/>
<rect x="70" y="135" width="750" height="450" rx="18" fill="#fffefb" stroke="#c9c2b8" stroke-width="2"/>
<text x="70" y="70" font-size="34" font-family="PingFang SC, Arial" fill="#1f2933">案例41｜天安新材资料页</text>
<text x="850" y="70" font-size="34" font-family="PingFang SC, Arial" fill="#991b1b">40/100  不合格</text>
<line x1="110" y1="215" x2="780" y2="215" stroke="#7c3aed" stroke-width="2"/>
<text x="620" y="200" font-size="18" font-family="PingFang SC, Arial" fill="#6d28d9">前高/压力线</text>
<polyline points="115,433.0 163,434.0 211,433.0 259,433.8 307,433.4 355,433.6 403,432.6 451,433.0 499,431.6 547,431.4 595,430.2 643,430.2 691,429.0 739,429.0" fill="none" stroke="#f59e0b" stroke-width="4"/>
<text x="680" y="165" font-size="18" font-family="PingFang SC, Arial" fill="#b45309">5日线</text>
<line x1="115" y1="377" x2="115" y2="435" stroke="#2f9e67" stroke-width="3"/>
<rect x="104" y="399" width="22" height="16" fill="#2f9e67"/>
<rect x="103" y="522" width="24" height="18" fill="#6abf88"/>
<line x1="163" y1="395" x2="163" y2="455" stroke="#d74b42" stroke-width="3"/>
<rect x="152" y="417" width="22" height="18" fill="#d74b42"/>
<rect x="151" y="513" width="24" height="27" fill="#6abf88"/>
<line x1="211" y1="391" x2="211" y2="451" stroke="#d74b42" stroke-width="3"/>
<rect x="200" y="413" width="22" height="18" fill="#d74b42"/>
<rect x="199" y="464" width="24" height="76" fill="#d74b42"/>
<line x1="259" y1="380" x2="259" y2="438" stroke="#2f9e67" stroke-width="3"/>
<rect x="248" y="402" width="22" height="16" fill="#2f9e67"/>
<rect x="247" y="495" width="24" height="45" fill="#6abf88"/>
<line x1="307" y1="392" x2="307" y2="452" stroke="#d74b42" stroke-width="3"/>
<rect x="296" y="414" width="22" height="18" fill="#d74b42"/>
<rect x="295" y="522" width="24" height="18" fill="#6abf88"/>
<line x1="355" y1="394" x2="355" y2="454" stroke="#d74b42" stroke-width="3"/>
<rect x="344" y="416" width="22" height="18" fill="#d74b42"/>
<rect x="343" y="513" width="24" height="27" fill="#6abf88"/>
<line x1="403" y1="374" x2="403" y2="432" stroke="#2f9e67" stroke-width="3"/>
<rect x="392" y="396" width="22" height="16" fill="#2f9e67"/>
<rect x="391" y="504" width="24" height="36" fill="#6abf88"/>
<line x1="451" y1="393" x2="451" y2="453" stroke="#d74b42" stroke-width="3"/>
<rect x="440" y="415" width="22" height="18" fill="#d74b42"/>
<rect x="439" y="495" width="24" height="45" fill="#6abf88"/>
<line x1="499" y1="389" x2="499" y2="449" stroke="#d74b42" stroke-width="3"/>
<rect x="488" y="411" width="22" height="18" fill="#d74b42"/>
<rect x="487" y="522" width="24" height="18" fill="#6abf88"/>
<line x1="547" y1="375" x2="547" y2="433" stroke="#2f9e67" stroke-width="3"/>
<rect x="536" y="397" width="22" height="16" fill="#2f9e67"/>
<rect x="535" y="513" width="24" height="27" fill="#6abf88"/>
<line x1="595" y1="388" x2="595" y2="448" stroke="#d74b42" stroke-width="3"/>
<rect x="584" y="410" width="22" height="18" fill="#d74b42"/>
<rect x="583" y="504" width="24" height="36" fill="#6abf88"/>
<line x1="643" y1="390" x2="643" y2="450" stroke="#d74b42" stroke-width="3"/>
<rect x="632" y="412" width="22" height="18" fill="#d74b42"/>
<rect x="631" y="495" width="24" height="45" fill="#6abf88"/>
<line x1="691" y1="371" x2="691" y2="429" stroke="#2f9e67" stroke-width="3"/>
<rect x="680" y="393" width="22" height="16" fill="#2f9e67"/>
<rect x="679" y="482" width="24" height="58" fill="#d74b42"/>
<line x1="739" y1="389" x2="739" y2="449" stroke="#d74b42" stroke-width="3"/>
<rect x="728" y="411" width="22" height="18" fill="#d74b42"/>
<rect x="727" y="473" width="24" height="67" fill="#d74b42"/>
<circle cx="403" cy="412" r="10" fill="#2563eb"/><text x="417" y="417" font-size="18" font-family="PingFang SC, Arial" fill="#1d4ed8">低吸试错/观察</text>
<circle cx="691" cy="409" r="10" fill="#dc2626"/><text x="705" y="414" font-size="18" font-family="PingFang SC, Arial" fill="#b91c1c">突破确认点</text>
<line x1="100" y1="463" x2="780" y2="463" stroke="#111827" stroke-dasharray="8 8" stroke-width="2"/><text x="110" y="488" font-size="17" font-family="PingFang SC, Arial" fill="#111827">失效线</text>
<text x="90" y="570" font-size="18" font-family="PingFang SC, Arial" fill="#6b7280">量能区</text>
<rect x="850" y="135" width="280" height="450" rx="16" fill="#ffffff" stroke="#d0c7bc"/>
<text x="875" y="178" font-size="24" font-family="PingFang SC, Arial" fill="#111827">点评</text>
<text x="875" y="220" font-size="18" font-family="PingFang SC, Arial" fill="#374151">板块资料页，无K线结构</text>
<text x="875" y="258" font-size="18" font-family="PingFang SC, Arial" fill="#374151">观察：需补日K图</text>
<text x="875" y="296" font-size="18" font-family="PingFang SC, Arial" fill="#374151">失效：无结构不评分</text>
<text x="875" y="655" font-size="18" font-family="PingFang SC, Arial" fill="#7c746b">教学重绘图：不复刻原截图</text>
</svg>
