<svg xmlns="http://www.w3.org/2000/svg" width="1200" height="720" viewBox="0 0 1200 720">
<rect width="1200" height="720" fill="#fbfaf7"/>
<rect x="70" y="135" width="750" height="450" rx="18" fill="#fffefb" stroke="#c9c2b8" stroke-width="2"/>
<text x="70" y="70" font-size="34" font-family="PingFang SC, Arial" fill="#1f2933">案例46｜教学示意图</text>
<text x="850" y="70" font-size="34" font-family="PingFang SC, Arial" fill="#0f8a4b">90/100  标准</text>
<text x="620" y="200" font-size="18" font-family="PingFang SC, Arial" fill="#6d28d9">前高/压力线</text>
<rect x="282" y="324" width="386" height="84" fill="none" stroke="#2563eb" stroke-width="3"/>
<text x="90" y="162" font-size="13" font-family="PingFang SC, Arial" fill="#4b5563" font-weight="bold">均线</text>
<line x1="125" y1="159" x2="145" y2="159" stroke="#f59e0b" stroke-width="3"/>
<text x="149" y="162" font-size="12" font-family="PingFang SC, Arial" fill="#f59e0b">MA5</text>
<line x1="183" y1="159" x2="203" y2="159" stroke="#8b5cf6" stroke-width="3" stroke-dasharray="6,4"/>
<text x="207" y="162" font-size="12" font-family="PingFang SC, Arial" fill="#8b5cf6">MA10</text>
<line x1="241" y1="159" x2="261" y2="159" stroke="#10b981" stroke-width="3"/>
<text x="265" y="162" font-size="12" font-family="PingFang SC, Arial" fill="#10b981">MA20</text>
<line x1="299" y1="159" x2="319" y2="159" stroke="#f97316" stroke-width="3"/>
<text x="323" y="162" font-size="12" font-family="PingFang SC, Arial" fill="#f97316">MA30</text>
<line x1="357" y1="159" x2="377" y2="159" stroke="#ef4444" stroke-width="3"/>
<text x="381" y="162" font-size="12" font-family="PingFang SC, Arial" fill="#ef4444">MA60</text>
<line x1="415" y1="159" x2="435" y2="159" stroke="#6b7280" stroke-width="3"/>
<text x="439" y="162" font-size="12" font-family="PingFang SC, Arial" fill="#6b7280">MA120</text>
<polyline points="115,435 163,444 211,450 259,438 307,424 355,406 403,381 451,367 499,358 547,343 595,339 643,328 691,298 739,283" fill="none" stroke="#f59e0b" stroke-width="2.5"/>
<polyline points="115,414 163,424 211,432 259,429 307,425 355,421 403,413 451,409 499,399 547,383 595,372 643,355 691,333 739,321" fill="none" stroke="#8b5cf6" stroke-width="2.5" stroke-dasharray="8,4"/>
<polyline points="115,416 163,416 211,413 259,410 307,408 355,406 403,402 451,400 499,399 547,395 595,393 643,390 691,382 739,375" fill="none" stroke="#10b981" stroke-width="2.5"/>
<polyline points="115,449 163,448 211,444 259,439 307,434 355,428 403,421 451,416 499,411 547,406 595,402 643,396 691,386 739,380" fill="none" stroke="#f97316" stroke-width="2.5"/>
<polyline points="115,466 163,466 211,465 259,464 307,462 355,459 403,456 451,455 499,453 547,450 595,449 643,446 691,442 739,439" fill="none" stroke="#ef4444" stroke-width="2.5"/>
<polyline points="115,498 163,497 211,496 259,495 307,494 355,493 403,492 451,491 499,489 547,488 595,486 643,484 691,481 739,478" fill="none" stroke="#6b7280" stroke-width="2.5"/>
<rect x="289" y="307" width="276" height="97" fill="none" stroke="#2563eb" stroke-width="3"/>
<text x="289" y="295" font-size="15" font-family="PingFang SC, Arial" fill="#1d4ed8">高位窄箱体</text>
<line x1="110" y1="341" x2="780" y2="341" stroke="#7c3aed" stroke-width="2" stroke-dasharray="8,4"/>
<text x="630" y="331" font-size="15" font-family="PingFang SC, Arial" fill="#6d28d9">前高压力线</text>
<line x1="115" y1="447" x2="115" y2="466" stroke="#e83c3c" stroke-width="3"/>
<rect x="104" y="449" width="22" height="15" fill="#e83c3c"/>
<line x1="163" y1="441" x2="163" y2="469" stroke="#20b86e" stroke-width="3"/>
<rect x="152" y="443" width="22" height="22" fill="#20b86e"/>
<line x1="211" y1="427" x2="211" y2="472" stroke="#e83c3c" stroke-width="3"/>
<rect x="200" y="436" width="22" height="30" fill="#e83c3c"/>
<line x1="259" y1="366" x2="259" y2="443" stroke="#e83c3c" stroke-width="3"/>
<rect x="248" y="375" width="22" height="63" fill="#e83c3c"/>
<line x1="307" y1="364" x2="307" y2="399" stroke="#20b86e" stroke-width="3"/>
<rect x="296" y="368" width="22" height="24" fill="#20b86e"/>
<line x1="355" y1="356" x2="355" y2="395" stroke="#e83c3c" stroke-width="3"/>
<rect x="344" y="361" width="22" height="32" fill="#e83c3c"/>
<line x1="403" y1="343" x2="403" y2="362" stroke="#e83c3c" stroke-width="3"/>
<rect x="392" y="345" width="22" height="16" fill="#e83c3c"/>
<line x1="451" y1="334" x2="451" y2="369" stroke="#20b86e" stroke-width="3"/>
<rect x="440" y="339" width="22" height="23" fill="#20b86e"/>
<line x1="499" y1="326" x2="499" y2="365" stroke="#e83c3c" stroke-width="3"/>
<rect x="488" y="331" width="22" height="32" fill="#e83c3c"/>
<line x1="547" y1="312" x2="547" y2="332" stroke="#e83c3c" stroke-width="3"/>
<rect x="536" y="315" width="22" height="16" fill="#e83c3c"/>
<line x1="595" y1="296" x2="595" y2="355" stroke="#20b86e" stroke-width="3"/>
<rect x="584" y="303" width="22" height="40" fill="#20b86e"/>
<line x1="643" y1="280" x2="643" y2="350" stroke="#e83c3c" stroke-width="3"/>
<rect x="632" y="288" width="22" height="57" fill="#e83c3c"/>
<line x1="691" y1="204" x2="691" y2="297" stroke="#e83c3c" stroke-width="3"/>
<rect x="680" y="215" width="22" height="76" fill="#e83c3c"/>
<line x1="739" y1="194" x2="739" y2="266" stroke="#20b86e" stroke-width="3"/>
<rect x="728" y="199" width="22" height="58" fill="#20b86e"/>
<rect x="103" y="550" width="24" height="10" fill="#e83c3c"/>
<rect x="151" y="545" width="24" height="15" fill="#20b86e"/>
<rect x="199" y="540" width="24" height="20" fill="#e83c3c"/>
<rect x="247" y="520" width="24" height="40" fill="#e83c3c"/>
<rect x="295" y="545" width="24" height="15" fill="#20b86e"/>
<rect x="343" y="540" width="24" height="20" fill="#e83c3c"/>
<rect x="391" y="550" width="24" height="10" fill="#e83c3c"/>
<rect x="439" y="545" width="24" height="15" fill="#20b86e"/>
<rect x="487" y="540" width="24" height="20" fill="#e83c3c"/>
<rect x="535" y="550" width="24" height="10" fill="#e83c3c"/>
<rect x="583" y="535" width="24" height="25" fill="#20b86e"/>
<rect x="631" y="525" width="24" height="35" fill="#e83c3c"/>
<rect x="679" y="515" width="24" height="45" fill="#e83c3c"/>
<rect x="727" y="525" width="24" height="35" fill="#20b86e"/>
<text x="90" y="578" font-size="15" font-family="PingFang SC, Arial" fill="#6b7280">量能区</text>
<rect x="850" y="135" width="280" height="450" rx="16" fill="#ffffff" stroke="#d0c7bc"/>
<text x="875" y="178" font-size="24" font-family="PingFang SC, Arial" fill="#111827">点评</text>
<text x="875" y="220" font-size="18" font-family="PingFang SC, Arial" fill="#374151">教科书模板：启动-窄箱-突</text>
<text x="875" y="248" font-size="18" font-family="PingFang SC, Arial" fill="#374151">破</text>
<text x="875" y="286" font-size="18" font-family="PingFang SC, Arial" fill="#374151">低吸试错：蓝框回踩5日线</text>
<text x="875" y="324" font-size="18" font-family="PingFang SC, Arial" fill="#374151">突破确认：过箱体顶</text>
<text x="875" y="655" font-size="18" font-family="PingFang SC, Arial" fill="#7c746b">教学重绘图：不复刻原截图</text>
</svg>
