<svg xmlns="http://www.w3.org/2000/svg" width="1200" height="720" viewBox="0 0 1200 720">
<rect width="1200" height="720" fill="#fbfaf7"/>
<rect x="70" y="135" width="750" height="450" rx="18" fill="#fffefb" stroke="#c9c2b8" stroke-width="2"/>
<text x="70" y="70" font-size="34" font-family="PingFang SC, Arial" fill="#1f2933">案例07｜惠丰钻石 920725</text>
<text x="850" y="70" font-size="34" font-family="PingFang SC, Arial" fill="#b7791f">60/100  勉强</text>
<rect x="282" y="290" width="338" height="105" fill="none" stroke="#2563eb" stroke-width="3"/>
<text x="90" y="162" font-size="13" font-family="PingFang SC, Arial" fill="#4b5563" font-weight="bold">均线</text>
<line x1="125" y1="159" x2="145" y2="159" stroke="#f59e0b" stroke-width="3"/>
<text x="149" y="162" font-size="12" font-family="PingFang SC, Arial" fill="#f59e0b">MA5</text>
<line x1="183" y1="159" x2="203" y2="159" stroke="#8b5cf6" stroke-width="3" stroke-dasharray="6,4"/>
<text x="207" y="162" font-size="12" font-family="PingFang SC, Arial" fill="#8b5cf6">MA10</text>
<line x1="241" y1="159" x2="261" y2="159" stroke="#10b981" stroke-width="3"/>
<text x="265" y="162" font-size="12" font-family="PingFang SC, Arial" fill="#10b981">MA20</text>
<line x1="299" y1="159" x2="319" y2="159" stroke="#f97316" stroke-width="3"/>
<text x="323" y="162" font-size="12" font-family="PingFang SC, Arial" fill="#f97316">MA30</text>
<line x1="357" y1="159" x2="377" y2="159" stroke="#ef4444" stroke-width="3"/>
<text x="381" y="162" font-size="12" font-family="PingFang SC, Arial" fill="#ef4444">MA60</text>
<line x1="415" y1="159" x2="435" y2="159" stroke="#6b7280" stroke-width="3"/>
<text x="439" y="162" font-size="12" font-family="PingFang SC, Arial" fill="#6b7280">MA120</text>
<line x1="110" y1="267" x2="780" y2="267" stroke="#7c3aed" stroke-width="2" stroke-dasharray="8,4"/>
<text x="630" y="257" font-size="15" font-family="PingFang SC, Arial" fill="#6d28d9">前高压力线</text>
<rect x="292" y="333" width="270" height="143" fill="none" stroke="#2563eb" stroke-width="3"/>
<text x="292" y="323" font-size="15" font-family="PingFang SC, Arial" fill="#1d4ed8">高位窄箱体</text>
<polyline points="115,486 163,481 211,475 259,441 307,438 355,433 403,428 451,405 499,424 547,421 595,410 643,392 691,372 739,331" fill="none" stroke="#f59e0b" stroke-width="2.5"/>
<polyline points="115,474 163,476 211,476 259,465 307,462 355,460 403,455 451,440 499,433 547,429 595,422 643,410 691,388 739,378" fill="none" stroke="#8b5cf6" stroke-width="2.5" stroke-dasharray="8,4"/>
<polyline points="115,460 163,462 211,464 259,457 307,457 355,456 403,454 451,449 499,449 547,449 595,447 643,443 691,432 739,422" fill="none" stroke="#10b981" stroke-width="2.5"/>
<polyline points="115,418 163,423 211,428 259,428 307,433 355,437 403,442 451,444 499,446 547,448 595,447 643,445 691,439 739,431" fill="none" stroke="#f97316" stroke-width="2.5"/>
<polyline points="115,345 163,350 211,354 259,357 307,362 355,367 403,372 451,374 499,377 547,380 595,382 643,383 691,382 739,380" fill="none" stroke="#ef4444" stroke-width="2.5"/>
<polyline points="115,267 163,268 211,269 259,269 307,270 355,270 403,271 451,271 499,271 547,271 595,272 643,272 691,271 739,271" fill="none" stroke="#6b7280" stroke-width="2.5"/>
<line x1="115" y1="454" x2="115" y2="504" stroke="#2f9e67" stroke-width="3"/>
<rect x="104" y="471" width="22" height="16" fill="#2f9e67"/>
<line x1="163" y1="445" x2="163" y2="489" stroke="#d74b42" stroke-width="3"/>
<rect x="152" y="462" width="22" height="9" fill="#d74b42"/>
<line x1="211" y1="431" x2="211" y2="485" stroke="#d74b42" stroke-width="3"/>
<rect x="200" y="448" width="22" height="20" fill="#d74b42"/>
<line x1="259" y1="292" x2="259" y2="423" stroke="#2f9e67" stroke-width="3"/>
<rect x="248" y="329" width="22" height="66" fill="#2f9e67"/>
<line x1="307" y1="439" x2="307" y2="469" stroke="#2f9e67" stroke-width="3"/>
<rect x="296" y="449" width="22" height="9" fill="#2f9e67"/>
<line x1="355" y1="438" x2="355" y2="471" stroke="#2f9e67" stroke-width="3"/>
<rect x="344" y="448" width="22" height="12" fill="#2f9e67"/>
<line x1="403" y1="427" x2="403" y2="459" stroke="#d74b42" stroke-width="3"/>
<rect x="392" y="438" width="22" height="10" fill="#d74b42"/>
<line x1="451" y1="338" x2="451" y2="368" stroke="#2f9e67" stroke-width="3"/>
<rect x="440" y="350" width="22" height="6" fill="#2f9e67"/>
<line x1="499" y1="406" x2="499" y2="439" stroke="#d74b42" stroke-width="3"/>
<rect x="488" y="417" width="22" height="11" fill="#d74b42"/>
<line x1="547" y1="418" x2="547" y2="450" stroke="#2f9e67" stroke-width="3"/>
<rect x="536" y="428" width="22" height="12" fill="#2f9e67"/>
<line x1="595" y1="366" x2="595" y2="407" stroke="#d74b42" stroke-width="3"/>
<rect x="584" y="387" width="22" height="7" fill="#d74b42"/>
<line x1="643" y1="336" x2="643" y2="399" stroke="#2f9e67" stroke-width="3"/>
<rect x="632" y="358" width="22" height="28" fill="#2f9e67"/>
<line x1="691" y1="221" x2="691" y2="325" stroke="#2f9e67" stroke-width="3"/>
<rect x="680" y="248" width="22" height="58" fill="#2f9e67"/>
<line x1="739" y1="209" x2="739" y2="268" stroke="#2f9e67" stroke-width="3"/>
<rect x="728" y="228" width="22" height="30" fill="#2f9e67"/>
<rect x="103" y="548" width="24" height="12" fill="#6abf88"/>
<rect x="151" y="546" width="24" height="14" fill="#d74b42"/>
<rect x="199" y="544" width="24" height="16" fill="#d74b42"/>
<rect x="247" y="502" width="24" height="58" fill="#6abf88"/>
<rect x="295" y="542" width="24" height="18" fill="#6abf88"/>
<rect x="343" y="544" width="24" height="16" fill="#6abf88"/>
<rect x="391" y="542" width="24" height="18" fill="#d74b42"/>
<rect x="439" y="546" width="24" height="14" fill="#6abf88"/>
<rect x="487" y="546" width="24" height="14" fill="#d74b42"/>
<rect x="535" y="544" width="24" height="16" fill="#6abf88"/>
<rect x="583" y="530" width="24" height="30" fill="#d74b42"/>
<rect x="631" y="542" width="24" height="18" fill="#6abf88"/>
<rect x="679" y="505" width="24" height="55" fill="#6abf88"/>
<rect x="727" y="525" width="24" height="35" fill="#6abf88"/>
<text x="90" y="578" font-size="15" font-family="PingFang SC, Arial" fill="#6b7280">量能区</text>
<circle cx="451" cy="368" r="6" fill="none" stroke="#ef4444" stroke-width="2"/>
<text x="461" y="383" font-size="13" font-family="PingFang SC, Arial" fill="#dc2626">低吸试错点</text>
<circle cx="691" cy="221" r="6" fill="#ef4444" stroke="none"/>
<text x="651" y="206" font-size="13" font-family="PingFang SC, Arial" fill="#dc2626">突破确认点</text>
<rect x="850" y="135" width="280" height="450" rx="16" fill="#ffffff" stroke="#d0c7bc"/>
<text x="875" y="178" font-size="24" font-family="PingFang SC, Arial" fill="#111827">点评</text>
<text x="875" y="220" font-size="18" font-family="PingFang SC, Arial" fill="#374151">历史买点不错，当下已偏高</text>
<text x="875" y="262" font-size="18" font-family="PingFang SC, Arial" fill="#4b5563">• 早期启动有效</text>
<text x="875" y="296" font-size="18" font-family="PingFang SC, Arial" fill="#4b5563">• 中段短暂横盘</text>
<text x="875" y="330" font-size="18" font-family="PingFang SC, Arial" fill="#4b5563">• 风险：涨幅巨大</text>
<text x="875" y="655" font-size="18" font-family="PingFang SC, Arial" fill="#7c746b">教学示意图：重绘，不复刻原截图</text>
</svg>
