<svg xmlns="http://www.w3.org/2000/svg" width="1200" height="720" viewBox="0 0 1200 720">
<rect width="1200" height="720" fill="#fbfaf7"/>
<rect x="70" y="135" width="750" height="450" rx="18" fill="#fffefb" stroke="#c9c2b8" stroke-width="2"/>
<text x="70" y="70" font-size="34" font-family="PingFang SC, Arial" fill="#1f2933">案例35｜未明确个股</text>
<text x="850" y="70" font-size="34" font-family="PingFang SC, Arial" fill="#0f8a4b">85/100  标准</text>
<rect x="282" y="324" width="386" height="84" fill="none" stroke="#2563eb" stroke-width="3"/>
<text x="90" y="162" font-size="13" font-family="PingFang SC, Arial" fill="#4b5563" font-weight="bold">均线</text>
<line x1="125" y1="159" x2="145" y2="159" stroke="#f59e0b" stroke-width="3"/>
<text x="149" y="162" font-size="12" font-family="PingFang SC, Arial" fill="#f59e0b">MA5</text>
<line x1="183" y1="159" x2="203" y2="159" stroke="#8b5cf6" stroke-width="3" stroke-dasharray="6,4"/>
<text x="207" y="162" font-size="12" font-family="PingFang SC, Arial" fill="#8b5cf6">MA10</text>
<line x1="241" y1="159" x2="261" y2="159" stroke="#10b981" stroke-width="3"/>
<text x="265" y="162" font-size="12" font-family="PingFang SC, Arial" fill="#10b981">MA20</text>
<line x1="299" y1="159" x2="319" y2="159" stroke="#f97316" stroke-width="3"/>
<text x="323" y="162" font-size="12" font-family="PingFang SC, Arial" fill="#f97316">MA30</text>
<line x1="357" y1="159" x2="377" y2="159" stroke="#ef4444" stroke-width="3"/>
<text x="381" y="162" font-size="12" font-family="PingFang SC, Arial" fill="#ef4444">MA60</text>
<line x1="415" y1="159" x2="435" y2="159" stroke="#6b7280" stroke-width="3"/>
<text x="439" y="162" font-size="12" font-family="PingFang SC, Arial" fill="#6b7280">MA120</text>
<polyline points="115,455 163,450 211,440 259,422 307,408 355,392 403,370 451,356 499,348 547,332 595,329 643,319 691,291 739,278" fill="none" stroke="#f59e0b" stroke-width="2.5"/>
<polyline points="115,475 163,469 211,459 259,446 307,437 355,423 403,409 451,397 499,385 547,371 595,361 643,345 691,323 739,312" fill="none" stroke="#8b5cf6" stroke-width="2.5" stroke-dasharray="8,4"/>
<polyline points="115,485 163,484 211,480 259,474 307,468 355,460 403,452 451,445 499,436 547,425 595,417 643,406 691,391 739,379" fill="none" stroke="#10b981" stroke-width="2.5"/>
<polyline points="115,500 163,496 211,491 259,485 307,479 355,474 403,468 451,463 499,457 547,450 595,444 643,438 691,427 739,420" fill="none" stroke="#f97316" stroke-width="2.5"/>
<polyline points="115,465 163,465 211,465 259,463 307,463 355,461 403,460 451,459 499,459 547,459 595,459 643,459 691,457 739,455" fill="none" stroke="#ef4444" stroke-width="2.5"/>
<polyline points="115,445 163,445 211,445 259,445 307,445 355,445 403,444 451,444 499,444 547,443 595,443 643,442 691,441 739,440" fill="none" stroke="#6b7280" stroke-width="2.5"/>
<rect x="289" y="300" width="276" height="90" fill="none" stroke="#2563eb" stroke-width="3"/>
<text x="289" y="288" font-size="15" font-family="PingFang SC, Arial" fill="#1d4ed8">高位窄箱体</text>
<line x1="110" y1="329" x2="780" y2="329" stroke="#7c3aed" stroke-width="2" stroke-dasharray="8,4"/>
<text x="630" y="319" font-size="15" font-family="PingFang SC, Arial" fill="#6d28d9">前高压力线</text>
<line x1="115" y1="430" x2="115" y2="448" stroke="#e83c3c" stroke-width="3"/>
<rect x="104" y="433" width="22" height="14" fill="#e83c3c"/>
<line x1="163" y1="425" x2="163" y2="451" stroke="#20b86e" stroke-width="3"/>
<rect x="152" y="427" width="22" height="21" fill="#20b86e"/>
<line x1="211" y1="412" x2="211" y2="454" stroke="#e83c3c" stroke-width="3"/>
<rect x="200" y="420" width="22" height="29" fill="#e83c3c"/>
<line x1="259" y1="354" x2="259" y2="426" stroke="#e83c3c" stroke-width="3"/>
<rect x="248" y="363" width="22" height="58" fill="#e83c3c"/>
<line x1="307" y1="353" x2="307" y2="385" stroke="#20b86e" stroke-width="3"/>
<rect x="296" y="357" width="22" height="22" fill="#20b86e"/>
<line x1="355" y1="345" x2="355" y2="382" stroke="#e83c3c" stroke-width="3"/>
<rect x="344" y="350" width="22" height="29" fill="#e83c3c"/>
<line x1="403" y1="333" x2="403" y2="352" stroke="#e83c3c" stroke-width="3"/>
<rect x="392" y="335" width="22" height="15" fill="#e83c3c"/>
<line x1="451" y1="325" x2="451" y2="357" stroke="#20b86e" stroke-width="3"/>
<rect x="440" y="329" width="22" height="22" fill="#20b86e"/>
<line x1="499" y1="317" x2="499" y2="354" stroke="#e83c3c" stroke-width="3"/>
<rect x="488" y="321" width="22" height="30" fill="#e83c3c"/>
<line x1="547" y1="305" x2="547" y2="323" stroke="#e83c3c" stroke-width="3"/>
<rect x="536" y="307" width="22" height="15" fill="#e83c3c"/>
<line x1="595" y1="290" x2="595" y2="345" stroke="#20b86e" stroke-width="3"/>
<rect x="584" y="296" width="22" height="37" fill="#20b86e"/>
<line x1="643" y1="274" x2="643" y2="340" stroke="#e83c3c" stroke-width="3"/>
<rect x="632" y="282" width="22" height="53" fill="#e83c3c"/>
<line x1="691" y1="202" x2="691" y2="290" stroke="#e83c3c" stroke-width="3"/>
<rect x="680" y="213" width="22" height="70" fill="#e83c3c"/>
<line x1="739" y1="194" x2="739" y2="261" stroke="#20b86e" stroke-width="3"/>
<rect x="728" y="199" width="22" height="53" fill="#20b86e"/>
<rect x="103" y="550" width="24" height="10" fill="#e83c3c"/>
<rect x="151" y="545" width="24" height="15" fill="#20b86e"/>
<rect x="199" y="540" width="24" height="20" fill="#e83c3c"/>
<rect x="247" y="520" width="24" height="40" fill="#e83c3c"/>
<rect x="295" y="545" width="24" height="15" fill="#20b86e"/>
<rect x="343" y="540" width="24" height="20" fill="#e83c3c"/>
<rect x="391" y="550" width="24" height="10" fill="#e83c3c"/>
<rect x="439" y="545" width="24" height="15" fill="#20b86e"/>
<rect x="487" y="540" width="24" height="20" fill="#e83c3c"/>
<rect x="535" y="550" width="24" height="10" fill="#e83c3c"/>
<rect x="583" y="535" width="24" height="25" fill="#20b86e"/>
<rect x="631" y="525" width="24" height="35" fill="#e83c3c"/>
<rect x="679" y="515" width="24" height="45" fill="#e83c3c"/>
<rect x="727" y="525" width="24" height="35" fill="#20b86e"/>
<text x="90" y="578" font-size="15" font-family="PingFang SC, Arial" fill="#6b7280">量能区</text>
<rect x="850" y="135" width="280" height="450" rx="16" fill="#ffffff" stroke="#d0c7bc"/>
<text x="875" y="178" font-size="24" font-family="PingFang SC, Arial" fill="#111827">点评</text>
<text x="875" y="220" font-size="18" font-family="PingFang SC, Arial" fill="#374151">启动-窄箱-贴线突破齐全</text>
<text x="875" y="262" font-size="18" font-family="PingFang SC, Arial" fill="#4b5563">• 4根窄箱</text>
<text x="875" y="296" font-size="18" font-family="PingFang SC, Arial" fill="#4b5563">• 缩量整理</text>
<text x="875" y="330" font-size="18" font-family="PingFang SC, Arial" fill="#4b5563">• 风险：需次日确认</text>
<text x="875" y="655" font-size="18" font-family="PingFang SC, Arial" fill="#7c746b">教学示意图：重绘，不复刻原截图</text>
</svg>
