<svg xmlns="http://www.w3.org/2000/svg" width="1200" height="720" viewBox="0 0 1200 720">
<rect width="1200" height="720" fill="#fbfaf7"/>
<rect x="70" y="135" width="750" height="450" rx="18" fill="#fffefb" stroke="#c9c2b8" stroke-width="2"/>
<text x="70" y="70" font-size="34" font-family="PingFang SC, Arial" fill="#1f2933">案例14｜兖矿能源</text>
<text x="850" y="70" font-size="34" font-family="PingFang SC, Arial" fill="#b7791f">62/100  勉强</text>
<text x="90" y="162" font-size="13" font-family="PingFang SC, Arial" fill="#4b5563" font-weight="bold">均线</text>
<line x1="125" y1="159" x2="145" y2="159" stroke="#f59e0b" stroke-width="3"/>
<text x="149" y="162" font-size="12" font-family="PingFang SC, Arial" fill="#f59e0b">MA5</text>
<line x1="183" y1="159" x2="203" y2="159" stroke="#8b5cf6" stroke-width="3" stroke-dasharray="6,4"/>
<text x="207" y="162" font-size="12" font-family="PingFang SC, Arial" fill="#8b5cf6">MA10</text>
<line x1="241" y1="159" x2="261" y2="159" stroke="#10b981" stroke-width="3"/>
<text x="265" y="162" font-size="12" font-family="PingFang SC, Arial" fill="#10b981">MA20</text>
<line x1="299" y1="159" x2="319" y2="159" stroke="#f97316" stroke-width="3"/>
<text x="323" y="162" font-size="12" font-family="PingFang SC, Arial" fill="#f97316">MA30</text>
<line x1="357" y1="159" x2="377" y2="159" stroke="#ef4444" stroke-width="3"/>
<text x="381" y="162" font-size="12" font-family="PingFang SC, Arial" fill="#ef4444">MA60</text>
<line x1="415" y1="159" x2="435" y2="159" stroke="#6b7280" stroke-width="3"/>
<text x="439" y="162" font-size="12" font-family="PingFang SC, Arial" fill="#6b7280">MA120</text>
<line x1="110" y1="262" x2="780" y2="262" stroke="#7c3aed" stroke-width="2" stroke-dasharray="8,4"/>
<text x="630" y="252" font-size="15" font-family="PingFang SC, Arial" fill="#6d28d9">前高压力线</text>
<rect x="292" y="329" width="270" height="156" fill="none" stroke="#2563eb" stroke-width="3"/>
<text x="292" y="319" font-size="15" font-family="PingFang SC, Arial" fill="#1d4ed8">高位窄箱体</text>
<polyline points="115,451 163,460 211,467 259,438 307,434 355,432 403,431 451,405 499,425 547,424 595,414 643,395 691,376 739,338" fill="none" stroke="#f59e0b" stroke-width="2.5"/>
<polyline points="115,391 163,409 211,425 259,425 307,433 355,441 403,445 451,437 499,432 547,429 595,423 643,413 691,391 739,381" fill="none" stroke="#8b5cf6" stroke-width="2.5" stroke-dasharray="8,4"/>
<polyline points="115,328 163,340 211,352 259,357 307,367 355,376 403,386 451,389 499,394 547,402 595,407 643,411 691,407 739,403" fill="none" stroke="#10b981" stroke-width="2.5"/>
<polyline points="115,321 163,326 211,329 259,329 307,335 355,340 403,345 451,347 499,352 547,357 595,360 643,364 691,364 739,365" fill="none" stroke="#f97316" stroke-width="2.5"/>
<polyline points="115,347 163,348 211,348 259,346 307,347 355,347 403,348 451,347 499,347 547,348 595,348 643,348 691,347 739,345" fill="none" stroke="#ef4444" stroke-width="2.5"/>
<polyline points="115,364 163,364 211,365 259,365 307,366 355,367 403,368 451,368 499,369 547,369 595,370 643,370 691,370 739,369" fill="none" stroke="#6b7280" stroke-width="2.5"/>
<line x1="115" y1="448" x2="115" y2="503" stroke="#2f9e67" stroke-width="3"/>
<rect x="104" y="467" width="22" height="17" fill="#2f9e67"/>
<line x1="163" y1="446" x2="163" y2="502" stroke="#2f9e67" stroke-width="3"/>
<rect x="152" y="465" width="22" height="19" fill="#2f9e67"/>
<line x1="211" y1="427" x2="211" y2="488" stroke="#d74b42" stroke-width="3"/>
<rect x="200" y="444" width="22" height="26" fill="#d74b42"/>
<line x1="259" y1="287" x2="259" y2="423" stroke="#2f9e67" stroke-width="3"/>
<rect x="248" y="326" width="22" height="68" fill="#2f9e67"/>
<line x1="307" y1="433" x2="307" y2="468" stroke="#2f9e67" stroke-width="3"/>
<rect x="296" y="443" width="22" height="14" fill="#2f9e67"/>
<line x1="355" y1="425" x2="355" y2="465" stroke="#d74b42" stroke-width="3"/>
<rect x="344" y="436" width="22" height="18" fill="#d74b42"/>
<line x1="403" y1="449" x2="403" y2="480" stroke="#2f9e67" stroke-width="3"/>
<rect x="392" y="460" width="22" height="10" fill="#2f9e67"/>
<line x1="451" y1="334" x2="451" y2="364" stroke="#2f9e67" stroke-width="3"/>
<rect x="440" y="346" width="22" height="7" fill="#2f9e67"/>
<line x1="499" y1="410" x2="499" y2="446" stroke="#2f9e67" stroke-width="3"/>
<rect x="488" y="421" width="22" height="15" fill="#2f9e67"/>
<line x1="547" y1="411" x2="547" y2="451" stroke="#d74b42" stroke-width="3"/>
<rect x="536" y="422" width="22" height="19" fill="#d74b42"/>
<line x1="595" y1="380" x2="595" y2="453" stroke="#2f9e67" stroke-width="3"/>
<rect x="584" y="403" width="22" height="37" fill="#2f9e67"/>
<line x1="643" y1="338" x2="643" y2="379" stroke="#d74b42" stroke-width="3"/>
<rect x="632" y="361" width="22" height="4" fill="#d74b42"/>
<line x1="691" y1="223" x2="691" y2="332" stroke="#2f9e67" stroke-width="3"/>
<rect x="680" y="251" width="22" height="61" fill="#2f9e67"/>
<line x1="739" y1="210" x2="739" y2="283" stroke="#2f9e67" stroke-width="3"/>
<rect x="728" y="231" width="22" height="41" fill="#2f9e67"/>
<rect x="103" y="548" width="24" height="12" fill="#6abf88"/>
<rect x="151" y="546" width="24" height="14" fill="#6abf88"/>
<rect x="199" y="544" width="24" height="16" fill="#d74b42"/>
<rect x="247" y="502" width="24" height="58" fill="#6abf88"/>
<rect x="295" y="542" width="24" height="18" fill="#6abf88"/>
<rect x="343" y="544" width="24" height="16" fill="#d74b42"/>
<rect x="391" y="542" width="24" height="18" fill="#6abf88"/>
<rect x="439" y="546" width="24" height="14" fill="#6abf88"/>
<rect x="487" y="546" width="24" height="14" fill="#6abf88"/>
<rect x="535" y="544" width="24" height="16" fill="#d74b42"/>
<rect x="583" y="530" width="24" height="30" fill="#6abf88"/>
<rect x="631" y="542" width="24" height="18" fill="#d74b42"/>
<rect x="679" y="505" width="24" height="55" fill="#6abf88"/>
<rect x="727" y="525" width="24" height="35" fill="#6abf88"/>
<text x="90" y="578" font-size="15" font-family="PingFang SC, Arial" fill="#6b7280">量能区</text>
<circle cx="451" cy="364" r="6" fill="none" stroke="#ef4444" stroke-width="2"/>
<text x="461" y="379" font-size="13" font-family="PingFang SC, Arial" fill="#dc2626">低吸试错点</text>
<circle cx="691" cy="223" r="6" fill="#ef4444" stroke="none"/>
<text x="651" y="208" font-size="13" font-family="PingFang SC, Arial" fill="#dc2626">突破确认点</text>
<rect x="850" y="135" width="280" height="450" rx="16" fill="#ffffff" stroke="#d0c7bc"/>
<text x="875" y="178" font-size="24" font-family="PingFang SC, Arial" fill="#111827">点评</text>
<text x="875" y="220" font-size="18" font-family="PingFang SC, Arial" fill="#374151">趋势与量能强，但缺窄箱压缩</text>
<text x="875" y="262" font-size="18" font-family="PingFang SC, Arial" fill="#4b5563">• 放量涨停</text>
<text x="875" y="296" font-size="18" font-family="PingFang SC, Arial" fill="#4b5563">• 均线多头排列</text>
<text x="875" y="330" font-size="18" font-family="PingFang SC, Arial" fill="#4b5563">• 风险：直接加速</text>
<text x="875" y="655" font-size="18" font-family="PingFang SC, Arial" fill="#7c746b">教学示意图：重绘，不复刻原截图</text>
</svg>
