<svg xmlns="http://www.w3.org/2000/svg" width="1200" height="720" viewBox="0 0 1200 720">
<rect width="1200" height="720" fill="#fbfaf7"/>
<rect x="70" y="135" width="750" height="450" rx="18" fill="#fffefb" stroke="#c9c2b8" stroke-width="2"/>
<text x="70" y="70" font-size="34" font-family="PingFang SC, Arial" fill="#1f2933">案例18｜长华集团</text>
<text x="850" y="70" font-size="34" font-family="PingFang SC, Arial" fill="#b7791f">62/100  勉强</text>
<text x="90" y="162" font-size="13" font-family="PingFang SC, Arial" fill="#4b5563" font-weight="bold">均线</text>
<line x1="125" y1="159" x2="145" y2="159" stroke="#f59e0b" stroke-width="3"/>
<text x="149" y="162" font-size="12" font-family="PingFang SC, Arial" fill="#f59e0b">MA5</text>
<line x1="183" y1="159" x2="203" y2="159" stroke="#8b5cf6" stroke-width="3" stroke-dasharray="6,4"/>
<text x="207" y="162" font-size="12" font-family="PingFang SC, Arial" fill="#8b5cf6">MA10</text>
<line x1="241" y1="159" x2="261" y2="159" stroke="#10b981" stroke-width="3"/>
<text x="265" y="162" font-size="12" font-family="PingFang SC, Arial" fill="#10b981">MA20</text>
<line x1="299" y1="159" x2="319" y2="159" stroke="#f97316" stroke-width="3"/>
<text x="323" y="162" font-size="12" font-family="PingFang SC, Arial" fill="#f97316">MA30</text>
<line x1="357" y1="159" x2="377" y2="159" stroke="#ef4444" stroke-width="3"/>
<text x="381" y="162" font-size="12" font-family="PingFang SC, Arial" fill="#ef4444">MA60</text>
<line x1="415" y1="159" x2="435" y2="159" stroke="#6b7280" stroke-width="3"/>
<text x="439" y="162" font-size="12" font-family="PingFang SC, Arial" fill="#6b7280">MA120</text>
<line x1="110" y1="229" x2="780" y2="229" stroke="#7c3aed" stroke-width="2" stroke-dasharray="8,4"/>
<text x="630" y="219" font-size="15" font-family="PingFang SC, Arial" fill="#6d28d9">前高压力线</text>
<rect x="292" y="282" width="270" height="149" fill="none" stroke="#2563eb" stroke-width="3"/>
<text x="292" y="272" font-size="15" font-family="PingFang SC, Arial" fill="#1d4ed8">高位窄箱体</text>
<polyline points="115,421 163,417 211,410 259,381 307,376 355,376 403,379 451,360 499,375 547,376 595,367 643,350 691,336 739,308" fill="none" stroke="#f59e0b" stroke-width="2.5"/>
<polyline points="115,440 163,434 211,428 259,409 307,403 355,399 403,398 451,385 499,378 547,376 595,372 643,365 691,348 739,342" fill="none" stroke="#8b5cf6" stroke-width="2.5" stroke-dasharray="8,4"/>
<polyline points="115,459 163,454 211,448 259,438 307,433 355,428 403,425 451,416 499,410 547,408 595,406 643,399 691,388 739,375" fill="none" stroke="#10b981" stroke-width="2.5"/>
<polyline points="115,452 163,451 211,451 259,447 307,446 355,446 403,445 451,440 499,437 547,434 595,430 643,425 691,415 739,406" fill="none" stroke="#f97316" stroke-width="2.5"/>
<polyline points="115,463 163,462 211,461 259,459 307,457 355,457 403,456 451,454 499,452 547,451 595,448 643,445 691,441 739,436" fill="none" stroke="#ef4444" stroke-width="2.5"/>
<polyline points="115,509 163,508 211,507 259,504 307,503 355,501 403,500 451,498 499,497 547,495 595,493 643,491 691,488 739,485" fill="none" stroke="#6b7280" stroke-width="2.5"/>
<line x1="115" y1="370" x2="115" y2="421" stroke="#d74b42" stroke-width="3"/>
<rect x="104" y="384" width="22" height="22" fill="#d74b42"/>
<line x1="163" y1="366" x2="163" y2="416" stroke="#d74b42" stroke-width="3"/>
<rect x="152" y="381" width="22" height="20" fill="#d74b42"/>
<line x1="211" y1="370" x2="211" y2="417" stroke="#d74b42" stroke-width="3"/>
<rect x="200" y="385" width="22" height="18" fill="#d74b42"/>
<line x1="259" y1="254" x2="259" y2="365" stroke="#2f9e67" stroke-width="3"/>
<rect x="248" y="285" width="22" height="56" fill="#2f9e67"/>
<line x1="307" y1="376" x2="307" y2="408" stroke="#2f9e67" stroke-width="3"/>
<rect x="296" y="385" width="22" height="14" fill="#2f9e67"/>
<line x1="355" y1="390" x2="355" y2="416" stroke="#d74b42" stroke-width="3"/>
<rect x="344" y="398" width="22" height="9" fill="#d74b42"/>
<line x1="403" y1="402" x2="403" y2="426" stroke="#d74b42" stroke-width="3"/>
<rect x="392" y="411" width="22" height="6" fill="#d74b42"/>
<line x1="451" y1="287" x2="451" y2="314" stroke="#d74b42" stroke-width="3"/>
<rect x="440" y="296" width="22" height="8" fill="#d74b42"/>
<line x1="499" y1="345" x2="499" y2="374" stroke="#d74b42" stroke-width="3"/>
<rect x="488" y="354" width="22" height="11" fill="#d74b42"/>
<line x1="547" y1="380" x2="547" y2="412" stroke="#2f9e67" stroke-width="3"/>
<rect x="536" y="389" width="22" height="14" fill="#2f9e67"/>
<line x1="595" y1="342" x2="595" y2="399" stroke="#2f9e67" stroke-width="3"/>
<rect x="584" y="360" width="22" height="29" fill="#2f9e67"/>
<line x1="643" y1="312" x2="643" y2="365" stroke="#2f9e67" stroke-width="3"/>
<rect x="632" y="330" width="22" height="24" fill="#2f9e67"/>
<line x1="691" y1="215" x2="691" y2="303" stroke="#2f9e67" stroke-width="3"/>
<rect x="680" y="238" width="22" height="49" fill="#2f9e67"/>
<line x1="739" y1="204" x2="739" y2="256" stroke="#2f9e67" stroke-width="3"/>
<rect x="728" y="221" width="22" height="27" fill="#2f9e67"/>
<rect x="103" y="548" width="24" height="12" fill="#d74b42"/>
<rect x="151" y="546" width="24" height="14" fill="#d74b42"/>
<rect x="199" y="544" width="24" height="16" fill="#d74b42"/>
<rect x="247" y="502" width="24" height="58" fill="#6abf88"/>
<rect x="295" y="542" width="24" height="18" fill="#6abf88"/>
<rect x="343" y="544" width="24" height="16" fill="#d74b42"/>
<rect x="391" y="542" width="24" height="18" fill="#d74b42"/>
<rect x="439" y="546" width="24" height="14" fill="#d74b42"/>
<rect x="487" y="546" width="24" height="14" fill="#d74b42"/>
<rect x="535" y="544" width="24" height="16" fill="#6abf88"/>
<rect x="583" y="530" width="24" height="30" fill="#6abf88"/>
<rect x="631" y="542" width="24" height="18" fill="#6abf88"/>
<rect x="679" y="505" width="24" height="55" fill="#6abf88"/>
<rect x="727" y="525" width="24" height="35" fill="#6abf88"/>
<text x="90" y="578" font-size="15" font-family="PingFang SC, Arial" fill="#6b7280">量能区</text>
<circle cx="451" cy="314" r="6" fill="none" stroke="#ef4444" stroke-width="2"/>
<text x="461" y="329" font-size="13" font-family="PingFang SC, Arial" fill="#dc2626">低吸试错点</text>
<circle cx="691" cy="215" r="6" fill="#ef4444" stroke="none"/>
<text x="651" y="200" font-size="13" font-family="PingFang SC, Arial" fill="#dc2626">突破确认点</text>
<rect x="850" y="135" width="280" height="450" rx="16" fill="#ffffff" stroke="#d0c7bc"/>
<text x="875" y="178" font-size="24" font-family="PingFang SC, Arial" fill="#111827">点评</text>
<text x="875" y="220" font-size="18" font-family="PingFang SC, Arial" fill="#374151">趋势漂亮但偏追高</text>
<text x="875" y="262" font-size="18" font-family="PingFang SC, Arial" fill="#4b5563">• 沿5日线上行</text>
<text x="875" y="296" font-size="18" font-family="PingFang SC, Arial" fill="#4b5563">• 放量涨停</text>
<text x="875" y="330" font-size="18" font-family="PingFang SC, Arial" fill="#4b5563">• 风险：缺横盘</text>
<text x="875" y="655" font-size="18" font-family="PingFang SC, Arial" fill="#7c746b">教学示意图：重绘，不复刻原截图</text>
</svg>
