<svg xmlns="http://www.w3.org/2000/svg" width="1200" height="720" viewBox="0 0 1200 720">
<rect width="1200" height="720" fill="#fbfaf7"/>
<rect x="70" y="135" width="750" height="450" rx="18" fill="#fffefb" stroke="#c9c2b8" stroke-width="2"/>
<text x="70" y="70" font-size="34" font-family="PingFang SC, Arial" fill="#1f2933">案例12｜建投能源 000600</text>
<text x="850" y="70" font-size="34" font-family="PingFang SC, Arial" fill="#b7791f">55/100  勉强</text>
<rect x="282" y="290" width="338" height="105" fill="none" stroke="#2563eb" stroke-width="3"/>
<text x="90" y="162" font-size="13" font-family="PingFang SC, Arial" fill="#4b5563" font-weight="bold">均线</text>
<line x1="125" y1="159" x2="145" y2="159" stroke="#f59e0b" stroke-width="3"/>
<text x="149" y="162" font-size="12" font-family="PingFang SC, Arial" fill="#f59e0b">MA5</text>
<line x1="183" y1="159" x2="203" y2="159" stroke="#8b5cf6" stroke-width="3" stroke-dasharray="6,4"/>
<text x="207" y="162" font-size="12" font-family="PingFang SC, Arial" fill="#8b5cf6">MA10</text>
<line x1="241" y1="159" x2="261" y2="159" stroke="#10b981" stroke-width="3"/>
<text x="265" y="162" font-size="12" font-family="PingFang SC, Arial" fill="#10b981">MA20</text>
<line x1="299" y1="159" x2="319" y2="159" stroke="#f97316" stroke-width="3"/>
<text x="323" y="162" font-size="12" font-family="PingFang SC, Arial" fill="#f97316">MA30</text>
<line x1="357" y1="159" x2="377" y2="159" stroke="#ef4444" stroke-width="3"/>
<text x="381" y="162" font-size="12" font-family="PingFang SC, Arial" fill="#ef4444">MA60</text>
<line x1="415" y1="159" x2="435" y2="159" stroke="#6b7280" stroke-width="3"/>
<text x="439" y="162" font-size="12" font-family="PingFang SC, Arial" fill="#6b7280">MA120</text>
<polyline points="115,436 163,433 211,427 259,406 307,393 355,377 403,357 451,344 499,336 547,323 595,319 643,309 691,284 739,271" fill="none" stroke="#f59e0b" stroke-width="2.5"/>
<polyline points="115,467 163,457 211,446 259,431 307,421 355,407 403,395 451,386 499,371 547,358 595,349 643,333 691,314 739,304" fill="none" stroke="#8b5cf6" stroke-width="2.5" stroke-dasharray="8,4"/>
<polyline points="115,502 163,495 211,488 259,479 307,469 355,460 403,449 451,440 499,429 547,417 595,408 643,395 691,380 739,367" fill="none" stroke="#10b981" stroke-width="2.5"/>
<polyline points="115,502 163,502 211,501 259,497 307,492 355,487 403,480 451,475 499,468 547,459 595,451 643,441 691,430 739,420" fill="none" stroke="#f97316" stroke-width="2.5"/>
<polyline points="115,485 163,484 211,483 259,481 307,479 355,477 403,474 451,472 499,469 547,466 595,464 643,460 691,457 739,455" fill="none" stroke="#ef4444" stroke-width="2.5"/>
<polyline points="115,427 163,428 211,428 259,427 307,427 355,426 403,426 451,425 499,424 547,424 595,423 643,423 691,422 739,422" fill="none" stroke="#6b7280" stroke-width="2.5"/>
<line x1="110" y1="243" x2="780" y2="243" stroke="#7c3aed" stroke-width="2" stroke-dasharray="8,4"/>
<text x="630" y="233" font-size="15" font-family="PingFang SC, Arial" fill="#6d28d9">前高压力线</text>
<rect x="292" y="328" width="270" height="148" fill="none" stroke="#2563eb" stroke-width="3"/>
<text x="292" y="316" font-size="15" font-family="PingFang SC, Arial" fill="#1d4ed8">高位窄箱体</text>
<line x1="115" y1="414" x2="115" y2="430" stroke="#2f9e67" stroke-width="3"/>
<rect x="104" y="416" width="22" height="13" fill="#2f9e67"/>
<line x1="163" y1="408" x2="163" y2="433" stroke="#d74b42" stroke-width="3"/>
<rect x="152" y="410" width="22" height="20" fill="#d74b42"/>
<line x1="211" y1="396" x2="211" y2="435" stroke="#2f9e67" stroke-width="3"/>
<rect x="200" y="404" width="22" height="27" fill="#2f9e67"/>
<line x1="259" y1="343" x2="259" y2="410" stroke="#2f9e67" stroke-width="3"/>
<rect x="248" y="351" width="22" height="54" fill="#2f9e67"/>
<line x1="307" y1="341" x2="307" y2="372" stroke="#d74b42" stroke-width="3"/>
<rect x="296" y="345" width="22" height="20" fill="#d74b42"/>
<line x1="355" y1="335" x2="355" y2="369" stroke="#2f9e67" stroke-width="3"/>
<rect x="344" y="339" width="22" height="27" fill="#2f9e67"/>
<line x1="403" y1="323" x2="403" y2="340" stroke="#2f9e67" stroke-width="3"/>
<rect x="392" y="325" width="22" height="14" fill="#2f9e67"/>
<line x1="451" y1="315" x2="451" y2="346" stroke="#d74b42" stroke-width="3"/>
<rect x="440" y="319" width="22" height="21" fill="#d74b42"/>
<line x1="499" y1="308" x2="499" y2="342" stroke="#2f9e67" stroke-width="3"/>
<rect x="488" y="312" width="22" height="28" fill="#2f9e67"/>
<line x1="547" y1="296" x2="547" y2="314" stroke="#2f9e67" stroke-width="3"/>
<rect x="536" y="298" width="22" height="14" fill="#2f9e67"/>
<line x1="595" y1="282" x2="595" y2="334" stroke="#d74b42" stroke-width="3"/>
<rect x="584" y="288" width="22" height="35" fill="#d74b42"/>
<line x1="643" y1="267" x2="643" y2="328" stroke="#2f9e67" stroke-width="3"/>
<rect x="632" y="274" width="22" height="50" fill="#2f9e67"/>
<line x1="691" y1="201" x2="691" y2="283" stroke="#2f9e67" stroke-width="3"/>
<rect x="680" y="211" width="22" height="66" fill="#2f9e67"/>
<line x1="739" y1="193" x2="739" y2="255" stroke="#d74b42" stroke-width="3"/>
<rect x="728" y="197" width="22" height="51" fill="#d74b42"/>
<rect x="103" y="550" width="24" height="10" fill="#6abf88"/>
<rect x="151" y="545" width="24" height="15" fill="#d74b42"/>
<rect x="199" y="540" width="24" height="20" fill="#6abf88"/>
<rect x="247" y="520" width="24" height="40" fill="#6abf88"/>
<rect x="295" y="545" width="24" height="15" fill="#d74b42"/>
<rect x="343" y="540" width="24" height="20" fill="#6abf88"/>
<rect x="391" y="550" width="24" height="10" fill="#6abf88"/>
<rect x="439" y="545" width="24" height="15" fill="#d74b42"/>
<rect x="487" y="540" width="24" height="20" fill="#6abf88"/>
<rect x="535" y="550" width="24" height="10" fill="#6abf88"/>
<rect x="583" y="535" width="24" height="25" fill="#d74b42"/>
<rect x="631" y="525" width="24" height="35" fill="#6abf88"/>
<rect x="679" y="515" width="24" height="45" fill="#6abf88"/>
<rect x="727" y="525" width="24" height="35" fill="#d74b42"/>
<text x="90" y="578" font-size="15" font-family="PingFang SC, Arial" fill="#6b7280">量能区</text>
<rect x="850" y="135" width="280" height="450" rx="16" fill="#ffffff" stroke="#d0c7bc"/>
<text x="875" y="178" font-size="24" font-family="PingFang SC, Arial" fill="#111827">点评</text>
<text x="875" y="220" font-size="18" font-family="PingFang SC, Arial" fill="#374151">趋势漂亮但更像加速段</text>
<text x="875" y="262" font-size="18" font-family="PingFang SC, Arial" fill="#4b5563">• 均线多头</text>
<text x="875" y="296" font-size="18" font-family="PingFang SC, Arial" fill="#4b5563">• 连续放量阳线</text>
<text x="875" y="330" font-size="18" font-family="PingFang SC, Arial" fill="#4b5563">• 风险：缺4日窄箱</text>
<text x="875" y="655" font-size="18" font-family="PingFang SC, Arial" fill="#7c746b">教学示意图：重绘，不复刻原截图</text>
</svg>
