<svg xmlns="http://www.w3.org/2000/svg" width="1200" height="720" viewBox="0 0 1200 720">
<rect width="1200" height="720" fill="#fbfaf7"/>
<rect x="70" y="135" width="750" height="450" rx="18" fill="#fffefb" stroke="#c9c2b8" stroke-width="2"/>
<text x="70" y="70" font-size="34" font-family="PingFang SC, Arial" fill="#1f2933">案例15｜兖矿能源 600188</text>
<text x="850" y="70" font-size="34" font-family="PingFang SC, Arial" fill="#b7791f">68/100  勉强</text>
<text x="90" y="162" font-size="13" font-family="PingFang SC, Arial" fill="#4b5563" font-weight="bold">均线</text>
<line x1="125" y1="159" x2="145" y2="159" stroke="#f59e0b" stroke-width="3"/>
<text x="149" y="162" font-size="12" font-family="PingFang SC, Arial" fill="#f59e0b">MA5</text>
<line x1="183" y1="159" x2="203" y2="159" stroke="#8b5cf6" stroke-width="3" stroke-dasharray="6,4"/>
<text x="207" y="162" font-size="12" font-family="PingFang SC, Arial" fill="#8b5cf6">MA10</text>
<line x1="241" y1="159" x2="261" y2="159" stroke="#10b981" stroke-width="3"/>
<text x="265" y="162" font-size="12" font-family="PingFang SC, Arial" fill="#10b981">MA20</text>
<line x1="299" y1="159" x2="319" y2="159" stroke="#f97316" stroke-width="3"/>
<text x="323" y="162" font-size="12" font-family="PingFang SC, Arial" fill="#f97316">MA30</text>
<line x1="357" y1="159" x2="377" y2="159" stroke="#ef4444" stroke-width="3"/>
<text x="381" y="162" font-size="12" font-family="PingFang SC, Arial" fill="#ef4444">MA60</text>
<line x1="415" y1="159" x2="435" y2="159" stroke="#6b7280" stroke-width="3"/>
<text x="439" y="162" font-size="12" font-family="PingFang SC, Arial" fill="#6b7280">MA120</text>
<polyline points="115,393 163,386 211,374 259,357 307,347 355,334 403,318 451,308 499,302 547,292 595,289 643,281 691,261 739,251" fill="none" stroke="#f59e0b" stroke-width="2.5"/>
<polyline points="115,390 163,388 211,384 259,377 307,371 355,364 403,352 451,341 499,329 547,319 595,311 643,300 691,285 739,276" fill="none" stroke="#8b5cf6" stroke-width="2.5" stroke-dasharray="8,4"/>
<polyline points="115,404 163,401 211,398 259,393 307,388 355,382 403,375 451,369 499,363 547,356 595,351 643,344 691,334 739,326" fill="none" stroke="#10b981" stroke-width="2.5"/>
<polyline points="115,413 163,411 211,408 259,403 307,400 355,395 403,390 451,386 499,382 547,377 595,373 643,368 691,361 739,354" fill="none" stroke="#f97316" stroke-width="2.5"/>
<polyline points="115,474 163,471 211,468 259,464 307,460 355,456 403,452 451,447 499,442 547,437 595,432 643,426 691,420 739,415" fill="none" stroke="#ef4444" stroke-width="2.5"/>
<polyline points="115,510 163,508 211,506 259,505 307,502 355,500 403,497 451,495 499,492 547,489 595,487 643,483 691,481 739,478" fill="none" stroke="#6b7280" stroke-width="2.5"/>
<rect x="289" y="266" width="276" height="69" fill="none" stroke="#2563eb" stroke-width="3"/>
<text x="289" y="254" font-size="15" font-family="PingFang SC, Arial" fill="#1d4ed8">高位窄箱体</text>
<line x1="110" y1="282" x2="780" y2="282" stroke="#7c3aed" stroke-width="2" stroke-dasharray="8,4"/>
<text x="630" y="272" font-size="15" font-family="PingFang SC, Arial" fill="#6d28d9">前高压力线</text>
<line x1="115" y1="363" x2="115" y2="376" stroke="#e83c3c" stroke-width="3"/>
<rect x="104" y="365" width="22" height="10" fill="#e83c3c"/>
<line x1="163" y1="359" x2="163" y2="378" stroke="#20b86e" stroke-width="3"/>
<rect x="152" y="360" width="22" height="15" fill="#20b86e"/>
<line x1="211" y1="349" x2="211" y2="379" stroke="#e83c3c" stroke-width="3"/>
<rect x="200" y="355" width="22" height="21" fill="#e83c3c"/>
<line x1="259" y1="307" x2="259" y2="360" stroke="#e83c3c" stroke-width="3"/>
<rect x="248" y="313" width="22" height="43" fill="#e83c3c"/>
<line x1="307" y1="306" x2="307" y2="330" stroke="#20b86e" stroke-width="3"/>
<rect x="296" y="309" width="22" height="16" fill="#20b86e"/>
<line x1="355" y1="301" x2="355" y2="327" stroke="#e83c3c" stroke-width="3"/>
<rect x="344" y="304" width="22" height="22" fill="#e83c3c"/>
<line x1="403" y1="291" x2="403" y2="305" stroke="#e83c3c" stroke-width="3"/>
<rect x="392" y="293" width="22" height="11" fill="#e83c3c"/>
<line x1="451" y1="286" x2="451" y2="309" stroke="#20b86e" stroke-width="3"/>
<rect x="440" y="289" width="22" height="16" fill="#20b86e"/>
<line x1="499" y1="280" x2="499" y2="307" stroke="#e83c3c" stroke-width="3"/>
<rect x="488" y="283" width="22" height="22" fill="#e83c3c"/>
<line x1="547" y1="271" x2="547" y2="284" stroke="#e83c3c" stroke-width="3"/>
<rect x="536" y="272" width="22" height="11" fill="#e83c3c"/>
<line x1="595" y1="260" x2="595" y2="300" stroke="#20b86e" stroke-width="3"/>
<rect x="584" y="264" width="22" height="28" fill="#20b86e"/>
<line x1="643" y1="248" x2="643" y2="296" stroke="#e83c3c" stroke-width="3"/>
<rect x="632" y="254" width="22" height="39" fill="#e83c3c"/>
<line x1="691" y1="196" x2="691" y2="260" stroke="#e83c3c" stroke-width="3"/>
<rect x="680" y="204" width="22" height="52" fill="#e83c3c"/>
<line x1="739" y1="190" x2="739" y2="239" stroke="#20b86e" stroke-width="3"/>
<rect x="728" y="193" width="22" height="40" fill="#20b86e"/>
<rect x="103" y="550" width="24" height="10" fill="#e83c3c"/>
<rect x="151" y="545" width="24" height="15" fill="#20b86e"/>
<rect x="199" y="540" width="24" height="20" fill="#e83c3c"/>
<rect x="247" y="520" width="24" height="40" fill="#e83c3c"/>
<rect x="295" y="545" width="24" height="15" fill="#20b86e"/>
<rect x="343" y="540" width="24" height="20" fill="#e83c3c"/>
<rect x="391" y="550" width="24" height="10" fill="#e83c3c"/>
<rect x="439" y="545" width="24" height="15" fill="#20b86e"/>
<rect x="487" y="540" width="24" height="20" fill="#e83c3c"/>
<rect x="535" y="550" width="24" height="10" fill="#e83c3c"/>
<rect x="583" y="535" width="24" height="25" fill="#20b86e"/>
<rect x="631" y="525" width="24" height="35" fill="#e83c3c"/>
<rect x="679" y="515" width="24" height="45" fill="#e83c3c"/>
<rect x="727" y="525" width="24" height="35" fill="#20b86e"/>
<text x="90" y="578" font-size="15" font-family="PingFang SC, Arial" fill="#6b7280">量能区</text>
<rect x="850" y="135" width="280" height="450" rx="16" fill="#ffffff" stroke="#d0c7bc"/>
<text x="875" y="178" font-size="24" font-family="PingFang SC, Arial" fill="#111827">点评</text>
<text x="875" y="220" font-size="18" font-family="PingFang SC, Arial" fill="#374151">放量涨停，缺小箱蓄势</text>
<text x="875" y="262" font-size="18" font-family="PingFang SC, Arial" fill="#4b5563">• 板块走强</text>
<text x="875" y="296" font-size="18" font-family="PingFang SC, Arial" fill="#4b5563">• 站上均线</text>
<text x="875" y="330" font-size="18" font-family="PingFang SC, Arial" fill="#4b5563">• 风险：跳跃拉升</text>
<text x="875" y="655" font-size="18" font-family="PingFang SC, Arial" fill="#7c746b">教学示意图：重绘，不复刻原截图</text>
</svg>
