<svg xmlns="http://www.w3.org/2000/svg" width="1200" height="720" viewBox="0 0 1200 720">
<rect width="1200" height="720" fill="#fbfaf7"/>
<rect x="70" y="135" width="750" height="450" rx="18" fill="#fffefb" stroke="#c9c2b8" stroke-width="2"/>
<text x="70" y="70" font-size="34" font-family="PingFang SC, Arial" fill="#1f2933">案例49｜教学示意图</text>
<text x="850" y="70" font-size="34" font-family="PingFang SC, Arial" fill="#b7791f">62/100  勉强</text>
<text x="620" y="200" font-size="18" font-family="PingFang SC, Arial" fill="#6d28d9">前高/压力线</text>
<text x="90" y="162" font-size="13" font-family="PingFang SC, Arial" fill="#4b5563" font-weight="bold">均线</text>
<line x1="125" y1="159" x2="145" y2="159" stroke="#f59e0b" stroke-width="3"/>
<text x="149" y="162" font-size="12" font-family="PingFang SC, Arial" fill="#f59e0b">MA5</text>
<line x1="183" y1="159" x2="203" y2="159" stroke="#8b5cf6" stroke-width="3" stroke-dasharray="6,4"/>
<text x="207" y="162" font-size="12" font-family="PingFang SC, Arial" fill="#8b5cf6">MA10</text>
<line x1="241" y1="159" x2="261" y2="159" stroke="#10b981" stroke-width="3"/>
<text x="265" y="162" font-size="12" font-family="PingFang SC, Arial" fill="#10b981">MA20</text>
<line x1="299" y1="159" x2="319" y2="159" stroke="#f97316" stroke-width="3"/>
<text x="323" y="162" font-size="12" font-family="PingFang SC, Arial" fill="#f97316">MA30</text>
<line x1="357" y1="159" x2="377" y2="159" stroke="#ef4444" stroke-width="3"/>
<text x="381" y="162" font-size="12" font-family="PingFang SC, Arial" fill="#ef4444">MA60</text>
<line x1="415" y1="159" x2="435" y2="159" stroke="#6b7280" stroke-width="3"/>
<text x="439" y="162" font-size="12" font-family="PingFang SC, Arial" fill="#6b7280">MA120</text>
<line x1="110" y1="278" x2="780" y2="278" stroke="#7c3aed" stroke-width="2" stroke-dasharray="8,4"/>
<text x="630" y="268" font-size="15" font-family="PingFang SC, Arial" fill="#6d28d9">前高压力线</text>
<rect x="292" y="344" width="270" height="127" fill="none" stroke="#2563eb" stroke-width="3"/>
<text x="292" y="334" font-size="15" font-family="PingFang SC, Arial" fill="#1d4ed8">高位窄箱体</text>
<polyline points="115,434 163,447 211,460 259,439 307,435 355,432 403,429 451,406 499,420 547,418 595,408 643,388 691,366 739,329" fill="none" stroke="#f59e0b" stroke-width="2.5"/>
<polyline points="115,394 163,410 211,422 259,421 307,427 355,433 403,438 451,433 499,430 547,426 595,420 643,409 691,386 739,375" fill="none" stroke="#8b5cf6" stroke-width="2.5" stroke-dasharray="8,4"/>
<polyline points="115,381 163,387 211,393 259,391 307,394 355,398 403,403 451,401 499,402 547,405 595,407 643,409 691,404 739,398" fill="none" stroke="#10b981" stroke-width="2.5"/>
<polyline points="115,388 163,388 211,391 259,388 307,389 355,389 403,389 451,388 499,389 547,392 595,393 643,393 691,390 739,386" fill="none" stroke="#f97316" stroke-width="2.5"/>
<polyline points="115,395 163,395 211,395 259,393 307,392 355,392 403,393 451,392 499,392 547,393 595,393 643,393 691,391 739,389" fill="none" stroke="#ef4444" stroke-width="2.5"/>
<polyline points="115,375 163,377 211,378 259,379 307,380 355,382 403,384 451,385 499,386 547,387 595,388 643,388 691,388 739,388" fill="none" stroke="#6b7280" stroke-width="2.5"/>
<line x1="115" y1="424" x2="115" y2="473" stroke="#d74b42" stroke-width="3"/>
<rect x="104" y="441" width="22" height="15" fill="#d74b42"/>
<line x1="163" y1="451" x2="163" y2="502" stroke="#2f9e67" stroke-width="3"/>
<rect x="152" y="467" width="22" height="18" fill="#2f9e67"/>
<line x1="211" y1="457" x2="211" y2="505" stroke="#2f9e67" stroke-width="3"/>
<rect x="200" y="473" width="22" height="16" fill="#2f9e67"/>
<line x1="259" y1="303" x2="259" y2="430" stroke="#2f9e67" stroke-width="3"/>
<rect x="248" y="339" width="22" height="64" fill="#2f9e67"/>
<line x1="307" y1="413" x2="307" y2="446" stroke="#d74b42" stroke-width="3"/>
<rect x="296" y="423" width="22" height="13" fill="#d74b42"/>
<line x1="355" y1="435" x2="355" y2="466" stroke="#2f9e67" stroke-width="3"/>
<rect x="344" y="445" width="22" height="11" fill="#2f9e67"/>
<line x1="403" y1="420" x2="403" y2="461" stroke="#d74b42" stroke-width="3"/>
<rect x="392" y="431" width="22" height="19" fill="#d74b42"/>
<line x1="451" y1="349" x2="451" y2="382" stroke="#2f9e67" stroke-width="3"/>
<rect x="440" y="360" width="22" height="11" fill="#2f9e67"/>
<line x1="499" y1="387" x2="499" y2="423" stroke="#d74b42" stroke-width="3"/>
<rect x="488" y="397" width="22" height="16" fill="#d74b42"/>
<line x1="547" y1="399" x2="547" y2="436" stroke="#d74b42" stroke-width="3"/>
<rect x="536" y="409" width="22" height="16" fill="#d74b42"/>
<line x1="595" y1="369" x2="595" y2="436" stroke="#2f9e67" stroke-width="3"/>
<rect x="584" y="390" width="22" height="33" fill="#2f9e67"/>
<line x1="643" y1="334" x2="643" y2="398" stroke="#2f9e67" stroke-width="3"/>
<rect x="632" y="355" width="22" height="30" fill="#2f9e67"/>
<line x1="691" y1="220" x2="691" y2="323" stroke="#2f9e67" stroke-width="3"/>
<rect x="680" y="247" width="22" height="57" fill="#2f9e67"/>
<line x1="739" y1="209" x2="739" y2="286" stroke="#2f9e67" stroke-width="3"/>
<rect x="728" y="228" width="22" height="48" fill="#2f9e67"/>
<rect x="103" y="548" width="24" height="12" fill="#d74b42"/>
<rect x="151" y="546" width="24" height="14" fill="#6abf88"/>
<rect x="199" y="544" width="24" height="16" fill="#6abf88"/>
<rect x="247" y="502" width="24" height="58" fill="#6abf88"/>
<rect x="295" y="542" width="24" height="18" fill="#d74b42"/>
<rect x="343" y="544" width="24" height="16" fill="#6abf88"/>
<rect x="391" y="542" width="24" height="18" fill="#d74b42"/>
<rect x="439" y="546" width="24" height="14" fill="#6abf88"/>
<rect x="487" y="546" width="24" height="14" fill="#d74b42"/>
<rect x="535" y="544" width="24" height="16" fill="#d74b42"/>
<rect x="583" y="530" width="24" height="30" fill="#6abf88"/>
<rect x="631" y="542" width="24" height="18" fill="#6abf88"/>
<rect x="679" y="505" width="24" height="55" fill="#6abf88"/>
<rect x="727" y="525" width="24" height="35" fill="#6abf88"/>
<text x="90" y="578" font-size="15" font-family="PingFang SC, Arial" fill="#6b7280">量能区</text>
<circle cx="451" cy="382" r="6" fill="none" stroke="#ef4444" stroke-width="2"/>
<text x="461" y="397" font-size="13" font-family="PingFang SC, Arial" fill="#dc2626">低吸试错点</text>
<circle cx="691" cy="220" r="6" fill="#ef4444" stroke="none"/>
<text x="651" y="205" font-size="13" font-family="PingFang SC, Arial" fill="#dc2626">突破确认点</text>
<rect x="850" y="135" width="280" height="450" rx="16" fill="#ffffff" stroke="#d0c7bc"/>
<text x="875" y="178" font-size="24" font-family="PingFang SC, Arial" fill="#111827">点评</text>
<text x="875" y="220" font-size="18" font-family="PingFang SC, Arial" fill="#374151">底部反转后冲高回落</text>
<text x="875" y="258" font-size="18" font-family="PingFang SC, Arial" fill="#374151">观察：回踩短均线B点</text>
<text x="875" y="296" font-size="18" font-family="PingFang SC, Arial" fill="#374151">失效：跌破37.31</text>
<text x="875" y="655" font-size="18" font-family="PingFang SC, Arial" fill="#7c746b">教学重绘图：不复刻原截图</text>
</svg>
