<svg xmlns="http://www.w3.org/2000/svg" width="1200" height="720" viewBox="0 0 1200 720">
<rect width="1200" height="720" fill="#fbfaf7"/>
<rect x="70" y="135" width="750" height="450" rx="18" fill="#fffefb" stroke="#c9c2b8" stroke-width="2"/>
<text x="70" y="70" font-size="34" font-family="PingFang SC, Arial" fill="#1f2933">案例14｜兖矿能源</text>
<text x="850" y="70" font-size="34" font-family="PingFang SC, Arial" fill="#b7791f">62/100  勉强</text>
<text x="90" y="162" font-size="13" font-family="PingFang SC, Arial" fill="#4b5563" font-weight="bold">均线</text>
<line x1="125" y1="159" x2="145" y2="159" stroke="#f59e0b" stroke-width="3"/>
<text x="149" y="162" font-size="12" font-family="PingFang SC, Arial" fill="#f59e0b">MA5</text>
<line x1="183" y1="159" x2="203" y2="159" stroke="#8b5cf6" stroke-width="3" stroke-dasharray="6,4"/>
<text x="207" y="162" font-size="12" font-family="PingFang SC, Arial" fill="#8b5cf6">MA10</text>
<line x1="241" y1="159" x2="261" y2="159" stroke="#10b981" stroke-width="3"/>
<text x="265" y="162" font-size="12" font-family="PingFang SC, Arial" fill="#10b981">MA20</text>
<line x1="299" y1="159" x2="319" y2="159" stroke="#f97316" stroke-width="3"/>
<text x="323" y="162" font-size="12" font-family="PingFang SC, Arial" fill="#f97316">MA30</text>
<line x1="357" y1="159" x2="377" y2="159" stroke="#ef4444" stroke-width="3"/>
<text x="381" y="162" font-size="12" font-family="PingFang SC, Arial" fill="#ef4444">MA60</text>
<line x1="415" y1="159" x2="435" y2="159" stroke="#6b7280" stroke-width="3"/>
<text x="439" y="162" font-size="12" font-family="PingFang SC, Arial" fill="#6b7280">MA120</text>
<polyline points="115,458 163,455 211,446 259,426 307,412 355,395 403,372 451,358 499,350 547,335 595,332 643,321 691,293 739,279" fill="none" stroke="#f59e0b" stroke-width="2.5"/>
<polyline points="115,466 163,464 211,456 259,445 307,438 355,427 403,413 451,402 499,387 547,374 595,363 643,347 691,326 739,315" fill="none" stroke="#8b5cf6" stroke-width="2.5" stroke-dasharray="8,4"/>
<polyline points="115,500 163,496 211,490 259,481 307,473 355,463 403,453 451,444 499,434 547,424 595,415 643,405 691,392 739,379" fill="none" stroke="#10b981" stroke-width="2.5"/>
<polyline points="115,486 163,489 211,488 259,487 307,486 355,482 403,478 451,474 499,467 547,461 595,455 643,446 691,435 739,426" fill="none" stroke="#f97316" stroke-width="2.5"/>
<polyline points="115,451 163,451 211,450 259,449 307,448 355,446 403,445 451,442 499,441 547,438 595,436 643,433 691,429 739,426" fill="none" stroke="#ef4444" stroke-width="2.5"/>
<polyline points="115,425 163,426 211,427 259,426 307,426 355,426 403,425 451,425 499,424 547,424 595,423 643,423 691,422 739,421" fill="none" stroke="#6b7280" stroke-width="2.5"/>
<rect x="289" y="301" width="276" height="93" fill="none" stroke="#2563eb" stroke-width="3"/>
<text x="289" y="289" font-size="15" font-family="PingFang SC, Arial" fill="#1d4ed8">高位窄箱体</text>
<line x1="110" y1="332" x2="780" y2="332" stroke="#7c3aed" stroke-width="2" stroke-dasharray="8,4"/>
<text x="630" y="322" font-size="15" font-family="PingFang SC, Arial" fill="#6d28d9">前高压力线</text>
<line x1="115" y1="435" x2="115" y2="453" stroke="#e83c3c" stroke-width="3"/>
<rect x="104" y="437" width="22" height="15" fill="#e83c3c"/>
<line x1="163" y1="429" x2="163" y2="455" stroke="#20b86e" stroke-width="3"/>
<rect x="152" y="431" width="22" height="21" fill="#20b86e"/>
<line x1="211" y1="415" x2="211" y2="458" stroke="#e83c3c" stroke-width="3"/>
<rect x="200" y="424" width="22" height="29" fill="#e83c3c"/>
<line x1="259" y1="357" x2="259" y2="430" stroke="#e83c3c" stroke-width="3"/>
<rect x="248" y="365" width="22" height="60" fill="#e83c3c"/>
<line x1="307" y1="356" x2="307" y2="389" stroke="#20b86e" stroke-width="3"/>
<rect x="296" y="360" width="22" height="22" fill="#20b86e"/>
<line x1="355" y1="347" x2="355" y2="384" stroke="#e83c3c" stroke-width="3"/>
<rect x="344" y="352" width="22" height="30" fill="#e83c3c"/>
<line x1="403" y1="335" x2="403" y2="354" stroke="#e83c3c" stroke-width="3"/>
<rect x="392" y="337" width="22" height="15" fill="#e83c3c"/>
<line x1="451" y1="328" x2="451" y2="361" stroke="#20b86e" stroke-width="3"/>
<rect x="440" y="332" width="22" height="22" fill="#20b86e"/>
<line x1="499" y1="319" x2="499" y2="357" stroke="#e83c3c" stroke-width="3"/>
<rect x="488" y="324" width="22" height="30" fill="#e83c3c"/>
<line x1="547" y1="306" x2="547" y2="325" stroke="#e83c3c" stroke-width="3"/>
<rect x="536" y="308" width="22" height="15" fill="#e83c3c"/>
<line x1="595" y1="292" x2="595" y2="348" stroke="#20b86e" stroke-width="3"/>
<rect x="584" y="299" width="22" height="37" fill="#20b86e"/>
<line x1="643" y1="275" x2="643" y2="342" stroke="#e83c3c" stroke-width="3"/>
<rect x="632" y="283" width="22" height="54" fill="#e83c3c"/>
<line x1="691" y1="203" x2="691" y2="291" stroke="#e83c3c" stroke-width="3"/>
<rect x="680" y="214" width="22" height="71" fill="#e83c3c"/>
<line x1="739" y1="193" x2="739" y2="261" stroke="#20b86e" stroke-width="3"/>
<rect x="728" y="198" width="22" height="55" fill="#20b86e"/>
<rect x="103" y="550" width="24" height="10" fill="#e83c3c"/>
<rect x="151" y="545" width="24" height="15" fill="#20b86e"/>
<rect x="199" y="540" width="24" height="20" fill="#e83c3c"/>
<rect x="247" y="520" width="24" height="40" fill="#e83c3c"/>
<rect x="295" y="545" width="24" height="15" fill="#20b86e"/>
<rect x="343" y="540" width="24" height="20" fill="#e83c3c"/>
<rect x="391" y="550" width="24" height="10" fill="#e83c3c"/>
<rect x="439" y="545" width="24" height="15" fill="#20b86e"/>
<rect x="487" y="540" width="24" height="20" fill="#e83c3c"/>
<rect x="535" y="550" width="24" height="10" fill="#e83c3c"/>
<rect x="583" y="535" width="24" height="25" fill="#20b86e"/>
<rect x="631" y="525" width="24" height="35" fill="#e83c3c"/>
<rect x="679" y="515" width="24" height="45" fill="#e83c3c"/>
<rect x="727" y="525" width="24" height="35" fill="#20b86e"/>
<text x="90" y="578" font-size="15" font-family="PingFang SC, Arial" fill="#6b7280">量能区</text>
<rect x="850" y="135" width="280" height="450" rx="16" fill="#ffffff" stroke="#d0c7bc"/>
<text x="875" y="178" font-size="24" font-family="PingFang SC, Arial" fill="#111827">点评</text>
<text x="875" y="220" font-size="18" font-family="PingFang SC, Arial" fill="#374151">趋势与量能强，但缺窄箱压缩</text>
<text x="875" y="262" font-size="18" font-family="PingFang SC, Arial" fill="#4b5563">• 放量涨停</text>
<text x="875" y="296" font-size="18" font-family="PingFang SC, Arial" fill="#4b5563">• 均线多头排列</text>
<text x="875" y="330" font-size="18" font-family="PingFang SC, Arial" fill="#4b5563">• 风险：直接加速</text>
<text x="875" y="655" font-size="18" font-family="PingFang SC, Arial" fill="#7c746b">教学示意图：重绘，不复刻原截图</text>
</svg>
