<svg xmlns="http://www.w3.org/2000/svg" width="1200" height="720" viewBox="0 0 1200 720">
<rect width="1200" height="720" fill="#fbfaf7"/>
<rect x="70" y="135" width="750" height="450" rx="18" fill="#fffefb" stroke="#c9c2b8" stroke-width="2"/>
<text x="70" y="70" font-size="34" font-family="PingFang SC, Arial" fill="#1f2933">案例06｜惠丰钻石 920725</text>
<text x="850" y="70" font-size="34" font-family="PingFang SC, Arial" fill="#b7791f">50/100  勉强</text>
<rect x="282" y="160" width="338" height="220" fill="none" stroke="#2563eb" stroke-width="3"/>
<text x="90" y="162" font-size="13" font-family="PingFang SC, Arial" fill="#4b5563" font-weight="bold">均线</text>
<line x1="125" y1="159" x2="145" y2="159" stroke="#f59e0b" stroke-width="3"/>
<text x="149" y="162" font-size="12" font-family="PingFang SC, Arial" fill="#f59e0b">MA5</text>
<line x1="183" y1="159" x2="203" y2="159" stroke="#8b5cf6" stroke-width="3" stroke-dasharray="6,4"/>
<text x="207" y="162" font-size="12" font-family="PingFang SC, Arial" fill="#8b5cf6">MA10</text>
<line x1="241" y1="159" x2="261" y2="159" stroke="#10b981" stroke-width="3"/>
<text x="265" y="162" font-size="12" font-family="PingFang SC, Arial" fill="#10b981">MA20</text>
<line x1="299" y1="159" x2="319" y2="159" stroke="#f97316" stroke-width="3"/>
<text x="323" y="162" font-size="12" font-family="PingFang SC, Arial" fill="#f97316">MA30</text>
<line x1="357" y1="159" x2="377" y2="159" stroke="#ef4444" stroke-width="3"/>
<text x="381" y="162" font-size="12" font-family="PingFang SC, Arial" fill="#ef4444">MA60</text>
<line x1="415" y1="159" x2="435" y2="159" stroke="#6b7280" stroke-width="3"/>
<text x="439" y="162" font-size="12" font-family="PingFang SC, Arial" fill="#6b7280">MA120</text>
<polyline points="115,471 163,478 211,475 259,455 307,439 355,420 403,395 451,379 499,369 547,353 595,349 643,338 691,306 739,291" fill="none" stroke="#f59e0b" stroke-width="2.5"/>
<polyline points="115,487 163,483 211,476 259,465 307,455 355,446 403,436 451,427 499,412 547,396 595,385 643,367 691,343 739,331" fill="none" stroke="#8b5cf6" stroke-width="2.5" stroke-dasharray="8,4"/>
<polyline points="115,467 163,471 211,473 259,471 307,470 355,466 403,460 451,456 499,448 547,442 595,436 643,425 691,409 739,398" fill="none" stroke="#10b981" stroke-width="2.5"/>
<polyline points="115,456 163,457 211,456 259,453 307,453 355,452 403,450 451,447 499,445 547,442 595,440 643,436 691,430 739,425" fill="none" stroke="#f97316" stroke-width="2.5"/>
<polyline points="115,492 163,494 211,496 259,496 307,496 355,494 403,493 451,491 499,488 547,486 595,482 643,477 691,472 739,467" fill="none" stroke="#ef4444" stroke-width="2.5"/>
<polyline points="115,374 163,376 211,378 259,379 307,380 355,381 403,383 451,384 499,384 547,385 595,386 643,386 691,386 739,386" fill="none" stroke="#6b7280" stroke-width="2.5"/>
<line x1="110" y1="257" x2="780" y2="257" stroke="#7c3aed" stroke-width="2" stroke-dasharray="8,4"/>
<text x="630" y="247" font-size="15" font-family="PingFang SC, Arial" fill="#6d28d9">前高压力线</text>
<rect x="292" y="360" width="270" height="103" fill="none" stroke="#2563eb" stroke-width="3"/>
<text x="292" y="348" font-size="15" font-family="PingFang SC, Arial" fill="#1d4ed8">高位窄箱体</text>
<line x1="115" y1="465" x2="115" y2="485" stroke="#2f9e67" stroke-width="3"/>
<rect x="104" y="467" width="22" height="16" fill="#2f9e67"/>
<line x1="163" y1="457" x2="163" y2="487" stroke="#d74b42" stroke-width="3"/>
<rect x="152" y="459" width="22" height="24" fill="#d74b42"/>
<line x1="211" y1="443" x2="211" y2="490" stroke="#2f9e67" stroke-width="3"/>
<rect x="200" y="452" width="22" height="32" fill="#2f9e67"/>
<line x1="259" y1="378" x2="259" y2="460" stroke="#2f9e67" stroke-width="3"/>
<rect x="248" y="388" width="22" height="66" fill="#2f9e67"/>
<line x1="307" y1="376" x2="307" y2="412" stroke="#d74b42" stroke-width="3"/>
<rect x="296" y="380" width="22" height="25" fill="#d74b42"/>
<line x1="355" y1="368" x2="355" y2="409" stroke="#2f9e67" stroke-width="3"/>
<rect x="344" y="373" width="22" height="33" fill="#2f9e67"/>
<line x1="403" y1="353" x2="403" y2="374" stroke="#2f9e67" stroke-width="3"/>
<rect x="392" y="355" width="22" height="17" fill="#2f9e67"/>
<line x1="451" y1="344" x2="451" y2="381" stroke="#d74b42" stroke-width="3"/>
<rect x="440" y="349" width="22" height="25" fill="#d74b42"/>
<line x1="499" y1="335" x2="499" y2="377" stroke="#2f9e67" stroke-width="3"/>
<rect x="488" y="340" width="22" height="34" fill="#2f9e67"/>
<line x1="547" y1="321" x2="547" y2="342" stroke="#2f9e67" stroke-width="3"/>
<rect x="536" y="323" width="22" height="17" fill="#2f9e67"/>
<line x1="595" y1="304" x2="595" y2="367" stroke="#d74b42" stroke-width="3"/>
<rect x="584" y="312" width="22" height="42" fill="#d74b42"/>
<line x1="643" y1="287" x2="643" y2="361" stroke="#2f9e67" stroke-width="3"/>
<rect x="632" y="296" width="22" height="60" fill="#2f9e67"/>
<line x1="691" y1="206" x2="691" y2="304" stroke="#2f9e67" stroke-width="3"/>
<rect x="680" y="218" width="22" height="79" fill="#2f9e67"/>
<line x1="739" y1="196" x2="739" y2="271" stroke="#d74b42" stroke-width="3"/>
<rect x="728" y="201" width="22" height="61" fill="#d74b42"/>
<rect x="103" y="550" width="24" height="10" fill="#6abf88"/>
<rect x="151" y="545" width="24" height="15" fill="#d74b42"/>
<rect x="199" y="540" width="24" height="20" fill="#6abf88"/>
<rect x="247" y="520" width="24" height="40" fill="#6abf88"/>
<rect x="295" y="545" width="24" height="15" fill="#d74b42"/>
<rect x="343" y="540" width="24" height="20" fill="#6abf88"/>
<rect x="391" y="550" width="24" height="10" fill="#6abf88"/>
<rect x="439" y="545" width="24" height="15" fill="#d74b42"/>
<rect x="487" y="540" width="24" height="20" fill="#6abf88"/>
<rect x="535" y="550" width="24" height="10" fill="#6abf88"/>
<rect x="583" y="535" width="24" height="25" fill="#d74b42"/>
<rect x="631" y="525" width="24" height="35" fill="#6abf88"/>
<rect x="679" y="515" width="24" height="45" fill="#6abf88"/>
<rect x="727" y="525" width="24" height="35" fill="#d74b42"/>
<text x="90" y="578" font-size="15" font-family="PingFang SC, Arial" fill="#6b7280">量能区</text>
<rect x="850" y="135" width="280" height="450" rx="16" fill="#ffffff" stroke="#d0c7bc"/>
<text x="875" y="178" font-size="24" font-family="PingFang SC, Arial" fill="#111827">点评</text>
<text x="875" y="220" font-size="18" font-family="PingFang SC, Arial" fill="#374151">强势但直接加速，缺横盘蓄势</text>
<text x="875" y="262" font-size="18" font-family="PingFang SC, Arial" fill="#4b5563">• 连续放量大阳</text>
<text x="875" y="296" font-size="18" font-family="PingFang SC, Arial" fill="#4b5563">• 未见4日窄箱</text>
<text x="875" y="330" font-size="18" font-family="PingFang SC, Arial" fill="#4b5563">• 风险：鱼尾加速</text>
<text x="875" y="655" font-size="18" font-family="PingFang SC, Arial" fill="#7c746b">教学示意图：重绘，不复刻原截图</text>
</svg>
