<svg xmlns="http://www.w3.org/2000/svg" width="1200" height="720" viewBox="0 0 1200 720">
<rect width="1200" height="720" fill="#fbfaf7"/>
<rect x="70" y="135" width="750" height="450" rx="18" fill="#fffefb" stroke="#c9c2b8" stroke-width="2"/>
<text x="70" y="70" font-size="34" font-family="PingFang SC, Arial" fill="#1f2933">案例11｜教学示意图</text>
<text x="850" y="70" font-size="34" font-family="PingFang SC, Arial" fill="#b7791f">60/100  勉强</text>
<rect x="282" y="290" width="338" height="105" fill="none" stroke="#2563eb" stroke-width="3"/>
<text x="90" y="162" font-size="13" font-family="PingFang SC, Arial" fill="#4b5563" font-weight="bold">均线</text>
<line x1="125" y1="159" x2="145" y2="159" stroke="#f59e0b" stroke-width="3"/>
<text x="149" y="162" font-size="12" font-family="PingFang SC, Arial" fill="#f59e0b">MA5</text>
<line x1="183" y1="159" x2="203" y2="159" stroke="#8b5cf6" stroke-width="3" stroke-dasharray="6,4"/>
<text x="207" y="162" font-size="12" font-family="PingFang SC, Arial" fill="#8b5cf6">MA10</text>
<line x1="241" y1="159" x2="261" y2="159" stroke="#10b981" stroke-width="3"/>
<text x="265" y="162" font-size="12" font-family="PingFang SC, Arial" fill="#10b981">MA20</text>
<line x1="299" y1="159" x2="319" y2="159" stroke="#f97316" stroke-width="3"/>
<text x="323" y="162" font-size="12" font-family="PingFang SC, Arial" fill="#f97316">MA30</text>
<line x1="357" y1="159" x2="377" y2="159" stroke="#ef4444" stroke-width="3"/>
<text x="381" y="162" font-size="12" font-family="PingFang SC, Arial" fill="#ef4444">MA60</text>
<line x1="415" y1="159" x2="435" y2="159" stroke="#6b7280" stroke-width="3"/>
<text x="439" y="162" font-size="12" font-family="PingFang SC, Arial" fill="#6b7280">MA120</text>
<polyline points="115,412 163,407 211,398 259,380 307,369 355,356 403,336 451,325 499,318 547,306 595,303 643,295 691,272 739,260" fill="none" stroke="#f59e0b" stroke-width="2.5"/>
<polyline points="115,424 163,423 211,418 259,406 307,395 355,383 403,372 451,362 499,350 547,338 595,330 643,315 691,298 739,289" fill="none" stroke="#8b5cf6" stroke-width="2.5" stroke-dasharray="8,4"/>
<polyline points="115,432 163,427 211,423 259,417 307,412 355,406 403,400 451,396 499,390 547,383 595,377 643,369 691,359 739,347" fill="none" stroke="#10b981" stroke-width="2.5"/>
<polyline points="115,453 163,450 211,447 259,441 307,435 355,428 403,421 451,416 499,410 547,403 595,397 643,390 691,382 739,374" fill="none" stroke="#f97316" stroke-width="2.5"/>
<polyline points="115,463 163,461 211,460 259,458 307,456 355,454 403,452 451,450 499,447 547,444 595,442 643,439 691,435 739,432" fill="none" stroke="#ef4444" stroke-width="2.5"/>
<polyline points="115,506 163,504 211,502 259,499 307,497 355,495 403,493 451,491 499,488 547,485 595,483 643,481 691,478 739,475" fill="none" stroke="#6b7280" stroke-width="2.5"/>
<rect x="289" y="278" width="276" height="77" fill="none" stroke="#2563eb" stroke-width="3"/>
<text x="289" y="266" font-size="15" font-family="PingFang SC, Arial" fill="#1d4ed8">高位窄箱体</text>
<line x1="110" y1="299" x2="780" y2="299" stroke="#7c3aed" stroke-width="2" stroke-dasharray="8,4"/>
<text x="630" y="289" font-size="15" font-family="PingFang SC, Arial" fill="#6d28d9">前高压力线</text>
<line x1="115" y1="387" x2="115" y2="402" stroke="#e83c3c" stroke-width="3"/>
<rect x="104" y="389" width="22" height="12" fill="#e83c3c"/>
<line x1="163" y1="383" x2="163" y2="404" stroke="#20b86e" stroke-width="3"/>
<rect x="152" y="384" width="22" height="18" fill="#20b86e"/>
<line x1="211" y1="372" x2="211" y2="406" stroke="#e83c3c" stroke-width="3"/>
<rect x="200" y="379" width="22" height="23" fill="#e83c3c"/>
<line x1="259" y1="324" x2="259" y2="384" stroke="#e83c3c" stroke-width="3"/>
<rect x="248" y="331" width="22" height="48" fill="#e83c3c"/>
<line x1="307" y1="323" x2="307" y2="350" stroke="#20b86e" stroke-width="3"/>
<rect x="296" y="326" width="22" height="18" fill="#20b86e"/>
<line x1="355" y1="317" x2="355" y2="347" stroke="#e83c3c" stroke-width="3"/>
<rect x="344" y="321" width="22" height="24" fill="#e83c3c"/>
<line x1="403" y1="306" x2="403" y2="321" stroke="#e83c3c" stroke-width="3"/>
<rect x="392" y="308" width="22" height="12" fill="#e83c3c"/>
<line x1="451" y1="300" x2="451" y2="327" stroke="#20b86e" stroke-width="3"/>
<rect x="440" y="303" width="22" height="18" fill="#20b86e"/>
<line x1="499" y1="293" x2="499" y2="324" stroke="#e83c3c" stroke-width="3"/>
<rect x="488" y="297" width="22" height="24" fill="#e83c3c"/>
<line x1="547" y1="283" x2="547" y2="298" stroke="#e83c3c" stroke-width="3"/>
<rect x="536" y="285" width="22" height="12" fill="#e83c3c"/>
<line x1="595" y1="271" x2="595" y2="316" stroke="#20b86e" stroke-width="3"/>
<rect x="584" y="276" width="22" height="31" fill="#20b86e"/>
<line x1="643" y1="257" x2="643" y2="312" stroke="#e83c3c" stroke-width="3"/>
<rect x="632" y="264" width="22" height="44" fill="#e83c3c"/>
<line x1="691" y1="199" x2="691" y2="271" stroke="#e83c3c" stroke-width="3"/>
<rect x="680" y="207" width="22" height="59" fill="#e83c3c"/>
<line x1="739" y1="191" x2="739" y2="246" stroke="#20b86e" stroke-width="3"/>
<rect x="728" y="195" width="22" height="44" fill="#20b86e"/>
<rect x="103" y="550" width="24" height="10" fill="#e83c3c"/>
<rect x="151" y="545" width="24" height="15" fill="#20b86e"/>
<rect x="199" y="540" width="24" height="20" fill="#e83c3c"/>
<rect x="247" y="520" width="24" height="40" fill="#e83c3c"/>
<rect x="295" y="545" width="24" height="15" fill="#20b86e"/>
<rect x="343" y="540" width="24" height="20" fill="#e83c3c"/>
<rect x="391" y="550" width="24" height="10" fill="#e83c3c"/>
<rect x="439" y="545" width="24" height="15" fill="#20b86e"/>
<rect x="487" y="540" width="24" height="20" fill="#e83c3c"/>
<rect x="535" y="550" width="24" height="10" fill="#e83c3c"/>
<rect x="583" y="535" width="24" height="25" fill="#20b86e"/>
<rect x="631" y="525" width="24" height="35" fill="#e83c3c"/>
<rect x="679" y="515" width="24" height="45" fill="#e83c3c"/>
<rect x="727" y="525" width="24" height="35" fill="#20b86e"/>
<text x="90" y="578" font-size="15" font-family="PingFang SC, Arial" fill="#6b7280">量能区</text>
<rect x="850" y="135" width="280" height="450" rx="16" fill="#ffffff" stroke="#d0c7bc"/>
<text x="875" y="178" font-size="24" font-family="PingFang SC, Arial" fill="#111827">点评</text>
<text x="875" y="220" font-size="18" font-family="PingFang SC, Arial" fill="#374151">启动阳线有，但箱体/量能不足</text>
<text x="875" y="262" font-size="18" font-family="PingFang SC, Arial" fill="#4b5563">• 突破小平台</text>
<text x="875" y="296" font-size="18" font-family="PingFang SC, Arial" fill="#4b5563">• 贴近短均线</text>
<text x="875" y="330" font-size="18" font-family="PingFang SC, Arial" fill="#4b5563">• 风险：缺量能验证</text>
<text x="875" y="655" font-size="18" font-family="PingFang SC, Arial" fill="#7c746b">教学示意图：重绘，不复刻原截图</text>
</svg>
