<svg xmlns="http://www.w3.org/2000/svg" width="1200" height="720" viewBox="0 0 1200 720">
<rect width="1200" height="720" fill="#fbfaf7"/>
<rect x="70" y="135" width="750" height="450" rx="18" fill="#fffefb" stroke="#c9c2b8" stroke-width="2"/>
<text x="70" y="70" font-size="34" font-family="PingFang SC, Arial" fill="#1f2933">案例25｜蓝思科技 300433</text>
<text x="850" y="70" font-size="34" font-family="PingFang SC, Arial" fill="#b7791f">72/100  勉强</text>
<rect x="282" y="210" width="386" height="195" fill="none" stroke="#2563eb" stroke-width="3"/>
<text x="90" y="162" font-size="13" font-family="PingFang SC, Arial" fill="#4b5563" font-weight="bold">均线</text>
<line x1="125" y1="159" x2="145" y2="159" stroke="#f59e0b" stroke-width="3"/>
<text x="149" y="162" font-size="12" font-family="PingFang SC, Arial" fill="#f59e0b">MA5</text>
<line x1="183" y1="159" x2="203" y2="159" stroke="#8b5cf6" stroke-width="3" stroke-dasharray="6,4"/>
<text x="207" y="162" font-size="12" font-family="PingFang SC, Arial" fill="#8b5cf6">MA10</text>
<line x1="241" y1="159" x2="261" y2="159" stroke="#10b981" stroke-width="3"/>
<text x="265" y="162" font-size="12" font-family="PingFang SC, Arial" fill="#10b981">MA20</text>
<line x1="299" y1="159" x2="319" y2="159" stroke="#f97316" stroke-width="3"/>
<text x="323" y="162" font-size="12" font-family="PingFang SC, Arial" fill="#f97316">MA30</text>
<line x1="357" y1="159" x2="377" y2="159" stroke="#ef4444" stroke-width="3"/>
<text x="381" y="162" font-size="12" font-family="PingFang SC, Arial" fill="#ef4444">MA60</text>
<line x1="415" y1="159" x2="435" y2="159" stroke="#6b7280" stroke-width="3"/>
<text x="439" y="162" font-size="12" font-family="PingFang SC, Arial" fill="#6b7280">MA120</text>
<polyline points="115,492 163,490 211,480 259,462 307,447 355,428 403,401 451,385 499,376 547,358 595,354 643,342 691,310 739,294" fill="none" stroke="#f59e0b" stroke-width="2.5"/>
<polyline points="115,494 163,494 211,487 259,480 307,472 355,460 403,446 451,433 499,420 547,403 595,391 643,371 691,347 739,334" fill="none" stroke="#8b5cf6" stroke-width="2.5" stroke-dasharray="8,4"/>
<polyline points="115,467 163,471 211,474 259,473 307,472 355,471 403,467 451,462 499,456 547,448 595,443 643,433 691,417 739,406" fill="none" stroke="#10b981" stroke-width="2.5"/>
<polyline points="115,449 163,452 211,454 259,453 307,452 355,449 403,448 451,447 499,446 547,442 595,441 643,437 691,433 739,427" fill="none" stroke="#f97316" stroke-width="2.5"/>
<polyline points="115,358 163,364 211,368 259,373 307,379 355,383 403,386 451,390 499,393 547,395 595,397 643,397 691,396 739,396" fill="none" stroke="#ef4444" stroke-width="2.5"/>
<polyline points="115,357 163,357 211,358 259,358 307,358 355,358 403,358 451,358 499,358 547,358 595,357 643,357 691,354 739,353" fill="none" stroke="#6b7280" stroke-width="2.5"/>
<rect x="289" y="320" width="276" height="105" fill="none" stroke="#2563eb" stroke-width="3"/>
<text x="289" y="308" font-size="15" font-family="PingFang SC, Arial" fill="#1d4ed8">高位窄箱体</text>
<line x1="110" y1="358" x2="780" y2="358" stroke="#7c3aed" stroke-width="2" stroke-dasharray="8,4"/>
<text x="630" y="348" font-size="15" font-family="PingFang SC, Arial" fill="#6d28d9">前高压力线</text>
<line x1="115" y1="473" x2="115" y2="493" stroke="#e83c3c" stroke-width="3"/>
<rect x="104" y="475" width="22" height="17" fill="#e83c3c"/>
<line x1="163" y1="466" x2="163" y2="497" stroke="#20b86e" stroke-width="3"/>
<rect x="152" y="469" width="22" height="24" fill="#20b86e"/>
<line x1="211" y1="450" x2="211" y2="499" stroke="#e83c3c" stroke-width="3"/>
<rect x="200" y="460" width="22" height="33" fill="#e83c3c"/>
<line x1="259" y1="383" x2="259" y2="468" stroke="#e83c3c" stroke-width="3"/>
<rect x="248" y="393" width="22" height="69" fill="#e83c3c"/>
<line x1="307" y1="382" x2="307" y2="420" stroke="#20b86e" stroke-width="3"/>
<rect x="296" y="387" width="22" height="25" fill="#20b86e"/>
<line x1="355" y1="373" x2="355" y2="415" stroke="#e83c3c" stroke-width="3"/>
<rect x="344" y="378" width="22" height="34" fill="#e83c3c"/>
<line x1="403" y1="359" x2="403" y2="380" stroke="#e83c3c" stroke-width="3"/>
<rect x="392" y="361" width="22" height="18" fill="#e83c3c"/>
<line x1="451" y1="349" x2="451" y2="387" stroke="#20b86e" stroke-width="3"/>
<rect x="440" y="353" width="22" height="26" fill="#20b86e"/>
<line x1="499" y1="339" x2="499" y2="383" stroke="#e83c3c" stroke-width="3"/>
<rect x="488" y="345" width="22" height="34" fill="#e83c3c"/>
<line x1="547" y1="325" x2="547" y2="347" stroke="#e83c3c" stroke-width="3"/>
<rect x="536" y="328" width="22" height="18" fill="#e83c3c"/>
<line x1="595" y1="308" x2="595" y2="372" stroke="#20b86e" stroke-width="3"/>
<rect x="584" y="316" width="22" height="43" fill="#20b86e"/>
<line x1="643" y1="289" x2="643" y2="366" stroke="#e83c3c" stroke-width="3"/>
<rect x="632" y="298" width="22" height="62" fill="#e83c3c"/>
<line x1="691" y1="206" x2="691" y2="308" stroke="#e83c3c" stroke-width="3"/>
<rect x="680" y="219" width="22" height="82" fill="#e83c3c"/>
<line x1="739" y1="195" x2="739" y2="273" stroke="#20b86e" stroke-width="3"/>
<rect x="728" y="201" width="22" height="63" fill="#20b86e"/>
<rect x="103" y="550" width="24" height="10" fill="#e83c3c"/>
<rect x="151" y="545" width="24" height="15" fill="#20b86e"/>
<rect x="199" y="540" width="24" height="20" fill="#e83c3c"/>
<rect x="247" y="520" width="24" height="40" fill="#e83c3c"/>
<rect x="295" y="545" width="24" height="15" fill="#20b86e"/>
<rect x="343" y="540" width="24" height="20" fill="#e83c3c"/>
<rect x="391" y="550" width="24" height="10" fill="#e83c3c"/>
<rect x="439" y="545" width="24" height="15" fill="#20b86e"/>
<rect x="487" y="540" width="24" height="20" fill="#e83c3c"/>
<rect x="535" y="550" width="24" height="10" fill="#e83c3c"/>
<rect x="583" y="535" width="24" height="25" fill="#20b86e"/>
<rect x="631" y="525" width="24" height="35" fill="#e83c3c"/>
<rect x="679" y="515" width="24" height="45" fill="#e83c3c"/>
<rect x="727" y="525" width="24" height="35" fill="#20b86e"/>
<text x="90" y="578" font-size="15" font-family="PingFang SC, Arial" fill="#6b7280">量能区</text>
<rect x="850" y="135" width="280" height="450" rx="16" fill="#ffffff" stroke="#d0c7bc"/>
<text x="875" y="178" font-size="24" font-family="PingFang SC, Arial" fill="#111827">点评</text>
<text x="875" y="220" font-size="18" font-family="PingFang SC, Arial" fill="#374151">结构在但位置险</text>
<text x="875" y="262" font-size="18" font-family="PingFang SC, Arial" fill="#4b5563">• 台阶上行</text>
<text x="875" y="296" font-size="18" font-family="PingFang SC, Arial" fill="#4b5563">• 巨量突破</text>
<text x="875" y="330" font-size="18" font-family="PingFang SC, Arial" fill="#4b5563">• 风险：远离5日线</text>
<text x="875" y="655" font-size="18" font-family="PingFang SC, Arial" fill="#7c746b">教学示意图：重绘，不复刻原截图</text>
</svg>
