<svg xmlns="http://www.w3.org/2000/svg" width="1200" height="720" viewBox="0 0 1200 720">
<rect width="1200" height="720" fill="#fbfaf7"/>
<rect x="70" y="135" width="750" height="450" rx="18" fill="#fffefb" stroke="#c9c2b8" stroke-width="2"/>
<text x="70" y="70" font-size="34" font-family="PingFang SC, Arial" fill="#1f2933">案例16｜赣能股份 000899</text>
<text x="850" y="70" font-size="34" font-family="PingFang SC, Arial" fill="#b7791f">60/100  勉强</text>
<text x="90" y="162" font-size="13" font-family="PingFang SC, Arial" fill="#4b5563" font-weight="bold">均线</text>
<line x1="125" y1="159" x2="145" y2="159" stroke="#f59e0b" stroke-width="3"/>
<text x="149" y="162" font-size="12" font-family="PingFang SC, Arial" fill="#f59e0b">MA5</text>
<line x1="183" y1="159" x2="203" y2="159" stroke="#8b5cf6" stroke-width="3" stroke-dasharray="6,4"/>
<text x="207" y="162" font-size="12" font-family="PingFang SC, Arial" fill="#8b5cf6">MA10</text>
<line x1="241" y1="159" x2="261" y2="159" stroke="#10b981" stroke-width="3"/>
<text x="265" y="162" font-size="12" font-family="PingFang SC, Arial" fill="#10b981">MA20</text>
<line x1="299" y1="159" x2="319" y2="159" stroke="#f97316" stroke-width="3"/>
<text x="323" y="162" font-size="12" font-family="PingFang SC, Arial" fill="#f97316">MA30</text>
<line x1="357" y1="159" x2="377" y2="159" stroke="#ef4444" stroke-width="3"/>
<text x="381" y="162" font-size="12" font-family="PingFang SC, Arial" fill="#ef4444">MA60</text>
<line x1="415" y1="159" x2="435" y2="159" stroke="#6b7280" stroke-width="3"/>
<text x="439" y="162" font-size="12" font-family="PingFang SC, Arial" fill="#6b7280">MA120</text>
<line x1="110" y1="250" x2="780" y2="250" stroke="#7c3aed" stroke-width="2" stroke-dasharray="8,4"/>
<text x="630" y="240" font-size="15" font-family="PingFang SC, Arial" fill="#6d28d9">前高压力线</text>
<rect x="292" y="316" width="270" height="162" fill="none" stroke="#2563eb" stroke-width="3"/>
<text x="292" y="306" font-size="15" font-family="PingFang SC, Arial" fill="#1d4ed8">高位窄箱体</text>
<polyline points="115,473 163,470 211,461 259,429 307,426 355,422 403,420 451,397 499,418 547,415 595,404 643,385 691,368 739,329" fill="none" stroke="#f59e0b" stroke-width="2.5"/>
<polyline points="115,505 163,496 211,487 259,462 307,454 355,448 403,445 451,429 499,424 547,421 595,413 643,402 691,382 739,374" fill="none" stroke="#8b5cf6" stroke-width="2.5" stroke-dasharray="8,4"/>
<polyline points="115,480 163,486 211,489 259,484 307,485 355,485 403,484 451,475 499,471 547,466 595,459 643,449 691,434 739,418" fill="none" stroke="#10b981" stroke-width="2.5"/>
<polyline points="115,445 163,448 211,451 259,450 307,453 355,455 403,457 451,455 499,456 547,458 595,459 643,458 691,454 739,448" fill="none" stroke="#f97316" stroke-width="2.5"/>
<polyline points="115,388 163,389 211,390 259,388 307,390 355,391 403,394 451,393 499,394 547,395 595,395 643,395 691,394 739,391" fill="none" stroke="#ef4444" stroke-width="2.5"/>
<polyline points="115,438 163,437 211,437 259,435 307,434 355,434 403,433 451,432 499,432 547,431 595,430 643,429 691,427 739,425" fill="none" stroke="#6b7280" stroke-width="2.5"/>
<line x1="115" y1="446" x2="115" y2="496" stroke="#2f9e67" stroke-width="3"/>
<rect x="104" y="463" width="22" height="16" fill="#2f9e67"/>
<line x1="163" y1="450" x2="163" y2="497" stroke="#2f9e67" stroke-width="3"/>
<rect x="152" y="467" width="22" height="13" fill="#2f9e67"/>
<line x1="211" y1="431" x2="211" y2="474" stroke="#2f9e67" stroke-width="3"/>
<rect x="200" y="448" width="22" height="9" fill="#2f9e67"/>
<line x1="259" y1="275" x2="259" y2="404" stroke="#2f9e67" stroke-width="3"/>
<rect x="248" y="312" width="22" height="64" fill="#2f9e67"/>
<line x1="307" y1="430" x2="307" y2="463" stroke="#2f9e67" stroke-width="3"/>
<rect x="296" y="440" width="22" height="13" fill="#2f9e67"/>
<line x1="355" y1="424" x2="355" y2="455" stroke="#d74b42" stroke-width="3"/>
<rect x="344" y="434" width="22" height="11" fill="#d74b42"/>
<line x1="403" y1="445" x2="403" y2="473" stroke="#2f9e67" stroke-width="3"/>
<rect x="392" y="455" width="22" height="8" fill="#2f9e67"/>
<line x1="451" y1="321" x2="451" y2="354" stroke="#2f9e67" stroke-width="3"/>
<rect x="440" y="331" width="22" height="13" fill="#2f9e67"/>
<line x1="499" y1="394" x2="499" y2="430" stroke="#d74b42" stroke-width="3"/>
<rect x="488" y="404" width="22" height="16" fill="#d74b42"/>
<line x1="547" y1="414" x2="547" y2="448" stroke="#2f9e67" stroke-width="3"/>
<rect x="536" y="424" width="22" height="14" fill="#2f9e67"/>
<line x1="595" y1="369" x2="595" y2="425" stroke="#2f9e67" stroke-width="3"/>
<rect x="584" y="390" width="22" height="22" fill="#2f9e67"/>
<line x1="643" y1="333" x2="643" y2="400" stroke="#2f9e67" stroke-width="3"/>
<rect x="632" y="355" width="22" height="32" fill="#2f9e67"/>
<line x1="691" y1="220" x2="691" y2="323" stroke="#2f9e67" stroke-width="3"/>
<rect x="680" y="247" width="22" height="58" fill="#2f9e67"/>
<line x1="739" y1="209" x2="739" y2="267" stroke="#2f9e67" stroke-width="3"/>
<rect x="728" y="228" width="22" height="29" fill="#2f9e67"/>
<rect x="103" y="548" width="24" height="12" fill="#6abf88"/>
<rect x="151" y="546" width="24" height="14" fill="#6abf88"/>
<rect x="199" y="544" width="24" height="16" fill="#6abf88"/>
<rect x="247" y="502" width="24" height="58" fill="#6abf88"/>
<rect x="295" y="542" width="24" height="18" fill="#6abf88"/>
<rect x="343" y="544" width="24" height="16" fill="#d74b42"/>
<rect x="391" y="542" width="24" height="18" fill="#6abf88"/>
<rect x="439" y="546" width="24" height="14" fill="#6abf88"/>
<rect x="487" y="546" width="24" height="14" fill="#d74b42"/>
<rect x="535" y="544" width="24" height="16" fill="#6abf88"/>
<rect x="583" y="530" width="24" height="30" fill="#6abf88"/>
<rect x="631" y="542" width="24" height="18" fill="#6abf88"/>
<rect x="679" y="505" width="24" height="55" fill="#6abf88"/>
<rect x="727" y="525" width="24" height="35" fill="#6abf88"/>
<text x="90" y="578" font-size="15" font-family="PingFang SC, Arial" fill="#6b7280">量能区</text>
<circle cx="451" cy="354" r="6" fill="none" stroke="#ef4444" stroke-width="2"/>
<text x="461" y="369" font-size="13" font-family="PingFang SC, Arial" fill="#dc2626">低吸试错点</text>
<circle cx="691" cy="220" r="6" fill="#ef4444" stroke="none"/>
<text x="651" y="205" font-size="13" font-family="PingFang SC, Arial" fill="#dc2626">突破确认点</text>
<rect x="850" y="135" width="280" height="450" rx="16" fill="#ffffff" stroke="#d0c7bc"/>
<text x="875" y="178" font-size="24" font-family="PingFang SC, Arial" fill="#111827">点评</text>
<text x="875" y="220" font-size="18" font-family="PingFang SC, Arial" fill="#374151">突破大阳，但像反弹冲高</text>
<text x="875" y="262" font-size="18" font-family="PingFang SC, Arial" fill="#4b5563">• 放量突破</text>
<text x="875" y="296" font-size="18" font-family="PingFang SC, Arial" fill="#4b5563">• 回踩后启动</text>
<text x="875" y="330" font-size="18" font-family="PingFang SC, Arial" fill="#4b5563">• 风险：双头压力</text>
<text x="875" y="655" font-size="18" font-family="PingFang SC, Arial" fill="#7c746b">教学示意图：重绘，不复刻原截图</text>
</svg>
