<svg xmlns="http://www.w3.org/2000/svg" width="1200" height="720" viewBox="0 0 1200 720">
<rect width="1200" height="720" fill="#fbfaf7"/>
<rect x="70" y="135" width="750" height="450" rx="18" fill="#fffefb" stroke="#c9c2b8" stroke-width="2"/>
<text x="70" y="70" font-size="34" font-family="PingFang SC, Arial" fill="#1f2933">案例31｜疑似能控股</text>
<text x="850" y="70" font-size="34" font-family="PingFang SC, Arial" fill="#b7791f">62/100  勉强</text>
<text x="90" y="162" font-size="13" font-family="PingFang SC, Arial" fill="#4b5563" font-weight="bold">均线</text>
<line x1="125" y1="159" x2="145" y2="159" stroke="#f59e0b" stroke-width="3"/>
<text x="149" y="162" font-size="12" font-family="PingFang SC, Arial" fill="#f59e0b">MA5</text>
<line x1="183" y1="159" x2="203" y2="159" stroke="#8b5cf6" stroke-width="3" stroke-dasharray="6,4"/>
<text x="207" y="162" font-size="12" font-family="PingFang SC, Arial" fill="#8b5cf6">MA10</text>
<line x1="241" y1="159" x2="261" y2="159" stroke="#10b981" stroke-width="3"/>
<text x="265" y="162" font-size="12" font-family="PingFang SC, Arial" fill="#10b981">MA20</text>
<line x1="299" y1="159" x2="319" y2="159" stroke="#f97316" stroke-width="3"/>
<text x="323" y="162" font-size="12" font-family="PingFang SC, Arial" fill="#f97316">MA30</text>
<line x1="357" y1="159" x2="377" y2="159" stroke="#ef4444" stroke-width="3"/>
<text x="381" y="162" font-size="12" font-family="PingFang SC, Arial" fill="#ef4444">MA60</text>
<line x1="415" y1="159" x2="435" y2="159" stroke="#6b7280" stroke-width="3"/>
<text x="439" y="162" font-size="12" font-family="PingFang SC, Arial" fill="#6b7280">MA120</text>
<polyline points="115,454 163,474 211,477 259,463 307,448 355,428 403,402 451,385 499,376 547,359 595,355 643,342 691,310 739,294" fill="none" stroke="#f59e0b" stroke-width="2.5"/>
<polyline points="115,410 163,423 211,433 259,437 307,441 355,441 403,437 451,432 499,420 547,403 595,392 643,372 691,347 739,334" fill="none" stroke="#8b5cf6" stroke-width="2.5" stroke-dasharray="8,4"/>
<polyline points="115,375 163,386 211,394 259,398 307,401 355,403 403,403 451,405 499,403 547,401 595,401 643,398 691,390 739,385" fill="none" stroke="#10b981" stroke-width="2.5"/>
<polyline points="115,351 163,355 211,360 259,362 307,364 355,367 403,370 451,373 499,376 547,377 595,381 643,381 691,379 739,377" fill="none" stroke="#f97316" stroke-width="2.5"/>
<polyline points="115,399 163,398 211,397 259,396 307,393 355,392 403,389 451,386 499,384 547,380 595,377 643,375 691,370 739,367" fill="none" stroke="#ef4444" stroke-width="2.5"/>
<polyline points="115,424 163,425 211,427 259,427 307,428 355,428 403,428 451,428 499,427 547,427 595,427 643,427 691,425 739,424" fill="none" stroke="#6b7280" stroke-width="2.5"/>
<rect x="289" y="320" width="276" height="105" fill="none" stroke="#2563eb" stroke-width="3"/>
<text x="289" y="308" font-size="15" font-family="PingFang SC, Arial" fill="#1d4ed8">高位窄箱体</text>
<line x1="110" y1="359" x2="780" y2="359" stroke="#7c3aed" stroke-width="2" stroke-dasharray="8,4"/>
<text x="630" y="349" font-size="15" font-family="PingFang SC, Arial" fill="#6d28d9">前高压力线</text>
<line x1="115" y1="474" x2="115" y2="494" stroke="#e83c3c" stroke-width="3"/>
<rect x="104" y="476" width="22" height="17" fill="#e83c3c"/>
<line x1="163" y1="467" x2="163" y2="498" stroke="#20b86e" stroke-width="3"/>
<rect x="152" y="470" width="22" height="24" fill="#20b86e"/>
<line x1="211" y1="451" x2="211" y2="500" stroke="#e83c3c" stroke-width="3"/>
<rect x="200" y="461" width="22" height="33" fill="#e83c3c"/>
<line x1="259" y1="384" x2="259" y2="469" stroke="#e83c3c" stroke-width="3"/>
<rect x="248" y="394" width="22" height="69" fill="#e83c3c"/>
<line x1="307" y1="382" x2="307" y2="420" stroke="#20b86e" stroke-width="3"/>
<rect x="296" y="387" width="22" height="25" fill="#20b86e"/>
<line x1="355" y1="373" x2="355" y2="416" stroke="#e83c3c" stroke-width="3"/>
<rect x="344" y="379" width="22" height="34" fill="#e83c3c"/>
<line x1="403" y1="359" x2="403" y2="381" stroke="#e83c3c" stroke-width="3"/>
<rect x="392" y="362" width="22" height="17" fill="#e83c3c"/>
<line x1="451" y1="349" x2="451" y2="388" stroke="#20b86e" stroke-width="3"/>
<rect x="440" y="354" width="22" height="26" fill="#20b86e"/>
<line x1="499" y1="341" x2="499" y2="384" stroke="#e83c3c" stroke-width="3"/>
<rect x="488" y="346" width="22" height="35" fill="#e83c3c"/>
<line x1="547" y1="325" x2="547" y2="347" stroke="#e83c3c" stroke-width="3"/>
<rect x="536" y="328" width="22" height="18" fill="#e83c3c"/>
<line x1="595" y1="308" x2="595" y2="372" stroke="#20b86e" stroke-width="3"/>
<rect x="584" y="316" width="22" height="43" fill="#20b86e"/>
<line x1="643" y1="290" x2="643" y2="367" stroke="#e83c3c" stroke-width="3"/>
<rect x="632" y="299" width="22" height="63" fill="#e83c3c"/>
<line x1="691" y1="206" x2="691" y2="309" stroke="#e83c3c" stroke-width="3"/>
<rect x="680" y="219" width="22" height="82" fill="#e83c3c"/>
<line x1="739" y1="195" x2="739" y2="274" stroke="#20b86e" stroke-width="3"/>
<rect x="728" y="201" width="22" height="63" fill="#20b86e"/>
<rect x="103" y="550" width="24" height="10" fill="#e83c3c"/>
<rect x="151" y="545" width="24" height="15" fill="#20b86e"/>
<rect x="199" y="540" width="24" height="20" fill="#e83c3c"/>
<rect x="247" y="520" width="24" height="40" fill="#e83c3c"/>
<rect x="295" y="545" width="24" height="15" fill="#20b86e"/>
<rect x="343" y="540" width="24" height="20" fill="#e83c3c"/>
<rect x="391" y="550" width="24" height="10" fill="#e83c3c"/>
<rect x="439" y="545" width="24" height="15" fill="#20b86e"/>
<rect x="487" y="540" width="24" height="20" fill="#e83c3c"/>
<rect x="535" y="550" width="24" height="10" fill="#e83c3c"/>
<rect x="583" y="535" width="24" height="25" fill="#20b86e"/>
<rect x="631" y="525" width="24" height="35" fill="#e83c3c"/>
<rect x="679" y="515" width="24" height="45" fill="#e83c3c"/>
<rect x="727" y="525" width="24" height="35" fill="#20b86e"/>
<text x="90" y="578" font-size="15" font-family="PingFang SC, Arial" fill="#6b7280">量能区</text>
<rect x="850" y="135" width="280" height="450" rx="16" fill="#ffffff" stroke="#d0c7bc"/>
<text x="875" y="178" font-size="24" font-family="PingFang SC, Arial" fill="#111827">点评</text>
<text x="875" y="220" font-size="18" font-family="PingFang SC, Arial" fill="#374151">趋势启动但缺4天窄箱</text>
<text x="875" y="262" font-size="18" font-family="PingFang SC, Arial" fill="#4b5563">• 放量突破</text>
<text x="875" y="296" font-size="18" font-family="PingFang SC, Arial" fill="#4b5563">• 贴短均线</text>
<text x="875" y="330" font-size="18" font-family="PingFang SC, Arial" fill="#4b5563">• 风险：遮挡较多</text>
<text x="875" y="655" font-size="18" font-family="PingFang SC, Arial" fill="#7c746b">教学示意图：重绘，不复刻原截图</text>
</svg>
